<?xml version="1.0" encoding="UTF-8" standalone="no"?>
<!-- Created with Inkscape (http://www.inkscape.org/) -->
<svg
   xmlns:dc="http://purl.org/dc/elements/1.1/"
   xmlns:cc="http://web.resource.org/cc/"
   xmlns:rdf="http://www.w3.org/1999/02/22-rdf-syntax-ns#"
   xmlns:svg="http://www.w3.org/2000/svg"
   xmlns="http://www.w3.org/2000/svg"
   xmlns:sodipodi="http://inkscape.sourceforge.net/DTD/sodipodi-0.dtd"
   xmlns:inkscape="http://www.inkscape.org/namespaces/inkscape"
   width="1000"
   height="700"
   id="svg3148"
   sodipodi:version="0.32"
   inkscape:version="0.43"
   sodipodi:docbase="C:\Documents and Settings\jeppesen\workspace\svg"
   sodipodi:docname="CommonVolume1.svg"
   inkscape:export-filename="C:\Documents and Settings\jeppesen\workspace\svg\CommonVolume1.png"
   inkscape:export-xdpi="39.41"
   inkscape:export-ydpi="39.41"
   version="1.0">
  <defs
     id="defs3150" />
  <sodipodi:namedview
     id="base"
     pagecolor="#ffffff"
     bordercolor="#666666"
     borderopacity="1.0"
     inkscape:pageopacity="0.0"
     inkscape:pageshadow="2"
     inkscape:zoom="0.54395833"
     inkscape:cx="510.12704"
     inkscape:cy="391.16465"
     inkscape:document-units="px"
     inkscape:current-layer="layer1"
     inkscape:window-width="984"
     inkscape:window-height="540"
     inkscape:window-x="329"
     inkscape:window-y="527"
     showguides="true"
     inkscape:guide-bbox="true"
     inkscape:guide-points="true"
     guidetolerance="10px">
    <sodipodi:guide
       orientation="vertical"
       position="0"
       id="guide5157" />
    <sodipodi:guide
       orientation="vertical"
       position="300"
       id="guide5159" />
    <sodipodi:guide
       orientation="vertical"
       position="700"
       id="guide5161" />
    <sodipodi:guide
       orientation="vertical"
       position="1000"
       id="guide5165" />
    <sodipodi:guide
       orientation="horizontal"
       position="500"
       id="guide5167" />
    <sodipodi:guide
       orientation="horizontal"
       position="150"
       id="guide5169" />
    <sodipodi:guide
       orientation="horizontal"
       position="350"
       id="guide5173" />
    <sodipodi:guide
       orientation="horizontal"
       position="0"
       id="guide5177" />
    <sodipodi:guide
       orientation="vertical"
       position="500"
       id="guide6058" />
    <sodipodi:guide
       orientation="horizontal"
       position="600"
       id="guide6060" />
  </sodipodi:namedview>
  <metadata
     id="metadata3153">
    <rdf:RDF>
      <cc:Work
         rdf:about="">
        <dc:format>image/svg+xml</dc:format>
        <dc:type
           rdf:resource="http://purl.org/dc/dcmitype/StillImage" />
      </cc:Work>
    </rdf:RDF>
  </metadata>
  <g
     inkscape:label="Layer 1"
     inkscape:groupmode="layer"
     id="layer1">
    <g
       id="g6957"
       transform="translate(0.5,-56.93968)">
      <path
         sodipodi:nodetypes="czccccczc"
         id="path5175"
         d="M 700,700 C 729.79695,621.46362 787.87817,528.7851 850,525 C 912.03185,521.22039 1000,414.39425 1000,350 L 1000,200 L 700,550 L 0,550 L 0,700 C 2.0335004e-015,666.78932 166.91878,613.12688 350,700 C 532.30621,786.50537 700,763.09557 700,700 z "
         style="fill:#0000c7;fill-opacity:0.48148151;fill-rule:evenodd;stroke:#000000;stroke-width:1px;stroke-linecap:butt;stroke-linejoin:miter;stroke-opacity:1" />
      <path
         id="path5171"
         d="M 0,550 L 300,200 L 1000,200 L 700,550 L 0,550 z "
         style="fill:#0000c7;fill-opacity:1;fill-rule:evenodd;stroke:#000000;stroke-width:1px;stroke-linecap:butt;stroke-linejoin:miter;stroke-opacity:1" />
      <path
         sodipodi:nodetypes="cc"
         id="path4936"
         d="M 500,350 L 500,100"
         style="fill:none;fill-opacity:0.75;fill-rule:evenodd;stroke:#000000;stroke-width:5;stroke-linecap:butt;stroke-linejoin:miter;marker-end:url(#Arrow2Lend);stroke-miterlimit:4;stroke-dasharray:none;stroke-opacity:1" />
      <path
         id="text5120"
         d="M 547.71652,100 L 566.00147,122.98601 L 566.00147,107.0516 C 566.00144,104.82864 565.68257,103.3254 565.04486,102.54185 C 564.17021,101.48506 562.70341,100.97487 560.64445,101.01128 L 560.64445,100 L 572.88908,100 L 572.88908,101.01128 C 571.32202,101.21174 570.26519,101.47595 569.71859,101.8039 C 569.19014,102.11369 568.77106,102.633 568.46133,103.36181 C 568.16976,104.07247 568.02399,105.30239 568.02402,107.0516 L 568.02402,137.90915 L 567.09474,137.90915 L 542.03152,107.0516 L 542.03152,130.61157 C 542.03151,132.74346 542.51437,134.18293 543.4801,134.92999 C 544.46403,135.67706 545.58463,136.0506 546.84191,136.05059 L 547.71652,136.05059 L 547.71652,137.06187 L 534.56995,137.06187 L 534.56995,136.05059 C 536.61071,136.03237 538.03196,135.61329 538.8337,134.79333 C 539.63543,133.97338 540.03629,132.57947 540.0363,130.61157 L 540.0363,104.45508 L 539.24368,103.47113 C 538.46016,102.48723 537.76776,101.84037 537.16646,101.53058 C 536.56516,101.22086 535.69966,101.04775 534.56995,101.01128 L 534.56995,100 L 547.71652,100"
         style="font-size:55.97544861px;font-style:normal;font-weight:normal;line-height:125%;fill:#000000;fill-opacity:1;stroke:none;stroke-width:1px;stroke-linecap:butt;stroke-linejoin:miter;stroke-opacity:1;font-family:Bitstream Vera Sans" />
      <g
         transform="translate(-156.1229,-9.099497)"
         id="g6947">
        <path
           style="font-size:55.97544861px;font-style:normal;font-weight:normal;line-height:125%;fill:#000000;fill-opacity:1;stroke:none;stroke-width:1px;stroke-linecap:butt;stroke-linejoin:miter;stroke-opacity:1;font-family:Bitstream Vera Sans"
           d="M 516.32145,620.5012 L 516.32145,626.2955 C 518.016,623.6535 519.50103,621.9043 520.77652,621.0478 C 522.05199,620.1732 523.28192,619.7359 524.46631,619.7359 C 525.48668,619.7359 526.29752,620.0548 526.89884,620.6925 C 527.51834,621.3121 527.8281,622.1958 527.82812,623.3437 C 527.8281,624.5645 527.52745,625.512 526.92617,626.1862 C 526.34307,626.8604 525.63245,627.1975 524.79429,627.1975 C 523.82855,627.1975 522.99038,626.8877 522.27977,626.2682 C 521.56913,625.6487 521.15004,625.3025 521.02251,625.2296 C 520.84028,625.1203 520.63074,625.0656 520.39388,625.0656 C 519.86545,625.0656 519.36437,625.2661 518.89063,625.6669 C 518.14355,626.2864 517.57869,627.1702 517.19606,628.3181 C 516.61297,630.0856 516.32143,632.0352 516.32145,634.1671 L 516.32145,640.0434 L 516.34878,641.574 C 516.34877,642.6126 516.41254,643.2777 516.5401,643.5692 C 516.75874,644.0612 517.07761,644.4256 517.49671,644.6625 C 517.93401,644.8811 518.66285,645.0178 519.68325,645.0725 L 519.68325,646.0564 L 505.88071,646.0564 L 505.88071,645.0725 C 506.9922,644.9814 507.73927,644.6807 508.12192,644.1705 C 508.52278,643.6421 508.72321,642.2664 508.72322,640.0434 L 508.72322,625.9129 C 508.72321,624.4552 508.65033,623.5259 508.50456,623.125 C 508.32235,622.6149 508.05814,622.2413 507.71194,622.0044 C 507.36574,621.7676 506.75533,621.6036 505.88071,621.5125 L 505.88071,620.5012 L 516.32145,620.5012 M 538.5695,619.7632 C 540.73781,619.7633 542.57815,620.5286 544.09052,622.0591 C 545.60286,623.5715 546.35904,625.4118 546.35905,627.5801 C 546.35904,629.7302 545.59375,631.5706 544.06319,633.1011 C 542.55081,634.6317 540.71959,635.397 538.5695,635.397 C 536.40117,635.397 534.55173,634.6317 533.02115,633.1011 C 531.50879,631.5706 530.75262,629.7302 530.75262,627.5801 C 530.75262,625.4118 531.50879,623.5715 533.02115,622.0591 C 534.53351,620.5286 536.38295,619.7633 538.5695,619.7632 M 562.15681,608.9945 L 580.44176,631.9805 L 580.44176,616.0461 C 580.44173,613.8232 580.12286,612.3199 579.48515,611.5364 C 578.6105,610.4796 577.1437,609.9694 575.08473,610.0058 L 575.08473,608.9945 L 587.32936,608.9945 L 587.32936,610.0058 C 585.7623,610.2063 584.70548,610.4705 584.15888,610.7984 C 583.63043,611.1082 583.21134,611.6275 582.90162,612.3563 C 582.61004,613.067 582.46428,614.2969 582.46431,616.0461 L 582.46431,646.9037 L 581.53503,646.9037 L 556.4718,616.0461 L 556.4718,639.6061 C 556.4718,641.738 556.95466,643.1775 557.92039,643.9245 C 558.90432,644.6716 560.02492,645.0451 561.28219,645.0451 L 562.15681,645.0451 L 562.15681,646.0564 L 549.01023,646.0564 L 549.01023,645.0451 C 551.051,645.0269 552.47225,644.6078 553.27399,643.7879 C 554.07571,642.9679 554.47658,641.574 554.47659,639.6061 L 554.47659,613.4496 L 553.68396,612.4657 C 552.90045,611.4818 552.20805,610.8349 551.60675,610.5251 C 551.00545,610.2154 550.13994,610.0423 549.01023,610.0058 L 549.01023,608.9945 L 562.15681,608.9945 M 589.6799,626.7602 L 619.08887,614.0236 L 619.08887,616.4014 L 593.77966,627.3888 L 619.08887,638.4855 L 619.08887,640.9454 L 589.6799,628.0994 L 589.6799,626.7602 M 628.46366,610.0058 L 628.79165,608.9945 L 640.6263,608.9945 C 645.6371,608.9946 649.3451,609.5685 651.75033,610.7164 C 654.17371,611.8644 656.10515,613.6774 657.54466,616.1555 C 658.98409,618.6153 659.70383,621.2574 659.70387,624.0817 C 659.70383,626.5051 659.28474,628.8647 658.44661,631.1606 C 657.62662,633.4382 656.68823,635.2695 655.63144,636.6543 C 654.59279,638.0209 652.98933,639.5332 650.82105,641.1913 C 648.6527,642.8495 646.30217,644.0794 643.76945,644.8811 C 641.23669,645.6646 638.07532,646.0564 634.28533,646.0564 L 618.5969,646.0564 L 618.95221,645.0451 C 620.39168,645.0087 621.35741,644.8811 621.84938,644.6625 C 622.57822,644.3527 623.11575,643.9336 623.46195,643.4052 C 623.99036,642.6399 624.58255,641.1002 625.23852,638.7861 L 631.79814,616.3741 C 632.30832,614.6067 632.56342,613.2219 632.56343,612.2197 C 632.56342,611.5091 632.32654,610.9625 631.8528,610.5798 C 631.37904,610.1972 630.44976,610.0058 629.06496,610.0058 L 628.46366,610.0058 M 638.16644,611.0444 L 630.1309,638.7861 C 629.52959,640.8634 629.22895,642.148 629.22895,642.6399 C 629.22895,642.9315 629.32005,643.2139 629.50227,643.4872 C 629.7027,643.7605 629.9669,643.9427 630.29489,644.0338 C 630.76863,644.1978 631.53392,644.2798 632.59076,644.2798 C 635.45147,644.2798 638.10265,643.9883 640.5443,643.4052 C 643.00414,642.8039 645.01758,641.9202 646.58462,640.754 C 648.80758,639.0595 650.58414,636.7272 651.91432,633.7571 C 653.24443,630.7871 653.9095,627.407 653.90954,623.617 C 653.9095,619.3351 652.88912,616.1555 650.84838,614.0782 C 648.80758,611.9828 645.82842,610.9351 641.91089,610.9351 C 640.94515,610.9351 639.697,610.9716 638.16644,611.0444"
           id="text4904" />
        <g
           id="g5132"
           style="stroke:#000000;stroke-width:5;stroke-miterlimit:4;stroke-dasharray:none;stroke-opacity:1"
           transform="translate(331.3437,-158.1333)">
          <path
             id="path5128"
             d="M 127.27922,807.90527 L 166.67517,768.50932"
             style="fill:none;fill-opacity:0.75;fill-rule:evenodd;stroke:#000000;stroke-width:5;stroke-linecap:butt;stroke-linejoin:miter;stroke-miterlimit:4;stroke-dasharray:none;stroke-opacity:1" />
          <path
             style="fill:none;fill-opacity:0.75;fill-rule:evenodd;stroke:#000000;stroke-width:5;stroke-linecap:butt;stroke-linejoin:miter;stroke-miterlimit:4;stroke-dasharray:none;stroke-opacity:1"
             d="M 166.67517,807.90527 L 127.27922,768.50932"
             id="path5130" />
        </g>
      </g>
      <g
         transform="translate(110.0318,-22.49782)"
         id="g6935">
        <path
           style="font-size:55.97544861px;font-style:normal;font-weight:normal;line-height:125%;fill:#000000;fill-opacity:1;stroke:none;stroke-width:1px;stroke-linecap:butt;stroke-linejoin:miter;stroke-opacity:1;font-family:Bitstream Vera Sans"
           d="M 648.73087,135.22748 L 648.73087,141.02182 C 650.42543,138.37977 651.91045,136.63054 653.18595,135.77412 C 654.46141,134.89953 655.69134,134.46222 656.87574,134.46219 C 657.8961,134.46222 658.70694,134.78109 659.30826,135.41881 C 659.92776,136.03835 660.23752,136.92208 660.23754,138.06999 C 660.23752,139.29083 659.93687,140.23833 659.33559,140.91249 C 658.75249,141.58669 658.04187,141.92378 657.20372,141.92377 C 656.23798,141.92378 655.3998,141.61402 654.6892,140.99449 C 653.97855,140.37499 653.55947,140.02878 653.43193,139.95588 C 653.24971,139.84657 653.04016,139.79191 652.8033,139.79189 C 652.27487,139.79191 651.77379,139.99234 651.30006,140.39319 C 650.55297,141.01273 649.98812,141.89645 649.60549,143.04437 C 649.0224,144.81184 648.73086,146.7615 648.73087,148.89336 L 648.73087,154.76969 L 648.7582,156.30027 C 648.75819,157.33888 648.82196,158.00395 648.94953,158.29549 C 649.16817,158.78746 649.48704,159.15189 649.90614,159.38876 C 650.34343,159.60742 651.07228,159.74408 652.09268,159.79874 L 652.09268,160.78268 L 638.29014,160.78268 L 638.29014,159.79874 C 639.40163,159.70763 640.14869,159.40698 640.53134,158.89679 C 640.9322,158.36838 641.13264,156.99268 641.13264,154.76969 L 641.13264,140.63917 C 641.13264,139.1815 641.05975,138.25222 640.91399,137.85133 C 640.73177,137.34116 640.46756,136.96763 640.12137,136.73073 C 639.77516,136.49388 639.16475,136.32989 638.29014,136.23876 L 638.29014,135.22748 L 648.73087,135.22748 M 670.97893,134.48953 C 673.14723,134.48955 674.98757,135.25484 676.49994,136.78539 C 678.01228,138.29777 678.76846,140.13811 678.76848,142.30641 C 678.76846,144.45652 678.00317,146.29686 676.47261,147.82743 C 674.96024,149.35802 673.12901,150.1233 670.97893,150.12329 C 668.8106,150.1233 666.96115,149.35802 665.43058,147.82743 C 663.91822,146.29686 663.16204,144.45652 663.16204,142.30641 C 663.16204,140.13811 663.91822,138.29777 665.43058,136.78539 C 666.94293,135.25484 668.79238,134.48955 670.97893,134.48953 M 694.56623,123.72081 L 712.85118,146.70682 L 712.85118,130.77241 C 712.85115,128.54946 712.53228,127.04621 711.89457,126.26267 C 711.01992,125.20587 709.55312,124.69568 707.49416,124.73209 L 707.49416,123.72081 L 719.73879,123.72081 L 719.73879,124.73209 C 718.17173,124.93256 717.1149,125.19676 716.5683,125.52471 C 716.03985,125.8345 715.62077,126.35381 715.31104,127.08262 C 715.01947,127.79328 714.8737,129.02321 714.87373,130.77241 L 714.87373,161.62997 L 713.94445,161.62997 L 688.88123,130.77241 L 688.88123,154.33239 C 688.88122,156.46427 689.36408,157.90374 690.32981,158.6508 C 691.31374,159.39787 692.43435,159.77141 693.69162,159.77141 L 694.56623,159.77141 L 694.56623,160.78268 L 681.41966,160.78268 L 681.41966,159.77141 C 683.46043,159.75319 684.88168,159.3341 685.68341,158.51414 C 686.48514,157.6942 686.886,156.30028 686.88601,154.33239 L 686.88601,128.17589 L 686.09339,127.19195 C 685.30987,126.20804 684.61747,125.56119 684.01617,125.25139 C 683.41487,124.94167 682.54937,124.76857 681.41966,124.73209 L 681.41966,123.72081 L 694.56623,123.72081 M 722.19865,128.99584 L 752.04493,141.15848 L 752.04493,143.39968 L 722.19865,155.72631 L 722.19865,151.92719 L 745.29399,142.30641 L 722.19865,132.82229 L 722.19865,128.99584 M 761.20108,124.73209 L 761.52906,123.72081 L 773.36371,123.72081 C 778.37451,123.72085 782.08251,124.29482 784.48774,125.44271 C 786.91112,126.59068 788.84256,128.40369 790.28207,130.88173 C 791.72151,133.34162 792.44124,135.98369 792.44128,138.80794 C 792.44124,141.23138 792.02215,143.59102 791.18402,145.88687 C 790.36403,148.16453 789.42564,149.99576 788.36885,151.38056 C 787.33021,152.74715 785.72674,154.25951 783.55846,155.91763 C 781.39011,157.57576 779.03958,158.80569 776.50686,159.60742 C 773.9741,160.39093 770.81273,160.78268 767.02274,160.78268 L 751.33431,160.78268 L 751.68962,159.77141 C 753.1291,159.73496 754.09482,159.60742 754.58679,159.38876 C 755.31563,159.079 755.85316,158.65992 756.19936,158.1315 C 756.72777,157.36621 757.31996,155.82653 757.97593,153.51243 L 764.53555,131.10039 C 765.04573,129.33297 765.30083,127.94816 765.30084,126.94596 C 765.30083,126.23537 765.06395,125.68873 764.59021,125.30605 C 764.11645,124.92345 763.18717,124.73212 761.80237,124.73209 L 761.20108,124.73209 M 770.90385,125.77069 L 762.86831,153.51243 C 762.26701,155.58965 761.96636,156.87424 761.96637,157.36621 C 761.96636,157.65775 762.05746,157.94018 762.23968,158.2135 C 762.44011,158.48682 762.70431,158.66903 763.0323,158.76013 C 763.50604,158.92412 764.27133,159.00612 765.32817,159.00612 C 768.18888,159.00612 770.84006,158.71458 773.28171,158.1315 C 775.74155,157.5302 777.75499,156.64648 779.32203,155.48032 C 781.54499,153.78576 783.32155,151.45345 784.65173,148.48339 C 785.98184,145.51335 786.64691,142.13333 786.64695,138.3433 C 786.64691,134.06136 785.62653,130.88176 783.58579,128.80452 C 781.54499,126.70912 778.56583,125.6614 774.6483,125.66137 C 773.68256,125.6614 772.43441,125.69784 770.90385,125.77069"
           id="text4920" />
        <g
           id="g5136"
           style="stroke:#000000;stroke-width:5;stroke-miterlimit:4;stroke-dasharray:none;stroke-opacity:1"
           transform="translate(465.189,-643.5115)">
          <path
             id="path5138"
             d="M 127.27922,807.90527 L 166.67517,768.50932"
             style="fill:none;fill-opacity:0.75;fill-rule:evenodd;stroke:#000000;stroke-width:5;stroke-linecap:butt;stroke-linejoin:miter;stroke-miterlimit:4;stroke-dasharray:none;stroke-opacity:1" />
          <path
             style="fill:none;fill-opacity:0.75;fill-rule:evenodd;stroke:#000000;stroke-width:5;stroke-linecap:butt;stroke-linejoin:miter;stroke-miterlimit:4;stroke-dasharray:none;stroke-opacity:1"
             d="M 166.67517,807.90527 L 127.27922,768.50932"
             id="path5140" />
        </g>
      </g>
      <path
         id="text4928"
         d="M 648.94604,316.31349 L 648.94604,322.10782 C 650.6406,319.46577 652.12562,317.71654 653.40112,316.86012 C 654.67658,315.98553 655.90651,315.54822 657.09091,315.5482 C 658.11127,315.54822 658.92211,315.8671 659.52343,316.50481 C 660.14293,317.12435 660.45269,318.00808 660.45271,319.15599 C 660.45269,320.37683 660.15204,321.32433 659.55077,321.99849 C 658.96767,322.6727 658.25704,323.00979 657.41889,323.00977 C 656.45315,323.00979 655.61497,322.70003 654.90437,322.08049 C 654.19372,321.46099 653.77464,321.11479 653.6471,321.04188 C 653.46488,320.93258 653.25533,320.87791 653.01847,320.87789 C 652.49004,320.87791 651.98896,321.07835 651.51523,321.47919 C 650.76814,322.09873 650.20329,322.98246 649.82066,324.13037 C 649.23757,325.89784 648.94603,327.84751 648.94604,329.97937 L 648.94604,335.8557 L 648.97337,337.38628 C 648.97336,338.42489 649.03713,339.08996 649.1647,339.3815 C 649.38334,339.87347 649.70221,340.23789 650.12131,340.47477 C 650.5586,340.69342 651.28745,340.83008 652.30785,340.88474 L 652.30785,341.86869 L 638.50531,341.86869 L 638.50531,340.88474 C 639.6168,340.79364 640.36386,340.49299 640.74651,339.98279 C 641.14737,339.45438 641.34781,338.07868 641.34781,335.8557 L 641.34781,321.72518 C 641.34781,320.2675 641.27492,319.33823 641.12916,318.93734 C 640.94694,318.42717 640.68273,318.05363 640.33654,317.81673 C 639.99033,317.57988 639.37992,317.41589 638.50531,317.32476 L 638.50531,316.31349 L 648.94604,316.31349 M 671.1941,315.57553 C 673.3624,315.57556 675.20274,316.34085 676.71511,317.8714 C 678.22745,319.38378 678.98363,321.22412 678.98365,323.39241 C 678.98363,325.54253 678.21834,327.38287 676.68778,328.91343 C 675.17541,330.44402 673.34418,331.20931 671.1941,331.2093 C 669.02577,331.20931 667.17632,330.44402 665.64575,328.91343 C 664.13339,327.38287 663.37721,325.54253 663.37721,323.39241 C 663.37721,321.22412 664.13339,319.38378 665.64575,317.8714 C 667.1581,316.34085 669.00755,315.57556 671.1941,315.57553 M 694.7814,304.80682 L 713.06635,327.79283 L 713.06635,311.85841 C 713.06632,309.63546 712.74745,308.13221 712.10974,307.34867 C 711.2351,306.29188 709.76829,305.78169 707.70933,305.81809 L 707.70933,304.80682 L 719.95396,304.80682 L 719.95396,305.81809 C 718.3869,306.01856 717.33007,306.28277 716.78347,306.61071 C 716.25502,306.92051 715.83594,307.43981 715.52621,308.16862 C 715.23464,308.87928 715.08887,310.10921 715.0889,311.85841 L 715.0889,342.71597 L 714.15962,342.71597 L 689.0964,311.85841 L 689.0964,335.41839 C 689.09639,337.55027 689.57925,338.98974 690.54498,339.73681 C 691.52891,340.48388 692.64952,340.85741 693.90679,340.85741 L 694.7814,340.85741 L 694.7814,341.86869 L 681.63483,341.86869 L 681.63483,340.85741 C 683.6756,340.83919 685.09685,340.4201 685.89858,339.60015 C 686.70031,338.7802 687.10117,337.38628 687.10118,335.41839 L 687.10118,309.26189 L 686.30856,308.27795 C 685.52504,307.29404 684.83264,306.64719 684.23134,306.33739 C 683.63004,306.02767 682.76454,305.85457 681.63483,305.81809 L 681.63483,304.80682 L 694.7814,304.80682 M 722.38649,317.16077 L 752.28744,317.16077 L 752.28744,320.7139 L 722.38649,320.7139 L 722.38649,317.16077 M 722.38649,326.09826 L 752.28744,326.09826 L 752.28744,329.65139 L 722.38649,329.65139 L 722.38649,326.09826 M 761.41625,305.81809 L 761.74423,304.80682 L 773.57888,304.80682 C 778.58968,304.80685 782.29768,305.38082 784.70291,306.52872 C 787.12629,307.67669 789.05773,309.48969 790.49724,311.96774 C 791.93668,314.42762 792.65641,317.06969 792.65645,319.89395 C 792.65641,322.31738 792.23732,324.67702 791.39919,326.97288 C 790.5792,329.25053 789.64081,331.08176 788.58402,332.46656 C 787.54538,333.83316 785.94191,335.34551 783.77363,337.00363 C 781.60528,338.66176 779.25475,339.89169 776.72203,340.69342 C 774.18927,341.47693 771.0279,341.86869 767.23791,341.86869 L 751.54948,341.86869 L 751.90479,340.85741 C 753.34427,340.82097 754.30999,340.69342 754.80196,340.47477 C 755.5308,340.16501 756.06833,339.74592 756.41453,339.2175 C 756.94294,338.45222 757.53513,336.91253 758.1911,334.59844 L 764.75072,312.18639 C 765.2609,310.41897 765.516,309.03416 765.51601,308.03196 C 765.516,307.32137 765.27912,306.77474 764.80538,306.39206 C 764.33162,306.00945 763.40234,305.81813 762.01755,305.81809 L 761.41625,305.81809 M 771.11902,306.8567 L 763.08348,334.59844 C 762.48218,336.67566 762.18153,337.96025 762.18154,338.45222 C 762.18153,338.74376 762.27263,339.02619 762.45485,339.2995 C 762.65528,339.57282 762.91948,339.75503 763.24747,339.84614 C 763.72121,340.01013 764.4865,340.09212 765.54334,340.09212 C 768.40405,340.09212 771.05523,339.80058 773.49689,339.2175 C 775.95672,338.61621 777.97016,337.73248 779.5372,336.56632 C 781.76016,334.87176 783.53672,332.53945 784.8669,329.56939 C 786.19701,326.59936 786.86208,323.21933 786.86212,319.42931 C 786.86208,315.14736 785.8417,311.96777 783.80096,309.89052 C 781.76016,307.79512 778.781,306.74741 774.86347,306.74737 C 773.89773,306.74741 772.64958,306.78385 771.11902,306.8567"
         style="font-size:55.97544861px;font-style:normal;font-weight:normal;line-height:125%;fill:#ffffff;fill-opacity:1;stroke:none;stroke-width:1px;stroke-linecap:butt;stroke-linejoin:miter;stroke-opacity:1;font-family:Bitstream Vera Sans" />
      <g
         transform="translate(463.5478,-460.4053)"
         style="stroke:#ffffff;stroke-width:5;stroke-miterlimit:4;stroke-dasharray:none;stroke-opacity:1"
         id="g5142">
        <path
           style="fill:none;fill-opacity:0.75;fill-rule:evenodd;stroke:#ffffff;stroke-width:5;stroke-linecap:butt;stroke-linejoin:miter;stroke-miterlimit:4;stroke-dasharray:none;stroke-opacity:1"
           d="M 127.27922,807.90527 L 166.67517,768.50932"
           id="path5144" />
        <path
           id="path5146"
           d="M 166.67517,807.90527 L 127.27922,768.50932"
           style="fill:none;fill-opacity:0.75;fill-rule:evenodd;stroke:#ffffff;stroke-width:5;stroke-linecap:butt;stroke-linejoin:miter;stroke-miterlimit:4;stroke-dasharray:none;stroke-opacity:1" />
      </g>
      <path
         sodipodi:nodetypes="ccccc"
         id="path5163"
         d="M 475,120 L 500,100.25 L 525,120.5 L 500,60 L 475,120 z "
         style="fill:#000000;fill-opacity:1;fill-rule:evenodd;stroke:#000000;stroke-width:1px;stroke-linecap:butt;stroke-linejoin:miter;stroke-opacity:1" />
      <path
         id="path5179"
         d="M 0,550 L 0,700"
         style="fill:none;fill-opacity:0.75;fill-rule:evenodd;stroke:#000000;stroke-width:1px;stroke-linecap:butt;stroke-linejoin:miter;stroke-opacity:1" />
      <path
         id="path5181"
         d="M 700,550 L 700,700"
         style="fill:none;fill-opacity:0.75;fill-rule:evenodd;stroke:#000000;stroke-width:1px;stroke-linecap:butt;stroke-linejoin:miter;stroke-opacity:1" />
      <path
         id="path5183"
         d="M 1000,200 L 1000,350"
         style="fill:none;fill-opacity:0.75;fill-rule:evenodd;stroke:#000000;stroke-width:1px;stroke-linecap:butt;stroke-linejoin:miter;stroke-opacity:1" />
    </g>
  </g>
</svg>
