<?xml version="1.0" encoding="UTF-8" standalone="no"?>
<svg
   xmlns:dc="http://purl.org/dc/elements/1.1/"
   xmlns:cc="http://web.resource.org/cc/"
   xmlns:rdf="http://www.w3.org/1999/02/22-rdf-syntax-ns#"
   xmlns:svg="http://www.w3.org/2000/svg"
   xmlns="http://www.w3.org/2000/svg"
   xmlns:sodipodi="http://inkscape.sourceforge.net/DTD/sodipodi-0.dtd"
   xmlns:inkscape="http://www.inkscape.org/namespaces/inkscape"
   width="999.99902px"
   height="732.50000px"
   viewBox="0 0 800 540"
   id="svg2"
   sodipodi:version="0.32"
   inkscape:version="0.42.2"
   sodipodi:docname="CULeft.svg"
   sodipodi:docbase="C:\Documents and Settings\jeppesen\Desktop\Stuff\SVG">
  <metadata
     id="metadata11">
    <rdf:RDF>
      <cc:Work
         rdf:about="">
        <dc:format>image/svg+xml</dc:format>
        <dc:type
           rdf:resource="http://purl.org/dc/dcmitype/StillImage" />
      </cc:Work>
    </rdf:RDF>
  </metadata>
  <defs
     id="defs9" />
  <sodipodi:namedview
     inkscape:window-height="743"
     inkscape:window-width="946"
     inkscape:pageshadow="2"
     inkscape:pageopacity="0.0"
     borderopacity="1.0"
     bordercolor="#666666"
     pagecolor="#ffffff"
     id="base"
     inkscape:zoom="0.85500083"
     inkscape:cx="499.99951"
     inkscape:cy="454.61301"
     inkscape:window-x="270"
     inkscape:window-y="284"
     inkscape:current-layer="svg2"
     inkscape:guide-points="true"
     showguides="true"
     inkscape:guide-bbox="true"
     guidetolerance="5.0000000px">
    <sodipodi:guide
       orientation="horizontal"
       position="630"
       id="guide2913" />
  </sodipodi:namedview>
  <path
     style="fill:#c6b364;fill-opacity:1.0000000;stroke:none"
     d="M 353.03125,-22.375000 C 284.80691,-22.627988 216.41377,6.5761386 175.84375,69.687500 C 172.65125,71.990361 167.88613,75.421674 162.96875,78.968750 C 114.16321,79.666958 67.125786,99.820646 35.906250,136.50000 C 3.1024390,175.04069 -10.428262,232.10194 9.6875000,296.59375 C 10.328607,298.64170 11.276911,300.58046 12.500000,302.34375 C 44.216184,348.20129 98.447396,401.29422 122.40625,422.25000 C 125.50658,424.95963 129.32883,426.70787 133.40625,427.28125 C 133.40625,427.28125 142.39802,428.54246 146.71875,429.15625 C 147.01271,429.48231 152.97219,432.85304 159.43750,436.78125 C 162.96924,438.92708 166.66515,441.12157 170.96875,443.06250 C 175.27235,445.00343 179.63209,448.15940 190.28125,446.28125 C 191.71413,446.03012 193.11735,445.63219 194.46875,445.09375 C 203.17534,441.61323 209.89431,436.41879 215.53125,430.62500 C 216.13145,430.00810 216.67189,429.37185 217.25000,428.75000 C 240.59347,454.22652 266.60014,470.56101 289.25000,484.21875 C 292.28895,486.06144 293.16900,487.41579 297.31250,492.65625 C 301.45600,497.89671 308.73394,506.19232 320.03125,512.25000 C 335.26764,520.79183 351.96343,522.18363 370.06250,521.90625 C 373.02698,522.40248 404.28125,527.62500 404.28125,527.62500 C 410.35289,528.63826 416.56517,526.96275 421.30386,523.03383 C 426.04255,519.10492 428.83980,513.31051 428.96875,507.15625 C 430.00523,456.46899 424.55275,424.27724 406.93750,401.31250 C 406.36511,400.56629 405.71398,399.96406 405.12500,399.25000 C 420.43125,398.10128 435.79140,396.94548 438.81250,396.71875 C 487.61508,418.62731 560.06029,441.92840 628.15625,411.21875 C 628.81817,410.92906 629.46485,410.60572 630.09375,410.25000 C 640.62031,404.13785 645.87475,403.43812 647.75000,403.21875 C 648.07700,404.43833 648.70473,407.10370 648.46875,412.53125 C 648.42760,413.54261 648.45893,414.55562 648.56250,415.56250 C 650.21957,432.13315 650.34217,453.80033 655.96875,475.75000 C 661.00749,495.40649 672.29178,516.40452 693.15625,529.50000 C 700.75624,545.06892 714.30262,555.84691 729.31250,561.03125 C 738.78243,564.30011 749.24798,560.49446 754.40625,551.90625 C 754.40625,551.90625 794.28125,485.34375 794.28125,485.34375 C 795.93970,482.57554 796.94438,479.46530 797.21875,476.25000 C 797.21875,476.25000 799.59375,448.75000 799.59375,448.75000 C 800.05480,443.36941 798.44533,438.01566 795.09375,433.78125 C 789.57416,426.80551 785.31250,416.93594 785.31250,411.06250 C 785.31757,406.62376 783.92943,402.29537 781.34375,398.68750 C 781.34375,398.68750 761.18286,370.68980 760.28125,369.43750 C 755.01450,361.03421 755.71909,357.92033 755.71875,347.96875 C 755.71841,338.10261 753.79463,320.16293 741.09375,305.65625 L 741.12500,305.62500 C 740.92199,305.37438 740.61649,305.06737 740.40625,304.81250 C 740.35043,304.74483 740.27508,304.66171 740.21875,304.59375 C 735.89981,299.38324 730.20086,293.40781 723.03125,287.71875 C 719.58719,284.98591 715.87561,282.24476 711.65625,279.87500 C 713.14884,267.37940 712.83913,254.56078 711.68750,242.53125 C 710.73570,232.58899 709.65283,224.00853 707.34375,215.84375 C 710.72721,214.30784 714.23146,212.57838 717.90625,210.31250 C 726.59880,204.95267 737.50000,192.60402 737.50000,177.87500 C 737.49194,166.17681 728.01069,156.69556 716.31250,156.68750 C 716.31250,156.68750 690.98316,156.68750 676.87500,156.68750 C 664.58265,140.10760 645.33460,130.98496 626.00000,122.65625 C 606.52910,114.26883 586.45817,108.31315 569.87500,104.84375 C 527.38672,23.290303 439.06715,-22.055963 353.03125,-22.375000 z M 228.46875,410.75000 C 228.80067,410.59864 228.75829,410.98239 227.68750,411.84375 C 227.73790,411.69484 227.79449,411.55706 227.84375,411.40625 L 227.90625,411.43750 C 228.04798,411.06592 228.28328,410.83458 228.46875,410.75000 z "
     id="Ralphie Outset" />
  <path
     id="Ralphie Outline"
     d="M 716.29868,177.88286 C 716.29868,177.88286 664.88167,177.88286 664.88167,177.88286 C 653.31883,149.98641 586.76370,128.46321 555.67434,123.68028 C 491.10415,-17.416213 273.87328,-50.502146 191.36692,84.615685 C 191.36692,84.615685 169.84352,100.16021 169.84352,100.16021 C 78.966960,97.768748 -6.7320412,172.70534 29.941438,290.28176 C 59.440450,332.93356 114.03814,386.74154 136.36268,406.26786 C 136.36268,406.26786 153.10310,408.65933 153.10310,408.65933 C 161.47331,411.85194 179.80407,426.59533 186.58394,425.39959 C 196.54449,421.41780 206.11045,411.05080 208.10734,403.87640 C 211.29998,395.50627 216.81236,391.29729 220.06479,399.09347 C 243.97967,431.37826 273.07213,449.70884 300.17965,466.05452 C 313.33284,474.03005 313.72744,484.79165 330.07326,493.55637 C 340.03381,499.14045 354.78930,501.12536 371.92431,500.73077 C 371.92431,500.73077 407.79664,506.70944 407.79664,506.70944 C 409.79354,409.05392 384.27635,398.69887 330.87441,383.54894 C 330.87441,383.54894 442.47323,375.17881 442.47323,375.17881 C 489.10726,396.70200 558.46043,419.42093 619.44339,391.91907 C 656.51146,370.39587 670.86039,385.94040 669.66465,413.44226 C 673.25188,449.31425 670.86039,495.94784 709.92536,514.68498 C 713.90719,527.43149 724.66889,536.99735 736.23174,540.99110 C 736.23174,540.99110 776.08589,474.42465 776.08589,474.42465 C 776.08589,474.42465 778.47738,446.92279 778.47738,446.92279 C 770.90832,437.35692 764.12845,424.20386 764.12845,411.05080 C 764.12845,411.05080 742.60505,381.15747 742.60505,381.15747 C 725.86463,354.85134 743.80080,339.70141 724.66889,318.97935 C 717.88902,310.60922 703.14549,296.26043 691.18805,295.06469 C 691.18805,295.06469 688.79656,287.89030 688.79656,287.89030 C 694.77528,262.77990 689.59771,222.92612 682.81784,211.36338 C 680.82094,207.77618 682.01669,203.38784 685.60392,202.19211 C 701.14860,195.01771 716.29868,191.03592 716.29868,177.88286 z "
     style="fill:#000000;stroke:none" />
  <path
     id="Horn"
     d="M 174.62650,258.79811 C 174.62650,272.34577 168.25318,281.11049 157.08493,279.52017 C 145.12749,278.71902 139.55532,271.54463 138.75417,261.18958 C 136.36268,246.03964 128.38707,219.73351 108.46597,187.84331 C 150.71161,205.38472 175.42765,230.88970 174.62650,258.79811 z "
     style="fill:#ffffff;stroke:none" />
  <path
     style="fill:#c6b364;stroke:none"
     d="M 279.90669,58.999794 L 238.35866,94.999829 L 211.85161,267.00000 L 242.30366,303.00003 L 318.30373,303.00003 L 309.05709,363.00009 L 339.50914,399.00013 L 479.50927,399.00013 L 521.05730,363.00009 L 545.09858,206.99994 L 561.09859,206.99994 L 569.11235,154.99989 L 501.11229,154.99989 L 471.52302,347.00008 L 363.52291,347.00008 L 370.30378,303.00003 L 414.30383,303.00003 L 455.85185,267.00000 L 465.09850,206.99994 L 413.09845,206.99994 L 406.31757,250.99998 L 378.31754,250.99998 L 393.11218,154.99989 L 325.11212,154.99989 L 317.09836,206.99994 L 333.09837,206.99994 L 326.31749,250.99998 L 266.31743,250.99998 L 287.89294,110.99984 L 427.89308,110.99984 L 421.11221,154.99989 L 473.11226,154.99989 L 482.35890,94.999829 L 451.90686,58.999794 L 279.90669,58.999794 z "
     id="CU"
     sodipodi:nodetypes="ccccccccccccccccccccccccccccccccccc" />
</svg>
