<?xml version="1.0" encoding="UTF-8" standalone="no"?>
<svg
   xmlns:dc="http://purl.org/dc/elements/1.1/"
   xmlns:cc="http://web.resource.org/cc/"
   xmlns:rdf="http://www.w3.org/1999/02/22-rdf-syntax-ns#"
   xmlns:svg="http://www.w3.org/2000/svg"
   xmlns="http://www.w3.org/2000/svg"
   xmlns:sodipodi="http://inkscape.sourceforge.net/DTD/sodipodi-0.dtd"
   xmlns:inkscape="http://www.inkscape.org/namespaces/inkscape"
   width="999.99902px"
   height="732.50000px"
   viewBox="0 0 800 540"
   id="svg13"
   sodipodi:version="0.32"
   inkscape:version="0.42.2"
   sodipodi:docname="CURight.svg"
   sodipodi:docbase="C:\Documents and Settings\jeppesen\Desktop\Stuff\SVG">
  <metadata
     id="metadata22">
    <rdf:RDF>
      <cc:Work
         rdf:about="">
        <dc:format>image/svg+xml</dc:format>
        <dc:type
           rdf:resource="http://purl.org/dc/dcmitype/StillImage" />
      </cc:Work>
    </rdf:RDF>
  </metadata>
  <defs
     id="defs20" />
  <sodipodi:namedview
     inkscape:window-height="1174"
     inkscape:window-width="1492"
     inkscape:pageshadow="2"
     inkscape:pageopacity="0.0"
     borderopacity="1.0"
     bordercolor="#666666"
     pagecolor="#ffffff"
     id="base"
     inkscape:zoom="0.62868496"
     inkscape:cx="983.40203"
     inkscape:cy="411.54369"
     inkscape:window-x="-4"
     inkscape:window-y="-4"
     inkscape:current-layer="svg13"
     showguides="true"
     inkscape:guide-bbox="true"
     guidetolerance="10.000000px">
    <sodipodi:guide
       orientation="horizontal"
       position="630"
       id="guide2911" />
  </sodipodi:namedview>
  <path
     style="fill:#c6b364;fill-opacity:1.0000000;stroke:none"
     d="M 446.96875,-22.375000 C 360.93285,-22.055963 272.61329,23.290307 230.12500,104.84375 C 213.54183,108.31315 193.47090,114.26883 174.00000,122.65625 C 154.66540,130.98496 135.41736,140.10761 123.12500,156.68750 C 109.01684,156.68750 83.687500,156.68750 83.687500,156.68750 C 71.989309,156.69556 62.508064,166.17681 62.500000,177.87500 C 62.500000,192.60401 73.401202,204.95267 82.093750,210.31250 C 85.745871,212.56440 89.229127,214.28305 92.593750,215.81250 C 90.287113,223.95009 89.276565,232.46092 88.312500,242.53125 C 87.160874,254.56078 86.851153,267.37940 88.343750,279.87500 C 84.124382,282.24476 80.412807,284.98591 76.968750,287.71875 C 69.799133,293.40781 64.100188,299.38324 59.781250,304.59375 C 59.714111,304.66647 59.660320,304.73959 59.593750,304.81250 C 59.383511,305.06737 59.078008,305.37438 58.875000,305.62500 L 58.906250,305.65625 C 46.205368,320.16293 44.281590,338.10261 44.281250,347.96875 C 44.280907,357.92033 44.985497,361.03422 39.718750,369.43750 C 38.817143,370.68980 18.656250,398.68750 18.656250,398.68750 C 16.070572,402.29537 14.682426,406.62376 14.687500,411.06250 C 14.687500,416.93597 10.425833,426.80554 4.9062500,433.78125 C 1.5546730,438.01566 -0.054803825,443.36941 0.40625000,448.75000 C 0.40625000,448.75000 2.7812500,476.25000 2.7812500,476.25000 C 3.0556193,479.46530 4.0603038,482.57554 5.7187500,485.34375 C 5.7187500,485.34375 45.593750,551.90625 45.593750,551.90625 C 50.752016,560.49446 61.217572,564.30011 70.687500,561.03125 C 85.697396,555.84692 99.243766,545.06894 106.84375,529.50000 C 127.70822,516.40452 138.99251,495.40649 144.03125,475.75000 C 149.65782,453.80033 149.78042,432.13314 151.43750,415.56250 C 151.54107,414.55562 151.57240,413.54261 151.53125,412.53125 C 151.29527,407.10369 151.92300,404.43833 152.25000,403.21875 C 154.12525,403.43812 159.37968,404.13785 169.90625,410.25000 C 170.53515,410.60572 171.18183,410.92906 171.84375,411.21875 C 239.93971,441.92840 312.38491,418.62731 361.18750,396.71875 C 364.20860,396.94548 379.56875,398.10128 394.87500,399.25000 C 394.28602,399.96406 393.63489,400.56629 393.06250,401.31250 C 375.44725,424.27724 369.99478,456.46900 371.03125,507.15625 C 371.16020,513.31051 373.95745,519.10492 378.69614,523.03383 C 383.43483,526.96275 389.64711,528.63826 395.71875,527.62500 C 395.71875,527.62500 427.06293,522.36141 429.96875,521.87500 C 448.08504,522.13555 465.08354,520.60014 480.31250,512.06250 C 491.60981,506.00481 498.54401,497.89671 502.68750,492.65625 C 506.83099,487.41579 507.77354,486.03019 510.81250,484.18750 C 533.46045,470.53091 559.41858,454.21645 582.75000,428.75000 C 583.32811,429.37185 583.86855,430.00809 584.46875,430.62500 C 590.10569,436.41879 596.82463,441.61323 605.53125,445.09375 C 606.88265,445.63219 608.28587,446.03012 609.71875,446.28125 C 620.36791,448.15940 624.72765,445.00344 629.03125,443.06250 C 633.33485,441.12156 637.03076,438.92708 640.56250,436.78125 C 647.02780,432.85304 652.98729,429.48231 653.28125,429.15625 C 657.60198,428.54246 666.59375,427.28125 666.59375,427.28125 C 670.67117,426.70787 674.49342,424.95963 677.59375,422.25000 C 701.55263,401.29421 755.78383,348.20129 787.50000,302.34375 C 788.72309,300.58046 789.67139,298.64170 790.31250,296.59375 C 810.42826,232.10193 796.89756,175.04069 764.09375,136.50000 C 732.87421,99.820648 685.83678,79.666958 637.03125,78.968750 C 632.11388,75.421675 627.34875,71.990360 624.15625,69.687500 C 583.58623,6.5761396 515.19309,-22.627988 446.96875,-22.375000 z M 571.53125,410.75000 C 571.85060,410.98319 572.20573,411.30464 572.15625,411.40625 C 572.20551,411.55706 572.26210,411.69484 572.31250,411.84375 C 571.24171,410.98239 571.19933,410.59864 571.53125,410.75000 z "
     id="path1314" />
  <path
     style="fill:#000000;stroke:none"
     d="M 447.06250,-1.1875000 C 365.28457,-0.88425275 280.63323,44.320722 244.31250,123.68750 C 213.22314,128.47043 146.68785,149.97855 135.12500,177.87500 C 135.12500,177.87500 83.687497,177.87500 83.687500,177.87500 C 83.687500,191.02806 98.861572,195.01310 114.40625,202.18750 C 117.99348,203.38323 119.18440,207.78779 117.18750,211.37500 C 110.40763,222.93774 105.24003,262.76461 111.21875,287.87500 C 111.21875,287.87500 108.81250,295.06250 108.81250,295.06250 C 96.855060,296.25822 82.123624,310.59861 75.343750,318.96875 C 56.211840,339.69080 74.146671,354.85013 57.406250,381.15625 C 57.406250,381.15625 35.875000,411.06249 35.875000,411.06250 C 35.875000,424.21556 29.100312,437.37163 21.531250,446.93750 C 21.531250,446.93750 23.906250,474.43750 23.906250,474.43750 C 23.906250,474.43750 63.781251,541.00001 63.781250,541.00000 C 75.344100,537.00626 86.080673,527.43399 90.062500,514.68750 C 129.12747,495.95036 126.75651,449.30950 130.34375,413.43750 C 129.14801,385.93564 143.49443,370.38305 180.56250,391.90625 C 241.54546,419.40811 310.89721,396.71070 357.53125,375.18750 C 357.53125,375.18750 469.12500,383.56249 469.12500,383.56250 C 415.72306,398.71243 390.22186,409.06324 392.21875,506.71875 C 392.21875,506.71875 428.06249,500.71875 428.06250,500.71875 C 445.19751,501.11335 459.97695,499.14657 469.93750,493.56250 C 486.28332,484.79777 486.65930,474.03802 499.81250,466.06250 C 526.92002,449.71682 556.02264,431.37853 579.93750,399.09375 C 583.18992,391.29756 588.71362,395.50487 591.90625,403.87500 C 593.90314,411.04940 603.44567,421.42445 613.40625,425.40625 C 620.18612,426.60199 638.53601,411.84886 646.90625,408.65625 C 646.90625,408.65625 663.62498,406.28126 663.62500,406.28125 C 685.94955,386.75494 740.56350,332.93304 770.06250,290.28125 C 806.73598,172.70482 721.03279,97.764789 630.15625,100.15625 C 630.15625,100.15625 608.62501,84.625000 608.62500,84.625000 C 572.52847,25.510950 510.66756,-1.4233590 447.06250,-1.1875000 z "
     id="path1309" />
  <path
     id="Horn"
     d="M 625.37428,258.79811 C 625.37428,272.34577 631.74760,281.11049 642.91585,279.52016 C 654.87329,278.71903 660.44546,271.54463 661.24661,261.18958 C 663.63810,246.03964 671.61371,219.73352 691.53481,187.84332 C 649.28917,205.38472 624.57313,230.88970 625.37428,258.79811 z "
     style="fill:#ffffff;stroke:none" />
  <path
     style="fill:#c6b364;stroke:none"
     d="M 287.85494,58.999794 L 246.30691,94.999834 L 219.79986,267.00000 L 250.25191,303.00003 L 326.25198,303.00003 L 317.00534,363.00009 L 347.45739,399.00013 L 487.45752,399.00013 L 529.00555,363.00009 L 553.04683,206.99994 L 569.04684,206.99994 L 577.06060,154.99989 L 509.06054,154.99989 L 479.47127,347.00008 L 371.47116,347.00008 L 378.25203,303.00003 L 422.25208,303.00003 L 463.80010,267.00000 L 473.04675,206.99994 L 421.04670,206.99994 L 414.26582,250.99998 L 386.26579,250.99998 L 401.06043,154.99989 L 333.06037,154.99989 L 325.04661,206.99994 L 341.04662,206.99994 L 334.26574,250.99998 L 274.26568,250.99998 L 295.84119,110.99984 L 435.84133,110.99984 L 429.06046,154.99989 L 481.06051,154.99989 L 490.30715,94.999834 L 459.85511,58.999794 L 287.85494,58.999794 z "
     id="path1344"
     sodipodi:nodetypes="ccccccccccccccccccccccccccccccccccc" />
</svg>
