<?xml version="1.0" encoding="UTF-8" standalone="no"?>
<!-- Created with Inkscape (http://www.inkscape.org/) -->
<svg
   xmlns:dc="http://purl.org/dc/elements/1.1/"
   xmlns:cc="http://web.resource.org/cc/"
   xmlns:rdf="http://www.w3.org/1999/02/22-rdf-syntax-ns#"
   xmlns:svg="http://www.w3.org/2000/svg"
   xmlns="http://www.w3.org/2000/svg"
   xmlns:xlink="http://www.w3.org/1999/xlink"
   xmlns:sodipodi="http://inkscape.sourceforge.net/DTD/sodipodi-0.dtd"
   xmlns:inkscape="http://www.inkscape.org/namespaces/inkscape"
   id="svg2"
   sodipodi:version="0.32"
   inkscape:version="0.32"
   width="1000.0000"
   height="1000.0000"
   sodipodi:docbase="/usr/codebase/pov/Pegasus"
   sodipodi:docname="GatsLogo.svg"
   version="1.0"
   x="0.0000000"
   y="0.0000000"
   inkscape:export-filename="/usr/codebase/pov/Pegasus/GatsLogo.png"
   inkscape:export-xdpi="89.730804"
   inkscape:export-ydpi="89.730804">
  <metadata
     id="metadata7">
    <rdf:RDF>
      <cc:Work
         rdf:about="">
        <dc:format>image/svg+xml</dc:format>
        <dc:type
           rdf:resource="http://purl.org/dc/dcmitype/StillImage" />
      </cc:Work>
    </rdf:RDF>
  </metadata>
  <defs
     id="defs5">
    <linearGradient
       id="linearGradient2038">
      <stop
         style="stop-color:#ffffff;stop-opacity:1.0000000;"
         offset="0.0000000"
         id="stop2040" />
      <stop
         id="stop2046"
         offset="0.89743590"
         style="stop-color:#ffffff;stop-opacity:1.0000000;" />
      <stop
         style="stop-color:#7f7f7f;stop-opacity:1.0000000;"
         offset="0.98685074"
         id="stop2048" />
      <stop
         style="stop-color:#000000;stop-opacity:1.0000000;"
         offset="1.0000000"
         id="stop2042" />
    </linearGradient>
    <radialGradient
       inkscape:collect="always"
       xlink:href="#linearGradient2038"
       id="radialGradient2044"
       cx="470.48712"
       cy="482.07837"
       fx="470.48712"
       fy="482.07837"
       r="502.35675"
       gradientUnits="userSpaceOnUse"
       gradientTransform="matrix(1.004306,0.340178,-0.320816,0.947142,151.5543,-133.6450)" />
  </defs>
  <sodipodi:namedview
     inkscape:window-height="743"
     inkscape:window-width="946"
     inkscape:pageshadow="2"
     inkscape:pageopacity="0.0"
     borderopacity="1.0"
     bordercolor="#666666"
     pagecolor="#ffffff"
     id="base"
     inkscape:zoom="0.32688366"
     inkscape:cx="641.99232"
     inkscape:cy="814.35058"
     inkscape:window-x="0"
     inkscape:window-y="0"
     inkscape:current-layer="layer3" />
  <g
     inkscape:groupmode="layer"
     id="layer2"
     inkscape:label="White Circle"
     style="display:inline">
    <path
       sodipodi:type="arc"
       style="fill:url(#radialGradient2044);fill-opacity:1.0000000;fill-rule:evenodd;stroke:#000000;stroke-width:3.0000000;stroke-linecap:butt;stroke-linejoin:miter;stroke-miterlimit:4.0000000;stroke-dasharray:none;stroke-opacity:1.0000000"
       id="path1307"
       sodipodi:cx="500.00000"
       sodipodi:cy="500.00000"
       sodipodi:rx="500.00000"
       sodipodi:ry="500.00000"
       d="M 1000.0000 500.00000 A 500.00000 500.00000 0 1 1  0.0000000,500.00000 A 500.00000 500.00000 0 1 1  1000.0000 500.00000 z" />
  </g>
  <g
     inkscape:groupmode="layer"
     id="layer4"
     inkscape:label="Black Swirl"
     style="display:inline">
    <path
       style="fill:#000000;fill-opacity:1.0000000;fill-rule:evenodd;stroke:none;stroke-width:1.0000000px;stroke-linecap:butt;stroke-linejoin:miter;stroke-opacity:1.0000000;display:inline"
       d="M 500.00000,0.0000000 C 224.00000,0.0000000 -6.8304737e-17,224.00000 0.0000000,500.00000 C 2.0730186e-14,650.98136 67.125008,786.29625 173.03125,878.00000 C 187.69610,870.10170 206.99605,867.09595 226.06250,868.00000 C 301.26695,871.56600 297.22586,926.74296 481.31250,924.21875 C 708.42420,921.02955 848.18307,781.06448 842.56250,614.90625 C 835.79828,420.14568 665.17372,351.67606 552.68750,353.15625 C 491.05350,353.96728 442.38864,393.68000 444.53125,431.03125 C 449.41417,516.15362 544.03126,492.12462 544.03125,543.50000 C 544.03125,575.85230 514.63981,586.32648 461.84375,586.78125 C 329.39371,587.92205 224.51081,481.07896 223.90625,359.65625 C 223.34269,244.44823 313.01722,92.038991 580.81250,89.250000 C 722.49373,87.762430 705.74267,126.63765 760.37500,128.18750 C 777.17831,128.66420 788.88303,116.28579 800.59375,100.53125 C 716.90500,37.437872 612.80455,-4.5404079e-14 500.00000,0.0000000 z "
       id="path10169" />
  </g>
  <g
     inkscape:groupmode="layer"
     id="layer3"
     inkscape:label="Red Swirl"
     style="display:inline">
    <path
       style="fill:#990000;fill-opacity:1.0000000;fill-rule:evenodd;stroke:#660000;stroke-width:3.0000000;stroke-linecap:butt;stroke-linejoin:miter;stroke-miterlimit:4.0000000;stroke-dasharray:none;stroke-opacity:1.0000000;display:inline"
       d="M 500.00000,0.0000000 C 224.00000,0.0000000 -6.8304737e-17,224.00000 0.0000000,500.00000 C 2.1282323e-14,655.00267 70.636270,793.60880 181.46875,885.34375 C 193.42999,874.73140 206.78679,862.95888 222.81250,863.71875 C 298.01695,867.28470 283.16338,907.33674 467.25000,904.81250 C 694.36170,901.62336 788.84573,761.72534 785.21875,636.59375 C 780.89240,485.17145 664.06645,406.24264 553.78125,411.62500 C 507.32512,413.89224 466.70228,419.71646 469.40625,457.03125 C 472.12599,494.56370 573.24998,509.49955 573.25000,560.87500 C 573.25000,593.22729 532.97680,642.78139 443.43750,645.25000 C 291.48086,649.37981 166.36497,533.05001 164.40625,385.65625 C 162.24307,222.87728 270.82973,66.132738 538.62500,63.343750 C 680.30623,61.856176 723.13666,125.56498 765.75000,123.90625 C 776.50771,123.48750 790.85478,115.04129 799.28125,99.531250 C 715.81872,37.037390 612.21254,-4.5165794e-14 500.00000,0.0000000 z "
       id="path8712" />
  </g>
</svg>
