<?xml version="1.0" encoding="UTF-8" standalone="no"?>
<!-- Created with Inkscape (http://www.inkscape.org/) -->
<svg
   xmlns:dc="http://purl.org/dc/elements/1.1/"
   xmlns:cc="http://web.resource.org/cc/"
   xmlns:rdf="http://www.w3.org/1999/02/22-rdf-syntax-ns#"
   xmlns:svg="http://www.w3.org/2000/svg"
   xmlns="http://www.w3.org/2000/svg"
   xmlns:sodipodi="http://inkscape.sourceforge.net/DTD/sodipodi-0.dtd"
   xmlns:inkscape="http://www.inkscape.org/namespaces/inkscape"
   width="1000.0000px"
   height="1000.0000px"
   id="svg9950"
   sodipodi:version="0.32"
   inkscape:version="0.42.2"
   sodipodi:docbase="/custom/usr/codebase/pov/Pegasus"
   sodipodi:docname="Hampton.svg">
  <defs
     id="defs9952" />
  <sodipodi:namedview
     id="base"
     pagecolor="#ffffff"
     bordercolor="#666666"
     borderopacity="1.0"
     inkscape:pageopacity="0.0"
     inkscape:pageshadow="2"
     inkscape:zoom="0.60552614"
     inkscape:cx="518.39484"
     inkscape:cy="461.03695"
     inkscape:document-units="px"
     inkscape:current-layer="layer1"
     showguides="true"
     inkscape:guide-bbox="false"
     inkscape:guide-points="false"
     guidetolerance="5.0000000px"
     inkscape:window-width="1012"
     inkscape:window-height="743"
     inkscape:window-x="0"
     inkscape:window-y="0">
    <sodipodi:guide
       orientation="vertical"
       position="500.00000"
       id="guide11710" />
    <sodipodi:guide
       orientation="horizontal"
       position="500"
       id="guide11712" />
  </sodipodi:namedview>
  <metadata
     id="metadata9955">
    <rdf:RDF>
      <cc:Work
         rdf:about="">
        <dc:format>image/svg+xml</dc:format>
        <dc:type
           rdf:resource="http://purl.org/dc/dcmitype/StillImage" />
      </cc:Work>
    </rdf:RDF>
  </metadata>
  <g
     inkscape:groupmode="layer"
     id="layer2"
     inkscape:label="Circles"
     style="display:inline" />
  <g
     inkscape:label="Layer 1"
     inkscape:groupmode="layer"
     id="layer1"
     style="display:inline">
    <path
       id="path10943"
       style="fill:#003399;fill-opacity:1.0000000;fill-rule:evenodd;stroke:none;stroke-opacity:1.0000000"
       d="M 344.02567,791.82129 C 338.70562,789.66447 329.45597,785.30513 323.47092,782.13387 C 317.48585,778.96261 309.52229,775.03892 305.77411,773.41457 C 298.41798,770.22664 290.03144,764.35754 274.91514,751.81872 C 264.19941,742.93014 263.81051,739.05404 274.36299,746.31544 C 278.09711,748.88495 296.79921,758.59739 315.92321,767.89862 C 350.38985,784.66196 356.48154,785.92856 354.49887,775.91943 C 353.74574,772.11741 323.30079,752.80642 304.12526,743.96786 C 300.80023,742.43525 292.63877,737.89803 285.98870,733.88512 C 279.33864,729.87222 272.20653,725.97251 270.13957,725.21911 C 262.85663,722.56457 231.57906,701.93367 231.57906,699.78438 C 231.57906,698.58717 234.75989,696.00843 238.64760,694.05388 C 245.30814,690.70525 245.67416,689.76576 244.98891,677.77705 C 244.58891,670.77937 243.37939,663.66612 242.30109,661.96983 C 241.22277,660.27354 240.12666,651.80981 239.86531,643.16153 L 239.39011,627.43739 L 256.64389,621.00797 C 266.13347,617.47175 282.33139,611.57167 292.63924,607.89663 C 302.94711,604.22161 314.91723,599.38707 319.23951,597.15322 L 327.09822,593.09167 L 319.84360,591.72939 C 313.18203,590.47847 312.64584,589.66111 313.28458,581.73075 C 313.87989,574.33957 313.00823,572.59853 307.23906,569.65544 C 291.49221,561.62230 270.27036,531.09292 270.27036,516.47292 C 270.27036,509.02256 263.06629,507.28675 238.14459,508.73231 C 218.57977,509.86713 214.53037,510.77385 213.38712,514.27586 C 212.18034,517.97246 213.20922,545.61369 218.39086,648.70292 C 219.35195,667.82409 218.97173,676.32757 217.15564,676.32757 C 210.94262,676.32757 210.05262,666.84343 206.01410,557.60034 C 204.49690,516.55935 204.00112,513.24752 199.58869,514.67749 C 197.34556,515.40443 196.77364,527.09607 197.25023,562.48145 C 197.59724,588.24435 198.53052,616.46436 199.32421,625.19258 C 200.23565,635.21569 199.86938,641.06206 198.32999,641.06206 C 192.79763,641.06206 190.67360,625.30861 189.13730,572.88207 C 188.22168,541.63614 186.45484,516.35598 185.07051,514.69396 C 183.72423,513.07763 179.62463,511.75517 175.96030,511.75517 C 167.44168,511.75517 162.88926,506.46728 164.85441,498.85502 C 166.27608,493.34801 167.48465,492.91159 182.65644,492.42671 C 191.60870,492.14061 205.56361,492.19290 213.66738,492.54292 C 231.41322,493.30938 289.83646,486.61989 293.09903,483.44795 C 294.58113,482.00702 294.50131,480.29883 292.87808,478.72070 C 291.10889,477.00066 281.22376,476.97822 260.35320,478.64685 C 243.86241,479.96533 215.95140,481.75546 198.32871,482.62492 C 170.17792,484.01381 166.28747,483.75908 166.28747,480.52702 C 166.28747,477.91025 169.91968,476.28620 178.87001,474.90111 C 190.97212,473.02825 191.61132,472.55013 195.61069,462.37885 C 197.89766,456.56258 203.59657,442.87234 208.27491,431.95608 C 212.95326,421.03986 216.23767,411.25368 215.57358,410.20901 C 214.90951,409.16438 208.37693,408.30966 201.05675,408.30966 C 189.72802,408.30966 187.85094,408.92195 188.44353,412.42398 C 188.82643,414.68685 188.24126,417.93195 187.14312,419.63532 C 185.79930,421.71978 186.65881,423.11686 189.77199,423.90835 C 193.48276,424.85178 194.30287,426.98066 193.91913,434.67360 C 193.61958,440.67873 191.98167,445.05675 189.53696,446.38687 C 187.38985,447.55508 185.63313,450.02512 185.63313,451.87583 C 185.63313,455.53092 175.30846,459.02023 171.41520,456.68090 C 170.09423,455.88717 169.01045,453.40715 169.00682,451.16975 C 169.00318,448.93234 168.90168,441.28292 168.78126,434.17105 C 168.66085,427.05916 170.76266,414.36358 173.45195,405.95863 C 176.14124,397.55368 178.36051,389.08996 178.38366,387.15036 C 178.40681,385.21076 181.11575,378.00610 184.40352,371.14005 C 189.24191,361.03568 191.12543,359.06116 194.28555,360.78052 C 197.96701,362.78356 229.08009,362.25659 240.41439,359.99928 C 245.41928,359.00251 245.49497,358.55028 242.35502,348.40685 C 237.34559,332.22411 242.21991,317.07263 257.18876,302.29741 C 268.33863,291.29177 268.89414,290.12374 269.10687,277.23739 C 269.40687,259.06448 277.83882,245.90228 293.49371,239.16972 C 307.10720,233.31511 314.04020,233.10857 325.13490,238.22712 C 336.80529,243.61125 345.69991,257.42623 346.45425,271.33998 C 346.78789,277.49412 347.19410,283.32281 347.35692,284.29261 C 348.06311,288.49863 360.79758,285.63726 366.09231,280.08282 C 371.43058,274.48275 373.03338,274.15243 391.76078,274.79300 C 410.20737,275.42397 411.79303,275.86953 412.48817,280.61747 C 413.67321,288.71166 403.33103,293.66059 382.51702,294.95925 C 372.59023,295.57861 363.95670,296.89020 363.33140,297.87388 C 362.70607,298.85752 364.85837,305.32912 368.11430,312.25515 C 373.23146,323.14054 373.69598,326.12304 371.54019,334.25209 C 366.42868,353.52680 366.15335,353.16303 385.13518,352.21434 C 394.44528,351.74904 403.83882,350.45604 406.00972,349.34100 C 408.18062,348.22598 416.34207,338.66449 424.14628,328.09325 C 446.88262,297.29559 447.46845,296.73548 453.60473,299.92828 C 461.84991,304.21840 460.00162,312.14005 446.79945,329.09531 C 440.14939,337.63581 434.70842,345.75452 434.70842,347.13686 C 434.70842,350.56213 445.35174,354.23588 455.27522,354.23588 C 459.86691,354.23588 473.28276,349.74037 485.94993,343.95708 C 498.33252,338.30376 511.95371,332.93983 516.21925,332.03725 C 520.48479,331.13466 528.12149,328.44837 533.18971,326.06769 C 549.66870,318.32707 573.43095,311.50275 579.71062,312.70726 C 583.08528,313.35457 590.54085,315.04912 596.27860,316.47293 C 608.60381,319.53146 612.25634,318.14165 608.25678,311.91519 C 602.32908,302.68710 609.32925,304.34923 620.36150,314.78935 C 626.64842,320.73884 637.23323,327.87698 643.88330,330.65188 C 650.53337,333.42678 659.78301,337.59820 664.43805,339.92169 C 677.39805,346.39047 684.87444,347.45007 692.54338,343.90496 C 726.26495,328.31655 735.25214,323.63120 748.20328,314.88744 C 762.93800,304.93951 768.42094,302.82217 768.42094,307.08000 C 768.42094,308.29874 773.04577,309.62119 778.69832,310.01880 C 788.27804,310.69268 789.42329,311.53971 795.56928,322.49691 C 803.98406,337.49896 803.94140,340.12967 795.28337,340.12967 C 789.66373,340.12967 787.96989,338.86032 786.65589,333.66433 C 785.75661,330.10838 783.47361,324.87261 781.58251,322.02927 L 778.14416,316.85956 L 765.42338,321.62978 C 758.42695,324.25342 749.43802,327.83804 745.44798,329.59560 C 741.45794,331.35317 732.91853,335.04469 726.47152,337.79895 C 720.02447,340.55323 715.30590,343.34751 715.98573,344.00847 C 717.60860,345.58623 793.97368,345.07498 798.30969,343.45730 C 802.23930,341.99127 810.20125,348.92762 808.20086,352.07439 C 807.44514,353.26321 791.24826,354.23588 772.20781,354.23588 C 734.14463,354.23588 722.47502,355.63180 722.47502,360.18492 C 722.47502,361.84053 726.30458,367.79159 730.98519,373.40948 C 756.27518,403.76380 753.60522,401.52552 762.57287,399.88991 C 773.93336,397.81787 773.04146,401.28591 759.42211,412.14077 L 748.00509,421.24035 L 713.88394,422.04013 L 679.76278,422.83988 L 669.68222,411.13418 C 657.95013,397.51073 657.37148,395.50057 665.77191,397.55037 C 669.92030,398.56263 673.71183,397.68315 677.34272,394.86645 C 686.38693,387.85026 710.38398,361.50760 710.38398,358.59554 C 710.38398,355.31888 539.00320,357.57632 484.28166,361.57376 C 454.50053,363.74932 449.69932,364.68860 444.38125,369.37971 C 438.76730,374.33184 434.90893,374.89359 390.33372,377.24874 C 363.93261,378.64366 341.76228,380.33857 341.06630,381.01521 C 340.37030,381.69187 340.50752,384.03585 341.37120,386.22405 C 342.75858,389.73906 345.68117,390.01935 366.45656,388.62975 C 442.33031,383.55483 443.48342,383.57121 445.18380,389.74895 C 446.03607,392.84548 446.73503,401.72677 446.73701,409.48518 L 446.74062,423.59139 L 420.16975,453.60996 C 405.55581,470.12017 393.59891,485.13376 393.59891,486.97344 C 393.59891,493.44908 399.03022,493.47428 404.32109,487.02318 C 409.29689,480.95630 409.91242,480.78267 413.12147,484.54094 C 423.20189,496.34657 425.32068,497.64897 434.44585,497.64897 C 443.15239,497.64897 444.14281,496.95233 447.68995,488.33337 C 453.15554,475.05302 462.26524,471.00938 482.07231,473.07161 L 497.58180,474.68640 L 497.58180,468.45942 C 497.58180,459.46996 503.63913,446.71461 509.30912,443.76441 C 517.92619,439.28083 538.83277,441.29583 548.08433,447.50165 C 550.49411,449.11810 550.67997,465.69401 548.30433,467.12144 C 546.83036,468.00711 545.31166,470.74178 544.92943,473.19847 C 544.46887,476.15882 542.60791,477.43748 539.41128,476.99001 C 535.18827,476.39886 534.63179,477.57407 534.93951,486.43390 C 535.48262,502.07162 536.92041,502.87913 552.15068,496.10015 L 565.51650,490.15105 L 578.34066,496.25105 C 585.39394,499.60604 591.87249,502.35103 592.73743,502.35103 C 593.60238,502.35103 594.31006,498.54911 594.31006,493.90231 C 594.31006,487.61360 593.14893,485.15840 589.76843,484.29893 C 587.27052,483.66384 584.00594,480.53922 582.51381,477.35528 C 579.16998,470.22027 578.95276,457.68138 582.17296,457.68138 C 583.47764,457.68138 585.23509,455.00857 586.07843,451.74178 C 586.92177,448.47499 589.59143,444.77211 592.01105,443.51316 C 603.74464,437.40797 630.53378,444.39339 630.56788,453.56708 C 630.58495,458.16412 626.91517,459.07042 624.38709,455.09350 C 623.47232,453.65451 619.76379,453.08472 616.03364,453.81001 C 610.76175,454.83510 609.06068,454.13066 608.08958,450.52032 C 606.46903,444.49540 600.33195,444.66141 595.87287,450.85078 C 592.69661,455.25954 592.82874,456.60539 597.13436,463.70016 C 599.86403,468.19808 601.31529,473.54986 600.49049,476.07642 C 597.67059,484.71430 606.11432,487.57911 619.08725,482.38595 C 622.72479,480.92982 623.10370,481.69697 621.82265,487.92427 C 621.00479,491.89999 621.08988,497.03692 622.01173,499.33969 C 623.58482,503.26917 623.93696,503.23745 627.74005,498.82352 C 639.97446,484.62415 657.11534,482.20695 676.80054,491.90510 C 686.66996,496.76740 689.68643,497.36433 692.58187,495.02809 C 695.15769,492.94972 715.85428,491.83385 766.38663,491.04884 C 834.20468,489.99531 836.58206,490.10989 835.74657,494.39121 C 835.10422,497.68275 832.40355,499.02096 825.26007,499.58740 C 819.96833,500.00699 814.72561,501.59394 813.60960,503.11394 C 812.07240,505.20757 811.28310,505.16510 810.35395,502.93880 C 808.39968,498.25633 780.75556,498.99827 778.86667,503.78390 C 777.49399,507.26173 777.19700,507.26173 775.19511,503.78390 C 772.61186,499.29610 765.74510,498.83986 761.58961,502.87993 C 759.25215,505.15246 757.62704,505.15246 753.88416,502.87993 C 748.90686,499.85788 712.73365,499.31473 699.50205,502.06334 C 693.22569,503.36713 692.07296,504.83550 690.95354,512.95258 C 689.48016,523.63650 687.14236,528.21242 683.15735,528.21242 C 681.16994,528.21242 681.20985,527.42334 683.30007,525.39117 C 686.79914,521.98929 687.09859,510.72391 683.84694,504.81692 C 680.88055,499.42813 663.70735,490.59586 656.19596,490.59586 C 647.81170,490.59586 643.42715,496.60694 648.01814,501.80739 C 655.46668,510.24466 655.39713,511.76049 647.63081,510.25037 C 640.69402,508.90156 640.25599,509.24408 640.25599,516.01725 C 640.25599,521.27514 639.11411,523.24129 636.02412,523.30402 C 633.69660,523.35128 629.07178,523.68152 625.74674,524.03789 C 620.49353,524.60094 619.70123,523.76151 619.70123,517.63276 C 619.70123,510.71896 619.44961,510.57491 606.96204,510.33927 C 595.11624,510.11572 594.12734,510.52791 592.86080,516.21684 C 590.40838,527.23236 586.51761,535.27692 579.47574,543.89184 C 570.98786,554.27577 570.85571,558.04885 578.59171,569.13184 C 585.63578,579.22351 585.80300,579.93516 581.13008,579.93516 C 579.20115,579.93516 576.75272,581.38272 575.68912,583.15197 C 574.62552,584.92120 567.49428,587.11375 559.84191,588.02425 C 548.36624,589.38971 545.67286,589.03207 544.46939,585.98300 C 542.84711,581.87281 534.97285,580.97658 532.64579,584.63723 C 531.82379,585.93030 530.07190,586.98827 528.75270,586.98827 C 527.43349,586.98827 529.29416,583.24079 532.88749,578.66053 C 542.44211,566.48175 543.39547,551.25018 535.54578,536.18987 L 529.45183,524.49804 L 510.95755,521.47680 C 498.84216,519.49758 492.81239,517.50275 493.47546,515.69311 C 494.03213,514.17378 496.81609,513.18270 499.66200,513.49073 C 502.88918,513.84003 504.83641,512.73407 504.83641,510.55194 C 504.83641,508.62757 503.74822,507.05310 502.41820,507.05310 C 498.17868,507.05310 499.82260,500.25774 504.67266,497.73420 C 507.24260,496.39700 510.03641,493.18589 510.88111,490.59835 C 511.81526,487.73689 514.53981,485.89380 517.83563,485.89380 C 521.32687,485.89380 525.78478,482.60038 530.36825,476.63491 C 534.28093,471.54252 539.38654,466.88072 541.71407,466.27536 C 554.55655,462.93515 537.74325,445.16003 522.97297,446.46218 C 516.58706,447.02513 515.80443,447.89297 516.43737,453.70936 C 517.07810,459.59755 516.64498,460.05088 512.45943,457.87306 C 508.87458,456.00780 507.00826,456.31269 504.57706,459.16072 C 501.89660,462.30077 502.07966,463.38137 505.73192,465.97780 C 509.85953,468.91213 509.82544,469.19172 505.03610,471.68370 C 501.42103,473.56467 500.00000,476.60258 500.00000,482.44995 C 500.00000,492.18253 498.73288,492.49003 491.19833,484.58594 C 485.50894,478.61751 480.65435,478.61613 480.65435,484.58295 C 480.65435,486.29549 477.79927,488.22729 474.30970,488.87585 C 469.51562,489.76682 467.67373,488.97196 466.77304,485.62336 C 466.11744,483.18597 464.04151,481.19173 462.15985,481.19173 C 457.55897,481.19173 455.15613,487.90565 458.56940,491.22411 C 462.51199,495.05718 461.94538,497.17566 457.07799,496.79998 C 448.85856,496.16558 450.57341,506.64830 460.07294,515.10784 C 468.00266,522.16941 469.74598,522.75582 477.65420,521.02180 C 488.30122,518.68720 491.12647,520.01643 487.91550,525.84950 C 484.43069,532.18009 484.92775,543.51067 489.11807,553.26090 C 493.85203,564.27615 493.70265,565.82896 487.90897,565.82896 C 484.59169,565.82896 483.07255,567.39632 483.07255,570.81889 C 483.07255,574.94364 482.45591,575.31129 479.51612,572.93925 C 477.56009,571.36097 471.58117,569.90897 466.22967,569.71259 C 458.85538,569.44196 456.49634,568.39300 456.48596,565.37996 C 456.46451,559.14666 451.80800,557.90394 446.29378,562.65986 C 443.52324,565.04941 441.74487,565.94652 442.34180,564.65345 C 442.93876,563.36038 445.37673,558.13031 447.75948,553.03109 C 453.96977,539.74083 454.84224,530.71643 450.95439,519.98380 C 448.60389,513.49505 445.93248,510.34676 442.33721,509.82839 C 438.82116,509.32143 437.12663,510.32050 437.12663,512.90048 C 437.12663,516.38192 436.64596,516.39654 431.75214,513.06399 C 426.14166,509.24342 417.85724,508.12722 417.67566,511.16741 C 417.61774,512.13722 416.67756,517.41693 415.58637,522.90011 C 414.10677,530.33514 414.44092,533.54612 416.90079,535.53092 C 421.84857,539.52313 420.87086,542.84274 415.25746,541.11061 C 411.36765,539.91031 406.93399,542.90605 394.42889,555.18402 C 385.69112,563.76306 379.11372,571.33812 379.81247,572.01745 C 380.51120,572.69676 386.89153,571.48478 393.99097,569.32410 L 406.89904,565.39564 L 453.43448,588.07435 C 480.86589,601.44288 501.05262,612.71997 502.60731,615.54419 C 506.54345,622.69468 515.91119,650.78791 516.74243,657.93451 C 516.84419,658.80940 522.90289,662.84907 530.20621,666.91154 C 547.48770,676.52437 550.78670,681.42066 550.76348,697.42225 C 550.74732,708.54431 549.96303,710.78802 545.32252,712.98743 C 542.34036,714.40086 536.63583,717.23404 532.64579,719.28342 C 524.66392,723.38306 491.38870,738.87428 443.56556,760.75455 C 422.03788,770.60400 412.13881,776.38324 411.27131,779.60841 C 410.29396,783.24201 408.59154,783.98139 403.48765,782.98897 C 399.07297,782.13056 391.95982,784.07117 381.54826,788.97451 C 364.36847,797.06536 358.12855,797.53876 344.02567,791.82129 z M 384.89794,772.23635 C 387.76832,764.31432 385.30299,758.61377 379.00657,758.61377 C 369.08840,758.61377 364.58043,762.92517 364.58043,772.41087 C 364.58043,777.32213 365.25554,781.99681 366.08068,782.79902 C 369.13393,785.76745 382.76825,778.11410 384.89794,772.23635 z M 434.01614,754.73868 C 449.69204,747.43510 463.31727,740.29383 464.29443,738.86920 C 469.88237,730.72218 462.18616,719.89539 453.17472,723.22638 C 446.16842,725.81616 405.70481,743.81596 400.85352,746.50086 C 397.00902,748.62857 394.76990,759.11586 396.96998,764.68995 C 399.08806,770.05628 403.93244,768.75501 434.01614,754.73868 z M 389.83545,742.35698 C 443.52864,716.67732 492.99496,693.95351 504.83641,689.52795 C 519.83833,683.92118 525.11847,679.74009 523.23224,674.96120 C 520.23531,667.36828 504.75442,671.97250 457.68138,694.45687 C 410.05560,717.20526 358.06033,739.80550 353.34998,739.80550 C 350.25659,739.80550 342.42003,736.63160 335.93536,732.75240 C 329.45073,728.87319 323.43986,725.69929 322.57792,725.69929 C 321.71595,725.69929 310.43294,719.76210 297.50452,712.50555 C 268.06443,695.98118 264.00030,694.45814 257.86486,697.65052 C 249.97936,701.75347 254.57737,705.30614 296.09400,727.18851 C 304.31195,731.51998 320.09074,740.25419 331.15800,746.59785 C 342.22526,752.94153 352.30720,758.24024 353.56235,758.37279 C 354.81747,758.50532 371.14037,751.29822 389.83545,742.35698 z M 498.67927,725.53799 C 506.03275,722.86313 513.69092,718.39586 515.69745,715.61072 C 520.27635,709.25498 520.44030,697.74770 515.97567,696.08204 C 513.37472,695.11167 480.63123,708.96118 476.13220,712.93459 C 475.64005,713.36925 475.96141,717.47709 476.84632,722.06311 C 478.73018,731.82600 480.58246,732.12079 498.67927,725.53799 z M 347.65298,721.06842 C 347.65298,714.71888 346.06503,713.34747 330.12098,705.92690 C 320.47838,701.43913 300.29605,691.35642 285.27137,683.52089 C 270.24672,675.68537 257.03276,669.27447 255.90706,669.27447 C 254.78139,669.27447 253.23698,670.85384 252.47507,672.78418 C 250.71751,677.23709 258.66593,684.54072 272.68857,691.35797 C 278.67363,694.26765 291.73195,700.95325 301.70705,706.21482 C 335.86507,724.23218 343.53929,728.05033 345.59494,728.05033 C 346.72685,728.05033 347.65298,724.90848 347.65298,721.06842 z M 373.76961,722.87805 C 377.19152,719.55119 377.65132,707.75728 374.43447,705.82438 C 373.20411,705.08512 369.39544,705.72148 365.97075,707.23853 C 361.54132,709.20065 359.74401,711.81060 359.74401,716.28070 C 359.74401,719.73683 360.46948,723.26989 361.35616,724.13192 C 363.92268,726.62715 370.60798,725.95186 373.76961,722.87805 z M 427.45380,699.12755 C 457.84486,684.36658 462.31616,680.23753 456.81888,672.01020 C 455.07913,669.40644 452.90241,669.47741 444.10944,672.42464 C 430.27979,677.06006 387.05352,696.82020 385.54221,699.19761 C 384.89798,700.21104 384.94175,703.94360 385.63950,707.49218 C 387.49999,716.95439 393.02679,715.84879 427.45380,699.12755 z M 537.30947,703.19653 C 545.95984,694.78649 539.19717,682.78660 528.84330,688.17389 C 523.35552,691.02927 523.50400,690.19210 526.83684,699.48709 C 529.82466,707.81991 531.82517,708.52849 537.30947,703.19653 z M 344.02567,694.15130 C 344.02567,687.91168 342.04022,686.36397 319.84360,675.30104 C 296.30538,663.56942 279.72622,654.71611 263.55893,645.24488 C 254.26884,639.80250 247.83342,641.21217 248.94144,648.44680 C 249.78530,653.95652 265.13760,663.81370 304.12526,683.87839 C 316.76038,690.38097 329.27461,697.18506 331.93464,698.99858 C 339.18309,703.94038 344.02567,701.99901 344.02567,694.15130 z M 367.41277,693.59594 C 376.02652,686.01715 370.30735,670.60969 359.86577,673.26436 C 351.24839,675.45527 349.48104,679.80750 353.45435,689.05282 C 357.45593,698.36391 360.76836,699.44203 367.41277,693.59594 z M 412.17170,677.19774 C 422.57187,672.50815 435.70593,666.72863 441.35848,664.35431 C 450.00004,660.72454 451.63586,658.97304 451.63586,653.35014 C 451.63586,649.67211 450.12864,644.65886 448.28650,642.20953 C 445.37883,638.34351 443.86406,638.10253 436.80003,640.38224 C 425.08403,644.16316 383.10215,662.24575 380.60147,664.58823 C 379.43796,665.67816 379.24721,671.50516 380.17761,677.53711 C 382.18280,690.53720 382.59834,690.53278 412.17170,677.19774 z M 481.13504,670.36313 C 483.40624,665.51688 483.22274,663.71082 480.15622,660.72949 C 477.16086,657.81734 475.32609,657.60977 471.26362,659.72353 C 466.36789,662.27088 464.25054,671.35090 467.75726,674.76021 C 471.39030,678.29233 478.51679,675.94997 481.13504,670.36313 z M 360.07707,664.90936 C 368.53898,661.21548 383.62381,654.74935 393.59891,650.54019 C 462.77008,621.35211 476.10988,614.85959 475.27809,610.78652 C 474.50849,607.01812 411.69173,575.23309 405.01381,575.23309 C 402.57645,575.23309 393.95591,578.42945 385.85699,582.33611 C 377.64126,586.29916 369.21429,588.84746 366.79424,588.10073 C 363.92865,587.21649 361.53298,588.44045 359.73446,591.70769 C 355.44038,599.50839 358.02846,602.26999 369.63312,602.26999 C 379.23063,602.26999 380.36150,602.85862 380.92520,608.14758 C 381.89549,617.25144 378.17747,620.51336 364.18648,622.83292 C 339.86461,626.86522 318.18660,624.87301 310.55686,617.90435 L 304.63988,612.50005 L 289.26879,618.33948 C 280.81466,621.55118 271.44924,624.87503 268.45671,625.72581 C 259.65200,628.22906 261.90518,634.95186 273.29312,640.15604 C 288.09755,646.92157 326.69080,667.15826 329.39552,669.57380 C 333.62066,673.34724 344.55603,671.68475 360.07707,664.90936 z M 501.07849,665.47132 C 510.86322,661.82086 511.05800,648.11516 501.32518,648.11516 C 493.49662,648.11516 487.94250,655.06209 490.51710,661.63361 C 492.68681,667.17175 494.62900,667.87748 501.07849,665.47132 z M 470.10911,649.28542 C 472.17686,644.04663 468.95821,634.00870 464.70139,632.42060 C 457.86405,629.86974 455.95362,635.14304 460.41781,644.24447 C 464.91856,653.42050 467.87086,654.95616 470.10911,649.28542 z M 498.01093,638.08786 C 501.80256,632.22808 494.13623,619.90275 486.69986,619.90275 C 485.21325,619.90275 482.01246,621.31351 479.58700,623.03780 C 475.66500,625.82597 475.50990,627.15337 478.18522,635.03445 C 480.98673,643.28736 481.70643,643.79629 488.66282,642.44364 C 492.77101,641.64484 496.97768,639.68473 498.01093,638.08786 z M 348.72722,613.06180 C 350.47500,610.31239 347.79633,603.44551 344.97605,603.44551 C 343.78834,603.44551 342.81657,606.09043 342.81657,609.32310 C 342.81657,615.13295 346.09312,617.20548 348.72722,613.06180 z M 351.92162,582.33167 C 350.92662,577.30864 341.85491,577.84484 340.83634,582.98691 C 340.37580,585.31189 341.39183,588.84582 343.09420,590.84006 C 345.86089,594.08110 346.53118,594.01156 349.40930,590.18483 C 351.18022,587.83022 352.31079,584.29629 351.92162,582.33167 z M 367.51882,558.21864 C 373.79000,555.65933 382.18180,549.85383 386.16732,545.31753 C 394.87550,535.40592 402.05680,518.19487 399.83404,512.56332 C 398.62157,509.49146 396.27697,512.20403 390.28262,523.61372 C 373.30200,555.93475 341.95307,565.44184 313.26831,546.96960 C 303.33654,540.57382 296.54276,531.12203 290.49155,515.28173 C 288.88028,511.06383 288.60366,511.22549 287.80512,516.85180 C 286.58254,525.46565 297.45260,545.46590 307.11276,552.37675 C 326.27422,566.08473 344.03549,567.80244 367.51882,558.21864 z M 567.70979,546.13040 C 567.70979,544.34768 570.93819,541.58897 574.88400,539.99996 C 583.11560,536.68502 586.40209,529.58612 582.05999,524.49957 C 579.65075,521.67722 579.90156,520.43054 583.37548,517.96091 C 588.73208,514.15288 585.61892,507.26563 576.36440,502.45034 C 568.87742,498.55475 565.57713,500.84207 569.61497,507.12813 C 573.81344,513.66419 573.23055,518.80828 568.29148,518.80828 C 565.95139,518.80828 562.61141,521.02723 560.86931,523.73928 C 557.66652,528.72532 556.32884,528.96782 555.64794,524.68587 C 555.44234,523.39280 553.54350,520.47563 551.42831,518.20331 C 547.82350,514.33069 548.04324,514.16136 554.93467,515.50136 C 564.42526,517.34675 567.49203,512.84958 561.02833,506.56546 C 556.63970,502.29871 555.35174,502.14055 547.49298,504.90339 C 538.92142,507.91681 538.81739,508.11234 539.54237,519.84785 C 540.15418,529.75107 541.05402,531.74379 544.92511,531.76774 C 548.34477,531.78892 549.37327,533.18699 548.81668,537.05757 C 548.25515,540.96240 549.27938,542.31862 552.78982,542.31862 C 555.39115,542.31862 558.14588,543.90557 558.91146,545.84517 C 560.65837,550.27114 567.70979,550.49973 567.70979,546.13040 z M 563.52830,533.84509 C 564.33187,533.06387 566.41754,532.98036 568.16321,533.65950 C 570.09227,534.40999 569.51929,534.96710 566.70220,535.07990 C 564.15302,535.18199 562.72475,534.62634 563.52830,533.84509 z M 596.72827,474.22133 C 596.72827,467.99692 587.56566,463.05726 585.53993,468.18959 C 583.85756,472.45199 588.57039,478.84070 593.39704,478.84070 C 595.22922,478.84070 596.72827,476.76198 596.72827,474.22133 z M 241.53752,470.44042 C 246.25196,467.60771 236.59304,462.38345 226.64130,462.38345 C 214.56997,462.38345 202.56058,466.77112 202.56058,471.18140 C 202.56058,474.25582 205.34891,474.61229 220.61644,473.48969 C 230.54716,472.75948 239.96165,471.38733 241.53752,470.44042 z M 399.44454,463.52750 C 401.99877,458.37252 404.33446,450.20980 404.63495,445.38806 C 405.11973,437.60907 404.69158,436.87609 400.83493,438.88278 C 394.29658,442.28482 381.50787,458.91467 381.50787,464.01483 C 381.50787,469.67864 386.33688,474.48479 391.12658,473.58799 C 393.14721,473.20966 396.89028,468.68244 399.44454,463.52750 z M 293.47006,466.72888 C 296.07036,462.63836 287.37586,457.68138 277.60087,457.68138 C 268.97665,457.68138 258.17933,462.98370 258.17933,467.21882 C 258.17933,470.46532 291.38791,470.00427 293.47006,466.72888 z M 310.65214,454.74259 C 314.03536,450.38690 328.70321,415.35174 330.78074,406.66408 C 331.77022,402.52636 331.97246,398.55046 331.23014,397.82878 C 328.42572,395.10226 311.37987,425.18993 311.37987,432.86655 C 311.37987,437.67262 301.99965,437.64798 300.10073,432.83692 C 299.30075,430.81010 299.72816,426.84273 301.05053,424.02054 C 309.07569,406.89366 311.37987,400.44508 311.37987,395.11242 C 311.37987,389.60110 310.75833,389.25378 303.52071,390.72090 C 292.51533,392.95174 285.01235,398.07709 281.89268,405.49521 C 280.42601,408.98276 275.45343,419.93943 270.84251,429.84338 C 266.23160,439.74729 263.11122,448.87644 263.90828,450.13031 C 266.35710,453.98253 288.00259,450.61523 292.42184,445.69459 C 294.63005,443.23586 298.76008,441.22415 301.59970,441.22415 C 306.19048,441.22415 306.58665,442.13601 305.17481,449.45276 C 303.56527,457.79407 306.26029,460.39686 310.65214,454.74259 z M 227.34720,453.82133 C 233.26375,452.87056 236.41547,451.10237 236.41547,448.73382 C 236.41547,446.73718 240.67062,436.56045 245.87139,426.11885 C 251.07213,415.67727 256.05547,403.69576 256.94544,399.49329 C 258.52237,392.04716 258.35132,391.85243 250.23385,391.85243 C 241.73767,391.85243 229.23574,399.24539 229.07273,404.36600 C 229.02426,405.88847 224.78541,416.59344 219.65306,428.15481 C 207.69242,455.09790 208.23065,456.89334 227.34720,453.82133 z M 364.58043,448.20348 C 364.58043,445.57673 366.09245,442.86350 367.94050,442.17403 C 369.88314,441.44928 370.78428,439.00099 370.07667,436.37025 C 369.19299,433.08488 370.10755,431.79946 373.36667,431.74614 C 380.71300,431.62589 387.06919,421.03221 385.29909,411.85874 C 384.07141,405.49651 384.75976,403.30653 388.86600,400.51030 C 396.36033,395.40686 392.36550,394.50527 368.63603,395.94457 C 350.44196,397.04812 346.81868,397.96641 344.00812,402.18633 C 340.32598,407.71483 323.47092,447.71411 323.47092,450.92376 C 323.47092,452.05430 332.72055,452.97931 344.02567,452.97931 C 363.07415,452.97931 364.58043,452.62934 364.58043,448.20348 z M 264.61800,424.20649 C 268.39180,414.84678 271.84220,406.38306 272.28553,405.39822 C 272.72889,404.41337 271.38937,403.60759 269.30886,403.60759 C 267.18860,403.60759 264.81134,406.44908 263.89980,410.07294 C 263.00535,413.62888 260.26414,420.22551 257.80821,424.73208 C 255.35231,429.23869 253.34292,434.79301 253.34292,437.07502 C 253.34292,445.88103 258.04069,440.51933 264.61800,424.20649 z M 703.28833,403.52489 C 706.53113,401.83760 707.96577,398.59266 707.96577,392.94523 C 707.96577,382.90260 703.96170,382.41895 695.11806,391.39331 C 688.02484,398.59141 686.96307,402.56569 691.64288,404.40159 C 696.40401,406.26939 698.28596,406.12772 703.28833,403.52489 z M 735.64861,401.45562 C 737.17459,399.05510 725.71561,384.79932 722.26006,384.79932 C 719.73848,384.79932 719.22871,399.66781 721.66896,402.04024 C 724.05517,404.36019 734.06840,403.94145 735.64861,401.45562 z M 222.13294,394.08551 C 231.27623,389.32808 224.26832,386.96261 205.38917,388.43374 C 183.53857,390.13641 179.97719,391.01223 181.99527,394.18686 C 183.98672,397.31959 216.07307,397.23855 222.13294,394.08551 z M 427.90722,357.33193 C 426.16156,356.65279 424.07588,356.73630 423.27231,357.51752 C 422.46876,358.29877 423.89703,358.85442 426.44621,358.75234 C 429.26330,358.63953 429.83628,358.08242 427.90722,357.33193 z M 271.30777,349.60383 C 275.39225,348.34927 282.81481,346.71438 287.80236,345.97075 L 296.87064,344.61867 L 296.87064,323.56590 C 296.87064,299.32103 296.50905,299.03799 277.50020,308.40291 C 264.20110,314.95489 258.17933,323.64777 258.17933,336.29408 C 258.17933,344.81566 260.13762,351.88485 262.49822,351.88485 C 263.25902,351.88485 267.22330,350.85838 271.30777,349.60383 z M 558.18774,340.25834 C 567.61490,329.61665 577.04851,327.64411 575.26107,336.68834 C 572.89469,348.66200 572.19295,348.31508 600.35557,349.09393 C 630.58853,349.93000 657.18343,347.84776 657.18343,344.64463 C 657.18343,343.45446 655.07128,342.48071 652.48974,342.48071 C 649.90821,342.48071 647.20424,341.54977 646.48096,340.41196 C 645.75768,339.27415 639.43633,336.58842 632.43355,334.44365 C 625.43079,332.29887 617.52485,329.64363 614.86482,328.54314 C 600.49915,322.59975 571.55155,319.53101 568.91889,323.67243 C 568.09689,324.96550 564.83231,326.02346 561.66427,326.02346 C 558.49623,326.02346 555.23165,327.08143 554.40965,328.37450 C 553.58766,329.66757 549.84800,330.72553 546.09931,330.72553 C 542.35061,330.72553 537.92882,332.31248 536.27310,334.25209 C 534.61738,336.19169 531.30775,337.77864 528.91834,337.77864 C 526.52896,337.77864 520.94919,339.63007 516.51887,341.89294 C 512.08854,344.15581 508.08271,346.20136 507.61702,346.43860 C 507.15134,346.67585 507.52190,348.05223 508.44048,349.49725 C 509.53187,351.21411 516.90563,351.80147 529.71918,351.19221 L 549.32769,350.25985 L 558.18774,340.25834 z M 352.61879,341.89294 C 361.10387,328.64739 354.59744,313.25406 337.01635,304.97962 C 316.59924,295.37040 312.39310,298.98344 312.51825,326.02346 L 312.58898,341.30519 L 325.08767,342.00918 C 332.26948,342.41368 338.82480,344.16391 340.49757,346.12349 C 344.81799,351.18466 347.19886,350.35369 352.61879,341.89294 z M 438.21414,330.63358 C 444.26607,322.89687 449.21766,315.52067 449.21766,314.24203 C 449.21766,309.24975 444.38703,312.35144 437.88800,321.51667 C 434.14420,326.79637 428.66302,334.05531 425.70757,337.64764 C 422.75213,341.23999 420.99958,344.82621 421.81299,345.61706 C 424.10350,347.84393 426.37453,345.76921 438.21414,330.63358 z M 326.92549,287.06346 C 332.26750,281.86986 331.65430,269.02965 325.71361,261.68708 C 321.67283,256.69276 318.66542,255.49244 310.19305,255.49244 C 304.41329,255.49244 297.92287,256.14962 295.76987,256.95286 C 287.77235,259.93655 282.33311,277.12189 286.24743,287.03911 C 288.34581,292.35550 321.46186,292.37535 326.92549,287.06346 z M 642.32089,586.51221 C 638.80153,585.35503 635.34548,582.26469 634.64079,579.64477 C 633.56009,575.62697 632.57441,575.28981 628.34403,577.49096 C 625.00325,579.22922 623.32854,579.28795 623.32854,577.66684 C 623.32854,576.32828 624.38878,575.23309 625.68465,575.23309 C 633.33157,575.23309 639.09747,542.13270 632.55804,535.77491 C 627.89356,531.24001 632.22435,529.76770 638.21948,533.85019 C 641.26143,535.92169 646.30023,537.61655 649.41676,537.61655 C 652.53329,537.61655 657.13594,538.68463 659.64485,539.99008 C 663.20334,541.84161 665.25490,541.26956 668.97349,537.38900 C 674.80273,531.30585 679.50125,533.47664 677.47703,541.31771 C 676.65432,544.50459 677.28402,548.59882 678.88544,550.47478 C 680.47848,552.34096 681.24933,554.70762 680.59845,555.73409 C 679.94756,556.76053 680.73009,560.72555 682.33738,564.54527 C 684.84497,570.50458 684.55439,572.76021 680.28986,580.43900 C 675.40742,589.23033 675.08597,589.38098 662.01985,589.00197 C 654.70477,588.78980 645.84023,587.66942 642.32089,586.51221 z M 621.37047,303.44987 C 602.11966,283.74954 598.06902,277.85246 604.86336,279.41816 C 610.83572,280.79443 645.98452,319.04343 643.49822,321.46067 C 642.01444,322.90324 634.02693,316.40185 621.37047,303.44987 z M 727.31142,317.60791 C 727.31142,314.58949 764.84770,281.83531 766.89624,283.06621 C 769.37995,284.55858 733.91833,318.97036 729.89671,318.97036 C 728.47481,318.97036 727.31142,318.35726 727.31142,317.60791 z M 645.98271,309.04775 C 640.02590,302.56336 628.16496,282.67554 628.16496,279.17189 C 628.16496,277.78581 629.79724,276.65174 631.79226,276.65174 C 633.78728,276.65174 635.41957,277.77312 635.41957,279.14367 C 635.41957,282.58129 653.06929,307.01588 655.63194,307.12599 C 658.59293,307.25323 655.70088,297.35148 645.82345,273.54382 C 639.85048,259.14714 637.98989,252.05311 639.74052,250.35110 C 642.83943,247.33828 647.12287,254.98885 654.77582,277.20539 C 657.77597,285.91485 661.88535,294.37589 663.90776,296.00774 C 667.15283,298.62608 667.35784,297.59415 665.65268,287.22548 C 662.92080,270.61382 662.92020,268.48512 665.64716,267.93762 C 668.47237,267.37038 676.57319,301.06761 674.38286,304.27572 C 673.56826,305.46882 669.63720,307.56803 665.64716,308.94066 C 661.65712,310.31326 656.70802,312.10468 654.64916,312.92160 C 652.36961,313.82606 648.98066,312.31125 645.98271,309.04775 z M 720.05681,311.48349 C 720.05681,306.93683 737.93437,281.56626 741.21612,281.45566 C 746.14004,281.28975 744.82343,284.33406 733.32921,299.69169 C 722.23624,314.51320 720.05681,316.44952 720.05681,311.48349 z M 707.96577,308.27791 C 707.96577,305.26790 722.95346,263.89741 726.45007,257.25571 C 729.58929,251.29290 734.54861,248.42427 734.57906,252.55364 C 734.58619,253.52344 731.44192,262.25166 727.59172,271.94967 C 723.74155,281.64769 719.09862,293.73011 717.27408,298.79950 C 714.42413,306.71795 707.96577,313.29433 707.96577,308.27791 z M 695.87474,303.27173 C 695.87474,294.09567 703.64889,264.89658 706.09198,264.89658 C 707.43943,264.89658 707.87858,267.26264 707.07377,270.18640 C 706.27293,273.09581 704.36671,281.82403 702.83773,289.58243 C 699.98275,304.06941 695.87474,312.14576 695.87474,303.27173 z M 682.97765,303.29679 C 680.96243,301.33759 680.83553,250.16662 682.83333,245.10507 C 686.75254,235.17546 688.62013,244.21840 688.62013,273.12519 C 688.62013,302.13976 687.56895,307.76059 682.97765,303.29679 z M 530.75345,778.32515 C 528.21779,775.85990 531.84256,762.40691 536.38124,757.43825 C 538.74356,754.85212 545.82954,743.21450 552.12786,731.57688 C 587.29859,666.59053 586.05269,669.26876 582.21903,666.89264 C 580.22401,665.65611 574.78304,664.61199 570.12799,664.57240 C 560.06680,664.48680 554.61394,661.62550 556.12319,657.22354 C 556.93994,654.84133 561.49908,654.22527 574.11731,654.79200 C 591.00742,655.55062 591.02146,655.54603 597.62327,647.13105 C 606.10315,636.32219 609.86491,636.23788 608.08583,646.89657 C 607.33438,651.39861 607.46405,655.50277 608.37396,656.01689 C 609.28391,656.53102 619.41861,657.69269 630.89555,658.59838 L 651.76269,660.24511 L 660.95990,645.36375 C 672.79758,626.21008 687.52927,607.43174 701.61636,593.53943 C 707.76857,587.47230 712.80219,581.47163 712.80219,580.20461 C 712.80219,578.93763 715.25062,577.15368 718.24315,576.24030 C 721.23568,575.32693 726.10600,572.34622 729.06608,569.61653 C 740.00605,559.52801 744.31478,556.42483 747.38255,556.42483 C 749.11156,556.42483 751.55999,555.44334 752.82351,554.24377 C 757.07651,550.20596 785.77960,535.26551 789.28390,535.26551 C 791.19291,535.26551 793.45117,537.02980 794.30228,539.18614 C 795.38109,541.91943 793.00421,545.42942 786.45378,550.77607 L 777.05781,558.44533 L 781.88083,569.75951 C 784.53347,575.98231 788.46846,581.40409 790.62520,581.80790 C 793.73945,582.39099 807.42674,577.65573 814.38578,573.58766 C 815.06121,573.19284 816.99041,575.01285 818.67292,577.63214 C 822.26485,583.22398 818.85076,591.69034 813.00389,591.69034 C 806.31953,591.69034 772.19954,608.79226 753.50566,621.51255 C 731.60036,636.41809 709.21060,656.99532 699.33039,671.30223 C 695.43477,676.94324 686.79044,695.95006 680.12076,713.53962 L 667.99410,745.52062 L 632.98935,754.31453 C 613.73675,759.15117 593.62121,764.67415 588.28817,766.58782 C 571.38234,772.65418 553.67212,777.09683 552.17958,775.64577 C 551.38677,774.87498 552.85713,772.04991 555.44708,769.36785 C 558.03703,766.68577 564.75890,756.02763 570.38457,745.68309 C 576.01026,735.33853 582.35539,723.70091 584.48491,719.82171 C 599.11385,693.17299 611.58696,681.30063 630.02695,676.47317 C 635.65294,675.00034 640.25599,672.88823 640.25599,671.77959 C 640.25599,669.39719 602.94468,665.81673 599.52575,667.87104 C 598.23469,668.64681 584.58550,692.37129 569.19425,720.59209 C 542.84095,768.91250 534.28654,781.76011 530.75345,778.32515 z M 648.85798,741.87744 C 662.70387,738.48784 664.16961,731.72776 650.53337,734.15044 C 637.03392,736.54877 630.10721,739.50577 631.78946,742.15214 C 633.68744,745.13781 635.67020,745.10590 648.85798,741.87744 z M 628.16496,727.84769 C 663.69936,721.60825 666.80379,720.08298 670.81808,706.89101 C 677.25629,685.73350 677.25464,685.73171 651.29534,685.73171 C 617.80248,685.73171 610.47180,689.53726 595.17126,714.86738 C 586.11021,729.86791 586.03128,736.57701 594.94399,734.18380 C 597.92037,733.38459 612.86979,730.53335 628.16496,727.84769 z M 695.62424,653.91093 C 699.75204,649.34021 703.12936,644.91204 703.12936,644.07056 C 703.12936,640.69650 692.34174,631.65792 688.31477,631.65792 C 685.95047,631.65792 680.69919,636.34490 676.64525,642.07343 C 665.85307,657.32362 666.74367,662.22136 680.30892,662.22136 C 686.22189,662.22136 689.94222,660.20262 695.62424,653.91093 z M 724.26775,625.50865 C 730.59683,620.83350 736.62278,615.58293 737.65874,613.84072 C 739.74089,610.33921 734.23565,595.57338 729.87003,592.95021 C 724.63863,589.80685 698.29295,612.01869 698.29295,619.57262 C 698.29295,624.04431 706.68933,634.00895 710.45725,634.00895 C 711.72396,634.00895 717.93868,630.18382 724.26775,625.50865 z M 766.05078,597.53845 C 776.47978,591.13778 777.06925,589.41005 772.93972,577.34719 C 768.10696,563.23011 765.90826,562.51546 752.96050,570.85349 C 746.59269,574.95420 740.79823,579.78999 740.08394,581.59970 C 739.36965,583.40941 740.72167,589.06506 743.08841,594.16781 C 748.20363,605.19621 752.53708,605.83231 766.05078,597.53845 z M 526.60028,807.98549 C 526.60028,806.69242 527.68846,805.63446 529.01848,805.63446 C 530.34849,805.63446 531.43669,806.69242 531.43669,807.98549 C 531.43669,809.27856 530.34849,810.33653 529.01848,810.33653 C 527.68846,810.33653 526.60028,809.27856 526.60028,807.98549 z M 456.47228,806.94873 C 456.47228,806.37851 457.56048,805.25810 458.89049,804.45894 C 460.22050,803.65978 461.30869,804.12632 461.30869,805.49570 C 461.30869,806.86508 460.22050,807.98549 458.89049,807.98549 C 457.56048,807.98549 456.47228,807.51895 456.47228,806.94873 z M 572.54620,798.58135 C 572.54620,797.28828 573.63439,796.23032 574.96440,796.23032 C 576.29442,796.23032 577.38262,797.28828 577.38262,798.58135 C 577.38262,799.87442 576.29442,800.93239 574.96440,800.93239 C 573.63439,800.93239 572.54620,799.87442 572.54620,798.58135 z M 421.60887,796.54586 C 420.56718,794.90718 420.36795,792.93153 421.16612,792.15551 C 423.33035,790.05142 425.69003,793.14600 424.52112,796.55535 C 423.70202,798.94441 423.13242,798.94255 421.60887,796.54586 z M 497.58180,793.87928 C 497.58180,792.58621 498.66999,791.52826 500.00000,791.52826 C 501.33001,791.52826 502.41820,792.58621 502.41820,793.87928 C 502.41820,795.17236 501.33001,796.23032 500.00000,796.23032 C 498.66999,796.23032 497.58180,795.17236 497.58180,793.87928 z M 543.52772,791.66701 C 543.52772,790.29763 544.61591,789.17722 545.94593,789.17722 C 547.27594,789.17722 548.36414,789.64375 548.36414,790.21398 C 548.36414,790.78419 547.27594,791.90460 545.94593,792.70376 C 544.61591,793.50294 543.52772,793.03639 543.52772,791.66701 z M 446.79945,783.57712 C 446.79945,781.63752 447.88765,779.39673 449.21766,778.59757 C 450.54767,777.79840 451.63586,778.73150 451.63586,780.67110 C 451.63586,782.61071 450.54767,784.85150 449.21766,785.65067 C 447.88765,786.44983 446.79945,785.51673 446.79945,783.57712 z M 473.81778,780.57434 C 474.28929,778.19405 476.29246,776.24653 478.26927,776.24653 C 483.45270,776.24653 482.70402,783.07786 477.41199,784.06871 C 474.18030,784.67377 473.19544,783.71626 473.81778,780.57434 z M 509.67283,782.12412 C 509.67283,780.83105 510.76102,779.77308 512.09103,779.77308 C 513.42105,779.77308 514.50924,780.83105 514.50924,782.12412 C 514.50924,783.41719 513.42105,784.47515 512.09103,784.47515 C 510.76102,784.47515 509.67283,783.41719 509.67283,782.12412 z M 609.12158,780.06696 C 610.13299,777.11702 613.65571,776.43205 613.65571,779.18532 C 613.65571,780.15512 612.43149,781.34534 610.93523,781.83024 C 609.43897,782.31514 608.62282,781.52167 609.12158,780.06696 z M 504.83641,766.84239 C 504.83641,764.90279 505.92460,763.31584 507.25462,763.31584 C 508.58463,763.31584 509.67283,764.90279 509.67283,766.84239 C 509.67283,768.78199 508.58463,770.36894 507.25462,770.36894 C 505.92460,770.36894 504.83641,768.78199 504.83641,766.84239 z M 466.14511,762.27908 C 466.14511,760.26316 467.23330,758.61377 468.56331,758.61377 C 469.89332,758.61377 470.98152,759.60929 470.98152,760.82604 C 470.98152,762.04280 469.89332,763.69219 468.56331,764.49136 C 467.23330,765.29052 466.14511,764.29500 466.14511,762.27908 z M 486.93337,758.98107 C 486.09655,757.66468 486.59022,755.87961 488.03041,755.01425 C 491.74836,752.78027 494.14719,755.84029 491.04345,758.85781 C 489.30674,760.54627 487.95413,760.58683 486.93337,758.98107 z M 502.41820,748.03412 C 502.41820,742.22427 505.69475,740.15173 508.32886,744.29541 C 510.07664,747.04482 507.39797,753.91170 504.57769,753.91170 C 503.38999,753.91170 502.41820,751.26679 502.41820,748.03412 z M 475.81794,510.71842 C 475.81794,510.14819 476.90612,509.02778 478.23614,508.22862 C 479.56615,507.42946 480.65435,507.89600 480.65435,509.26538 C 480.65435,510.63477 479.56615,511.75517 478.23614,511.75517 C 476.90612,511.75517 475.81794,511.28863 475.81794,510.71842 z M 463.72690,505.96030 C 463.72690,504.06618 465.90328,501.38405 468.56331,500.00000 C 474.00764,497.16722 474.53033,498.25525 470.89645,504.85663 C 467.94456,510.21903 463.72690,510.86830 463.72690,505.96030 z M 628.20198,470.02431 C 628.28976,465.84471 632.42560,461.92671 634.05092,464.48349 C 634.96067,465.91461 635.03247,468.14349 634.21047,469.43656 C 632.46721,472.17885 628.14785,472.60138 628.20198,470.02431 z M 167.66649,467.35281 C 166.93796,466.20675 168.50494,464.71913 171.14868,464.04698 C 176.05016,462.80081 179.49757,465.21387 176.70063,467.93312 C 174.45801,470.11345 169.20698,469.77614 167.66649,467.35281 z M 715.22039,726.87481 C 715.22039,724.93521 716.27444,723.34826 717.56272,723.34826 C 718.85097,723.34826 719.27865,724.93521 718.51310,726.87481 C 717.74752,728.81441 716.69350,730.40136 716.17077,730.40136 C 715.64808,730.40136 715.22039,728.81441 715.22039,726.87481 z M 718.31120,682.79292 C 713.78625,677.10468 712.54029,673.97654 714.79955,673.97654 C 716.05511,673.97654 718.86490,676.62145 721.04353,679.85412 C 725.02531,685.76227 722.67998,688.28481 718.31120,682.79292 z M 732.14784,669.27447 C 732.14784,667.98140 733.23604,666.92343 734.56605,666.92343 C 735.89606,666.92343 736.98425,667.98140 736.98425,669.27447 C 736.98425,670.56753 735.89606,671.62550 734.56605,671.62550 C 733.23604,671.62550 732.14784,670.56753 732.14784,669.27447 z M 659.60164,598.74344 C 659.60164,597.45037 660.68984,596.39241 662.01985,596.39241 C 663.34986,596.39241 664.43805,597.45037 664.43805,598.74344 C 664.43805,600.03651 663.34986,601.09448 662.01985,601.09448 C 660.68984,601.09448 659.60164,600.03651 659.60164,598.74344 z M 703.12936,532.91448 C 703.12936,531.62141 704.21756,530.56345 705.54757,530.56345 C 706.87759,530.56345 707.96577,531.62141 707.96577,532.91448 C 707.96577,534.20756 706.87759,535.26551 705.54757,535.26551 C 704.21756,535.26551 703.12936,534.20756 703.12936,532.91448 z M 744.23888,523.51035 C 748.97462,520.53488 752.17586,520.53488 750.28439,523.51035 C 749.46240,524.80342 746.94974,525.84518 744.70070,525.82538 C 741.17672,525.79435 741.11289,525.47439 744.23888,523.51035 z M 772.04825,523.51035 C 771.22626,522.21728 771.70613,521.15931 773.11464,521.15931 C 774.52314,521.15931 775.67556,522.21728 775.67556,523.51035 C 775.67556,524.80342 775.19570,525.86138 774.60918,525.86138 C 774.02267,525.86138 772.87025,524.80342 772.04825,523.51035 z M 786.45805,523.35393 C 785.58139,521.97484 785.38273,520.34226 786.01661,519.72598 C 786.65047,519.10970 787.81349,520.23805 788.60107,522.23342 C 790.23621,526.37621 788.84253,527.10491 786.45805,523.35393 z M 610.54072,563.52022 C 610.54072,562.22715 611.62892,561.16919 612.95893,561.16919 C 614.28894,561.16919 615.37713,562.22715 615.37713,563.52022 C 615.37713,564.81329 614.28894,565.87126 612.95893,565.87126 C 611.62892,565.87126 610.54072,564.81329 610.54072,563.52022 z M 613.05666,546.32793 C 613.05666,545.03486 614.14486,543.97690 615.47487,543.97690 C 616.80488,543.97690 617.89307,545.03486 617.89307,546.32793 C 617.89307,547.62100 616.80488,548.67897 615.47487,548.67897 C 614.14486,548.67897 613.05666,547.62100 613.05666,546.32793 z M 596.70302,555.13374 C 596.70302,553.84067 597.79122,552.78271 599.12123,552.78271 C 600.45124,552.78271 601.53943,553.84067 601.53943,555.13374 C 601.53943,556.42681 600.45124,557.48478 599.12123,557.48478 C 597.79122,557.48478 596.70302,556.42681 596.70302,555.13374 z M 596.28370,584.90575 C 596.28370,583.61268 597.37190,582.55472 598.70191,582.55472 C 600.03192,582.55472 601.12011,583.61268 601.12011,584.90575 C 601.12011,586.19882 600.03192,587.25679 598.70191,587.25679 C 597.37190,587.25679 596.28370,586.19882 596.28370,584.90575 z M 574.05952,609.22655 C 574.05952,607.93348 575.14772,606.87552 576.47773,606.87552 C 577.80774,606.87552 578.89593,607.93348 578.89593,609.22655 C 578.89593,610.51962 577.80774,611.57759 576.47773,611.57759 C 575.14772,611.57759 574.05952,610.51962 574.05952,609.22655 z M 639.47408,636.48262 C 639.47408,635.18955 640.56228,634.13159 641.89229,634.13159 C 643.22230,634.13159 644.31049,635.18955 644.31049,636.48262 C 644.31049,637.77569 643.22230,638.83366 641.89229,638.83366 C 640.56228,638.83366 639.47408,637.77569 639.47408,636.48262 z M 582.44600,640.25654 C 582.44600,638.96347 583.53420,637.90551 584.86421,637.90551 C 586.19422,637.90551 587.28241,638.96347 587.28241,640.25654 C 587.28241,641.54961 586.19422,642.60758 584.86421,642.60758 C 583.53420,642.60758 582.44600,641.54961 582.44600,640.25654 z M 532.96576,630.19276 C 532.96576,628.89969 534.05396,627.84173 535.38397,627.84173 C 536.71398,627.84173 537.80217,628.89969 537.80217,630.19276 C 537.80217,631.48583 536.71398,632.54380 535.38397,632.54380 C 534.05396,632.54380 532.96576,631.48583 532.96576,630.19276 z M 535.48170,607.12994 C 535.48170,605.83687 536.56990,604.77891 537.89991,604.77891 C 539.22992,604.77891 540.31811,605.83687 540.31811,607.12994 C 540.31811,608.42301 539.22992,609.48098 537.89991,609.48098 C 536.56990,609.48098 535.48170,608.42301 535.48170,607.12994 z M 519.54738,617.19372 C 519.54738,615.90065 520.63558,614.84269 521.96559,614.84269 C 523.29560,614.84269 524.38379,615.90065 524.38379,617.19372 C 524.38379,618.48679 523.29560,619.54476 521.96559,619.54476 C 520.63558,619.54476 519.54738,618.48679 519.54738,617.19372 z M 514.09617,599.16278 C 514.09617,597.86971 515.18437,596.81175 516.51438,596.81175 C 517.84439,596.81175 518.93258,597.86971 518.93258,599.16278 C 518.93258,600.45585 517.84439,601.51382 516.51438,601.51382 C 515.18437,601.51382 514.09617,600.45585 514.09617,599.16278 z M 518.70873,547.16659 C 518.70873,545.87352 519.79693,544.81556 521.12694,544.81556 C 522.45695,544.81556 523.54514,545.87352 523.54514,547.16659 C 523.54514,548.45966 522.45695,549.51763 521.12694,549.51763 C 519.79693,549.51763 518.70873,548.45966 518.70873,547.16659 z M 485.58213,505.23418 C 485.58213,503.94111 486.67033,502.88315 488.00034,502.88315 C 489.33035,502.88315 490.41854,503.94111 490.41854,505.23418 C 490.41854,506.52725 489.33035,507.58522 488.00034,507.58522 C 486.67033,507.58522 485.58213,506.52725 485.58213,505.23418 z M 484.32416,490.13851 C 484.32416,488.84544 485.41236,487.78748 486.74237,487.78748 C 488.07238,487.78748 489.16057,488.84544 489.16057,490.13851 C 489.16057,491.43158 488.07238,492.48955 486.74237,492.48955 C 485.41236,492.48955 484.32416,491.43158 484.32416,490.13851 z M 655.40839,499.78296 C 655.40839,498.48989 656.49659,497.43193 657.82660,497.43193 C 659.15661,497.43193 660.24480,498.48989 660.24480,499.78296 C 660.24480,501.07603 659.15661,502.13400 657.82660,502.13400 C 656.49659,502.13400 655.40839,501.07603 655.40839,499.78296 z M 665.89149,509.84674 C 665.89149,508.55367 666.97969,507.49571 668.30970,507.49571 C 669.63971,507.49571 670.72790,508.55367 670.72790,509.84674 C 670.72790,511.13981 669.63971,512.19778 668.30970,512.19778 C 666.97969,512.19778 665.89149,511.13981 665.89149,509.84674 z M 650.79582,523.26511 C 650.79582,521.97204 651.88402,520.91408 653.21403,520.91408 C 654.54404,520.91408 655.63223,521.97204 655.63223,523.26511 C 655.63223,524.55818 654.54404,525.61615 653.21403,525.61615 C 651.88402,525.61615 650.79582,524.55818 650.79582,523.26511 z M 421.42554,550.10185 C 421.42554,548.80878 422.51374,547.75082 423.84374,547.75082 C 425.17375,547.75082 426.26195,548.80878 426.26195,550.10185 C 426.26195,551.39492 425.17375,552.45289 423.84374,552.45289 C 422.51374,552.45289 421.42554,551.39492 421.42554,550.10185 z M 427.29608,538.78010 C 427.29608,537.48703 428.38428,536.42907 429.71428,536.42907 C 431.04429,536.42907 432.13249,537.48703 432.13249,538.78010 C 432.13249,540.07317 431.04429,541.13114 429.71428,541.13114 C 428.38428,541.13114 427.29608,540.07317 427.29608,538.78010 z M 405.07190,552.19847 C 405.07190,550.90540 406.16009,549.84744 407.49010,549.84744 C 408.82011,549.84744 409.90831,550.90540 409.90831,552.19847 C 409.90831,553.49154 408.82011,554.54951 407.49010,554.54951 C 406.16009,554.54951 405.07190,553.49154 405.07190,552.19847 z M 456.22944,579.87386 C 456.22944,578.58079 457.31764,577.52283 458.64765,577.52283 C 459.97766,577.52283 461.06585,578.58079 461.06585,579.87386 C 461.06585,581.16693 459.97766,582.22490 458.64765,582.22490 C 457.31764,582.22490 456.22944,581.16693 456.22944,579.87386 z M 687.69634,540.03807 C 687.69634,538.74500 688.78454,537.68704 690.11455,537.68704 C 691.44456,537.68704 692.53275,538.74500 692.53275,540.03807 C 692.53275,541.33114 691.44456,542.38911 690.11455,542.38911 C 688.78454,542.38911 687.69634,541.33114 687.69634,540.03807 z M 734.24132,509.00809 C 734.24132,507.71502 735.32951,506.65706 736.65952,506.65706 C 737.98953,506.65706 739.07772,507.71502 739.07772,509.00809 C 739.07772,510.30116 737.98953,511.35913 736.65952,511.35913 C 735.32951,511.35913 734.24132,510.30116 734.24132,509.00809 z M 745.98239,539.61875 C 745.98239,538.32568 747.07058,537.26772 748.40059,537.26772 C 749.73060,537.26772 750.81879,538.32568 750.81879,539.61875 C 750.81879,540.91182 749.73060,541.96979 748.40059,541.96979 C 747.07058,541.96979 745.98239,540.91182 745.98239,539.61875 z M 760.65873,534.16754 C 760.65873,532.87447 761.74692,531.81651 763.07693,531.81651 C 764.40694,531.81651 765.49513,532.87447 765.49513,534.16754 C 765.49513,535.46061 764.40694,536.51858 763.07693,536.51858 C 761.74692,536.51858 760.65873,535.46061 760.65873,534.16754 z M 714.95239,560.16563 C 714.95239,558.87256 716.04059,557.81460 717.37060,557.81460 C 718.70061,557.81460 719.78880,558.87256 719.78880,560.16563 C 719.78880,561.45870 718.70061,562.51667 717.37060,562.51667 C 716.04059,562.51667 714.95239,561.45870 714.95239,560.16563 z M 717.04901,524.10376 C 717.04901,522.81069 718.13721,521.75273 719.46722,521.75273 C 720.79723,521.75273 721.88542,522.81069 721.88542,524.10376 C 721.88542,525.39683 720.79723,526.45480 719.46722,526.45480 C 718.13721,526.45480 717.04901,525.39683 717.04901,524.10376 z M 799.23654,513.20133 C 799.23654,511.90826 800.32473,510.85030 801.65474,510.85030 C 802.98475,510.85030 804.07294,511.90826 804.07294,513.20133 C 804.07294,514.49440 802.98475,515.55237 801.65474,515.55237 C 800.32473,515.55237 799.23654,514.49440 799.23654,513.20133 z M 808.46167,549.26320 C 808.46167,547.97013 809.54986,546.91217 810.87987,546.91217 C 812.20988,546.91217 813.29807,547.97013 813.29807,549.26320 C 813.29807,550.55627 812.20988,551.61424 810.87987,551.61424 C 809.54986,551.61424 808.46167,550.55627 808.46167,549.26320 z M 817.26748,556.39171 C 817.26748,555.09864 818.35567,554.04068 819.68568,554.04068 C 821.01569,554.04068 822.10388,555.09864 822.10388,556.39171 C 822.10388,557.68478 821.01569,558.74275 819.68568,558.74275 C 818.35567,558.74275 817.26748,557.68478 817.26748,556.39171 z M 785.81817,558.06901 C 785.81817,556.77594 786.90636,555.71798 788.23637,555.71798 C 789.56638,555.71798 790.65457,556.77594 790.65457,558.06901 C 790.65457,559.36208 789.56638,560.42005 788.23637,560.42005 C 786.90636,560.42005 785.81817,559.36208 785.81817,558.06901 z M 794.20465,574.42265 C 794.20465,573.12958 795.29284,572.07162 796.62285,572.07162 C 797.95286,572.07162 799.04105,573.12958 799.04105,574.42265 C 799.04105,575.71572 797.95286,576.77369 796.62285,576.77369 C 795.29284,576.77369 794.20465,575.71572 794.20465,574.42265 z M 806.78437,603.77534 C 806.78437,602.48227 807.87256,601.42431 809.20257,601.42431 C 810.53258,601.42431 811.62077,602.48227 811.62077,603.77534 C 811.62077,605.06841 810.53258,606.12638 809.20257,606.12638 C 807.87256,606.12638 806.78437,605.06841 806.78437,603.77534 z M 789.17276,612.16182 C 789.17276,610.86875 790.26095,609.81079 791.59096,609.81079 C 792.92097,609.81079 794.00916,610.86875 794.00916,612.16182 C 794.00916,613.45489 792.92097,614.51286 791.59096,614.51286 C 790.26095,614.51286 789.17276,613.45489 789.17276,612.16182 z M 777.01236,617.61303 C 777.01236,616.31996 778.10055,615.26200 779.43056,615.26200 C 780.76057,615.26200 781.84876,616.31996 781.84876,617.61303 C 781.84876,618.90610 780.76057,619.96407 779.43056,619.96407 C 778.10055,619.96407 777.01236,618.90610 777.01236,617.61303 z M 785.81817,631.45072 C 785.81817,630.15765 786.90636,629.09969 788.23637,629.09969 C 789.56638,629.09969 790.65457,630.15765 790.65457,631.45072 C 790.65457,632.74379 789.56638,633.80176 788.23637,633.80176 C 786.90636,633.80176 785.81817,632.74379 785.81817,631.45072 z M 790.85006,639.41788 C 790.85006,638.12481 791.93825,637.06685 793.26826,637.06685 C 794.59827,637.06685 795.68646,638.12481 795.68646,639.41788 C 795.68646,640.71095 794.59827,641.76892 793.26826,641.76892 C 791.93825,641.76892 790.85006,640.71095 790.85006,639.41788 z M 777.01237,641.51450 C 777.01237,640.22143 778.10056,639.16347 779.43057,639.16347 C 780.76058,639.16347 781.84877,640.22143 781.84877,641.51450 C 781.84877,642.80757 780.76058,643.86554 779.43057,643.86554 C 778.10056,643.86554 777.01237,642.80757 777.01237,641.51450 z M 758.14279,634.38599 C 758.14279,633.09292 759.23098,632.03496 760.56099,632.03496 C 761.89100,632.03496 762.97919,633.09292 762.97919,634.38599 C 762.97919,635.67906 761.89100,636.73703 760.56099,636.73703 C 759.23098,636.73703 758.14279,635.67906 758.14279,634.38599 z M 766.52927,648.64301 C 766.52927,647.34994 767.61746,646.29198 768.94747,646.29198 C 770.27748,646.29198 771.36567,647.34994 771.36567,648.64301 C 771.36567,649.93608 770.27748,650.99405 768.94747,650.99405 C 767.61746,650.99405 766.52927,649.93608 766.52927,648.64301 z M 745.98239,642.35315 C 745.98239,641.06008 747.07058,640.00212 748.40059,640.00212 C 749.73060,640.00212 750.81879,641.06008 750.81879,642.35315 C 750.81879,643.64622 749.73060,644.70419 748.40059,644.70419 C 747.07058,644.70419 745.98239,643.64622 745.98239,642.35315 z M 776.59305,657.02949 C 776.59305,655.73642 777.68124,654.67846 779.01125,654.67846 C 780.34126,654.67846 781.42945,655.73642 781.42945,657.02949 C 781.42945,658.32256 780.34126,659.38053 779.01125,659.38053 C 777.68124,659.38053 776.59305,658.32256 776.59305,657.02949 z M 774.07711,673.38313 C 774.07711,672.09006 775.16530,671.03210 776.49531,671.03210 C 777.82532,671.03210 778.91351,672.09006 778.91351,673.38313 C 778.91351,674.67620 777.82532,675.73417 776.49531,675.73417 C 775.16530,675.73417 774.07711,674.67620 774.07711,673.38313 z M 761.07806,671.70583 C 761.07806,670.41276 762.16625,669.35480 763.49626,669.35480 C 764.82627,669.35480 765.91446,670.41276 765.91446,671.70583 C 765.91446,672.99890 764.82627,674.05687 763.49626,674.05687 C 762.16625,674.05687 761.07806,672.99890 761.07806,671.70583 z M 754.78820,685.12420 C 754.78820,683.83113 755.87639,682.77317 757.20640,682.77317 C 758.53641,682.77317 759.62460,683.83113 759.62460,685.12420 C 759.62460,686.41727 758.53641,687.47524 757.20640,687.47524 C 755.87639,687.47524 754.78820,686.41727 754.78820,685.12420 z M 748.91766,695.18798 C 748.91766,693.89491 750.00585,692.83695 751.33586,692.83695 C 752.66587,692.83695 753.75406,693.89491 753.75406,695.18798 C 753.75406,696.48105 752.66587,697.53902 751.33586,697.53902 C 750.00585,697.53902 748.91766,696.48105 748.91766,695.18798 z M 731.72537,703.57446 C 731.72537,702.28139 732.81356,701.22343 734.14357,701.22343 C 735.47358,701.22343 736.56177,702.28139 736.56177,703.57446 C 736.56177,704.86753 735.47358,705.92550 734.14357,705.92550 C 732.81356,705.92550 731.72537,704.86753 731.72537,703.57446 z M 716.62969,697.70392 C 716.62969,696.41085 717.71789,695.35289 719.04790,695.35289 C 720.37791,695.35289 721.46610,696.41085 721.46610,697.70392 C 721.46610,698.99699 720.37791,700.05496 719.04790,700.05496 C 717.71789,700.05496 716.62969,698.99699 716.62969,697.70392 z M 722.91955,667.09326 C 722.91955,665.80019 724.00775,664.74223 725.33776,664.74223 C 726.66777,664.74223 727.75596,665.80019 727.75596,667.09326 C 727.75596,668.38633 726.66777,669.44430 725.33776,669.44430 C 724.00775,669.44430 722.91955,668.38633 722.91955,667.09326 z M 705.72726,714.89621 C 705.72726,713.60314 706.81546,712.54518 708.14547,712.54518 C 709.47548,712.54518 710.56367,713.60314 710.56367,714.89621 C 710.56367,716.18928 709.47548,717.24725 708.14547,717.24725 C 706.81546,717.24725 705.72726,716.18928 705.72726,714.89621 z M 691.05092,711.12229 C 691.05092,709.82922 692.13912,708.77126 693.46913,708.77126 C 694.79914,708.77126 695.88733,709.82922 695.88733,711.12229 C 695.88733,712.41536 694.79914,713.47333 693.46913,713.47333 C 692.13912,713.47333 691.05092,712.41536 691.05092,711.12229 z M 699.43740,737.12038 C 699.43740,735.82731 700.52560,734.76935 701.85561,734.76935 C 703.18562,734.76935 704.27381,735.82731 704.27381,737.12038 C 704.27381,738.41345 703.18562,739.47142 701.85561,739.47142 C 700.52560,739.47142 699.43740,738.41345 699.43740,737.12038 z M 680.98714,729.99187 C 680.98714,728.69880 682.07534,727.64084 683.40535,727.64084 C 684.73536,727.64084 685.82355,728.69880 685.82355,729.99187 C 685.82355,731.28494 684.73536,732.34291 683.40535,732.34291 C 682.07534,732.34291 680.98714,731.28494 680.98714,729.99187 z M 679.72917,755.57064 C 679.72917,754.27757 680.81737,753.21961 682.14738,753.21961 C 683.47739,753.21961 684.56558,754.27757 684.56558,755.57064 C 684.56558,756.86371 683.47739,757.92168 682.14738,757.92168 C 680.81737,757.92168 679.72917,756.86371 679.72917,755.57064 z M 662.95621,761.02185 C 662.95621,759.72878 664.04441,758.67082 665.37442,758.67082 C 666.70443,758.67082 667.79262,759.72878 667.79262,761.02185 C 667.79262,762.31492 666.70443,763.37289 665.37442,763.37289 C 664.04441,763.37289 662.95621,762.31492 662.95621,761.02185 z M 648.27987,776.53684 C 648.27987,775.24377 649.36807,774.18581 650.69808,774.18581 C 652.02809,774.18581 653.11628,775.24377 653.11628,776.53684 C 653.11628,777.82991 652.02809,778.88788 650.69808,778.88788 C 649.36807,778.88788 648.27987,777.82991 648.27987,776.53684 z M 627.31367,770.24698 C 627.31367,768.95391 628.40187,767.89595 629.73188,767.89595 C 631.06189,767.89595 632.15008,768.95391 632.15008,770.24698 C 632.15008,771.54005 631.06189,772.59802 629.73188,772.59802 C 628.40187,772.59802 627.31367,771.54005 627.31367,770.24698 z M 626.47502,790.79386 C 626.47502,789.50079 627.56322,788.44283 628.89323,788.44283 C 630.22324,788.44283 631.31143,789.50079 631.31143,790.79386 C 631.31143,792.08693 630.22324,793.14490 628.89323,793.14490 C 627.56322,793.14490 626.47502,792.08693 626.47502,790.79386 z M 600.47693,806.30885 C 600.47693,805.01578 601.56513,803.95782 602.89514,803.95782 C 604.22515,803.95782 605.31334,805.01578 605.31334,806.30885 C 605.31334,807.60192 604.22515,808.65989 602.89514,808.65989 C 601.56513,808.65989 600.47693,807.60192 600.47693,806.30885 z M 592.92910,792.47116 C 592.92910,791.17809 594.01730,790.12013 595.34731,790.12013 C 596.67732,790.12013 597.76551,791.17809 597.76551,792.47116 C 597.76551,793.76423 596.67732,794.82220 595.34731,794.82220 C 594.01730,794.82220 592.92910,793.76423 592.92910,792.47116 z M 587.05856,781.14941 C 587.05856,779.85634 588.14676,778.79838 589.47677,778.79838 C 590.80678,778.79838 591.89497,779.85634 591.89497,781.14941 C 591.89497,782.44248 590.80678,783.50045 589.47677,783.50045 C 588.14676,783.50045 587.05856,782.44248 587.05856,781.14941 z M 565.25371,788.27792 C 565.25371,786.98485 566.34191,785.92689 567.67192,785.92689 C 569.00193,785.92689 570.09012,786.98485 570.09012,788.27792 C 570.09012,789.57099 569.00193,790.62896 567.67192,790.62896 C 566.34191,790.62896 565.25371,789.57099 565.25371,788.27792 z M 557.28655,798.34170 C 557.28655,797.04863 558.37475,795.99067 559.70476,795.99067 C 561.03477,795.99067 562.12296,797.04863 562.12296,798.34170 C 562.12296,799.63477 561.03477,800.69274 559.70476,800.69274 C 558.37475,800.69274 557.28655,799.63477 557.28655,798.34170 z M 582.02667,813.85669 C 582.02667,812.56362 583.11487,811.50566 584.44488,811.50566 C 585.77489,811.50566 586.86308,812.56362 586.86308,813.85669 C 586.86308,815.14976 585.77489,816.20773 584.44488,816.20773 C 583.11487,816.20773 582.02667,815.14976 582.02667,813.85669 z M 530.86913,821.40452 C 530.86913,820.11145 531.95733,819.05349 533.28734,819.05349 C 534.61735,819.05349 535.70554,820.11145 535.70554,821.40452 C 535.70554,822.69759 534.61735,823.75556 533.28734,823.75556 C 531.95733,823.75556 530.86913,822.69759 530.86913,821.40452 z M 511.58022,821.82384 C 511.58022,820.53077 512.66842,819.47281 513.99843,819.47281 C 515.32844,819.47281 516.41663,820.53077 516.41663,821.82384 C 516.41663,823.11691 515.32844,824.17488 513.99843,824.17488 C 512.66842,824.17488 511.58022,823.11691 511.58022,821.82384 z M 519.96670,763.11847 C 519.96670,761.82540 521.05490,760.76744 522.38491,760.76744 C 523.71492,760.76744 524.80311,761.82540 524.80311,763.11847 C 524.80311,764.41154 523.71492,765.46951 522.38491,765.46951 C 521.05490,765.46951 519.96670,764.41154 519.96670,763.11847 z M 529.61115,735.44308 C 529.61115,734.15001 530.69935,733.09205 532.02936,733.09205 C 533.35937,733.09205 534.44756,734.15001 534.44756,735.44308 C 534.44756,736.73615 533.35937,737.79412 532.02936,737.79412 C 530.69935,737.79412 529.61115,736.73615 529.61115,735.44308 z M 482.64685,819.72722 C 482.64685,818.43415 483.73505,817.37619 485.06506,817.37619 C 486.39507,817.37619 487.48326,818.43415 487.48326,819.72722 C 487.48326,821.02029 486.39507,822.07826 485.06506,822.07826 C 483.73505,822.07826 482.64685,821.02029 482.64685,819.72722 z M 467.13186,787.85859 C 467.13186,786.56552 468.22006,785.50756 469.55007,785.50756 C 470.88008,785.50756 471.96827,786.56552 471.96827,787.85859 C 471.96827,789.15166 470.88008,790.20963 469.55007,790.20963 C 468.22006,790.20963 467.13186,789.15166 467.13186,787.85859 z M 431.90864,775.69819 C 431.90864,774.40512 432.99684,773.34716 434.32684,773.34716 C 435.65685,773.34716 436.74505,774.40512 436.74505,775.69819 C 436.74505,776.99126 435.65685,778.04923 434.32684,778.04923 C 432.99684,778.04923 431.90864,776.99126 431.90864,775.69819 z M 427.71540,814.27601 C 427.71540,812.98294 428.80360,811.92498 430.13360,811.92498 C 431.46361,811.92498 432.55181,812.98294 432.55181,814.27601 C 432.55181,815.56908 431.46361,816.62705 430.13360,816.62705 C 428.80360,816.62705 427.71540,815.56908 427.71540,814.27601 z M 500.00000,53.115407 C 253.31970,53.115407 53.115403,253.31971 53.115403,500.00000 C 53.115403,746.68030 253.31970,946.88460 500.00000,946.88460 C 746.68030,946.88460 946.88460,746.68030 946.88460,500.00000 C 946.88460,253.31971 746.68030,53.115407 500.00000,53.115407 z M 481.87705,62.700574 C 489.19213,62.700574 495.17568,63.228381 495.17568,63.874916 C 495.17568,64.521450 492.97964,67.160491 490.31962,69.746624 C 486.35190,73.604131 485.49529,77.582757 485.49529,91.900420 C 485.49529,107.39961 486.21347,110.19600 491.97004,116.84724 C 498.06469,123.88913 499.21563,124.27470 511.42603,123.29025 C 529.89719,121.80103 532.45871,118.47454 533.48461,94.534754 C 534.24284,76.841154 533.81790,74.394979 529.26332,70.603576 C 521.63025,64.249482 522.99128,62.700575 536.27763,62.700574 C 549.46208,62.700574 550.89617,64.236276 543.51412,70.381403 C 539.49083,73.730568 538.68983,77.314415 538.68980,91.709986 C 538.68980,115.53654 535.76900,122.56978 523.96292,127.16241 C 512.77949,131.51284 504.42822,131.70682 492.73178,127.82893 C 480.63978,123.81989 475.81963,113.20883 475.81491,90.630861 C 475.81218,77.562337 474.84008,71.879536 472.19667,69.746624 C 465.75152,64.546212 468.29992,62.700575 481.87705,62.700574 z M 569.85746,66.255338 C 571.45129,66.281105 573.52925,66.551244 576.01482,67.112290 C 584.45908,69.018354 584.86638,69.506391 600.51730,96.819959 C 609.27169,112.09792 617.37392,124.50489 618.54503,124.36938 C 621.27897,124.05307 626.86219,107.74083 627.90802,97.010393 C 628.37591,92.209826 627.09697,87.496250 624.86108,85.774800 C 622.73787,84.140106 621.61689,81.980478 622.38544,80.982217 C 624.27199,78.531867 638.51060,81.439163 643.52359,85.298716 C 647.25847,88.174255 647.08924,88.520347 641.61925,90.154777 C 635.21144,92.069464 632.92898,97.894249 625.62281,130.65369 C 623.58041,139.81145 621.44461,144.51917 619.21154,144.77753 C 616.97845,145.03591 609.97969,134.88384 598.20035,114.33987 C 588.48132,97.389290 579.76936,83.604202 578.83958,83.711767 C 576.95804,83.929471 567.73642,115.32864 567.82616,121.22722 C 567.85757,123.29129 569.95448,126.56635 572.46005,128.49544 C 579.19555,133.68120 575.45686,136.04014 565.06487,133.16107 C 560.05384,131.77278 554.77355,129.70864 553.32146,128.59066 C 550.25807,126.23212 552.08024,122.91187 556.17796,123.38547 C 561.20085,123.96601 564.95179,115.71085 568.65138,95.899529 C 571.33737,81.516019 571.29348,75.428672 568.49268,72.571392 C 564.42918,68.425854 565.07595,66.178036 569.85746,66.255338 z M 388.78667,74.475729 C 393.50027,74.475729 393.61551,74.826735 390.27841,79.458746 C 386.36916,84.884959 388.07994,90.907970 402.27573,121.32244 C 406.24411,129.82467 407.41057,134.83141 405.79876,136.39845 C 404.18697,137.96547 392.46665,134.22336 370.60025,125.13111 C 352.55854,117.62922 337.24715,112.00527 336.57608,112.65770 C 335.21802,113.97804 347.06213,144.47496 350.73166,149.09403 C 352.01573,150.71036 355.66294,152.04575 358.82509,152.04575 C 367.32562,152.04575 365.80047,156.17602 355.80989,160.23441 C 350.99241,162.19136 345.54993,163.78917 343.71735,163.78917 C 339.85122,163.78917 339.29284,160.04201 342.82866,157.91746 C 347.16276,155.31324 345.09582,146.48186 335.94130,128.52718 C 329.29491,115.49165 325.52585,110.70572 321.56355,110.15032 C 313.89854,109.07590 314.95096,105.51875 324.19788,101.23167 C 332.05160,97.590540 332.68124,97.738551 361.74508,109.83293 C 378.00207,116.59798 392.00397,121.47773 392.84926,120.65592 C 394.82257,118.73743 389.29893,102.40561 383.58148,93.265195 C 381.02363,89.175968 377.10378,86.219146 374.28197,86.219146 C 371.60238,86.219146 369.42592,85.193806 369.42591,83.933940 C 369.42591,80.841479 382.46007,74.475731 388.78667,74.475729 z M 668.56563,94.534754 C 669.37455,94.319528 670.76001,94.826011 672.97735,95.645617 C 690.81615,102.23952 699.34164,109.73772 689.00552,109.73772 C 681.92886,109.73772 678.13455,115.21259 666.66129,142.11146 C 661.74927,153.62765 661.65465,154.82793 665.32826,158.77441 C 667.50360,161.11138 668.56648,163.71776 667.67694,164.58264 C 665.49918,166.69989 665.09175,166.60372 650.53790,160.13919 C 636.45627,153.88441 634.48757,150.37580 644.41228,149.25273 C 649.88640,148.63329 652.54054,145.55807 660.31350,130.87587 C 668.18665,116.00446 669.44400,111.71832 668.31172,103.35819 C 667.48542,97.257408 667.21742,94.893460 668.56563,94.534754 z M 710.42932,114.43508 C 713.87426,114.43508 734.55092,129.15347 734.55094,131.60586 C 734.55094,132.80082 732.43297,133.25363 729.82183,132.58977 C 727.21070,131.92591 724.07618,132.59866 722.87100,134.08150 C 719.91832,137.71445 716.88812,177.17123 719.44319,178.70648 C 721.76750,180.10307 748.14086,167.53868 754.60996,161.94831 C 757.70145,159.27676 758.50215,156.32651 757.43473,151.60141 C 755.58591,143.41766 757.26625,143.35562 768.89249,151.18880 C 779.35835,158.24017 780.52072,161.43781 772.63769,161.44049 C 766.01732,161.44275 740.20145,173.11434 725.63229,182.67385 C 714.65980,189.87339 709.25587,191.27585 706.87456,187.52991 C 706.12414,186.34943 706.74985,174.46638 708.23933,161.15484 C 709.72885,147.84329 710.32729,131.89950 709.57237,125.70242 C 708.80657,119.41592 709.18313,114.43508 710.42932,114.43508 z M 292.55414,122.24287 C 302.11910,122.56786 311.28477,126.35964 317.69140,134.52585 C 333.93716,155.23348 322.42234,184.50819 295.12499,191.87815 C 285.83557,194.38620 283.05987,194.60968 278.74769,193.21119 C 277.41767,192.77984 273.30838,191.77673 269.63861,190.98946 C 259.98483,188.91848 248.50046,172.63270 248.50046,160.99614 C 248.50046,137.64388 271.51122,121.52788 292.55414,122.24287 z M 285.47635,129.13022 C 278.66512,128.81149 272.38780,131.73342 267.00427,137.95365 C 254.48513,152.41854 257.79599,170.94731 274.87554,182.00733 C 286.25230,189.37446 294.96986,188.78289 305.24972,180.00778 C 313.16028,173.25516 313.78752,171.70423 313.78750,159.28224 C 313.78750,147.66840 312.90791,145.07549 307.15406,139.85799 C 299.62820,133.03366 292.28758,129.44895 285.47635,129.13022 z M 500.00000,144.52362 C 696.22296,144.52362 855.47638,303.77704 855.47638,500.00000 C 855.47638,696.22297 696.22296,855.47638 500.00000,855.47638 C 303.77704,855.47638 144.52362,696.22297 144.52362,500.00000 C 144.52362,303.77704 303.77704,144.52362 500.00000,144.52362 z M 229.52056,160.36136 C 231.12335,160.20744 232.27773,161.13879 234.02749,162.67831 C 240.81746,168.65244 240.01630,170.83859 230.98055,170.89870 C 222.54180,170.95482 210.99150,177.96362 212.50847,182.10255 C 213.01658,183.48889 220.86053,192.62038 229.93317,202.41549 C 244.02097,217.62513 247.29365,220.01663 252.30913,218.79279 C 260.61192,216.76681 259.61009,220.24920 249.00828,230.31404 C 237.94312,240.81874 233.61773,241.54856 235.45574,232.56750 C 236.56842,227.13070 234.34677,223.40361 221.49060,209.08067 C 213.08204,199.71277 204.36082,192.04371 202.12983,192.03685 C 196.24275,192.01877 187.66744,203.53961 189.46599,209.04893 C 191.40452,214.98703 183.71265,213.89552 179.84908,207.68416 C 177.58749,204.04826 178.72604,202.05303 187.18078,194.76640 C 192.68583,190.02193 204.38964,179.90919 213.20673,172.29521 C 222.96312,163.87012 226.84923,160.61789 229.52056,160.36136 z M 792.95063,170.86696 C 797.29106,170.86696 833.63140,208.82025 833.67172,213.39717 C 833.70303,216.95037 826.59532,224.91841 823.38829,224.91841 C 822.56597,224.91841 822.05956,220.58077 822.27743,215.26977 C 822.62060,206.90312 821.46457,204.56566 813.70791,197.65464 C 808.78407,193.26764 803.80120,189.65642 802.63101,189.65642 C 798.83171,189.65642 787.77720,199.32452 787.77718,202.63766 C 787.77718,207.80951 797.64858,213.21505 804.18622,211.61979 C 809.49276,210.32492 809.80304,210.63567 807.39185,215.01586 C 804.49362,220.28086 793.24514,229.61578 789.80847,229.61578 C 788.63247,229.61578 788.33849,227.07849 789.14195,223.96624 C 790.84549,217.36738 786.64652,208.47762 781.84199,208.47763 C 778.41252,208.47763 766.00422,221.38609 766.00425,224.95015 C 766.00425,226.05195 769.80090,230.85692 774.44681,235.64618 C 782.11666,243.55271 783.80360,244.25209 792.60150,243.10484 C 804.25338,241.58539 805.57832,245.57597 795.90235,252.97566 C 792.39796,255.65564 788.74138,257.83172 787.77718,257.83172 C 785.05403,257.83172 746.64350,216.28016 746.64348,213.33369 C 746.64348,211.70356 748.98789,211.28468 752.83258,212.22283 C 758.13114,213.51575 761.40908,211.39697 776.03376,197.17856 C 789.61557,183.97402 792.73205,179.65474 791.45890,175.75476 C 790.40859,172.53745 790.90955,170.86696 792.95063,170.86696 z M 174.77085,220.22105 C 180.69689,220.22105 184.23977,221.94559 188.00600,226.60058 C 194.07035,234.09601 193.03754,241.14943 184.22906,252.40435 C 181.00758,256.52054 178.38909,261.41367 178.38909,263.29082 C 178.38909,268.47605 189.24106,274.30425 198.92420,274.30424 C 206.42424,274.30424 207.26840,274.85631 205.24025,278.43030 C 202.18774,283.80942 188.32991,299.34176 187.94252,297.82281 C 187.77764,297.17627 187.37036,294.09263 187.02209,290.96719 C 186.38163,285.21966 180.46811,279.45560 160.71049,265.38559 C 152.18907,259.31722 148.41589,257.98416 143.31754,259.22823 L 136.81105,260.81518 L 140.96885,252.84870 C 143.25955,248.47557 150.00076,239.35613 155.91790,232.56750 C 164.94118,222.21531 167.97624,220.22106 174.77085,220.22105 z M 169.18479,229.74273 C 167.71626,229.97879 166.29881,230.53697 165.02699,231.42490 C 163.66625,232.37491 160.52893,236.26892 158.04441,240.05790 L 153.50574,246.94525 L 160.17092,252.49957 C 168.60801,259.55526 173.28872,258.66090 179.18256,248.84959 C 183.21763,242.13252 183.41752,240.28620 180.70603,235.36053 C 178.39797,231.16764 173.59039,229.03458 169.18479,229.74273 z M 852.61988,236.88400 C 853.87035,237.00375 855.63236,238.70515 857.76159,241.96224 C 870.64253,261.66621 879.05593,276.25061 880.29625,281.00116 C 883.51036,293.31132 872.84502,302.56759 859.25332,299.25106 C 854.87243,298.18207 853.02641,298.88602 851.98510,302.07583 C 851.21623,304.43098 847.32876,308.70735 843.35210,311.56578 C 834.99265,317.57451 833.85624,323.65833 841.09863,323.65833 C 843.83715,323.65833 845.41192,324.74569 844.58992,326.03875 C 842.52407,329.28851 832.87513,328.98479 829.35522,325.56266 C 824.00284,320.35896 826.34839,312.55476 836.14736,303.02800 C 846.26409,293.19230 846.55905,290.98715 839.06734,279.60465 C 837.15243,276.69524 833.47795,274.30425 830.91043,274.30424 C 824.58077,274.30424 813.56699,285.31780 815.35833,289.85633 C 816.33251,292.32446 815.49206,293.20220 812.72400,292.68110 C 809.51074,292.07618 797.42584,274.32526 797.42582,270.20991 C 797.42582,269.66402 800.65483,269.90729 804.59883,270.74947 C 810.24129,271.95434 814.06762,270.75089 822.56308,265.06820 C 828.50132,261.09608 834.28166,257.83172 835.38562,257.83172 C 839.48509,257.83172 850.65206,245.74298 850.65206,241.29572 C 850.65206,238.24253 851.36940,236.76426 852.61988,236.88400 z M 858.23767,256.65738 L 849.60468,261.16431 C 839.00111,266.66624 838.78165,270.65683 848.49381,282.11202 C 854.18861,288.82888 857.55088,290.84227 862.17330,290.30068 C 874.48785,288.85782 875.41245,275.96842 864.10938,263.25908 L 858.23767,256.65738 z M 121.67156,286.26983 C 123.53855,286.13570 125.08981,287.80625 125.60719,291.34806 C 126.42389,296.93875 134.73618,301.80303 157.02877,309.72492 C 166.25194,313.00245 170.54480,313.46482 174.07259,311.62926 C 181.25871,307.89020 181.88605,310.62929 176.89736,324.00745 C 171.94792,337.28029 166.29654,341.84056 166.29654,332.54524 C 166.29654,328.43540 163.72087,325.48298 156.83833,321.72225 C 145.14310,315.33174 127.60675,309.17943 127.60675,311.47056 C 127.60675,313.84403 145.87033,335.24757 154.58487,343.08257 C 165.16207,352.59226 163.04064,357.62650 148.14186,358.31727 C 124.37112,359.41936 105.83382,361.67940 105.83382,363.49072 C 105.83382,365.85506 132.93799,377.74151 138.33452,377.74152 C 140.58316,377.74152 144.63016,376.60024 147.31664,375.20240 C 154.55927,371.43392 155.47077,374.21383 150.52228,384.88278 C 144.89273,397.02010 142.67001,398.29798 139.79451,390.94493 C 137.21945,384.36013 130.51286,380.44128 109.51554,373.26632 C 96.246785,368.73225 94.957645,368.67097 90.853030,372.28242 C 85.188088,377.26670 83.186669,375.19767 85.171756,366.41071 C 87.885914,354.39648 92.993429,352.01086 120.33853,350.09688 C 134.08273,349.13488 145.71961,347.27464 146.17404,345.93908 C 146.62848,344.60348 139.37531,335.20710 130.05065,325.05484 C 112.64811,306.10776 111.04899,302.38685 115.89507,292.04632 C 117.63079,288.34265 119.80458,286.40395 121.67156,286.26983 z M 892.57923,322.64268 C 903.17840,323.78837 909.93993,334.83808 913.68564,356.57163 C 915.56933,367.50112 915.29927,369.95733 911.94000,372.37763 C 905.90993,376.72222 903.97239,373.91306 906.60785,364.63333 C 911.09878,348.82031 902.32795,330.73610 890.16707,330.73611 C 882.61057,330.73611 880.88275,338.60691 885.59666,351.58861 C 891.21502,367.06104 890.48891,380.57667 883.72406,386.75538 C 877.00405,392.89311 862.47784,393.59940 856.80942,388.08842 C 846.04854,377.62646 838.16742,343.72083 845.25644,338.35347 C 851.15440,333.88789 856.39222,334.58078 854.11161,339.52781 C 844.69262,359.95888 857.44163,390.23111 872.23456,382.53410 C 879.07058,378.97717 880.20737,372.78303 876.07497,361.39595 C 874.06070,355.84548 872.39323,346.08699 872.39325,339.71824 C 872.39325,328.76186 872.83252,327.94293 880.64538,324.76919 C 885.05758,322.97686 889.04617,322.26079 892.57923,322.64268 z M 921.11256,392.37318 C 921.77567,392.08316 922.41012,392.95931 923.46124,394.78534 C 927.03709,400.99740 929.15274,422.42998 926.19079,422.42998 C 924.81781,422.42998 923.02706,420.67430 922.19168,418.55782 C 920.96850,415.45878 918.45152,414.99039 909.24219,416.08218 C 883.14882,419.17561 872.18947,422.63328 869.88587,428.52386 C 866.37103,437.51176 863.29848,435.17789 860.33244,421.28737 C 857.10235,406.16028 858.73050,401.49289 865.28372,407.25875 C 870.06138,411.46235 879.74016,411.05500 904.60830,405.60833 C 913.75959,403.60397 916.79881,401.74262 918.70040,396.88011 C 919.77871,394.12276 920.44944,392.66320 921.11256,392.37318 z M 137.92191,411.03569 C 139.57777,411.62458 139.72504,415.08681 138.81060,421.57303 C 137.96481,427.57233 137.25538,434.43381 137.25539,436.83947 C 137.25539,442.06292 131.11045,442.71345 129.13022,437.69642 C 127.06434,432.46237 118.73565,433.44094 114.43508,439.41032 C 109.94798,445.63861 109.36989,467.21665 113.57813,471.30798 C 117.08675,474.71914 127.60675,475.07759 127.60675,471.78406 C 127.60675,470.49099 128.68889,469.43538 130.01891,469.43538 C 131.34892,469.43538 132.36586,473.40982 132.27238,478.25881 C 132.17890,483.10783 131.34759,488.89678 130.43152,491.14483 C 129.01006,494.63303 127.78052,494.05469 122.08417,487.11398 C 118.41305,482.64093 105.08121,472.43619 92.471717,464.45236 C 79.862225,456.46859 69.556187,448.49437 69.556186,446.71028 C 69.556186,444.92620 72.478597,442.38556 76.062673,441.06075 C 79.646751,439.73594 89.515459,435.51321 97.994297,431.69775 C 106.47314,427.88230 115.06487,424.77866 117.06941,424.77866 C 119.07394,424.77866 123.96584,421.58008 127.95588,417.70087 C 133.08547,412.71377 136.26605,410.44680 137.92191,411.03569 z M 925.49254,437.02990 C 926.65193,437.19642 927.70515,437.64260 928.38078,438.29946 C 931.98504,441.80360 935.54624,500.38509 932.37989,504.09433 C 930.98709,505.72592 928.42053,507.04606 926.66688,507.04605 C 921.28034,507.04605 920.07149,502.27697 924.31819,497.71480 C 926.84798,494.99707 928.07307,490.45626 927.58731,485.52704 C 926.81918,477.73229 926.70463,477.64727 913.24130,476.95752 C 891.86459,475.86235 876.45107,479.12643 873.63107,485.33660 C 872.31817,488.22783 870.55491,490.60526 869.69544,490.60527 C 867.29939,490.60527 865.22513,481.12987 865.18851,470.03842 C 865.15262,459.17890 868.20709,457.10489 872.58368,465.05540 C 875.21666,469.83849 876.49844,470.01302 898.41920,468.51495 C 911.10030,467.64831 922.38702,466.37377 923.52472,465.69018 C 926.95480,463.62915 925.87834,449.67773 921.84255,444.07595 C 918.40261,439.30117 918.41326,438.71760 922.00125,437.37903 C 923.08471,436.97481 924.33314,436.86338 925.49254,437.02990 z M 103.64383,441.21944 C 99.512445,441.21944 84.060893,449.00540 84.060892,451.09026 C 84.060892,452.16285 87.609609,455.12997 91.932155,457.69196 C 96.254697,460.25395 100.88557,462.01451 102.21558,461.59586 C 105.46540,460.57295 106.82186,441.21943 103.64383,441.21944 z M 129.79674,506.09388 C 131.46955,506.56093 132.65717,511.55744 133.92280,522.02684 C 135.62810,536.13326 133.79279,538.34977 126.90849,530.53288 C 123.77425,526.97403 121.06484,526.17093 116.08551,527.32725 C 104.67028,529.97821 103.17040,532.41761 104.91339,545.57715 C 107.61047,565.94007 109.55007,568.98504 118.59288,567.28660 C 122.88728,566.48002 128.19155,563.71148 130.39978,561.12924 C 132.60799,558.54698 135.52090,556.43190 136.87453,556.43188 C 139.47585,556.43188 143.62401,581.61055 141.38146,583.79086 C 140.66016,584.49213 136.98664,582.93055 133.22455,580.33132 C 126.71739,575.83543 125.40145,575.74876 106.40512,578.80785 C 84.254947,582.37481 81.648731,583.38009 81.648731,588.29780 C 81.648731,591.85291 77.874430,592.93930 76.030934,589.91648 C 75.439497,588.94668 74.179779,582.61301 73.237906,575.82438 C 71.485267,563.19213 73.479485,560.25676 79.236570,567.00095 C 82.671440,571.02475 97.496782,571.77674 99.866895,568.04834 C 102.18831,564.39655 98.630772,538.56272 95.169529,533.96069 C 91.169594,528.64240 77.660906,531.34779 75.523111,537.89632 C 74.684951,540.46377 72.724526,542.17408 71.174873,541.67326 C 67.659446,540.53711 63.621362,520.27448 65.810988,514.72688 C 67.261262,511.05249 67.898233,511.20892 71.809652,516.25035 C 75.909326,521.53444 77.166347,521.78678 92.281283,520.28120 C 118.14109,517.70538 122.68116,516.30599 126.11502,509.93430 C 127.61355,507.15367 128.79304,505.81366 129.79674,506.09388 z M 931.93554,518.82121 C 934.80958,518.82121 935.45142,520.20094 934.37945,524.08987 C 933.57747,526.99929 932.89450,531.50151 932.85597,534.08765 C 932.73749,542.04097 929.00830,546.03177 924.82602,542.65717 C 920.27659,538.98636 910.38005,541.29037 904.73525,547.35453 C 899.77899,552.67901 901.51146,556.88032 911.78130,564.33488 C 917.04194,568.15341 918.77744,568.42058 921.87429,565.92183 C 925.95724,562.62739 926.35190,563.50327 925.61949,574.04700 C 924.76715,586.31725 922.26659,587.30363 916.54215,577.63350 C 909.70749,566.08794 892.92289,552.76184 882.48624,550.59191 C 875.93415,549.22965 873.26279,549.94430 868.23545,554.43232 L 862.04635,559.95490 L 863.44286,546.18019 C 864.21020,538.60892 865.43895,531.84898 866.17241,531.13592 C 866.90585,530.42286 870.33194,532.77870 873.75803,536.37285 C 878.99132,541.86280 881.41339,542.70001 888.89751,541.70500 C 898.10254,540.48124 928.03163,524.55913 928.03165,520.88424 C 928.03165,519.74232 929.78538,518.82124 931.93554,518.82121 z M 806.97925,732.74182 C 807.97613,732.74182 810.50726,736.99604 812.59704,742.16829 C 816.02802,750.66006 817.22235,751.56303 824.91176,751.56302 C 836.44020,751.56302 837.72276,754.85015 828.62522,761.14819 C 821.48056,766.09432 821.12729,767.03516 822.43612,777.77940 C 824.00945,790.69460 822.32778,791.66436 811.48618,784.15894 L 804.24970,779.14418 L 794.75975,784.34937 L 785.26980,789.52282 L 786.79327,776.85897 C 788.22249,765.03640 787.90843,763.95942 782.00068,760.19602 C 773.26170,754.62908 774.06230,752.41460 785.46023,750.64259 C 793.27264,749.42805 796.25208,747.46690 800.21885,740.93047 C 802.95048,736.42929 805.98232,732.74180 806.97925,732.74182 z M 203.87548,735.40789 C 205.86720,735.49799 207.64470,737.94223 208.69980,742.73959 C 211.06748,753.50505 214.07343,756.26038 223.42668,756.26039 C 233.58900,756.26039 233.76517,759.49417 224.06146,767.43250 C 217.19597,773.04896 216.66149,774.45050 217.96758,783.71459 C 219.63839,795.56590 216.71981,796.80446 206.16068,788.72935 C 199.70905,783.79545 199.17388,783.74980 192.35423,787.55500 C 185.17228,791.56236 178.38909,792.76637 178.38909,790.03064 C 178.38909,789.21086 179.63643,784.44561 181.18212,779.42983 C 183.71306,771.21694 183.47868,769.76638 178.76996,764.89338 C 171.82902,757.71033 172.17479,753.91170 179.75386,753.91170 C 188.76690,753.91170 194.23248,750.33860 197.68638,742.23177 C 199.67168,737.57194 201.88375,735.31779 203.87548,735.40789 z M 411.13090,855.03204 C 416.76499,854.98412 416.58011,860.91308 410.17873,883.97797 C 406.10571,898.65348 405.55704,903.66189 407.73483,907.05220 C 409.26312,909.43140 410.52787,911.91073 410.52786,912.57478 C 410.52786,914.47286 400.21614,913.71424 394.21404,911.36870 C 387.81761,908.86906 387.40700,907.03207 392.46839,903.43396 C 397.11468,900.13087 403.98196,872.24181 402.02182,864.64894 C 400.46501,858.61843 403.79832,855.09440 411.13090,855.03204 z M 588.36127,855.22247 C 593.89191,855.03329 599.12538,855.97897 602.77076,858.30115 C 608.92628,862.22237 611.07827,872.17824 606.38900,874.99585 C 602.26802,877.47200 603.70096,880.83895 610.07072,883.66058 C 622.79702,889.29801 619.91603,903.58475 604.51640,911.08305 C 586.31219,919.94701 571.20901,918.68128 565.19183,907.75046 C 562.26167,902.42748 562.33657,900.77133 565.63617,895.18183 C 569.24134,889.07466 569.13380,888.46557 563.73184,883.78754 C 556.46924,877.49826 556.54261,873.52750 564.14444,864.74416 C 569.08256,859.03857 579.14355,855.53779 588.36127,855.22247 z M 585.88563,859.69767 C 571.65202,859.69767 562.33648,872.33881 570.61919,880.39147 C 577.70776,887.28312 599.15249,880.01227 599.15252,870.71109 C 599.15252,863.38037 594.72138,859.69765 585.88563,859.69767 z M 452.80416,862.04635 C 475.11106,862.04635 488.55270,877.88446 475.78317,889.11968 L 470.89537,893.40444 L 475.97360,898.67311 C 482.34374,905.26545 481.32064,913.12072 473.33927,918.89083 C 450.88612,935.12316 411.05115,913.27567 429.82515,895.02313 C 433.82181,891.13748 434.19067,889.39035 431.95166,884.61275 C 426.03908,871.99654 435.22074,862.04632 452.80416,862.04635 z M 526.37508,866.77546 C 534.53116,866.77546 545.08112,874.17512 542.56195,878.13800 C 539.85928,882.38954 534.34553,881.36490 532.69113,876.29714 C 530.44839,869.42724 522.70300,868.15319 513.83819,873.18673 C 506.47128,877.36971 499.84896,888.54701 502.95172,891.56359 C 503.74076,892.33070 507.69583,891.31334 511.74342,889.27838 C 522.52122,883.85976 532.35466,884.65868 540.91152,891.65880 C 553.40088,901.87600 549.33788,919.93883 533.32591,925.36558 C 517.61683,930.68966 504.88377,927.20525 497.61958,915.62172 C 487.54676,899.55959 493.85815,876.72150 510.12473,870.39370 C 515.25238,868.39902 522.55932,866.77549 526.37508,866.77546 z M 453.02633,867.60067 C 447.30215,867.60044 441.70204,869.90640 439.44206,874.01194 C 437.44537,877.63916 438.13380,879.72522 442.96508,884.42232 C 450.29834,891.55185 461.27757,892.10538 467.27713,885.66014 C 472.39021,880.16721 471.00597,875.46989 462.73846,870.20326 C 459.93654,868.41838 456.46085,867.60080 453.02633,867.60067 z M 592.80473,888.10404 C 587.89117,888.32584 582.67925,889.91358 578.90306,892.80140 C 571.12028,898.75329 570.85294,902.97031 577.91915,907.78219 C 585.85794,913.18826 596.05122,912.31200 602.89772,905.65568 C 609.84073,898.90556 610.17887,896.63851 605.02423,891.62706 C 602.35324,889.03026 597.71828,887.88224 592.80473,888.10404 z M 521.01119,890.99228 C 515.18921,890.91087 509.28061,893.58957 505.93519,899.87919 C 502.68712,905.98577 502.69502,907.46695 505.93519,913.55869 C 507.93638,917.32108 510.94162,920.95913 512.63211,921.62038 C 522.90796,925.64000 534.69546,920.19801 537.26154,910.25783 C 540.19408,898.89828 530.71450,891.12798 521.01119,890.99228 z M 451.18547,895.15009 C 446.57540,895.04541 442.07989,896.26339 439.12467,898.86355 C 433.39050,903.90875 433.53003,907.94402 439.66423,913.90781 C 443.41834,917.55762 447.10968,918.57532 454.74024,918.03388 C 463.37669,917.42109 465.18084,916.34590 467.24539,910.60696 C 469.32088,904.83757 468.87370,903.26536 464.00802,899.43485 C 460.51937,896.68838 455.79555,895.25477 451.18547,895.15009 z M 414.78088,0.14307866 C 410.41184,0.38594216 405.82857,0.94860135 400.94270,1.9204606 C 361.85550,9.6953740 350.25772,34.341347 313.43838,49.592383 C 276.61923,64.843337 251.00872,55.603852 217.87236,77.744842 C 184.73583,99.885953 183.46345,127.10285 155.28312,155.28313 C 127.10295,183.46325 99.885847,184.73602 77.744838,217.87236 C 55.603710,251.00888 64.843478,276.61907 49.592378,313.43838 C 34.341360,350.25751 9.6953546,361.85573 1.9204564,400.94270 C -5.8544827,440.02989 12.489565,460.14704 12.489531,500.00000 C 12.489496,539.85275 -5.8544163,559.97031 1.9204564,599.05730 C 9.6953698,638.14450 34.341342,649.74225 49.592378,686.56162 C 64.843333,723.38077 55.603848,748.99131 77.744838,782.12764 C 99.885949,815.26417 127.10285,816.53657 155.28312,844.71688 C 183.46325,872.89705 184.73602,900.11415 217.87236,922.25516 C 251.00887,944.39629 276.61907,935.15654 313.43838,950.40762 C 350.25750,965.65865 361.85572,990.30463 400.94270,998.07954 C 440.02988,1005.8545 460.14703,987.51044 500.00000,987.51047 C 539.85275,987.51050 559.97031,1005.8544 599.05730,998.07954 C 638.14450,990.30463 649.74225,965.65868 686.56162,950.40762 C 723.38077,935.15667 748.99131,944.39615 782.12764,922.25516 C 815.26417,900.11405 816.53657,872.89713 844.71688,844.71688 C 872.89705,816.53675 900.11415,815.26400 922.25516,782.12764 C 944.39629,748.99113 935.15654,723.38096 950.40762,686.56162 C 965.65864,649.74250 990.30462,638.14428 998.07954,599.05730 C 1005.8545,559.97012 987.51044,539.85297 987.51047,500.00000 C 987.51050,460.14725 1005.8544,440.02969 998.07954,400.94270 C 990.30462,361.85550 965.65868,350.25772 950.40762,313.43838 C 935.15667,276.61923 944.39615,251.00872 922.25516,217.87236 C 900.11405,184.73583 872.89713,183.46346 844.71688,155.28313 C 816.53675,127.10295 815.26400,99.885851 782.12764,77.744842 C 748.99113,55.603715 723.38096,64.843482 686.56162,49.592383 C 649.74250,34.341364 638.14428,9.6953588 599.05730,1.9204606 C 559.97011,-5.8544789 539.85296,12.489570 500.00000,12.489535 C 465.12884,12.489505 445.36425,-1.5569689 414.78088,0.14307866 z M 500.00000,37.880705 C 755.08985,37.880705 962.11930,244.91015 962.11930,500.00000 C 962.11930,755.08985 755.08985,962.11930 500.00000,962.11930 C 244.91015,962.11930 37.880701,755.08985 37.880701,500.00000 C 37.880701,244.91015 244.91015,37.880705 500.00000,37.880705 z " />
  </g>
  <g
     inkscape:groupmode="layer"
     id="layer4"
     inkscape:label="Ring Text"
     style="display:inline" />
</svg>
