<?xml version="1.0" encoding="UTF-8" standalone="no"?>
<!-- Created with Inkscape (http://www.inkscape.org/) -->
<svg
   xmlns:dc="http://purl.org/dc/elements/1.1/"
   xmlns:cc="http://web.resource.org/cc/"
   xmlns:rdf="http://www.w3.org/1999/02/22-rdf-syntax-ns#"
   xmlns:svg="http://www.w3.org/2000/svg"
   xmlns="http://www.w3.org/2000/svg"
   xmlns:sodipodi="http://inkscape.sourceforge.net/DTD/sodipodi-0.dtd"
   xmlns:inkscape="http://www.inkscape.org/namespaces/inkscape"
   width="135"
   height="135"
   id="svg5698"
   sodipodi:version="0.32"
   inkscape:version="0.43"
   sodipodi:docbase="C:\Documents and Settings\jeppesen\workspace\svg"
   sodipodi:docname="KwanWiki.svg"
   version="1.0"
   inkscape:export-filename="C:\Documents and Settings\jeppesen\workspace\svg\KwanWiki.png"
   inkscape:export-xdpi="90.008965"
   inkscape:export-ydpi="90.008965">
  <defs
     id="defs5700" />
  <sodipodi:namedview
     id="base"
     pagecolor="#ffffff"
     bordercolor="#666666"
     borderopacity="1.0"
     inkscape:pageopacity="0.0"
     inkscape:pageshadow="2"
     inkscape:zoom="4.5254834"
     inkscape:cx="68"
     inkscape:cy="70"
     inkscape:document-units="px"
     inkscape:current-layer="svg5698"
     showguides="true"
     inkscape:guide-bbox="true"
     inkscape:window-width="946"
     inkscape:window-height="743"
     inkscape:window-x="368"
     inkscape:window-y="268" />
  <metadata
     id="metadata5703">
    <rdf:RDF>
      <cc:Work
         rdf:about="">
        <dc:format>image/svg+xml</dc:format>
        <dc:type
           rdf:resource="http://purl.org/dc/dcmitype/StillImage" />
      </cc:Work>
    </rdf:RDF>
  </metadata>
  <path
     style="fill:#7f7f7f;fill-opacity:0.49803922;stroke:none;stroke-width:1;stroke-linecap:butt;stroke-linejoin:miter;stroke-miterlimit:4;stroke-dasharray:none;stroke-opacity:0.49803922"
     d="M 134.98656,35.767289 L 134.98656,103.76167 L 114.50638,103.76167 L 114.50638,100.39053 L 130.37057,100.39053 L 130.37057,38.57913 L 114.50638,38.57913 L 114.50638,35.767289 L 134.98656,35.767289 z "
     id="path3126" />
  <path
     id="path3128"
     d="M 110.46643,35.767289 L 110.46643,103.76167 L 89.986263,103.76167 L 89.986263,100.39053 L 105.85043,100.39053 L 105.85043,38.57913 L 89.986263,38.57913 L 89.986263,35.767289 L 110.46643,35.767289 z "
     style="fill:#7f7f7f;fill-opacity:0.49803922;stroke:none;stroke-width:1;stroke-linecap:butt;stroke-linejoin:miter;stroke-miterlimit:4;stroke-dasharray:none;stroke-opacity:0.49803922" />
  <path
     id="path3130"
     d="M 4.3981538,35.767289 L 4.3981538,103.76167 L 24.878328,103.76167 L 24.878328,100.39053 L 9.0141604,100.39053 L 9.0141604,38.57913 L 24.878328,38.57913 L 24.878328,35.767289 L 4.3981538,35.767289 z "
     style="fill:#7f7f7f;fill-opacity:0.49803922;stroke:none;stroke-width:1;stroke-linecap:butt;stroke-linejoin:miter;stroke-miterlimit:4;stroke-dasharray:none;stroke-opacity:0.49803922" />
  <path
     style="fill:#7f7f7f;fill-opacity:0.49803922;stroke:none;stroke-width:1;stroke-linecap:butt;stroke-linejoin:miter;stroke-miterlimit:4;stroke-dasharray:none;stroke-opacity:0.49803922"
     d="M 28.918285,35.767289 L 28.918285,103.76167 L 49.398467,103.76167 L 49.398467,100.39053 L 33.534291,100.39053 L 33.534291,38.57913 L 49.398467,38.57913 L 49.398467,35.767289 L 28.918285,35.767289 z "
     id="path3132" />
  <path
     id="path3134"
     d="M 68.926331,32.610107 C 67.172567,32.610107 65.44929,32.736985 63.758751,32.962372 L 57.106622,55.634293 L 63.016471,55.634293 L 55.924658,70.600018 L 78.382092,55.634293 L 73.654206,55.634293 L 91.114277,39.627878 C 84.879472,35.218131 77.215447,32.610107 68.926331,32.610107 z M 45.821175,40.297888 C 36.873548,47.037242 31.103278,57.587957 31.103278,69.448807 C 31.103278,75.979943 32.858559,82.112141 35.92335,87.432997 L 45.821175,40.297888 z M 101.07356,50.050933 L 79.564056,68.297596 L 94.924954,96.182189 C 102.201,89.466875 106.74939,79.974991 106.74939,69.448807 C 106.74939,62.331163 104.66754,55.686389 101.07356,50.050933 z M 67.744367,78.658487 L 51.196774,91.321792 L 49.747684,101.19455 C 55.372698,104.42691 61.926814,106.2875 68.926331,106.2875 C 73.129528,106.2875 77.168777,105.60857 80.946976,104.37421 L 67.744367,78.658487 z "
     style="fill:#7f7f7f;fill-opacity:0.49803922;stroke:none;stroke-width:1;stroke-miterlimit:4;stroke-dasharray:none;stroke-opacity:1" />
  <path
     id="path1372"
     d="M 131.08845,31.869686 L 131.08845,99.86406 L 110.60826,99.86406 L 110.60826,96.492926 L 126.47245,96.492926 L 126.47245,34.681527 L 110.60826,34.681527 L 110.60826,31.869686 L 131.08845,31.869686 z "
     style="fill:#0080ff;fill-opacity:1;stroke:#000000;stroke-width:0.99999976;stroke-linecap:butt;stroke-linejoin:miter;stroke-miterlimit:4;stroke-dasharray:none;stroke-opacity:1" />
  <path
     style="fill:#0080ff;fill-opacity:1;stroke:#000000;stroke-width:0.99999976;stroke-linecap:butt;stroke-linejoin:miter;stroke-miterlimit:4;stroke-dasharray:none;stroke-opacity:1"
     d="M 106.56831,31.869686 L 106.56831,99.86406 L 86.088134,99.86406 L 86.088134,96.492926 L 101.9523,96.492926 L 101.9523,34.681527 L 86.088134,34.681527 L 86.088134,31.869686 L 106.56831,31.869686 z "
     id="path1374" />
  <path
     style="fill:#0080ff;fill-opacity:1;stroke:#000000;stroke-width:0.99999976;stroke-linecap:butt;stroke-linejoin:miter;stroke-miterlimit:4;stroke-dasharray:none;stroke-opacity:1"
     d="M 0.49999865,31.869686 L 0.49999865,99.86406 L 20.980179,99.86406 L 20.980179,96.492926 L 5.1160066,96.492926 L 5.1160066,34.681527 L 20.980179,34.681527 L 20.980179,31.869686 L 0.49999865,31.869686 z "
     id="rect1363" />
  <path
     id="path1370"
     d="M 25.020137,31.869686 L 25.020137,99.86406 L 45.500326,99.86406 L 45.500326,96.492926 L 29.636145,96.492926 L 29.636145,34.681527 L 45.500326,34.681527 L 45.500326,31.869686 L 25.020137,31.869686 z "
     style="fill:#0080ff;fill-opacity:1;stroke:#000000;stroke-width:0.99999976;stroke-linecap:butt;stroke-linejoin:miter;stroke-miterlimit:4;stroke-dasharray:none;stroke-opacity:1" />
  <path
     style="fill:#ff8000;fill-opacity:1;stroke:none;stroke-width:1;stroke-miterlimit:4;stroke-dasharray:none;stroke-opacity:1"
     d="M 65.028176,28.712503 C 63.274412,28.712503 61.551135,28.839381 59.860596,29.064768 L 53.208467,51.736688 L 59.118316,51.736688 L 52.026503,66.702414 L 74.483937,51.736688 L 69.756052,51.736688 L 87.216122,35.730274 C 80.981317,31.320527 73.317292,28.712503 65.028176,28.712503 z M 41.923019,36.400284 C 32.975392,43.139637 27.205123,53.690353 27.205123,65.551203 C 27.205123,72.082338 28.960403,78.214537 32.025194,83.535392 L 41.923019,36.400284 z M 97.175404,46.153328 L 75.665901,64.399992 L 91.026799,92.284584 C 98.302837,85.569271 102.85123,76.077386 102.85123,65.551203 C 102.85123,58.433558 100.76938,51.788785 97.175404,46.153328 z M 63.846212,74.760883 L 47.298619,87.424187 L 45.849529,97.29695 C 51.474543,100.52931 58.028658,102.3899 65.028176,102.3899 C 69.231372,102.3899 73.270621,101.71096 77.04882,100.4766 L 63.846212,74.760883 z "
     id="path5710" />
</svg>
