<?xml version="1.0" encoding="UTF-8" standalone="no"?>
<!-- Created with Inkscape (http://www.inkscape.org/) -->
<svg
   xmlns:dc="http://purl.org/dc/elements/1.1/"
   xmlns:cc="http://web.resource.org/cc/"
   xmlns:rdf="http://www.w3.org/1999/02/22-rdf-syntax-ns#"
   xmlns:svg="http://www.w3.org/2000/svg"
   xmlns="http://www.w3.org/2000/svg"
   xmlns:sodipodi="http://sodipodi.sourceforge.net/DTD/sodipodi-0.dtd"
   xmlns:inkscape="http://www.inkscape.org/namespaces/inkscape"
   width="1000.0005"
   height="548.77496"
   id="svg5698"
   sodipodi:version="0.32"
   inkscape:version="0.44.1"
   sodipodi:docbase="C:\Documents and Settings\jeppesen\workspace\svg"
   sodipodi:docname="KwanSystems.svg"
   version="1.0"
   inkscape:export-filename="/home/chrisj/public_html/KwanSystems.png"
   inkscape:export-xdpi="18"
   inkscape:export-ydpi="18">
  <defs
     id="defs5700" />
  <sodipodi:namedview
     id="base"
     pagecolor="#ffffff"
     bordercolor="#666666"
     borderopacity="1.0"
     inkscape:pageopacity="0.0"
     inkscape:pageshadow="2"
     inkscape:zoom="0.35"
     inkscape:cx="646.06932"
     inkscape:cy="566.613"
     inkscape:document-units="px"
     inkscape:current-layer="svg5698"
     showguides="true"
     inkscape:guide-bbox="true"
     inkscape:window-width="1016"
     inkscape:window-height="692"
     inkscape:window-x="221"
     inkscape:window-y="181" />
  <metadata
     id="metadata5703">
    <rdf:RDF>
      <cc:Work
         rdf:about="">
        <dc:format>image/svg+xml</dc:format>
        <dc:type
           rdf:resource="http://purl.org/dc/dcmitype/StillImage" />
      </cc:Work>
    </rdf:RDF>
  </metadata>
  <path
     style="fill:#ff8000;fill-opacity:1;stroke:none;stroke-width:1;stroke-miterlimit:4;stroke-dasharray:none;stroke-opacity:1"
     d="M 155.69452,0 C 148.47535,0 141.38168,0.53627 134.42276,1.48881 L 107.03998,97.30906 L 131.36725,97.30906 L 102.17453,160.55997 L 194.61815,97.30906 L 175.15634,97.30906 L 247.02881,29.6598 C 221.3639,11.02251 189.81576,0 155.69452,0 z M 60.584628,32.49151 C 23.752709,60.97461 0,105.56598 0,155.69451 C 1e-14,183.29762 7.2254067,209.21463 19.84132,231.70261 L 60.584628,32.49151 z M 288.02512,73.71163 L 199.4836,150.82905 L 262.71504,268.68006 C 292.66605,240.29854 311.38905,200.1822 311.38905,155.69451 C 311.38905,125.61262 302.81938,97.52922 288.02512,73.71163 z M 150.82907,194.61814 L 82.712711,248.13813 L 76.747665,289.86426 C 99.902458,303.5254 126.88176,311.38903 155.69452,311.38903 C 172.99655,311.38903 189.62368,308.51958 205.17618,303.30266 L 150.82907,194.61814 z "
     id="path5710" />
  <path
     style="font-size:233.54177856px;font-style:normal;font-variant:normal;font-weight:bold;font-stretch:normal;text-align:start;line-height:100%;writing-mode:lr-tb;text-anchor:start;fill:silver;fill-opacity:1;stroke:black;stroke-width:6.22778034;stroke-linecap:butt;stroke-linejoin:miter;stroke-miterlimit:4;stroke-opacity:1;font-family:Bitstream Vera Sans Mono"
     d="M 255.00159,157.23689 L 294.68544,157.23689 L 316.12385,245.27119 L 337.67629,157.23689 L 371.77248,157.23689 L 393.21088,244.35892 L 414.76332,157.23689 L 454.44718,157.23689 L 420.80713,284.95505 L 376.2198,284.95505 L 354.66736,197.14881 L 333.22896,284.95505 L 288.64164,284.95505 L 255.00159,157.23689 M 539.40255,227.48188 C 530.88794,227.48193 524.46403,228.92636 520.1308,231.81517 C 515.87347,234.70408 513.74484,238.96135 513.74489,244.58699 C 513.74484,249.75657 515.45535,253.82378 518.87642,256.78863 C 522.37341,259.67752 527.20084,261.12195 533.35875,261.12193 C 541.03696,261.12195 547.49889,258.38514 552.74454,252.91147 C 557.99001,247.36185 560.61279,240.44379 560.61289,232.15727 L 560.61289,227.48188 L 539.40255,227.48188 M 601.77919,212.08728 L 601.77919,284.95505 L 560.61289,284.95505 L 560.61289,266.02539 C 555.13916,273.77972 548.98133,279.44341 542.13937,283.01647 C 535.29725,286.51351 526.97278,288.26203 517.16591,288.26204 C 503.93792,288.26203 493.18071,284.42289 484.89427,276.74459 C 476.6838,268.99029 472.57858,258.95531 472.57859,246.6396 C 472.57858,231.66318 477.71011,220.67791 487.97319,213.68375 C 498.31224,206.68974 514.50506,203.1927 536.5517,203.19262 L 560.61289,203.19262 L 560.61289,199.99966 C 560.61279,193.53782 558.06604,188.82442 552.97261,185.85944 C 547.879,182.81863 539.93464,181.29818 529.13949,181.29808 C 520.39682,181.29818 512.2624,182.17244 504.7362,183.92086 C 497.20991,185.66948 490.21583,188.29226 483.75393,191.78921 L 483.75393,160.65791 C 492.49651,158.5294 501.27712,156.93292 510.0958,155.86848 C 518.91438,154.72827 527.733,154.1581 536.5517,154.15797 C 559.58649,154.1581 576.19743,158.71946 586.38459,167.84206 C 596.64752,176.88887 601.77905,191.63726 601.77919,212.08728 M 768.38298,207.18381 L 768.38298,284.95505 L 727.33071,284.95505 L 727.33071,272.29727 L 727.33071,225.42926 C 727.33061,214.40604 727.06453,206.80378 726.53248,202.62245 C 726.07623,198.44129 725.23999,195.36237 724.02373,193.38569 C 722.42715,190.72499 720.2605,188.67238 717.52378,187.22785 C 714.78687,185.70749 711.66994,184.94727 708.17299,184.94717 C 699.65837,184.94727 692.96838,188.25425 688.10299,194.86813 C 683.23748,201.40617 680.80475,210.49087 680.80481,222.12227 L 680.80481,284.95505 L 639.98062,284.95505 L 639.98062,157.23689 L 680.80481,157.23689 L 680.80481,175.93848 C 686.96259,168.48837 693.50053,163.01474 700.41867,159.51757 C 707.33665,155.94463 714.97693,154.1581 723.33952,154.15797 C 738.08781,154.1581 749.26314,158.68145 756.86554,167.72802 C 764.54369,176.77483 768.38283,189.92675 768.38298,207.18381"
     id="text3685" />
  <path
     style="font-size:233.54177856px;font-style:normal;font-variant:normal;font-weight:bold;font-stretch:normal;text-align:start;line-height:100%;writing-mode:lr-tb;text-anchor:start;fill:silver;fill-opacity:1;stroke:black;stroke-width:6.22778034;stroke-linecap:butt;stroke-linejoin:miter;stroke-miterlimit:4;stroke-opacity:1;font-family:Bitstream Vera Sans Mono"
     d="M 126.27069,330.36479 L 126.27069,366.39956 C 116.91976,362.21844 107.79705,359.0635 98.90251,356.93473 C 90.007749,354.80623 81.607247,353.74192 73.70098,353.74177 C 63.209769,353.74192 55.45546,355.18635 50.43803,358.07507 C 45.420472,360.96407 42.911725,365.4494 42.911781,371.53109 C 42.911725,376.09257 44.584223,379.66564 47.92928,382.25029 C 51.350237,384.75915 57.508071,386.9258 66.4028,388.75023 L 85.104388,392.51336 C 104.03393,396.31459 117.48993,402.09231 125.47245,409.84654 C 133.45469,417.60093 137.44588,428.62421 137.44603,442.91642 C 137.44588,461.69406 131.85821,475.68223 120.68302,484.88096 C 109.58358,494.00368 92.592519,498.56504 69.709788,498.56504 C 58.91449,498.56504 48.081264,497.53874 37.210077,495.48612 C 26.338789,493.43351 15.467552,490.39261 4.596333,486.3634 L 4.596333,449.30233 C 15.467552,455.08009 25.958676,459.45139 36.069737,462.41624 C 46.256721,465.30514 56.063641,466.74957 65.490527,466.74954 C 75.069301,466.74957 82.405485,465.15309 87.499103,461.96011 C 92.592519,458.76719 95.139277,454.20583 95.139386,448.27602 C 95.139277,442.95448 93.390756,438.84926 89.893819,435.96034 C 86.472696,433.07154 79.592648,430.48677 69.253652,428.20602 L 52.262575,424.4429 C 35.233438,420.79388 22.765725,414.97815 14.859399,406.99569 C 7.0290392,399.0134 3.1138733,388.25619 3.1138901,374.72404 C 3.1138733,357.77112 8.5875033,344.73323 19.534796,335.61036 C 30.482023,326.4878 46.218709,321.92644 66.744902,321.92627 C 76.095606,321.92644 85.71247,322.64866 95.595522,324.09292 C 105.47836,325.46149 115.7034,327.55212 126.27069,330.36479 M 137.07023,367.5399 L 177.89443,367.5399 L 212.21869,454.20579 L 241.41141,367.5399 L 282.23561,367.5399 L 228.52556,507.34567 C 223.12786,521.56189 216.81798,531.48284 209.5959,537.10856 C 202.4497,542.81022 192.98488,545.66107 181.20142,545.66112 L 157.59637,545.66112 L 157.59637,518.86311 L 170.36818,518.86311 C 177.28621,518.86309 182.3037,517.76076 185.42068,515.55612 C 188.61358,513.35144 191.08431,509.39827 192.83289,503.69658 L 193.97323,500.16152 L 137.07023,367.5399 M 390.61669,371.53109 L 390.61669,402.54836 C 381.87396,398.89936 373.43545,396.16255 365.30112,394.3379 C 357.16661,392.51346 349.48832,391.60119 342.26624,391.60109 C 334.51186,391.60119 328.73414,392.58948 324.93306,394.56597 C 321.2079,396.46664 319.34534,399.43152 319.34539,403.46063 C 319.34534,406.72969 320.75176,409.23844 323.56465,410.98688 C 326.45346,412.73548 331.58499,414.02787 338.95925,414.86404 L 346.1434,415.89034 C 367.04955,418.55121 381.11374,422.92252 388.336,429.00426 C 395.55804,435.08614 399.16911,444.62698 399.16924,457.62681 C 399.16911,471.2349 394.15162,481.45995 384.11674,488.30198 C 374.08164,495.14402 359.10518,498.56504 339.18732,498.56504 C 330.74874,498.56504 322.00614,497.88084 312.95948,496.51243 C 303.98877,495.22005 294.75202,493.24346 285.2492,490.58266 L 285.2492,459.56539 C 293.38361,463.51861 301.70809,466.48349 310.22267,468.46005 C 318.81318,470.43667 327.51778,471.42496 336.33647,471.42494 C 344.31878,471.42496 350.32457,470.32263 354.35385,468.11795 C 358.38297,465.91332 360.39757,462.64434 360.39766,458.31102 C 360.39757,454.66197 358.99115,451.96316 356.1784,450.2146 C 353.4415,448.3901 347.92986,446.98368 339.64346,445.99534 L 332.45931,445.08307 C 314.28984,442.80244 301.55605,438.58318 294.2579,432.42528 C 286.9597,426.26751 283.31061,416.91673 283.31062,404.3729 C 283.31061,390.84096 287.94799,380.80597 297.22278,374.26791 C 306.49752,367.73008 320.71375,364.46111 339.87152,364.46098 C 347.3977,364.46111 355.30405,365.03128 363.59061,366.17149 C 371.87699,367.31196 380.88567,369.09849 390.61669,371.53109 M 463.7273,331.27706 L 463.7273,367.5399 L 505.80587,367.5399 L 505.80587,396.73262 L 463.7273,396.73262 L 463.7273,450.8988 C 463.72723,456.82861 464.90558,460.85781 467.26235,462.98641 C 469.61899,465.03906 474.29438,466.06536 481.28854,466.06533 L 502.27081,466.06533 L 502.27081,495.25806 L 467.26235,495.25806 C 451.14548,495.25806 439.70408,491.91306 432.9381,485.22306 C 426.24807,478.45705 422.90307,467.01565 422.9031,450.8988 L 422.9031,396.73262 L 402.60503,396.73262 L 402.60503,367.5399 L 422.9031,367.5399 L 422.9031,331.27706 L 463.7273,331.27706 M 650.17084,431.05687 L 650.17084,442.68835 L 554.72432,442.68835 C 555.71256,452.26725 559.17159,459.45139 565.10142,464.24079 C 571.03112,469.03025 579.31759,471.42496 589.96085,471.42494 C 598.55132,471.42496 607.33193,470.17059 616.30272,467.66181 C 625.3493,465.07707 634.62406,461.19991 644.12703,456.03034 L 644.12703,487.50374 C 634.47202,491.15283 624.81714,493.88965 615.16238,495.71419 C 605.50739,497.61476 595.85252,498.56504 586.19772,498.56504 C 563.08676,498.56504 545.1074,492.7113 532.25961,481.0038 C 519.48777,469.2203 513.10187,452.72339 513.10188,431.51301 C 513.10187,410.68287 519.37374,394.29999 531.91751,382.36433 C 544.53723,370.42888 561.8704,364.46111 583.91704,364.46098 C 603.98694,364.46111 620.02771,370.50491 632.03942,382.59239 C 644.12689,394.68011 650.17069,410.83492 650.17084,431.05687 M 608.2063,417.48682 C 608.20619,409.73259 605.92551,403.49873 601.36425,398.78523 C 596.87882,393.9959 590.98707,391.60119 583.68897,391.60109 C 575.78254,391.60119 569.35863,393.84386 564.41722,398.3291 C 559.47568,402.73851 556.39677,409.12441 555.18046,417.48682 L 608.2063,417.48682 M 780.64516,388.75023 C 785.81456,380.84399 791.93438,374.8382 799.00464,370.73285 C 806.15061,366.55173 813.98095,364.46111 822.49566,364.46098 C 837.16785,364.46111 848.34318,368.98445 856.02168,378.03103 C 863.69975,387.07784 867.5389,400.22976 867.53912,417.48682 L 867.53912,495.25806 L 826.48685,495.25806 L 826.48685,428.66216 C 826.56269,427.67393 826.6007,426.64763 826.60089,425.58324 C 826.67673,424.51899 826.71474,422.99854 826.71492,421.02188 C 826.71474,411.97526 825.38434,405.43731 822.72373,401.40802 C 820.06276,397.30289 815.76748,395.25028 809.83788,395.25018 C 802.0834,395.25028 796.07762,398.44323 791.8205,404.82904 C 787.6391,411.21503 785.47246,420.45178 785.32055,432.53932 L 785.32055,495.25806 L 744.26829,495.25806 L 744.26829,428.66216 C 744.26819,414.52201 743.05182,405.43731 740.6192,401.40802 C 738.18638,397.30289 733.85309,395.25028 727.61931,395.25018 C 719.7889,395.25028 713.7451,398.48124 709.4879,404.94307 C 705.23056,411.32906 703.10193,420.48979 703.10199,432.42528 L 703.10199,495.25806 L 662.04972,495.25806 L 662.04972,367.5399 L 703.10199,367.5399 L 703.10199,386.24148 C 708.11942,379.01944 713.85913,373.58382 720.32113,369.93461 C 726.859,366.28565 734.04314,364.46111 741.87357,364.46098 C 750.6921,364.46111 758.48442,366.58974 765.25056,370.84688 C 772.01645,375.10428 777.14798,381.07205 780.64516,388.75023 M 988.33409,371.53109 L 988.33409,402.54836 C 979.59137,398.89936 971.15286,396.16255 963.01853,394.3379 C 954.88401,392.51346 947.20573,391.60119 939.98365,391.60109 C 932.22927,391.60119 926.45155,392.58948 922.65047,394.56597 C 918.9253,396.46664 917.06275,399.43152 917.0628,403.46063 C 917.06275,406.72969 918.46917,409.23844 921.28206,410.98688 C 924.17087,412.73548 929.3024,414.02787 936.67666,414.86404 L 943.86081,415.89034 C 964.76696,418.55121 978.83114,422.92252 986.05341,429.00426 C 993.27545,435.08614 996.88652,444.62698 996.88665,457.62681 C 996.88652,471.2349 991.86903,481.45995 981.83415,488.30198 C 971.79905,495.14402 956.82259,498.56504 936.90473,498.56504 C 928.46615,498.56504 919.72354,497.88084 910.67689,496.51243 C 901.70618,495.22005 892.46943,493.24346 882.96661,490.58266 L 882.96661,459.56539 C 891.10102,463.51861 899.4255,466.48349 907.94007,468.46005 C 916.53059,470.43667 925.23518,471.42496 934.05388,471.42494 C 942.03619,471.42496 948.04198,470.32263 952.07126,468.11795 C 956.10038,465.91332 958.11497,462.64434 958.11506,458.31102 C 958.11497,454.66197 956.70856,451.96316 953.8958,450.2146 C 951.1589,448.3901 945.64726,446.98368 937.36086,445.99534 L 930.17672,445.08307 C 912.00724,442.80244 899.27345,438.58318 891.9753,432.42528 C 884.67711,426.26751 881.02802,416.91673 881.02803,404.3729 C 881.02802,390.84096 885.6654,380.80597 894.94019,374.26791 C 904.21492,367.73008 918.43116,364.46111 937.58893,364.46098 C 945.1151,364.46111 953.02146,365.03128 961.30802,366.17149 C 969.59439,367.31196 978.60308,369.09849 988.33409,371.53109"
     id="text4577" />
</svg>
