<?xml version="1.0" encoding="UTF-8" standalone="no"?>
<!-- Created with Inkscape (http://www.inkscape.org/) -->

<svg
   xmlns:dc="http://purl.org/dc/elements/1.1/"
   xmlns:cc="http://creativecommons.org/ns#"
   xmlns:rdf="http://www.w3.org/1999/02/22-rdf-syntax-ns#"
   xmlns:svg="http://www.w3.org/2000/svg"
   xmlns="http://www.w3.org/2000/svg"
   xmlns:sodipodi="http://sodipodi.sourceforge.net/DTD/sodipodi-0.dtd"
   xmlns:inkscape="http://www.inkscape.org/namespaces/inkscape"
   width="765"
   height="990"
   id="svg5698"
   sodipodi:version="0.32"
   inkscape:version="0.48.1 "
   sodipodi:docname="Kwan.svg"
   version="1.1">
  <defs
     id="defs5700" />
  <sodipodi:namedview
     id="base"
     pagecolor="#ffffff"
     bordercolor="#666666"
     borderopacity="1.0"
     inkscape:pageopacity="0.0"
     inkscape:pageshadow="2"
     inkscape:zoom="0.96868687"
     inkscape:cx="382.5"
     inkscape:cy="495"
     inkscape:document-units="in"
     inkscape:current-layer="svg5698"
     showguides="true"
     inkscape:guide-bbox="true"
     inkscape:window-width="1817"
     inkscape:window-height="1178"
     inkscape:window-x="95"
     inkscape:window-y="-8"
     showgrid="false"
     units="in"
     inkscape:window-maximized="1" />
  <metadata
     id="metadata5703">
    <rdf:RDF>
      <cc:Work
         rdf:about="">
        <dc:format>image/svg+xml</dc:format>
        <dc:type
           rdf:resource="http://purl.org/dc/dcmitype/StillImage" />
      </cc:Work>
    </rdf:RDF>
  </metadata>
  <path
     style="fill:#ff8000;fill-opacity:1;stroke:none"
     d="m 500,-10.00002 c -23.18375,0 -45.9645,1.722 -68.3125,4.781 l -87.9375,307.719 78.125,0 -93.75,203.125 296.875,-203.125 -62.5,0 230.8125,-217.25 C 710.89177,25.39798 609.57751,-10.00002 500,-10.00002 z M 194.5625,94.34398 C 76.279852,185.81498 0,329.01598 0,489.99998 c 0,88.645 23.203793,171.875 63.71875,244.094 l 130.84375,-639.75 z m 730.40625,132.375 -284.34375,247.656 203.0625,378.469 C 939.87267,761.69898 1000,632.86798 1000,489.99998 c 0,-96.606 -27.52075,-186.793 -75.03125,-263.281 z m -440.59375,388.281 -218.75,171.875 -19.15625,134 c 74.35969,43.872 161.00148,69.125 253.53125,69.125 55.56404,0 108.96067,-9.215 158.90625,-25.969 L 484.375,614.99998 z"
     id="path5710"
     inkscape:connector-curvature="0" />
</svg>
