<?xml version="1.0" encoding="UTF-8" standalone="no"?>
<!DOCTYPE svg PUBLIC "-//W3C//DTD SVG 20010904//EN"
              "http://www.w3.org/TR/2001/REC-SVG-20010904/DTD/svg10.dtd">

<svg xmlns="http://www.w3.org/2000/svg"
     width="14.2222in" height="14.2222in"
     viewBox="0 0 1024 1024">
  <path id="Circle"
        fill="none" stroke="black" stroke-width="9"
        d="M 67,570
           C 67.00,324.23 266.23,125.00 512.00,125.00
             757.77,125.00 957.00,324.23 957.00,570.00
             957.00,815.77 757.77,1015.00 512.00,1015.00
             266.23,1015.00 67.00,815.77 67.00,570.00 Z" />
  <path id="NERGAL ND-001"
        fill="black"
        d="M 331.72,730.34
           C 331.13,730.11 330.20,730.00 328.91,730.00
             326.63,730.00 325.02,730.08 324.10,730.23
             321.38,730.68 319.98,731.77 319.89,733.50
             319.85,734.25 319.96,734.89 320.22,735.41
             320.48,735.92 320.98,736.45 321.70,737.00
             322.14,737.30 322.45,737.63 322.63,737.97
             322.81,738.31 322.94,738.83 323.04,739.52
             323.28,741.41 323.29,744.45 323.06,748.63
             322.85,752.53 322.53,755.53 322.12,757.61
             321.88,758.76 321.32,759.55 320.44,760.00
             319.56,760.70 318.98,761.26 318.71,761.67
             318.44,762.08 318.29,762.69 318.25,763.50
             318.18,764.63 318.79,765.49 320.07,766.09
             321.35,766.70 323.18,767.00 325.55,767.00
             330.55,767.00 333.12,765.83 333.25,763.50
             333.32,762.06 332.72,760.90 331.44,760.00
             330.65,759.60 330.14,758.98 329.93,758.14
             329.72,757.30 329.67,755.72 329.80,753.41
             329.95,750.56 330.64,749.14 331.84,749.14
             332.66,749.14 333.66,749.62 334.84,750.58
             334.84,750.58 349.55,765.11 349.55,765.11
             350.43,765.92 351.07,766.44 351.46,766.66
             351.86,766.89 352.33,767.00 352.88,767.00
             354.15,767.00 355.08,766.17 355.66,764.52
             356.13,763.18 356.43,761.01 356.58,758.00
             356.68,755.79 356.76,754.05 356.83,752.77
             356.83,752.77 357.29,744.42 357.29,744.42
             357.49,741.28 357.94,739.14 358.62,738.02
             358.82,737.68 359.05,737.43 359.31,737.27
             359.57,737.09 359.90,736.86 360.30,736.58
             361.28,735.88 361.81,734.85 361.89,733.50
             361.97,732.04 361.26,731.05 359.75,730.52
             358.81,730.17 357.09,730.00 354.58,730.00
             352.47,730.00 350.99,730.10 350.14,730.30
             348.06,730.78 346.98,731.84 346.89,733.50
             346.84,734.32 346.96,734.99 347.23,735.52
             347.50,736.04 347.99,736.53 348.70,737.00
             349.50,737.35 350.01,737.89 350.22,738.61
             350.44,739.32 350.50,740.65 350.39,742.59
             350.29,744.43 349.73,745.34 348.71,745.34
             348.11,745.34 347.16,744.82 345.84,743.77
             345.84,743.77 333.76,731.83 333.76,731.83
             332.99,731.06 332.31,730.56 331.72,730.34 Z
           M 365.82,731.28
           C 365.27,731.44 364.81,731.77 364.45,732.28
             364.09,732.78 363.89,733.35 363.86,734.00
             363.77,735.55 364.39,736.55 365.70,737.00
             366.11,737.17 366.38,737.31 366.50,737.44
             366.63,737.55 366.74,737.76 366.84,738.05
             367.29,739.56 367.36,743.19 367.04,748.94
             366.83,752.75 366.45,755.79 365.89,758.05
             365.75,758.59 365.58,759.01 365.37,759.30
             365.16,759.58 364.85,759.81 364.44,760.00
             363.55,760.53 362.98,760.97 362.72,761.33
             362.47,761.67 362.32,762.23 362.27,763.00
             362.22,763.95 362.43,764.69 362.89,765.22
             363.36,765.74 364.05,766.00 364.95,766.00
             364.95,766.00 387.33,766.00 387.33,766.00
             389.20,766.09 390.68,766.33 391.79,766.72
             392.41,766.91 392.89,767.00 393.23,767.00
             393.63,767.00 393.97,766.90 394.24,766.69
             394.53,766.49 394.88,766.09 395.31,765.50
             396.18,764.27 396.93,762.87 397.55,761.30
             398.18,759.72 398.52,758.41 398.58,757.36
             398.63,756.40 398.44,755.60 397.99,754.97
             397.55,754.32 396.96,754.00 396.23,754.00
             395.60,754.00 395.08,754.17 394.67,754.52
             394.27,754.85 393.79,755.51 393.24,756.48
             392.31,758.20 391.16,759.39 389.80,760.03
             388.44,760.68 386.45,761.00 383.84,761.00
             382.14,761.00 380.93,760.90 380.21,760.69
             379.51,760.48 379.09,760.10 378.98,759.56
             378.89,759.14 378.82,758.25 378.78,756.91
             378.74,755.56 378.74,754.47 378.79,753.63
             378.86,752.23 379.06,751.28 379.36,750.77
             379.67,750.26 380.21,750.00 380.98,750.00
             382.98,750.00 384.07,750.93 384.25,752.78
             384.33,753.69 384.48,754.29 384.72,754.58
             384.95,754.86 385.39,755.00 386.02,755.00
             387.05,755.00 387.85,754.52 388.41,753.56
             389.43,751.79 390.01,749.52 390.16,746.75
             390.24,745.35 390.18,744.01 389.98,742.72
             389.79,741.43 389.51,740.53 389.14,740.02
             388.64,739.34 388.01,739.00 387.26,739.00
             386.74,739.00 386.28,739.16 385.87,739.48
             385.48,739.79 385.20,740.14 385.03,740.55
             384.88,740.94 384.70,741.68 384.52,742.77
             384.38,743.60 384.15,744.18 383.82,744.52
             383.50,744.84 382.99,745.00 382.30,745.00
             380.92,745.00 380.07,744.89 379.76,744.66
             379.45,744.43 379.32,743.83 379.37,742.88
             379.51,740.46 379.61,738.96 379.68,738.38
             379.76,737.79 379.91,737.32 380.15,736.97
             380.62,736.32 381.85,736.00 383.83,736.00
             386.48,736.00 388.38,736.20 389.53,736.61
             390.68,737.01 391.61,737.80 392.30,739.00
             392.79,739.84 393.18,740.39 393.48,740.64
             393.79,740.88 394.23,741.00 394.80,741.00
             395.64,741.00 396.31,740.67 396.81,740.00
             397.33,739.33 397.62,738.43 397.68,737.30
             397.80,735.02 397.33,733.07 396.25,731.47
             395.60,730.49 394.83,730.00 393.92,730.00
             393.70,730.00 393.41,730.05 393.04,730.16
             391.83,730.50 390.60,730.73 389.33,730.84
             388.07,730.95 386.07,731.00 383.32,731.00
             383.32,731.00 369.80,731.00 369.80,731.00
             367.85,731.00 366.52,731.09 365.82,731.28 Z
           M 419.96,752.17
           C 420.52,752.89 420.95,754.13 421.24,755.89
             421.71,758.62 422.13,760.63 422.50,761.92
             422.89,763.21 423.39,764.29 423.98,765.14
             425.31,767.05 427.63,768.00 430.94,768.00
             433.43,768.00 435.41,767.58 436.88,766.75
             437.55,766.36 438.10,765.84 438.54,765.19
             438.99,764.52 439.23,763.85 439.26,763.19
             439.29,762.69 439.18,762.23 438.93,761.81
             438.69,761.40 438.38,761.13 437.99,761.00
             436.73,760.71 435.93,760.41 435.59,760.11
             435.26,759.80 435.03,759.11 434.90,758.05
             434.45,755.41 433.91,753.42 433.26,752.08
             432.62,750.73 431.54,749.73 430.02,749.06
             429.32,748.74 428.98,748.33 429.01,747.83
             429.03,747.44 429.32,747.11 429.89,746.83
             431.25,746.16 432.35,745.17 433.18,743.86
             434.01,742.54 434.47,741.07 434.56,739.47
             434.72,736.58 433.76,734.33 431.68,732.70
             429.38,730.90 426.40,730.00 422.73,730.00
             422.09,730.00 420.95,730.13 419.31,730.38
             416.71,730.79 414.64,731.00 413.10,731.00
             412.17,731.00 411.50,731.00 411.07,731.00
             408.81,731.00 407.39,731.00 406.82,731.00
             405.54,731.00 404.53,731.09 403.79,731.28
             402.89,731.50 402.19,731.85 401.67,732.33
             401.16,732.80 400.89,733.35 400.86,734.00
             400.82,734.67 400.92,735.21 401.16,735.63
             401.41,736.04 401.92,736.50 402.70,737.00
             403.50,737.36 404.00,737.94 404.21,738.73
             404.43,739.52 404.48,740.99 404.36,743.17
             403.98,750.06 403.73,754.06 403.59,755.17
             403.41,756.70 403.18,757.78 402.90,758.39
             402.63,759.01 402.14,759.54 401.44,760.00
             400.55,760.77 399.97,761.37 399.70,761.80
             399.44,762.22 399.28,762.79 399.25,763.50
             399.12,765.83 402.39,767.00 409.05,767.00
             412.33,767.00 414.66,766.73 416.05,766.20
             417.45,765.67 418.18,764.77 418.25,763.50
             418.33,762.04 417.89,760.88 416.94,760.00
             416.54,759.75 416.28,759.54 416.14,759.38
             416.01,759.20 415.91,758.96 415.85,758.66
             415.69,757.54 415.66,756.00 415.76,754.03
             415.84,752.72 415.97,751.89 416.17,751.53
             416.37,751.18 416.79,751.00 417.43,751.00
             418.55,751.05 419.40,751.44 419.96,752.17 Z
           M 417.38,736.42
           C 417.65,736.14 418.07,736.00 418.66,736.00
             420.72,736.00 421.67,737.51 421.50,740.52
             421.42,742.08 421.05,743.22 420.41,743.94
             419.78,744.65 418.79,745.00 417.46,745.00
             416.98,745.00 416.66,744.91 416.51,744.72
             416.36,744.53 416.30,744.15 416.34,743.58
             416.34,743.48 416.34,743.42 416.35,743.39
             416.35,743.39 416.89,737.92 416.89,737.92
             416.97,737.19 417.13,736.69 417.38,736.42 Z
           M 451.27,732.19
           C 447.87,733.83 445.17,736.18 443.17,739.22
             441.28,742.05 440.26,745.04 440.08,748.19
             439.91,751.29 440.47,754.18 441.75,756.86
             443.30,760.08 445.68,762.58 448.87,764.36
             451.99,766.12 455.48,767.00 459.32,767.00
             461.67,767.00 463.94,766.61 466.10,765.83
             468.27,765.04 470.15,763.94 471.75,762.55
             474.05,760.51 475.66,757.96 476.59,754.92
             476.82,754.15 477.03,753.67 477.22,753.47
             477.42,753.26 477.83,753.10 478.45,753.00
             479.16,752.93 479.74,752.68 480.20,752.27
             480.67,751.84 480.91,751.34 480.94,750.77
             481.02,749.35 480.10,748.37 478.20,747.83
             476.20,747.28 473.70,747.00 470.71,747.00
             467.91,747.00 465.42,747.30 463.26,747.91
             461.28,748.46 460.25,749.39 460.18,750.69
             460.14,751.36 460.36,751.92 460.84,752.36
             461.32,752.79 461.93,753.00 462.70,753.00
             463.55,753.00 464.06,753.02 464.22,753.05
             464.39,753.08 464.57,753.17 464.77,753.33
             465.24,753.71 465.45,754.39 465.40,755.34
             465.34,756.41 464.99,757.28 464.36,757.97
             463.73,758.66 462.96,759.00 462.04,759.00
             460.92,759.00 459.82,758.69 458.72,758.06
             457.61,757.43 456.68,756.59 455.92,755.55
             453.92,752.65 453.03,749.16 453.25,745.06
             453.41,742.29 454.21,740.09 455.68,738.45
             457.14,736.82 459.04,736.00 461.38,736.00
             463.95,736.00 466.15,737.17 468.00,739.50
             469.11,740.89 469.81,741.69 470.10,741.92
             471.06,742.64 472.06,743.00 473.10,743.00
             474.38,743.00 475.44,742.57 476.27,741.70
             477.09,740.84 477.55,739.70 477.62,738.30
             477.74,736.23 477.12,734.34 475.76,732.61
             474.92,731.54 474.00,731.00 473.01,731.00
             472.62,731.00 472.24,731.06 471.86,731.17
             470.71,731.57 469.96,731.77 469.61,731.77
             469.26,731.77 468.64,731.62 467.74,731.33
             465.74,730.44 463.58,730.00 461.27,730.00
             457.57,730.00 454.24,730.73 451.27,732.19 Z
           M 503.92,732.03
           C 502.40,730.68 500.76,730.00 499.00,730.00
             497.16,730.00 495.60,730.60 494.34,731.80
             493.74,732.35 493.34,732.91 493.14,733.48
             492.95,734.06 492.81,735.08 492.70,736.55
             492.61,737.94 492.29,739.36 491.75,740.81
             491.23,742.26 490.20,744.44 488.68,747.36
             488.68,747.36 484.58,755.31 484.58,755.31
             483.38,757.67 482.47,759.20 481.85,759.92
             481.23,760.64 480.35,761.21 479.21,761.64
             478.48,761.91 477.98,762.20 477.69,762.52
             477.41,762.83 477.26,763.27 477.23,763.83
             477.16,765.15 477.66,766.01 478.74,766.39
             479.92,766.80 481.78,767.00 484.32,767.00
             488.81,767.00 491.12,765.84 491.24,763.53
             491.30,762.49 490.89,761.79 490.02,761.44
             489.34,761.15 488.95,760.94 488.83,760.81
             488.71,760.68 488.67,760.39 488.69,759.95
             488.71,759.64 488.83,759.32 489.07,759.00
             489.32,758.67 489.59,758.44 489.89,758.31
             490.39,758.10 491.88,758.00 494.36,758.00
             497.30,758.00 499.57,758.09 501.19,758.27
             502.69,758.45 503.41,759.05 503.36,760.06
             503.32,760.69 502.92,761.15 502.14,761.44
             501.44,761.70 500.95,761.98 500.69,762.30
             500.42,762.60 500.27,763.03 500.24,763.59
             500.20,764.31 500.42,764.93 500.89,765.44
             501.37,765.95 502.03,766.29 502.87,766.45
             504.71,766.82 507.56,767.00 511.41,767.00
             514.84,767.00 517.32,766.70 518.85,766.11
             520.39,765.52 521.19,764.55 521.26,763.20
             521.33,762.05 520.74,761.37 519.51,761.17
             518.87,761.06 518.41,760.85 518.11,760.55
             517.81,760.24 517.46,759.60 517.04,758.63
             517.04,758.63 512.69,748.22 512.69,748.22
             508.95,739.28 506.03,733.89 503.92,732.03 Z
           M 492.67,750.53
           C 492.69,750.24 493.07,749.33 493.82,747.81
             494.35,746.99 494.65,746.50 494.75,746.34
             495.28,745.19 495.89,744.61 496.58,744.61
             496.96,744.61 497.32,744.78 497.66,745.13
             497.99,745.47 498.46,746.15 499.06,747.17
             499.93,749.18 500.35,750.44 500.32,750.95
             500.28,751.65 499.80,752.00 498.88,752.00
             498.88,752.00 493.78,752.00 493.78,752.00
             492.99,752.00 492.62,751.51 492.67,750.53 Z
           M 539.96,738.42
           C 540.23,737.76 540.80,737.28 541.70,737.00
             542.61,736.32 543.19,735.78 543.44,735.38
             543.69,734.97 543.84,734.34 543.89,733.50
             543.97,732.02 543.03,731.04 541.06,730.55
             539.53,730.18 537.20,730.00 534.08,730.00
             531.17,730.00 528.84,730.27 527.08,730.81
             525.02,731.43 523.95,732.32 523.89,733.50
             523.84,734.30 523.99,735.01 524.32,735.63
             524.51,735.97 524.97,736.43 525.70,737.00
             526.38,737.21 526.82,737.55 527.01,738.03
             527.22,738.51 527.28,739.39 527.21,740.66
             527.15,742.01 527.09,744.02 527.02,746.69
             526.97,749.47 526.90,751.59 526.82,753.06
             526.64,756.24 526.43,758.16 526.19,758.83
             525.91,759.61 525.31,760.26 524.40,760.77
             523.50,761.22 522.92,761.58 522.68,761.84
             522.44,762.09 522.30,762.48 522.27,763.00
             522.21,764.07 522.53,764.88 523.22,765.42
             523.70,765.81 524.54,766.00 525.75,766.00
             525.75,766.00 544.13,766.00 544.13,766.00
             544.13,766.00 549.90,767.00 549.90,767.00
             550.45,767.00 550.93,766.85 551.33,766.55
             551.73,766.24 552.21,765.69 552.76,764.88
             554.51,762.31 555.44,759.91 555.56,757.67
             555.64,756.29 555.34,755.16 554.67,754.30
             554.01,753.43 553.11,753.00 551.98,753.00
             550.86,753.00 550.11,753.56 549.73,754.69
             549.19,756.51 548.35,757.85 547.20,758.72
             546.04,759.57 544.52,760.00 542.61,760.00
             540.84,760.00 539.70,759.57 539.20,758.72
             538.78,757.99 538.64,756.38 538.77,753.88
             538.77,753.88 539.38,742.75 539.38,742.75
             539.50,740.52 539.70,739.08 539.96,738.42 Z
           M 582.72,730.34
           C 582.13,730.11 581.20,730.00 579.91,730.00
             577.63,730.00 576.02,730.08 575.10,730.23
             572.38,730.68 570.98,731.77 570.89,733.50
             570.85,734.25 570.96,734.89 571.22,735.41
             571.48,735.92 571.98,736.45 572.70,737.00
             573.14,737.30 573.45,737.63 573.63,737.97
             573.81,738.31 573.94,738.83 574.04,739.52
             574.28,741.41 574.29,744.45 574.06,748.63
             573.85,752.53 573.53,755.53 573.12,757.61
             572.88,758.76 572.32,759.55 571.44,760.00
             570.56,760.70 569.98,761.26 569.71,761.67
             569.44,762.08 569.29,762.69 569.25,763.50
             569.18,764.63 569.79,765.49 571.07,766.09
             572.35,766.70 574.18,767.00 576.55,767.00
             581.55,767.00 584.12,765.83 584.25,763.50
             584.32,762.06 583.72,760.90 582.44,760.00
             581.65,759.60 581.14,758.98 580.93,758.14
             580.72,757.30 580.67,755.72 580.80,753.41
             580.95,750.56 581.64,749.14 582.84,749.14
             583.66,749.14 584.66,749.62 585.84,750.58
             585.84,750.58 600.55,765.11 600.55,765.11
             601.43,765.92 602.07,766.44 602.46,766.66
             602.86,766.89 603.33,767.00 603.88,767.00
             605.15,767.00 606.08,766.17 606.66,764.52
             607.13,763.18 607.43,761.01 607.58,758.00
             607.68,755.79 607.76,754.05 607.83,752.77
             607.83,752.77 608.29,744.42 608.29,744.42
             608.49,741.28 608.94,739.14 609.62,738.02
             609.82,737.68 610.05,737.43 610.31,737.27
             610.57,737.09 610.90,736.86 611.30,736.58
             612.28,735.88 612.81,734.85 612.89,733.50
             612.97,732.04 612.26,731.05 610.75,730.52
             609.81,730.17 608.09,730.00 605.58,730.00
             603.47,730.00 601.99,730.10 601.14,730.30
             599.06,730.78 597.98,731.84 597.89,733.50
             597.84,734.32 597.96,734.99 598.23,735.52
             598.50,736.04 598.99,736.53 599.70,737.00
             600.50,737.35 601.01,737.89 601.22,738.61
             601.44,739.32 601.50,740.65 601.39,742.59
             601.29,744.43 600.73,745.34 599.71,745.34
             599.11,745.34 598.16,744.82 596.84,743.77
             596.84,743.77 584.76,731.83 584.76,731.83
             583.99,731.06 583.31,730.56 582.72,730.34 Z
           M 629.97,766.00
           C 629.97,766.00 632.69,766.00 632.69,766.00
             632.69,766.00 635.86,766.00 635.86,766.00
             638.22,766.00 640.47,765.66 642.60,764.97
             646.23,763.80 649.13,761.78 651.31,758.91
             652.36,757.48 653.22,755.79 653.90,753.84
             654.59,751.90 654.99,749.95 655.09,748.00
             655.30,744.17 654.69,740.86 653.25,738.08
             651.65,734.92 649.12,732.68 645.68,731.34
             643.35,730.45 640.15,730.00 636.06,730.00
             635.05,730.00 634.21,730.00 633.53,730.00
             630.33,730.00 627.46,730.00 624.91,730.00
             624.23,730.00 623.15,729.97 621.66,729.92
             620.98,729.91 620.40,729.91 619.91,729.91
             618.39,729.91 617.19,730.22 616.30,730.86
             615.42,731.48 614.95,732.36 614.89,733.50
             614.80,735.15 615.40,736.31 616.70,737.00
             617.55,737.27 618.07,737.62 618.28,738.05
             618.50,738.46 618.57,739.32 618.50,740.61
             618.32,743.89 618.09,747.20 617.81,750.53
             617.54,753.85 617.31,756.09 617.12,757.23
             616.95,758.23 616.75,758.91 616.53,759.25
             616.31,759.59 615.90,759.84 615.30,760.00
             614.62,760.27 614.12,760.64 613.80,761.09
             613.49,761.55 613.32,762.19 613.27,763.00
             613.22,763.90 613.55,764.62 614.25,765.17
             614.95,765.72 615.89,766.00 617.06,766.00
             617.39,766.00 617.97,766.00 618.83,766.00
             620.19,766.00 621.42,766.00 622.52,766.00
             622.52,766.00 624.39,766.00 624.39,766.00
             626.01,766.00 627.86,766.00 629.97,766.00 Z
           M 631.30,736.47
           C 631.70,736.16 632.37,736.00 633.30,736.00
             636.81,736.00 639.23,737.22 640.56,739.67
             641.77,741.90 642.26,745.03 642.04,749.05
             641.64,756.35 638.58,760.00 632.88,760.00
             631.64,760.00 630.76,759.78 630.25,759.34
             629.76,758.91 629.54,758.17 629.59,757.14
             629.59,757.14 630.64,738.05 630.64,738.05
             630.68,737.31 630.90,736.78 631.30,736.47 Z
           M 658.92,748.09
           C 658.56,748.41 658.13,748.99 657.65,749.84
             657.25,750.58 656.83,751.64 656.38,753.00
             655.93,754.35 655.69,755.32 655.66,755.89
             655.62,756.74 655.92,757.17 656.58,757.17
             656.85,757.17 657.25,757.15 657.78,757.09
             658.45,757.03 659.18,757.00 659.96,757.00
             661.82,757.00 663.45,757.13 664.86,757.39
             665.34,757.47 665.72,757.52 666.03,757.52
             666.39,757.52 666.71,757.37 666.99,757.08
             667.28,756.78 667.63,756.20 668.05,755.36
             668.59,754.27 669.04,753.12 669.41,751.92
             669.79,750.72 670.00,749.74 670.04,748.97
             670.09,748.15 669.86,747.73 669.37,747.73
             669.19,747.73 668.82,747.78 668.27,747.88
             667.80,747.96 667.04,748.00 666.00,748.00
             664.97,748.00 663.49,747.89 661.57,747.66
             661.13,747.60 660.71,747.58 660.30,747.58
             659.74,747.60 659.28,747.77 658.92,748.09 Z
           M 677.05,739.69
           C 673.90,742.48 672.19,746.32 671.92,751.20
             671.65,756.19 673.07,760.19 676.20,763.20
             678.83,765.73 682.12,767.00 686.07,767.00
             689.63,767.00 692.87,765.86 695.79,763.58
             699.59,760.59 701.62,756.75 701.87,752.06
             702.01,749.49 701.59,747.07 700.60,744.80
             699.26,741.68 697.10,739.34 694.12,737.77
             691.94,736.59 689.63,736.00 687.19,736.00
             683.22,736.00 679.84,737.23 677.05,739.69 Z
           M 689.04,745.88
           C 689.60,746.95 690.04,748.35 690.36,750.08
             690.68,751.80 690.80,753.42 690.71,754.94
             690.57,757.65 689.53,759.00 687.60,759.00
             686.51,759.00 685.67,758.46 685.08,757.39
             683.57,754.61 682.90,751.48 683.09,748.00
             683.24,745.33 684.29,744.00 686.25,744.00
             687.47,744.05 688.40,744.68 689.04,745.88 Z
           M 709.05,739.69
           C 705.90,742.48 704.19,746.32 703.92,751.20
             703.65,756.19 705.07,760.19 708.20,763.20
             710.83,765.73 714.12,767.00 718.07,767.00
             721.63,767.00 724.87,765.86 727.79,763.58
             731.59,760.59 733.62,756.75 733.87,752.06
             734.01,749.49 733.59,747.07 732.60,744.80
             731.26,741.68 729.10,739.34 726.12,737.77
             723.94,736.59 721.63,736.00 719.19,736.00
             715.22,736.00 711.84,737.23 709.05,739.69 Z
           M 721.04,745.88
           C 721.60,746.95 722.04,748.35 722.36,750.08
             722.68,751.80 722.80,753.42 722.71,754.94
             722.57,757.65 721.53,759.00 719.60,759.00
             718.51,759.00 717.67,758.46 717.08,757.39
             715.57,754.61 714.90,751.48 715.09,748.00
             715.24,745.33 716.29,744.00 718.25,744.00
             719.47,744.05 720.40,744.68 721.04,745.88 Z
           M 733.91,760.81
           C 733.53,761.52 733.31,762.42 733.25,763.50
             733.20,764.39 733.85,765.05 735.20,765.48
             736.58,765.94 738.54,766.33 741.09,766.66
             743.11,766.89 745.26,767.00 747.55,767.00
             750.98,767.00 754.33,766.71 757.60,766.14
             759.96,765.71 761.17,764.83 761.25,763.50
             761.37,761.28 760.26,760.11 757.94,760.00
             756.85,759.94 756.09,759.76 755.67,759.45
             755.26,759.14 755.00,758.57 754.89,757.75
             754.82,757.24 754.79,756.84 754.80,756.55
             754.80,756.24 754.87,754.03 754.99,749.91
             755.30,745.83 755.54,743.50 755.73,742.91
             755.93,742.30 756.60,741.71 757.74,741.13
             758.45,740.76 758.94,740.42 759.18,740.11
             759.43,739.80 759.57,739.36 759.60,738.80
             759.65,737.82 759.33,737.11 758.64,736.67
             757.95,736.22 756.83,736.00 755.27,736.00
             749.53,736.00 744.04,737.20 738.82,739.59
             737.77,740.07 736.94,740.63 736.32,741.25
             735.72,741.88 735.39,742.51 735.36,743.14
             735.33,743.74 735.49,744.23 735.86,744.59
             736.22,744.95 736.72,745.13 737.36,745.13
             737.62,745.13 737.94,745.11 738.33,745.08
             738.81,745.03 739.18,745.00 739.43,745.00
             740.50,745.00 741.23,745.16 741.62,745.47
             742.01,745.78 742.18,746.35 742.14,747.17
             741.85,752.55 741.57,755.81 741.32,756.97
             740.89,758.99 739.59,760.00 737.44,760.00
             737.24,760.00 736.98,759.97 736.65,759.91
             735.92,759.78 735.47,759.72 735.28,759.72
             734.75,759.74 734.29,760.10 733.91,760.81 Z
           M 203.98,794.56
           C 202.91,794.19 201.18,794.00 198.78,794.00
             194.58,794.00 191.64,794.11 189.97,794.34
             184.99,795.09 182.42,796.90 182.26,799.77
             182.21,800.67 182.44,801.44 182.93,802.06
             183.44,802.69 184.38,803.33 185.74,803.98
             186.91,804.56 187.74,805.16 188.23,805.78
             188.73,806.41 189.11,807.36 189.37,808.64
             190.12,812.17 190.28,817.79 189.86,825.50
             189.46,832.73 188.93,838.27 188.26,842.13
             187.88,844.25 187.05,845.72 185.77,846.55
             184.42,847.42 183.54,848.11 183.14,848.63
             182.75,849.13 182.52,849.89 182.47,850.91
             182.36,852.84 183.30,854.34 185.28,855.41
             187.28,856.47 190.13,857.00 193.84,857.00
             202.03,857.00 206.25,854.91 206.48,850.72
             206.56,849.11 205.72,847.81 203.94,846.81
             202.66,846.09 201.84,844.97 201.50,843.44
             201.17,841.90 201.12,839.03 201.35,834.83
             201.62,829.77 202.70,827.23 204.57,827.23
             205.84,827.23 207.39,828.06 209.20,829.72
             209.20,829.72 234.28,853.77 234.28,853.77
             235.75,855.15 236.82,856.04 237.48,856.42
             238.13,856.81 238.92,857.00 239.85,857.00
             241.98,857.00 243.51,855.55 244.46,852.66
             245.26,850.32 245.78,846.53 246.04,841.28
             246.22,837.40 246.37,834.34 246.49,832.11
             246.49,832.11 247.29,817.52 247.29,817.52
             247.61,812.02 248.16,808.28 248.94,806.31
             249.17,805.72 249.43,805.27 249.71,804.97
             250.00,804.67 250.52,804.32 251.27,803.94
             253.17,802.95 254.17,801.48 254.27,799.55
             254.40,797.21 253.22,795.63 250.72,794.80
             249.16,794.27 246.29,794.00 242.13,794.00
             238.90,794.00 236.62,794.15 235.30,794.45
             232.10,795.17 230.42,796.80 230.29,799.34
             230.23,800.36 230.40,801.20 230.79,801.86
             231.18,802.51 231.89,803.11 232.91,803.69
             234.16,804.39 234.95,805.43 235.27,806.81
             235.60,808.20 235.66,810.79 235.45,814.59
             235.27,817.92 234.39,819.58 232.80,819.58
             231.86,819.58 230.37,818.68 228.34,816.88
             228.34,816.88 207.72,797.09 207.72,797.09
             206.30,795.78 205.06,794.94 203.98,794.56 Z
           M 322.92,797.47
           C 320.33,795.16 317.54,794.00 314.56,794.00
             311.41,794.00 308.75,795.03 306.60,797.08
             305.58,798.02 304.90,798.97 304.57,799.95
             304.23,800.93 303.98,802.69 303.81,805.22
             303.65,807.59 303.10,810.02 302.18,812.50
             301.26,814.98 299.52,818.71 296.95,823.69
             296.95,823.69 289.96,837.28 289.96,837.28
             287.90,841.30 286.34,843.93 285.28,845.16
             284.23,846.39 282.73,847.35 280.76,848.06
             279.56,848.49 278.72,848.97 278.23,849.50
             277.74,850.03 277.47,850.77 277.42,851.72
             277.30,853.92 278.24,855.33 280.25,855.97
             282.44,856.66 285.91,857.00 290.65,857.00
             298.97,857.00 303.24,855.07 303.45,851.22
             303.54,849.48 302.75,848.32 301.06,847.73
             299.77,847.24 299.00,846.94 298.77,846.81
             298.54,846.68 298.43,846.40 298.45,845.97
             298.49,845.34 298.70,844.70 299.09,844.03
             299.48,843.35 299.93,842.89 300.42,842.63
             301.20,842.21 303.56,842.00 307.48,842.00
             312.15,842.00 315.77,842.16 318.33,842.48
             320.70,842.79 321.84,843.80 321.74,845.53
             321.69,846.51 321.00,847.25 319.67,847.75
             318.48,848.19 317.66,848.66 317.20,849.17
             316.75,849.67 316.49,850.39 316.44,851.33
             316.38,852.54 316.75,853.57 317.56,854.42
             318.37,855.27 319.51,855.83 320.96,856.13
             324.13,856.71 329.01,857.00 335.62,857.00
             341.48,857.00 345.73,856.51 348.35,855.53
             350.98,854.54 352.36,852.92 352.48,850.66
             352.58,848.75 351.58,847.63 349.48,847.30
             348.40,847.10 347.61,846.74 347.10,846.23
             346.59,845.71 345.99,844.63 345.28,842.97
             345.28,842.97 337.89,825.14 337.89,825.14
             331.52,809.86 326.53,800.64 322.92,797.47 Z
           M 305.08,829.88
           C 305.12,829.30 305.83,827.56 307.23,824.64
             308.01,822.81 308.46,821.76 308.59,821.48
             309.34,819.51 310.21,818.52 311.17,818.52
             311.72,818.52 312.21,818.81 312.66,819.41
             313.11,820.00 313.75,821.17 314.58,822.91
             316.19,826.79 316.96,829.23 316.91,830.22
             316.88,830.74 316.14,831.00 314.70,831.00
             314.70,831.00 306.87,831.00 306.87,831.00
             305.64,831.00 305.04,830.63 305.08,829.88 Z
           M 406.16,856.00
           C 406.16,856.00 410.67,856.00 410.67,856.00
             410.67,856.00 415.92,856.00 415.92,856.00
             419.85,856.00 423.58,855.41 427.11,854.23
             433.12,852.22 437.93,848.73 441.56,843.77
             443.32,841.32 444.76,838.42 445.90,835.06
             447.04,831.71 447.70,828.36 447.88,825.02
             448.24,818.40 447.24,812.70 444.88,807.92
             442.22,802.48 438.02,798.61 432.30,796.31
             428.45,794.77 423.15,794.00 416.39,794.00
             414.71,794.00 413.31,794.00 412.19,794.00
             406.88,794.00 402.10,794.00 397.88,794.00
             396.75,794.00 394.95,793.96 392.48,793.88
             391.35,793.84 390.38,793.83 389.56,793.83
             387.05,793.83 385.07,794.24 383.61,795.06
             382.17,795.88 381.41,797.02 381.33,798.48
             381.23,800.36 382.12,801.68 384.01,802.45
             385.32,802.96 386.14,803.64 386.46,804.47
             386.78,805.30 386.87,806.97 386.73,809.47
             386.38,815.85 385.96,822.28 385.46,828.75
             384.96,835.21 384.56,839.55 384.26,841.78
             383.97,843.73 383.64,845.04 383.28,845.70
             382.93,846.37 382.29,846.85 381.36,847.16
             380.39,847.51 379.68,847.98 379.22,848.56
             378.77,849.14 378.52,849.95 378.46,851.00
             378.38,852.49 378.92,853.70 380.08,854.63
             381.24,855.54 382.80,856.00 384.73,856.00
             385.28,856.00 386.26,856.00 387.69,856.00
             389.94,856.00 391.97,856.00 393.80,856.00
             393.80,856.00 396.92,856.00 396.92,856.00
             399.58,856.00 402.66,856.00 406.16,856.00 Z
           M 408.89,804.83
           C 409.53,804.28 410.59,804.00 412.08,804.00
             417.62,804.00 421.43,806.15 423.51,810.44
             425.41,814.32 426.17,819.79 425.78,826.84
             425.08,839.61 420.21,846.00 411.17,846.00
             409.22,846.00 407.85,845.62 407.05,844.86
             406.26,844.10 405.91,842.81 406.01,840.98
             406.01,840.98 407.84,807.58 407.84,807.58
             407.91,806.29 408.26,805.37 408.89,804.83 Z
           M 480.44,795.41
           C 479.54,795.65 478.80,796.14 478.22,796.89
             477.65,797.63 477.33,798.48 477.28,799.44
             477.18,801.20 477.77,802.33 479.03,802.83
             479.87,803.15 480.42,803.43 480.67,803.67
             480.93,803.91 481.16,804.33 481.35,804.94
             482.27,807.94 482.42,815.18 481.79,826.67
             481.37,834.31 480.65,840.38 479.61,844.88
             479.36,845.98 479.04,846.81 478.66,847.38
             478.28,847.94 477.73,848.41 476.99,848.80
             475.92,849.40 475.23,849.90 474.92,850.28
             474.62,850.67 474.44,851.29 474.40,852.16
             474.33,853.38 474.68,854.32 475.45,855.00
             476.22,855.67 477.35,856.00 478.83,856.00
             478.83,856.00 515.50,856.00 515.50,856.00
             518.58,856.10 521.03,856.34 522.85,856.72
             523.88,856.91 524.67,857.00 525.23,857.00
             525.88,857.00 526.43,856.83 526.88,856.48
             527.34,856.14 527.92,855.47 528.65,854.47
             530.06,852.40 531.29,850.03 532.32,847.36
             533.36,844.69 533.93,842.47 534.02,840.69
             534.11,839.06 533.78,837.71 533.03,836.63
             532.28,835.54 531.27,835.00 530.02,835.00
             528.95,835.00 528.06,835.29 527.37,835.88
             526.67,836.46 525.86,837.59 524.93,839.27
             523.35,842.19 521.40,844.21 519.08,845.33
             516.77,846.44 513.39,847.00 508.95,847.00
             506.06,847.00 504.01,846.83 502.80,846.50
             501.59,846.16 500.89,845.54 500.70,844.66
             500.53,843.95 500.41,842.49 500.33,840.30
             500.26,838.10 500.26,836.31 500.34,834.92
             500.46,832.65 500.77,831.10 501.27,830.27
             501.77,829.42 502.64,829.00 503.87,829.00
             507.07,829.00 508.81,830.67 509.09,834.00
             509.23,835.63 509.49,836.70 509.87,837.22
             510.25,837.74 510.96,838.00 512.02,838.00
             513.74,838.00 515.07,837.16 516.00,835.47
             517.71,832.38 518.70,828.41 518.96,823.56
             519.10,821.10 519.00,818.75 518.68,816.50
             518.35,814.25 517.89,812.68 517.29,811.80
             516.46,810.60 515.41,810.00 514.14,810.00
             513.29,810.00 512.52,810.28 511.83,810.83
             511.19,811.34 510.73,811.93 510.47,812.59
             510.20,813.25 509.92,814.48 509.61,816.28
             509.37,817.68 508.95,818.65 508.36,819.19
             507.78,819.73 506.87,820.00 505.64,820.00
             503.15,820.00 501.63,819.80 501.06,819.39
             500.50,818.98 500.27,817.93 500.36,816.23
             500.60,811.94 500.78,809.28 500.91,808.23
             501.04,807.19 501.31,806.36 501.73,805.73
             502.54,804.58 504.65,804.00 508.08,804.00
             512.66,804.00 515.94,804.32 517.90,804.97
             519.88,805.61 521.47,806.90 522.67,808.83
             523.52,810.17 524.20,811.04 524.72,811.42
             525.25,811.81 526.01,812.00 527.00,812.00
             528.43,812.00 529.58,811.46 530.45,810.39
             531.33,809.31 531.82,807.82 531.93,805.94
             532.13,802.22 531.36,799.05 529.63,796.44
             528.59,794.81 527.33,794.00 525.86,794.00
             525.51,794.00 525.03,794.05 524.44,794.16
             522.49,794.50 520.49,794.73 518.45,794.84
             516.43,794.95 513.20,795.00 508.77,795.00
             508.77,795.00 486.88,795.00 486.88,795.00
             483.71,795.00 481.56,795.14 480.44,795.41 Z
           M 571.16,800.20
           C 568.86,801.98 567.03,804.10 565.69,806.56
             564.36,809.01 563.62,811.52 563.48,814.09
             563.19,819.32 565.23,823.99 569.59,828.11
             571.38,829.78 573.34,831.16 575.45,832.27
             577.58,833.36 580.69,834.54 584.78,835.81
             587.04,836.58 588.65,837.42 589.62,838.31
             590.60,839.20 591.05,840.26 590.98,841.48
             590.91,842.81 590.18,843.89 588.79,844.73
             587.40,845.58 585.61,846.00 583.44,846.00
             580.92,846.00 578.50,845.44 576.20,844.33
             573.91,843.21 572.27,841.82 571.27,840.14
             569.18,836.55 567.84,834.42 567.26,833.77
             566.31,832.59 565.27,832.00 564.16,832.00
             563.04,832.00 562.08,832.48 561.28,833.44
             560.67,834.19 560.32,835.29 560.24,836.75
             560.07,839.80 560.47,842.94 561.43,846.16
             562.40,849.38 563.57,851.46 564.93,852.42
             566.73,853.64 569.70,854.71 573.85,855.63
             578.01,856.54 581.98,857.00 585.77,857.00
             594.26,857.00 601.25,854.95 606.73,850.86
             612.11,846.85 614.97,841.69 615.31,835.39
             615.71,828.23 612.34,822.82 605.22,819.16
             603.60,818.32 599.86,817.00 594.01,815.19
             589.69,813.89 587.60,811.94 587.74,809.36
             587.81,808.06 588.35,807.01 589.35,806.20
             590.36,805.40 591.67,805.00 593.29,805.00
             596.62,805.00 599.92,806.68 603.19,810.03
             605.50,812.39 607.01,813.80 607.70,814.28
             608.40,814.76 609.32,815.00 610.48,815.00
             611.85,815.00 613.05,814.43 614.07,813.30
             615.10,812.16 615.66,810.76 615.75,809.09
             615.91,806.26 614.97,803.28 612.94,800.16
             610.93,797.02 608.94,795.45 606.98,795.45
             606.44,795.45 605.93,795.55 605.45,795.73
             603.95,796.27 603.06,796.53 602.77,796.53
             602.41,796.53 601.94,796.44 601.36,796.27
             596.54,794.76 592.61,794.00 589.58,794.00
             582.46,794.00 576.32,796.07 571.16,800.20 Z
           M 652.34,795.13
           C 649.40,795.72 647.32,796.40 646.12,797.16
             644.94,797.92 644.31,798.94 644.24,800.22
             644.19,801.05 644.33,801.74 644.64,802.28
             644.95,802.82 645.60,803.50 646.58,804.31
             647.84,805.28 648.60,806.38 648.88,807.61
             649.40,809.77 649.45,814.67 649.03,822.31
             648.43,833.36 647.76,840.59 647.03,844.00
             646.70,845.55 645.81,846.78 644.38,847.67
             642.49,848.84 641.51,850.09 641.44,851.44
             641.23,855.15 645.78,857.00 655.09,857.00
             660.53,857.00 665.17,856.52 668.99,855.56
             672.52,854.68 674.35,853.04 674.48,850.64
             674.57,848.93 673.80,847.63 672.16,846.73
             671.28,846.19 670.66,845.69 670.32,845.23
             669.98,844.77 669.74,844.10 669.60,843.25
             669.27,840.52 669.42,833.45 670.04,822.05
             670.41,815.30 670.84,810.76 671.34,808.42
             671.84,806.09 672.69,804.58 673.90,803.89
             675.35,803.06 676.26,802.43 676.63,802.00
             676.99,801.56 677.20,800.91 677.25,800.03
             677.39,797.41 675.60,795.69 671.86,794.88
             669.09,794.29 666.12,794.00 662.95,794.00
             659.40,794.00 655.86,794.38 652.34,795.13 Z
           M 725.72,796.84
           C 719.79,799.32 714.90,802.92 711.04,807.63
             706.61,813.03 704.21,819.02 703.85,825.58
             703.54,831.23 704.88,836.65 707.87,841.81
             710.93,847.15 715.27,851.09 720.89,853.66
             725.72,855.89 730.62,857.00 735.60,857.00
             740.38,857.00 745.04,855.94 749.57,853.83
             751.50,852.93 753.03,852.38 754.18,852.17
             756.16,851.79 757.48,851.33 758.14,850.81
             759.67,849.60 761.01,847.93 762.17,845.78
             763.34,843.63 763.97,841.68 764.07,839.95
             764.14,838.58 763.82,837.41 763.10,836.45
             762.39,835.48 761.51,835.00 760.46,835.00
             759.73,835.00 758.76,835.54 757.56,836.63
             756.13,837.92 754.19,838.97 751.73,839.78
             749.28,840.59 746.83,841.00 744.37,841.00
             737.69,841.00 732.71,838.22 729.43,832.67
             727.01,828.52 725.94,823.94 726.21,818.94
             726.41,815.30 727.50,812.41 729.47,810.25
             731.44,808.08 734.01,807.00 737.16,807.00
             740.41,807.00 743.47,807.98 746.35,809.95
             747.48,810.78 748.43,811.69 749.21,812.69
             749.99,813.69 750.97,815.34 752.16,817.64
             753.00,819.27 753.89,820.40 754.83,821.05
             755.78,821.68 757.03,822.00 758.59,822.00
             760.31,822.00 761.88,821.56 763.31,820.67
             765.94,818.99 767.36,816.36 767.55,812.77
             767.83,807.66 766.62,803.38 763.93,799.92
             762.84,798.51 761.51,797.80 759.95,797.80
             759.47,797.80 759.03,797.84 758.64,797.92
             757.42,798.19 756.54,798.33 756.00,798.33
             755.25,798.33 753.94,797.88 752.07,796.97
             748.10,794.99 743.92,794.00 739.53,794.00
             734.84,794.00 730.24,794.95 725.72,796.84 Z
           M 814.92,796.31
           C 808.75,798.55 803.74,802.07 799.89,806.86
             795.59,812.24 793.24,818.46 792.86,825.50
             792.52,831.56 793.78,837.10 796.63,842.13
             799.57,847.34 803.81,851.23 809.35,853.80
             813.96,855.93 818.84,857.00 823.99,857.00
             827.92,857.00 831.87,856.38 835.84,855.13
             842.30,853.08 847.62,849.73 851.82,845.06
             856.76,839.56 859.43,833.32 859.81,826.34
             860.07,821.61 859.15,816.88 857.07,812.14
             854.90,807.38 851.97,803.51 848.27,800.52
             842.79,796.17 836.21,794.00 828.55,794.00
             823.60,794.00 819.06,794.77 814.92,796.31 Z
           M 828.29,808.63
           C 829.77,809.66 831.04,811.07 832.11,812.86
             833.85,815.77 835.20,819.28 836.17,823.39
             837.15,827.49 837.54,831.32 837.34,834.88
             837.19,837.60 836.36,839.81 834.84,841.48
             833.33,843.16 831.41,844.00 829.08,844.00
             827.63,844.00 826.23,843.57 824.88,842.72
             823.53,841.86 822.42,840.72 821.55,839.28
             819.59,835.91 818.02,832.04 816.85,827.69
             815.68,823.32 815.18,819.48 815.37,816.16
             815.49,813.90 816.18,811.94 817.44,810.30
             819.07,808.10 821.17,807.00 823.74,807.00
             825.30,807.05 826.82,807.59 828.29,808.63 Z" />
  <path id="Petal"
        fill="red"
        d="M 94.00,813.00
           C 132.00,659.00 278.00,458.00 334.00,392.00
             440.00,247.00 488.00,92.00 513.47,5.99
             513.82,3.39 514.00,2.00 514.00,2.00
             514.00,2.00 523.00,169.00 523.00,169.00
             523.00,169.00 618.00,45.00 618.00,45.00
             618.00,45.00 568.00,195.00 568.00,195.00
             568.00,195.00 683.00,105.00 683.00,105.00
             683.00,105.00 603.00,256.00 603.00,256.00
             603.00,256.00 695.00,186.00 695.00,186.00
             695.00,186.00 655.00,292.00 655.00,292.00
             655.00,292.00 752.00,223.00 752.00,223.00
             752.00,223.00 711.00,334.00 711.00,334.00
             711.00,334.00 834.00,243.00 834.00,243.00
             834.00,243.00 747.00,396.00 747.00,396.00
             747.00,396.00 888.00,332.00 888.00,332.00
             888.00,332.00 752.00,483.00 752.00,483.00
             752.00,483.00 917.00,415.00 917.00,415.00
             917.00,415.00 697.00,618.00 456.00,649.00
             360.00,660.00 201.00,718.00 94.00,813.00 Z" />
  <path id="N"
        fill="black"
        d="M 171.00,711.00
           C 214.00,649.00 279.00,552.00 303.00,507.00
             303.00,507.00 290.00,583.00 294.00,617.00
             324.00,606.00 358.00,587.00 429.00,506.00
             429.00,506.00 351.00,629.00 273.00,666.00
             274.00,632.00 270.00,615.00 281.00,579.00
             254.00,613.00 226.00,665.00 171.00,711.00 Z" />
</svg>
