<?xml version="1.0" encoding="UTF-8" standalone="no"?>
<svg
   xmlns:dc="http://purl.org/dc/elements/1.1/"
   xmlns:cc="http://web.resource.org/cc/"
   xmlns:rdf="http://www.w3.org/1999/02/22-rdf-syntax-ns#"
   xmlns:svg="http://www.w3.org/2000/svg"
   xmlns="http://www.w3.org/2000/svg"
   xmlns:sodipodi="http://inkscape.sourceforge.net/DTD/sodipodi-0.dtd"
   xmlns:inkscape="http://www.inkscape.org/namespaces/inkscape"
   width="17.5972in"
   height="14.2222in"
   viewBox="0 0 1267 1024"
   id="svg2"
   sodipodi:version="0.32"
   inkscape:version="0.42.2"
   sodipodi:docname="NASA Tail Left.svg"
   sodipodi:docbase="C:\Documents and Settings\jeppesen\workspace\svg">
  <metadata
     id="metadata15">
    <rdf:RDF>
      <cc:Work
         rdf:about="">
        <dc:format>image/svg+xml</dc:format>
        <dc:type
           rdf:resource="http://purl.org/dc/dcmitype/StillImage" />
      </cc:Work>
    </rdf:RDF>
  </metadata>
  <defs
     id="defs13" />
  <sodipodi:namedview
     inkscape:window-height="480"
     inkscape:window-width="640"
     inkscape:pageshadow="2"
     inkscape:pageopacity="0.0"
     borderopacity="1.0"
     bordercolor="#666666"
     pagecolor="#ffffff"
     id="base" />
  <path
     id="Orbit Bottom"
     fill="black"
     d="M 376.50,196.50            C 348.00,220.50 303.00,288.00 414.00,493.50              462.00,567.00 496.00,621.00 541.00,672.00              550.00,693.00 591.00,749.00 610.00,730.00              629.00,711.00 579.00,680.00 553.00,664.00              508.00,610.00 463.00,558.00 425.00,490.00              311.00,271.00 364.99,219.31 385.50,207.00              387.00,200.00 380.00,199.00 376.50,196.50 Z" />
  <path
     id="Vector Top"
     fill="#C00000"
     d="M 64.49,656.12            C 27.31,669.36 45.52,651.06 58.17,646.00              290.83,519.59 407.16,504.41 634.76,418.45              862.37,332.48 1079.86,257.90 1245.50,58.15              1167.11,260.42 905.36,396.96 647.41,477.87              389.46,558.78 324.97,530.96 64.49,656.12 Z            M 21.50,519.59" />
  <path
     id="A2"
     fill="#0000A0"
     d="M 826.25,606.75            C 826.25,606.75 845.75,584.50 845.75,584.50              845.75,584.50 887.25,441.25 887.25,441.25              887.25,441.25 872.25,422.75 872.25,422.75              872.25,422.75 958.25,422.75 958.25,422.75              958.25,422.75 1022.25,584.75 1022.25,584.75              1022.25,584.75 1041.00,604.75 1041.00,604.75              1041.00,604.75 931.00,604.75 931.00,604.75              931.00,604.75 947.25,582.75 947.25,582.75              947.25,582.75 939.75,562.25 939.75,562.25              939.75,562.25 875.50,562.25 875.50,562.25              875.50,562.25 870.25,587.75 870.25,587.75              870.25,587.75 883.25,606.00 883.25,606.00              883.25,606.00 826.75,605.25 826.25,606.75 Z            M 884.00,536.75            C 884.00,536.75 930.25,536.75 930.25,536.75              930.25,536.75 903.00,472.50 903.00,472.50              903.00,472.50 884.00,536.75 884.00,536.75 Z"
     style="fill:#0000c0;fill-opacity:1.0000000" />
  <path
     id="S"
     fill="#0000A0"
     d="M 776.50,426.25            C 776.50,426.25 792.25,414.00 792.25,414.00              792.25,414.00 791.50,461.75 791.50,461.75              791.50,461.75 780.50,454.00 769.75,446.75              745.50,441.00 716.25,435.25 709.00,457.25              701.75,479.25 758.00,488.25 785.00,503.75              812.00,519.25 830.75,569.50 785.50,596.75              740.25,624.00 699.50,607.00 681.25,601.75              673.00,607.25 659.25,617.75 659.25,617.75              659.25,617.75 657.25,560.75 657.25,560.75              663.73,565.31 682.65,577.62 702.75,582.00              728.01,587.50 754.61,583.72 754.75,573.00              755.00,553.75 743.50,550.00 705.75,538.00              668.00,526.00 654.69,504.56 654.50,480.75              654.00,418.25 737.50,412.00 776.50,426.25 Z"
     style="fill:#0000c0;fill-opacity:1.0000000" />
  <path
     id="A1"
     fill="#0000A0"
     d="M 407.00,607.00            C 407.00,607.00 426.50,584.75 426.50,584.75              426.50,584.75 468.00,441.50 468.00,441.50              468.00,441.50 453.00,423.00 453.00,423.00              453.00,423.00 539.00,423.00 539.00,423.00              539.00,423.00 603.00,585.00 603.00,585.00              603.00,585.00 621.75,605.00 621.75,605.00              621.75,605.00 511.75,605.00 511.75,605.00              511.75,605.00 528.00,583.00 528.00,583.00              528.00,583.00 520.50,562.50 520.50,562.50              520.50,562.50 456.25,562.50 456.25,562.50              456.25,562.50 451.00,588.00 451.00,588.00              451.00,588.00 464.00,606.25 464.00,606.25              464.00,606.25 407.50,605.50 407.00,607.00 Z            M 464.50,536.25            C 464.50,536.25 510.75,536.25 510.75,536.25              510.75,536.25 483.50,472.00 483.50,472.00              483.50,472.00 464.50,536.25 464.50,536.25 Z"
     style="fill:#0000c0;fill-opacity:1.0000000" />
  <path
     id="N"
     fill="#0000A0"
     d="M 180.00,606.00            C 180.00,606.00 198.00,584.25 198.00,584.25              198.00,584.25 198.00,439.00 198.00,439.00              198.00,439.00 181.00,422.00 181.00,422.00              181.00,422.00 260.00,422.00 260.00,422.00              260.00,422.00 328.00,535.75 328.00,535.75              328.00,535.75 328.00,441.00 328.00,441.00              328.00,441.00 310.00,422.00 310.00,422.00              310.00,422.00 369.00,422.00 369.00,422.00              369.00,422.00 352.00,440.00 352.00,440.00              352.00,440.00 352.00,585.75 352.00,585.75              352.00,585.75 372.75,605.75 372.75,605.75              372.75,605.75 293.00,605.75 293.00,605.75              293.00,605.75 220.00,481.50 220.00,481.50              220.00,481.50 220.00,584.00 220.00,584.00              220.00,584.00 240.25,606.00 240.25,606.00              240.25,606.00 180.00,606.00 180.00,606.00 Z"
     style="fill:#0000c0;fill-opacity:1.0000000" />
  <path
     id="Vector Bottom"
     fill="#C00000"
     d="M 1245.50,58.15            C 1170.00,270.00 947.09,400.75 703.05,565.10              459.00,729.44 356.58,778.75 193.46,944.36              176.99,957.60 166.91,946.88 180.82,931.71              324.97,783.80 493.27,686.32 689.14,548.66              885.00,411.00 1129.50,273.00 1245.50,58.15 Z" />
  <path
     id="Orbit Top"
     fill="black"
     d="M 715.50,783.00            C 822.00,823.50 834.00,792.00 846.00,786.00              858.00,780.00 934.50,663.00 730.50,403.50              526.50,144.00 405.00,172.50 376.50,196.50              378.00,205.00 377.00,204.00 385.50,207.00              423.00,184.50 517.50,166.50 721.50,409.50              925.50,652.50 846.00,771.00 838.50,778.50              831.00,786.00 789.00,805.50 715.50,783.00 Z            M 607.50,757.50" />
</svg>
