<?xml version="1.0" encoding="UTF-8" standalone="no"?>
<svg
   xmlns:dc="http://purl.org/dc/elements/1.1/"
   xmlns:cc="http://web.resource.org/cc/"
   xmlns:rdf="http://www.w3.org/1999/02/22-rdf-syntax-ns#"
   xmlns:svg="http://www.w3.org/2000/svg"
   xmlns="http://www.w3.org/2000/svg"
   xmlns:sodipodi="http://inkscape.sourceforge.net/DTD/sodipodi-0.dtd"
   xmlns:inkscape="http://www.inkscape.org/namespaces/inkscape"
   width="17.5972in"
   height="14.2222in"
   viewBox="0 0 1267 1024"
   id="svg2"
   sodipodi:version="0.32"
   inkscape:version="0.42.2"
   sodipodi:docname="NASA Tail Right.svg"
   sodipodi:docbase="C:\Documents and Settings\jeppesen\workspace\svg">
  <metadata
     id="metadata15">
    <rdf:RDF>
      <cc:Work
         rdf:about="">
        <dc:format>image/svg+xml</dc:format>
        <dc:type
           rdf:resource="http://purl.org/dc/dcmitype/StillImage" />
      </cc:Work>
    </rdf:RDF>
  </metadata>
  <defs
     id="defs13" />
  <sodipodi:namedview
     inkscape:window-height="480"
     inkscape:window-width="640"
     inkscape:pageshadow="2"
     inkscape:pageopacity="0.0"
     borderopacity="1.0"
     bordercolor="#666666"
     pagecolor="#ffffff"
     id="base" />
  <path
     id="Orbit Bottom"
     fill="black"
     stroke="none"
     d="M 890.50,196.50            C 919.00,220.50 964.00,288.00 853.00,493.50              805.00,567.00 771.00,621.00 726.00,672.00              717.00,693.00 676.00,749.00 657.00,730.00              638.00,711.00 688.00,680.00 714.00,664.00              759.00,610.00 804.00,558.00 842.00,490.00              956.00,271.00 902.01,219.31 881.50,207.00              880.00,200.00 887.00,199.00 890.50,196.50 Z" />
  <path
     id="Vector Top"
     fill="#c00000"
     stroke="none"
     d="M 1202.51,656.12            C 1239.69,669.36 1221.48,651.06 1208.83,646.00              976.17,519.59 859.84,504.41 632.24,418.45              404.63,332.48 187.14,257.90 21.50,58.15              99.89,260.42 361.64,396.96 619.59,477.87              877.54,558.78 942.03,530.96 1202.51,656.12 Z            M 1245.50,519.59" />
  <path
     id="A2"
     fill="#0000A0"
     stroke="none"
     d="M 826.25,606.75            C 826.25,606.75 845.75,584.50 845.75,584.50              845.75,584.50 887.25,441.25 887.25,441.25              887.25,441.25 872.25,422.75 872.25,422.75              872.25,422.75 958.25,422.75 958.25,422.75              958.25,422.75 1022.25,584.75 1022.25,584.75              1022.25,584.75 1041.00,604.75 1041.00,604.75              1041.00,604.75 931.00,604.75 931.00,604.75              931.00,604.75 947.25,582.75 947.25,582.75              947.25,582.75 939.75,562.25 939.75,562.25              939.75,562.25 875.50,562.25 875.50,562.25              875.50,562.25 870.25,587.75 870.25,587.75              870.25,587.75 883.25,606.00 883.25,606.00              883.25,606.00 826.75,605.25 826.25,606.75 Z            M 884.00,536.75            C 884.00,536.75 930.25,536.75 930.25,536.75              930.25,536.75 903.00,472.50 903.00,472.50              903.00,472.50 884.00,536.75 884.00,536.75 Z"
     style="fill:#0000c0;fill-opacity:1.0000000" />
  <path
     id="S"
     fill="#0000A0"
     stroke="none"
     d="M 776.50,426.25            C 776.50,426.25 792.25,414.00 792.25,414.00              792.25,414.00 791.50,461.75 791.50,461.75              791.50,461.75 780.50,454.00 769.75,446.75              745.50,441.00 716.25,435.25 709.00,457.25              701.75,479.25 758.00,488.25 785.00,503.75              812.00,519.25 830.75,569.50 785.50,596.75              740.25,624.00 699.50,607.00 681.25,601.75              673.00,607.25 659.25,617.75 659.25,617.75              659.25,617.75 657.25,560.75 657.25,560.75              663.73,565.31 682.65,577.62 702.75,582.00              728.01,587.50 754.61,583.72 754.75,573.00              755.00,553.75 743.50,550.00 705.75,538.00              668.00,526.00 654.69,504.56 654.50,480.75              654.00,418.25 737.50,412.00 776.50,426.25 Z"
     style="fill:#0000c0;fill-opacity:1.0000000" />
  <path
     id="A1"
     fill="#0000A0"
     stroke="none"
     d="M 407.00,607.00            C 407.00,607.00 426.50,584.75 426.50,584.75              426.50,584.75 468.00,441.50 468.00,441.50              468.00,441.50 453.00,423.00 453.00,423.00              453.00,423.00 539.00,423.00 539.00,423.00              539.00,423.00 603.00,585.00 603.00,585.00              603.00,585.00 621.75,605.00 621.75,605.00              621.75,605.00 511.75,605.00 511.75,605.00              511.75,605.00 528.00,583.00 528.00,583.00              528.00,583.00 520.50,562.50 520.50,562.50              520.50,562.50 456.25,562.50 456.25,562.50              456.25,562.50 451.00,588.00 451.00,588.00              451.00,588.00 464.00,606.25 464.00,606.25              464.00,606.25 407.50,605.50 407.00,607.00 Z            M 464.50,536.25            C 464.50,536.25 510.75,536.25 510.75,536.25              510.75,536.25 483.50,472.00 483.50,472.00              483.50,472.00 464.50,536.25 464.50,536.25 Z"
     style="fill:#0000c0;fill-opacity:1.0000000" />
  <path
     id="N"
     fill="#0000A0"
     stroke="none"
     d="M 180.00,606.00            C 180.00,606.00 198.00,584.25 198.00,584.25              198.00,584.25 198.00,439.00 198.00,439.00              198.00,439.00 181.00,422.00 181.00,422.00              181.00,422.00 260.00,422.00 260.00,422.00              260.00,422.00 328.00,535.75 328.00,535.75              328.00,535.75 328.00,441.00 328.00,441.00              328.00,441.00 310.00,422.00 310.00,422.00              310.00,422.00 369.00,422.00 369.00,422.00              369.00,422.00 352.00,440.00 352.00,440.00              352.00,440.00 352.00,585.75 352.00,585.75              352.00,585.75 372.75,605.75 372.75,605.75              372.75,605.75 293.00,605.75 293.00,605.75              293.00,605.75 220.00,481.50 220.00,481.50              220.00,481.50 220.00,584.00 220.00,584.00              220.00,584.00 240.25,606.00 240.25,606.00              240.25,606.00 180.00,606.00 180.00,606.00 Z"
     style="fill:#0000c0;fill-opacity:1.0000000" />
  <path
     id="Vector Bottom"
     fill="#c00000"
     stroke="none"
     d="M 21.50,58.15            C 97.00,270.00 319.91,400.75 563.95,565.10              808.00,729.44 910.42,778.75 1073.54,944.36              1090.01,957.60 1100.09,946.88 1086.18,931.71              942.03,783.80 773.73,686.32 577.86,548.66              382.00,411.00 137.50,273.00 21.50,58.15 Z" />
  <path
     id="Orbit Top"
     fill="black"
     stroke="none"
     d="M 551.50,783.00            C 445.00,823.50 433.00,792.00 421.00,786.00              409.00,780.00 332.50,663.00 536.50,403.50              740.50,144.00 862.00,172.50 890.50,196.50              889.00,205.00 890.00,204.00 881.50,207.00              844.00,184.50 749.50,166.50 545.50,409.50              341.50,652.50 421.00,771.00 428.50,778.50              436.00,786.00 478.00,805.50 551.50,783.00 Z            M 659.50,757.50" />
</svg>
