<?xml version="1.0" encoding="UTF-8" standalone="no"?>
<svg
   xmlns:dc="http://purl.org/dc/elements/1.1/"
   xmlns:cc="http://web.resource.org/cc/"
   xmlns:rdf="http://www.w3.org/1999/02/22-rdf-syntax-ns#"
   xmlns:svg="http://www.w3.org/2000/svg"
   xmlns="http://www.w3.org/2000/svg"
   xmlns:sodipodi="http://inkscape.sourceforge.net/DTD/sodipodi-0.dtd"
   xmlns:inkscape="http://www.inkscape.org/namespaces/inkscape"
   width="17.5972in"
   height="14.2222in"
   viewBox="0 0 1267 1024"
   id="svg2"
   sodipodi:version="0.32"
   inkscape:version="0.42.2"
   sodipodi:docname="NASA Meatball.svg"
   sodipodi:docbase="C:\Documents and Settings\jeppesen\workspace\svg">
  <metadata
     id="metadata17">
    <rdf:RDF>
      <cc:Work
         rdf:about="">
        <dc:format>image/svg+xml</dc:format>
        <dc:type
           rdf:resource="http://purl.org/dc/dcmitype/StillImage" />
      </cc:Work>
    </rdf:RDF>
  </metadata>
  <defs
     id="defs15" />
  <sodipodi:namedview
     inkscape:window-height="510"
     inkscape:window-width="704"
     inkscape:pageshadow="2"
     inkscape:pageopacity="0.0"
     borderopacity="1.0"
     bordercolor="#666666"
     pagecolor="#ffffff"
     id="base"
     inkscape:zoom="0.26796916"
     inkscape:cx="791.87402"
     inkscape:cy="639.99902"
     inkscape:window-x="111"
     inkscape:window-y="536"
     inkscape:current-layer="svg2" />
  <path
     id="Blue Circle"
     fill="#0000A0"
     stroke="none"
     d="M 577.00,12.00            C 572.00,13.00 571.00,13.00 566.00,13.00              566.00,13.00 526.00,17.00 526.00,17.00              493.00,22.00 460.00,31.00 429.00,42.00              298.00,88.00 192.00,191.00 138.00,319.00              71.00,481.00 94.00,669.00 198.00,810.00              228.00,851.00 266.00,889.00 308.00,919.00              348.00,947.00 392.00,970.00 438.00,985.00              474.00,997.00 508.00,1005.00 546.00,1009.00              546.00,1009.00 566.00,1011.00 566.00,1011.00              566.00,1011.00 585.00,1012.00 585.00,1012.00              585.00,1012.00 613.00,1012.00 613.00,1012.00              613.00,1012.00 632.00,1011.00 632.00,1011.00              632.00,1011.00 642.00,1010.00 642.00,1010.00              671.00,1008.00 701.00,1003.00 729.00,995.00              889.00,952.00 1018.00,832.00 1071.00,675.00              1080.00,647.00 1087.00,622.00 1091.00,593.00              1091.00,593.00 1097.00,545.00 1097.00,545.00              1097.00,545.00 1098.00,528.00 1098.00,528.00              1098.00,528.00 1098.00,498.00 1098.00,498.00              1098.00,498.00 1097.00,479.00 1097.00,479.00              1097.00,479.00 1095.00,459.00 1095.00,459.00              1092.00,427.00 1086.00,396.00 1076.00,365.00              1025.00,198.00 891.00,70.00 721.00,27.00              695.00,21.00 669.00,16.00 642.00,14.00              642.00,14.00 632.00,13.00 632.00,13.00              632.00,13.00 613.00,12.00 613.00,12.00              613.00,12.00 577.00,12.00 577.00,12.00 Z"
     style="fill:#0000c0;fill-opacity:1.0000000" />
  <path
     id="Stars"
     fill="white"
     stroke="none"
     d="M 626.58,171.33            C 628.83,171.33 631.58,173.33 631.58,176.33              631.58,179.33 630.08,181.33 626.58,181.33              623.08,181.33 621.58,179.83 621.58,176.33              621.58,172.83 624.33,171.33 626.58,171.33 Z            M 568.92,107.00            C 571.17,107.00 573.92,109.00 573.92,112.00              573.92,115.00 572.42,117.00 568.92,117.00              565.42,117.00 563.92,115.50 563.92,112.00              563.92,108.50 566.67,107.00 568.92,107.00 Z            M 626.25,113.00            C 628.50,113.00 631.25,115.00 631.25,118.00              631.25,121.00 629.75,123.00 626.25,123.00              622.75,123.00 621.25,121.50 621.25,118.00              621.25,114.50 624.00,113.00 626.25,113.00 Z            M 599.00,52.25            C 601.25,52.25 604.00,54.25 604.00,57.25              604.00,60.25 602.50,62.25 599.00,62.25              595.50,62.25 594.00,60.75 594.00,57.25              594.00,53.75 596.75,52.25 599.00,52.25 Z            M 699.00,93.25            C 699.00,93.25 694.50,104.25 694.50,104.25              694.50,104.25 684.25,108.25 684.25,108.25              684.25,108.25 694.75,113.25 694.75,113.25              694.75,113.25 698.50,123.75 698.50,123.75              698.50,123.75 703.00,113.00 703.00,113.00              703.00,113.00 712.75,108.75 712.75,108.75              712.75,108.75 702.75,103.75 702.75,103.75              702.75,103.75 699.00,93.25 699.00,93.25 Z            M 514.58,154.33            C 516.83,154.33 519.58,156.33 519.58,159.33              519.58,162.33 518.08,164.33 514.58,164.33              511.08,164.33 509.58,162.83 509.58,159.33              509.58,155.83 512.33,154.33 514.58,154.33 Z            M 527.58,163.33            C 529.83,163.33 532.58,165.33 532.58,168.33              532.58,171.33 531.08,173.33 527.58,173.33              524.08,173.33 522.58,171.83 522.58,168.33              522.58,164.83 525.33,163.33 527.58,163.33 Z            M 507.58,177.00            C 509.83,177.00 512.58,179.00 512.58,182.00              512.58,185.00 511.08,187.00 507.58,187.00              504.08,187.00 502.58,185.50 502.58,182.00              502.58,178.50 505.33,177.00 507.58,177.00 Z            M 698.92,213.67            C 701.17,213.67 703.92,215.67 703.92,218.67              703.92,221.67 702.42,223.67 698.92,223.67              695.42,223.67 693.92,222.17 693.92,218.67              693.92,215.17 696.67,213.67 698.92,213.67 Z            M 412.92,245.00            C 415.17,245.00 417.92,247.00 417.92,250.00              417.92,253.00 416.42,255.00 412.92,255.00              409.42,255.00 407.92,253.50 407.92,250.00              407.92,246.50 410.67,245.00 412.92,245.00 Z            M 430.25,266.33            C 432.50,266.33 435.25,268.33 435.25,271.33              435.25,274.33 433.75,276.33 430.25,276.33              426.75,276.33 425.25,274.83 425.25,271.33              425.25,267.83 428.00,266.33 430.25,266.33 Z            M 414.92,612.00            C 417.17,612.00 419.92,614.00 419.92,617.00              419.92,620.00 418.42,622.00 414.92,622.00              411.42,622.00 409.92,620.50 409.92,617.00              409.92,613.50 412.67,612.00 414.92,612.00 Z            M 912.58,645.33            C 914.83,645.33 917.58,647.33 917.58,650.33              917.58,653.33 916.08,655.33 912.58,655.33              909.08,655.33 907.58,653.83 907.58,650.33              907.58,646.83 910.33,645.33 912.58,645.33 Z            M 921.58,669.00            C 923.83,669.00 926.58,671.00 926.58,674.00              926.58,677.00 925.08,679.00 921.58,679.00              918.08,679.00 916.58,677.50 916.58,674.00              916.58,670.50 919.33,669.00 921.58,669.00 Z            M 582.58,148.67            C 584.83,148.67 587.58,150.67 587.58,153.67              587.58,156.67 586.08,158.67 582.58,158.67              579.08,158.67 577.58,157.17 577.58,153.67              577.58,150.17 580.33,148.67 582.58,148.67 Z            M 965.92,709.00            C 968.17,709.00 970.92,711.00 970.92,714.00              970.92,717.00 969.42,719.00 965.92,719.00              962.42,719.00 960.92,717.50 960.92,714.00              960.92,710.50 963.67,709.00 965.92,709.00 Z            M 990.92,698.00            C 993.17,698.00 995.92,700.00 995.92,703.00              995.92,706.00 994.42,708.00 990.92,708.00              987.42,708.00 985.92,706.50 985.92,703.00              985.92,699.50 988.67,698.00 990.92,698.00 Z            M 957.92,776.00            C 960.17,776.00 962.92,778.00 962.92,781.00              962.92,784.00 961.42,786.00 957.92,786.00              954.42,786.00 952.92,784.50 952.92,781.00              952.92,777.50 955.67,776.00 957.92,776.00 Z            M 919.92,752.00            C 922.17,752.00 924.92,754.00 924.92,757.00              924.92,760.00 923.42,762.00 919.92,762.00              916.42,762.00 914.92,760.50 914.92,757.00              914.92,753.50 917.67,752.00 919.92,752.00 Z            M 849.92,671.00            C 852.17,671.00 854.92,673.00 854.92,676.00              854.92,679.00 853.42,681.00 849.92,681.00              846.42,681.00 844.92,679.50 844.92,676.00              844.92,672.50 847.67,671.00 849.92,671.00 Z            M 849.00,705.25            C 851.25,705.25 854.00,707.25 854.00,710.25              854.00,713.25 852.50,715.25 849.00,715.25              845.50,715.25 844.00,713.75 844.00,710.25              844.00,706.75 846.75,705.25 849.00,705.25 Z            M 931.00,766.25            C 931.00,766.25 926.50,777.25 926.50,777.25              926.50,777.25 916.25,781.25 916.25,781.25              916.25,781.25 926.75,786.25 926.75,786.25              926.75,786.25 930.50,796.75 930.50,796.75              930.50,796.75 935.00,786.00 935.00,786.00              935.00,786.00 944.75,781.75 944.75,781.75              944.75,781.75 934.75,776.75 934.75,776.75              934.75,776.75 931.00,766.25 931.00,766.25 Z            M 829.00,865.25            C 831.25,865.25 834.00,867.25 834.00,870.25              834.00,873.25 832.50,875.25 829.00,875.25              825.50,875.25 824.00,873.75 824.00,870.25              824.00,866.75 826.75,865.25 829.00,865.25 Z            M 972.00,655.25            C 972.00,655.25 967.50,666.25 967.50,666.25              967.50,666.25 957.25,670.25 957.25,670.25              957.25,670.25 967.75,675.25 967.75,675.25              967.75,675.25 971.50,685.75 971.50,685.75              971.50,685.75 976.00,675.00 976.00,675.00              976.00,675.00 985.75,670.75 985.75,670.75              985.75,670.75 975.75,665.75 975.75,665.75              975.75,665.75 972.00,655.25 972.00,655.25 Z            M 502.00,146.25            C 504.25,146.25 507.00,148.25 507.00,151.25              507.00,154.25 505.50,156.25 502.00,156.25              498.50,156.25 497.00,154.75 497.00,151.25              497.00,147.75 499.75,146.25 502.00,146.25 Z            M 467.00,245.25            C 467.00,245.25 462.50,256.25 462.50,256.25              462.50,256.25 452.25,260.25 452.25,260.25              452.25,260.25 462.75,265.25 462.75,265.25              462.75,265.25 466.50,275.75 466.50,275.75              466.50,275.75 471.00,265.00 471.00,265.00              471.00,265.00 480.75,260.75 480.75,260.75              480.75,260.75 470.75,255.75 470.75,255.75              470.75,255.75 467.00,245.25 467.00,245.25 Z            M 811.00,698.25            C 813.25,698.25 816.00,700.25 816.00,703.25              816.00,706.25 814.50,708.25 811.00,708.25              807.50,708.25 806.00,706.75 806.00,703.25              806.00,699.75 808.75,698.25 811.00,698.25 Z            M 414.00,867.25            C 414.00,867.25 409.50,878.25 409.50,878.25              409.50,878.25 399.25,882.25 399.25,882.25              399.25,882.25 409.75,887.25 409.75,887.25              409.75,887.25 413.50,897.75 413.50,897.75              413.50,897.75 418.00,887.00 418.00,887.00              418.00,887.00 427.75,882.75 427.75,882.75              427.75,882.75 417.75,877.75 417.75,877.75              417.75,877.75 414.00,867.25 414.00,867.25 Z            M 299.00,777.25            C 301.25,777.25 304.00,779.25 304.00,782.25              304.00,785.25 302.50,787.25 299.00,787.25              295.50,787.25 294.00,785.75 294.00,782.25              294.00,778.75 296.75,777.25 299.00,777.25 Z            M 280.00,762.25            C 282.25,762.25 285.00,764.25 285.00,767.25              285.00,770.25 283.50,772.25 280.00,772.25              276.50,772.25 275.00,770.75 275.00,767.25              275.00,763.75 277.75,762.25 280.00,762.25 Z            M 231.00,739.25            C 233.25,739.25 236.00,741.25 236.00,744.25              236.00,747.25 234.50,749.25 231.00,749.25              227.50,749.25 226.00,747.75 226.00,744.25              226.00,740.75 228.75,739.25 231.00,739.25 Z            M 286.00,734.25            C 288.25,734.25 291.00,736.25 291.00,739.25              291.00,742.25 289.50,744.25 286.00,744.25              282.50,744.25 281.00,742.75 281.00,739.25              281.00,735.75 283.75,734.25 286.00,734.25 Z            M 399.00,816.25            C 401.25,816.25 404.00,818.25 404.00,821.25              404.00,824.25 402.50,826.25 399.00,826.25              395.50,826.25 394.00,824.75 394.00,821.25              394.00,817.75 396.75,816.25 399.00,816.25 Z            M 457.00,826.25            C 459.25,826.25 462.00,828.25 462.00,831.25              462.00,834.25 460.50,836.25 457.00,836.25              453.50,836.25 452.00,834.75 452.00,831.25              452.00,827.75 454.75,826.25 457.00,826.25 Z            M 364.00,757.25            C 366.25,757.25 369.00,759.25 369.00,762.25              369.00,765.25 367.50,767.25 364.00,767.25              360.50,767.25 359.00,765.75 359.00,762.25              359.00,758.75 361.75,757.25 364.00,757.25 Z            M 449.00,779.25            C 451.25,779.25 454.00,781.25 454.00,784.25              454.00,787.25 452.50,789.25 449.00,789.25              445.50,789.25 444.00,787.75 444.00,784.25              444.00,780.75 446.75,779.25 449.00,779.25 Z            M 417.00,707.25            C 419.25,707.25 422.00,709.25 422.00,712.25              422.00,715.25 420.50,717.25 417.00,717.25              413.50,717.25 412.00,715.75 412.00,712.25              412.00,708.75 414.75,707.25 417.00,707.25 Z            M 567.00,817.25            C 569.25,817.25 572.00,819.25 572.00,822.25              572.00,825.25 570.50,827.25 567.00,827.25              563.50,827.25 562.00,825.75 562.00,822.25              562.00,818.75 564.75,817.25 567.00,817.25 Z            M 663.00,781.25            C 665.25,781.25 668.00,783.25 668.00,786.25              668.00,789.25 666.50,791.25 663.00,791.25              659.50,791.25 658.00,789.75 658.00,786.25              658.00,782.75 660.75,781.25 663.00,781.25 Z            M 811.00,755.25            C 813.25,755.25 816.00,757.25 816.00,760.25              816.00,763.25 814.50,765.25 811.00,765.25              807.50,765.25 806.00,763.75 806.00,760.25              806.00,756.75 808.75,755.25 811.00,755.25 Z" />
  <path
     id="Orbit Bottom"
     fill="white"
     d="M 376.50,196.50            C 348.00,220.50 303.00,288.00 414.00,493.50              462.00,567.00 496.00,621.00 541.00,672.00              550.00,693.00 591.00,749.00 610.00,730.00              629.00,711.00 579.00,680.00 553.00,664.00              508.00,610.00 463.00,558.00 425.00,490.00              311.00,271.00 364.99,219.31 385.50,207.00              387.00,200.00 380.00,199.00 376.50,196.50 Z" />
  <path
     id="Vector Top"
     fill="#C00000"
     stroke="none"
     d="M 64.49,656.12            C 27.31,669.36 45.52,651.06 58.17,646.00              290.83,519.59 407.16,504.41 634.76,418.45              862.37,332.48 1079.86,257.90 1245.50,58.15              1167.11,260.42 905.36,396.96 647.41,477.87              389.46,558.78 324.97,530.96 64.49,656.12 Z            M 21.50,519.59" />
  <path
     id="A2"
     fill="white"
     stroke="none"
     d="M 826.25,606.75            C 826.25,606.75 845.75,584.50 845.75,584.50              845.75,584.50 887.25,441.25 887.25,441.25              887.25,441.25 872.25,422.75 872.25,422.75              872.25,422.75 958.25,422.75 958.25,422.75              958.25,422.75 1022.25,584.75 1022.25,584.75              1022.25,584.75 1041.00,604.75 1041.00,604.75              1041.00,604.75 931.00,604.75 931.00,604.75              931.00,604.75 947.25,582.75 947.25,582.75              947.25,582.75 939.75,562.25 939.75,562.25              939.75,562.25 875.50,562.25 875.50,562.25              875.50,562.25 870.25,587.75 870.25,587.75              870.25,587.75 883.25,606.00 883.25,606.00              883.25,606.00 826.75,605.25 826.25,606.75 Z            M 884.00,536.75            C 884.00,536.75 930.25,536.75 930.25,536.75              930.25,536.75 903.00,472.50 903.00,472.50              903.00,472.50 884.00,536.75 884.00,536.75 Z" />
  <path
     id="S"
     fill="white"
     stroke="none"
     d="M 776.50,426.25            C 776.50,426.25 792.25,414.00 792.25,414.00              792.25,414.00 791.50,461.75 791.50,461.75              791.50,461.75 780.50,454.00 769.75,446.75              745.50,441.00 716.25,435.25 709.00,457.25              701.75,479.25 758.00,488.25 785.00,503.75              812.00,519.25 830.75,569.50 785.50,596.75              740.25,624.00 699.50,607.00 681.25,601.75              673.00,607.25 659.25,617.75 659.25,617.75              659.25,617.75 657.25,560.75 657.25,560.75              663.73,565.31 682.65,577.62 702.75,582.00              728.01,587.50 754.61,583.72 754.75,573.00              755.00,553.75 743.50,550.00 705.75,538.00              668.00,526.00 654.69,504.56 654.50,480.75              654.00,418.25 737.50,412.00 776.50,426.25 Z" />
  <path
     id="A1"
     fill="white"
     stroke="none"
     d="M 407.00,607.00            C 407.00,607.00 426.50,584.75 426.50,584.75              426.50,584.75 468.00,441.50 468.00,441.50              468.00,441.50 453.00,423.00 453.00,423.00              453.00,423.00 539.00,423.00 539.00,423.00              539.00,423.00 603.00,585.00 603.00,585.00              603.00,585.00 621.75,605.00 621.75,605.00              621.75,605.00 511.75,605.00 511.75,605.00              511.75,605.00 528.00,583.00 528.00,583.00              528.00,583.00 520.50,562.50 520.50,562.50              520.50,562.50 456.25,562.50 456.25,562.50              456.25,562.50 451.00,588.00 451.00,588.00              451.00,588.00 464.00,606.25 464.00,606.25              464.00,606.25 407.50,605.50 407.00,607.00 Z            M 464.50,536.25            C 464.50,536.25 510.75,536.25 510.75,536.25              510.75,536.25 483.50,472.00 483.50,472.00              483.50,472.00 464.50,536.25 464.50,536.25 Z" />
  <path
     id="N"
     fill="white"
     stroke="none"
     d="M 180.00,606.00            C 180.00,606.00 198.00,584.25 198.00,584.25              198.00,584.25 198.00,439.00 198.00,439.00              198.00,439.00 181.00,422.00 181.00,422.00              181.00,422.00 260.00,422.00 260.00,422.00              260.00,422.00 328.00,535.75 328.00,535.75              328.00,535.75 328.00,441.00 328.00,441.00              328.00,441.00 310.00,422.00 310.00,422.00              310.00,422.00 369.00,422.00 369.00,422.00              369.00,422.00 352.00,440.00 352.00,440.00              352.00,440.00 352.00,585.75 352.00,585.75              352.00,585.75 372.75,605.75 372.75,605.75              372.75,605.75 293.00,605.75 293.00,605.75              293.00,605.75 220.00,481.50 220.00,481.50              220.00,481.50 220.00,584.00 220.00,584.00              220.00,584.00 240.25,606.00 240.25,606.00              240.25,606.00 180.00,606.00 180.00,606.00 Z" />
  <path
     id="Vector Bottom"
     fill="#C00000"
     stroke="none"
     d="M 1245.50,58.15            C 1170.00,270.00 947.09,400.75 703.05,565.10              459.00,729.44 356.58,778.75 193.46,944.36              176.99,957.60 166.91,946.88 180.82,931.71              324.97,783.80 493.27,686.32 689.14,548.66              885.00,411.00 1129.50,273.00 1245.50,58.15 Z" />
  <path
     id="Orbit Top"
     fill="white"
     stroke="none"
     d="M 715.50,783.00            C 822.00,823.50 834.00,792.00 846.00,786.00              858.00,780.00 934.50,663.00 730.50,403.50              526.50,144.00 405.00,172.50 376.50,196.50              378.00,205.00 377.00,204.00 385.50,207.00              423.00,184.50 517.50,166.50 721.50,409.50              925.50,652.50 846.00,771.00 838.50,778.50              831.00,786.00 789.00,805.50 715.50,783.00 Z            M 607.50,757.50" />
</svg>
