<?xml version="1.0" encoding="UTF-8" standalone="no"?>
<!-- Created with Inkscape (http://www.inkscape.org/) -->
<svg
   xmlns:dc="http://purl.org/dc/elements/1.1/"
   xmlns:cc="http://web.resource.org/cc/"
   xmlns:rdf="http://www.w3.org/1999/02/22-rdf-syntax-ns#"
   xmlns:svg="http://www.w3.org/2000/svg"
   xmlns="http://www.w3.org/2000/svg"
   xmlns:sodipodi="http://inkscape.sourceforge.net/DTD/sodipodi-0.dtd"
   xmlns:inkscape="http://www.inkscape.org/namespaces/inkscape"
   width="1000.0000px"
   height="1000.0000px"
   id="svg14241"
   sodipodi:version="0.32"
   inkscape:version="0.42.2"
   sodipodi:docbase="/usr/codebase/pov/Pegasus"
   sodipodi:docname="Nergal.svg">
  <defs
     id="defs14243" />
  <sodipodi:namedview
     id="base"
     pagecolor="#ffffff"
     bordercolor="#666666"
     borderopacity="1.0"
     inkscape:pageopacity="0.0"
     inkscape:pageshadow="2"
     inkscape:zoom="0.49497475"
     inkscape:cx="534.79882"
     inkscape:cy="403.32483"
     inkscape:document-units="px"
     inkscape:current-layer="svg14241"
     inkscape:window-width="1152"
     inkscape:window-height="817"
     inkscape:window-x="-4"
     inkscape:window-y="-4" />
  <metadata
     id="metadata14246">
    <rdf:RDF>
      <cc:Work
         rdf:about="">
        <dc:format>image/svg+xml</dc:format>
        <dc:type
           rdf:resource="http://purl.org/dc/dcmitype/StillImage" />
      </cc:Work>
    </rdf:RDF>
  </metadata>
  <path
     style="fill:#000080;fill-opacity:1.0000000;stroke:none;stroke-width:3.0000000;stroke-miterlimit:4.0000000;stroke-dasharray:none;stroke-opacity:1.0000000"
     d="M 500.00000,0.00000000 C 482.07150,0.00000000 464.38000,1.0004930 446.93750,2.8437110 C 602.33190,21.048765 730.62630,128.37930 779.15630,272.31246 C 713.11240,182.98161 607.04020,125.00000 487.50000,125.00000 C 287.40000,124.99996 125.00000,287.40000 125.00000,487.50000 C 125.00000,607.04016 182.98160,713.11234 272.31250,779.15621 C 128.37930,730.62625 21.048800,602.33187 2.8437000,446.93746 C 1.0005000,464.37993 0.00000000,482.07151 0.00000000,500.00000 C 0.00000000,776.00000 224.00000,1000.0000 500.00000,1000.0000 C 776.00000,1000.0000 1000.0000,775.99996 1000.0000,499.99996 C 1000.0000,223.99996 776.00000,0.00000000 500.00000,0.00000000 L 500.00000,0.00000000 z "
     id="Crescent" />
  <path
     id="ERGAL"
     style="font-size:195.14021px;font-style:normal;font-variant:normal;font-weight:bold;font-stretch:normal;text-align:start;line-height:125.00000%;writing-mode:lr-tb;text-anchor:start;fill:#ffffff;fill-opacity:1.0000000;stroke:none;stroke-width:1.0000000px;stroke-linecap:butt;stroke-linejoin:miter;stroke-opacity:1.0000000;font-family:Arial"
     d="M 305.25343,574.94623 L 305.25343,435.26090 L 408.82638,435.26090 L 408.82638,458.89116 L 333.45729,458.89116 L 333.45729,489.85823 L 403.58580,489.85823 L 403.58580,513.39321 L 333.45729,513.39321 L 333.45729,551.41125 L 411.49431,551.41125 L 411.49431,574.94623 L 305.25343,574.94623 M 435.57721,574.94623 L 435.57721,435.26090 L 494.93871,435.26090 C 509.86634,435.26104 520.69686,436.53148 527.43032,439.07223 C 534.22708,441.54973 539.65822,445.99628 543.72376,452.41190 C 547.78906,458.82775 549.82177,466.16456 549.82190,474.42234 C 549.82177,484.90359 546.74094,493.57437 540.57941,500.43468 C 534.41765,507.23163 525.20694,511.51937 512.94726,513.29793 C 519.04529,516.85523 524.06354,520.76184 528.00202,525.01778 C 532.00381,529.27381 537.37143,536.83294 544.10490,547.69520 L 561.16061,574.94623 L 527.43032,574.94623 L 507.03969,544.55085 C 499.79808,533.68860 494.84335,526.85997 492.17549,524.06494 C 489.50749,521.20650 486.68076,519.26907 483.69528,518.25266 C 480.70968,517.17284 475.97728,516.63290 469.49807,516.63284 L 463.78107,516.63284 L 463.78107,574.94623 L 435.57721,574.94623 M 463.78107,494.33655 L 484.64811,494.33655 C 498.17827,494.33663 506.62671,493.76493 509.99347,492.62145 C 513.36006,491.47813 515.99623,489.50895 517.90199,486.71389 C 519.80755,483.91900 520.76039,480.42528 520.76049,476.23272 C 520.76039,471.53218 519.48994,467.75261 516.94915,464.89401 C 514.47169,461.97210 510.94622,460.12996 506.37271,459.36758 C 504.08582,459.05008 497.22543,458.89128 485.79151,458.89116 L 463.78107,458.89116 L 463.78107,494.33655 M 639.22253,523.58853 L 639.22253,500.05355 L 700.01328,500.05355 L 700.01328,555.69900 C 694.10558,561.41601 685.53009,566.46602 674.28678,570.84905 C 663.10677,575.16856 651.76807,577.32831 640.27064,577.32831 C 625.66047,577.32831 612.92428,574.27925 602.06204,568.18111 C 591.19971,562.01947 583.03711,553.25342 577.57423,541.88292 C 572.11131,530.44897 569.37985,518.03039 569.37986,504.62715 C 569.37985,490.08065 572.42892,477.15389 578.52706,465.84684 C 584.62517,454.54001 593.55003,445.86924 605.30167,439.83450 C 614.25825,435.19752 625.40638,432.87896 638.74611,432.87882 C 656.08758,432.87896 669.61779,436.53148 679.33680,443.83640 C 689.11909,451.07805 695.40778,461.11455 698.20289,473.94592 L 670.18960,479.18650 C 668.22031,472.32621 664.50426,466.92683 659.04146,462.98834 C 653.64197,458.98656 646.87687,456.98561 638.74611,456.98549 C 626.42274,456.98561 616.60857,460.89222 609.30357,468.70534 C 602.06200,476.51867 598.44123,488.11146 598.44127,503.48375 C 598.44123,520.06310 602.12552,532.51344 609.49414,540.83480 C 616.86265,549.09272 626.51802,553.22166 638.46026,553.22163 C 644.36774,553.22166 650.27530,552.07826 656.18296,549.79143 C 662.15394,547.44114 667.26747,544.61441 671.52357,541.31122 L 671.52357,523.58853 L 639.22253,523.58853 M 848.20442,574.94623 L 817.52320,574.94623 L 805.32694,543.21689 L 749.49092,543.21689 L 737.96164,574.94623 L 708.04268,574.94623 L 762.44945,435.26090 L 792.27312,435.26090 L 848.20442,574.94623 M 796.27502,519.68191 L 777.02779,467.84779 L 758.16170,519.68191 L 796.27502,519.68191 M 861.42635,574.94623 L 861.42635,436.40430 L 889.63021,436.40430 L 889.63021,551.41125 L 959.75873,551.41125 L 959.75873,574.94623 L 861.42635,574.94623" />
  <path
     style="font-size:195.14021px;font-style:normal;font-variant:normal;font-weight:bold;font-stretch:normal;text-align:start;line-height:125.00000%;writing-mode:lr-tb;text-anchor:start;fill:#ff0000;fill-opacity:1.0000000;stroke:none;stroke-width:1.0000000px;stroke-linecap:butt;stroke-linejoin:miter;stroke-opacity:1.0000000;font-family:Arial"
     d="M 170.35332,574.94623 L 170.35332,435.26090 L 197.79491,435.26090 L 254.96489,528.54326 L 254.96489,435.26090 L 281.16780,435.26090 L 281.16780,574.94623 L 252.86866,574.94623 L 196.55623,483.85539 L 196.55623,574.94623 L 170.35332,574.94623"
     id="N" />
</svg>
