<?xml version="1.0" encoding="UTF-8" standalone="no"?>
<!-- Created with Inkscape (http://www.inkscape.org/) -->
<svg
   xmlns:dc="http://purl.org/dc/elements/1.1/"
   xmlns:cc="http://web.resource.org/cc/"
   xmlns:rdf="http://www.w3.org/1999/02/22-rdf-syntax-ns#"
   xmlns:svg="http://www.w3.org/2000/svg"
   xmlns="http://www.w3.org/2000/svg"
   xmlns:xlink="http://www.w3.org/1999/xlink"
   xmlns:sodipodi="http://inkscape.sourceforge.net/DTD/sodipodi-0.dtd"
   xmlns:inkscape="http://www.inkscape.org/namespaces/inkscape"
   width="260"
   height="306"
   id="svg2"
   sodipodi:version="0.32"
   inkscape:version="0.43"
   version="1.0"
   sodipodi:docbase="C:\Documents and Settings\jeppesen\workspace\svg"
   sodipodi:docname="NewLASPLogoConstruction.svg">
  <defs
     id="defs4" />
  <sodipodi:namedview
     id="base"
     pagecolor="#ffffff"
     bordercolor="#666666"
     borderopacity="1.0"
     inkscape:pageopacity="0.0"
     inkscape:pageshadow="2"
     inkscape:zoom="1.8218883"
     inkscape:cx="205.702"
     inkscape:cy="187.09912"
     inkscape:document-units="px"
     inkscape:current-layer="layer1"
     inkscape:window-width="1065"
     inkscape:window-height="677"
     inkscape:window-x="5"
     inkscape:window-y="482" />
  <metadata
     id="metadata7">
    <rdf:RDF>
      <cc:Work
         rdf:about="">
        <dc:format>image/svg+xml</dc:format>
        <dc:type
           rdf:resource="http://purl.org/dc/dcmitype/StillImage" />
      </cc:Work>
    </rdf:RDF>
  </metadata>
  <g
     inkscape:label="Layer 1"
     inkscape:groupmode="layer"
     id="layer1">
    <rect
       style="fill:#0000ff;fill-opacity:1;stroke:none;stroke-width:2.5;stroke-linecap:butt;stroke-linejoin:miter;stroke-miterlimit:4;stroke-dasharray:none;stroke-dashoffset:0;stroke-opacity:1;opacity:1"
       id="rect2194"
       width="260"
       height="306"
       x="0"
       y="0" />
    <image
       id="image1314"
       height="306"
       width="260"
       sodipodi:absref="C:\Documents and Settings\jeppesen\Desktop\color_logo_art.png"
       xlink:href="C:\Documents and Settings\jeppesen\Desktop\color_logo_art.png"
       x="261.59122"
       y="1.7465289"
       style="opacity:1;fill:#7ad2f7;fill-opacity:1" />
    <path
       sodipodi:type="arc"
       style="fill:#ffff2f;fill-opacity:1;stroke:none;stroke-width:2.5;stroke-linecap:butt;stroke-linejoin:miter;stroke-miterlimit:4;stroke-dasharray:none;stroke-dashoffset:0;stroke-opacity:1"
       id="path2192"
       sodipodi:cx="174.25131"
       sodipodi:cy="60.027855"
       sodipodi:rx="138.89598"
       sodipodi:ry="138.89598"
       d="M 313.14729 60.027855 A 138.89598 138.89598 0 1 1  35.355331,60.027855 A 138.89598 138.89598 0 1 1  313.14729 60.027855 z"
       transform="matrix(1.087273,0,0,1.087273,0.955054,-14.33017)" />
    <path
       sodipodi:type="arc"
       style="fill:#ff0000;fill-opacity:1;stroke:none;stroke-width:2.5;stroke-linecap:butt;stroke-linejoin:miter;stroke-miterlimit:4;stroke-dasharray:none;stroke-dashoffset:0;stroke-opacity:1"
       id="path1317"
       sodipodi:cx="209.10158"
       sodipodi:cy="575.57019"
       sodipodi:rx="101.01525"
       sodipodi:ry="101.01525"
       d="M 310.11683 575.57019 A 101.01525 101.01525 0 1 1  108.08633,575.57019 A 101.01525 101.01525 0 1 1  310.11683 575.57019 z"
       transform="matrix(0.735,0,0,0.735,69.04888,-395.4815)" />
    <path
       sodipodi:type="arc"
       style="fill:none;fill-opacity:0.48765433;stroke:#ffffff;stroke-width:6.73157589;stroke-linecap:butt;stroke-linejoin:miter;stroke-miterlimit:4;stroke-dasharray:none;stroke-dashoffset:0;stroke-opacity:1"
       id="path2202"
       sodipodi:cx="199.00005"
       sodipodi:cy="93.867966"
       sodipodi:rx="204.05081"
       sodipodi:ry="204.05081"
       d="M 403.05086 93.867966 A 204.05081 204.05081 0 1 1  -5.050766,93.867966 A 204.05081 204.05081 0 1 1  403.05086 93.867966 z"
       transform="matrix(1.188429,0,0,1.188429,2.476776e-3,-62.05531)" />
    <path
       sodipodi:type="arc"
       style="opacity:1;fill:#c0c0c0;fill-opacity:1;stroke:none;stroke-width:2.5;stroke-linecap:butt;stroke-linejoin:miter;stroke-miterlimit:4;stroke-dasharray:none;stroke-dashoffset:0;stroke-opacity:1"
       id="path2198"
       sodipodi:cx="17.172594"
       sodipodi:cy="147.40605"
       sodipodi:rx="12.121831"
       sodipodi:ry="12.121831"
       d="M 29.294425 147.40605 A 12.121831 12.121831 0 1 1  5.0507631,147.40605 A 12.121831 12.121831 0 1 1  29.294425 147.40605 z"
       transform="matrix(0.989949,0,0,0.989949,-0.999998,2.075532)" />
    <path
       sodipodi:type="arc"
       style="fill:none;fill-opacity:0.48765432;stroke:#ffffff;stroke-width:6.94866069;stroke-linecap:butt;stroke-linejoin:miter;stroke-miterlimit:4;stroke-dasharray:none;stroke-dashoffset:0;stroke-opacity:1"
       id="path2208"
       sodipodi:cx="199.00005"
       sodipodi:cy="93.867966"
       sodipodi:rx="204.05081"
       sodipodi:ry="204.05081"
       d="M 403.05086 93.867966 A 204.05081 204.05081 0 1 1  -5.050766,93.867966 A 204.05081 204.05081 0 1 1  403.05086 93.867966 z"
       transform="matrix(1.151301,0,0,1.151301,-37.17979,-58.14389)" />
    <path
       sodipodi:type="arc"
       style="opacity:1;fill:#90a6d4;fill-opacity:1;stroke:none;stroke-width:2.5;stroke-linecap:butt;stroke-linejoin:miter;stroke-miterlimit:4;stroke-dasharray:none;stroke-dashoffset:0;stroke-opacity:1"
       id="path2196"
       sodipodi:cx="53.538086"
       sodipodi:cy="242.36038"
       sodipodi:rx="29.294424"
       sodipodi:ry="29.294424"
       d="M 82.83251 242.36038 A 29.294424 29.294424 0 1 1  24.243662,242.36038 A 29.294424 29.294424 0 1 1  82.83251 242.36038 z"
       transform="matrix(1.007018,0,0,1.007018,-2.190437,-5.051158)" />
    <path
       sodipodi:type="arc"
       style="fill:#90a6d4;fill-opacity:1;stroke:none;stroke-width:8;stroke-linecap:butt;stroke-linejoin:miter;stroke-miterlimit:4;stroke-dasharray:none;stroke-dashoffset:0;stroke-opacity:1"
       id="path2210"
       sodipodi:cx="503.0415"
       sodipodi:cy="337.28149"
       sodipodi:rx="7.8341627"
       sodipodi:ry="8.2203531"
       d="M 510.87567 337.28149 A 7.8341627 8.2203531 0 1 1  495.20734,337.28149 A 7.8341627 8.2203531 0 1 1  510.87567 337.28149 z"
       transform="matrix(1.340284,0,0,1.277317,-168.5111,-91.17945)" />
    <rect
       style="opacity:1;fill:#c0c0c0;fill-opacity:1;stroke:none;stroke-width:8;stroke-linecap:butt;stroke-linejoin:miter;stroke-miterlimit:4;stroke-dasharray:none;stroke-dashoffset:0;stroke-opacity:1"
       id="rect2212"
       width="20"
       height="50"
       x="-10"
       y="-4" />
    <path
       sodipodi:type="arc"
       style="opacity:1;fill:#80d0ff;fill-opacity:1;stroke:none;stroke-width:2.5;stroke-linecap:butt;stroke-linejoin:miter;stroke-miterlimit:4;stroke-dasharray:none;stroke-dashoffset:0;stroke-opacity:1"
       id="path2200"
       sodipodi:cx="17.172594"
       sodipodi:cy="147.40605"
       sodipodi:rx="12.121831"
       sodipodi:ry="12.121831"
       d="M 29.294425 147.40605 A 12.121831 12.121831 0 1 1  5.0507631,147.40605 A 12.121831 12.121831 0 1 1  29.294425 147.40605 z"
       transform="matrix(0.866206,0,0,0.866206,222.0534,152.2012)" />
  </g>
</svg>
