<?xml version="1.0" encoding="UTF-8" standalone="no"?>
<!-- Created with Inkscape (http://www.inkscape.org/) -->
<svg
   xmlns:dc="http://purl.org/dc/elements/1.1/"
   xmlns:cc="http://web.resource.org/cc/"
   xmlns:rdf="http://www.w3.org/1999/02/22-rdf-syntax-ns#"
   xmlns:svg="http://www.w3.org/2000/svg"
   xmlns="http://www.w3.org/2000/svg"
   xmlns:sodipodi="http://inkscape.sourceforge.net/DTD/sodipodi-0.dtd"
   xmlns:inkscape="http://www.inkscape.org/namespaces/inkscape"
   width="260"
   height="306"
   id="svg2"
   sodipodi:version="0.32"
   inkscape:version="0.43"
   version="1.0"
   sodipodi:docbase="C:\Documents and Settings\jeppesen\workspace\svg"
   sodipodi:docname="NewLASPLogoFull.svg">
  <defs
     id="defs4" />
  <sodipodi:namedview
     id="base"
     pagecolor="#ffffff"
     bordercolor="#666666"
     borderopacity="1.0"
     inkscape:pageopacity="0.0"
     inkscape:pageshadow="2"
     inkscape:zoom="0.29130932"
     inkscape:cx="131.71822"
     inkscape:cy="147.90705"
     inkscape:document-units="px"
     inkscape:current-layer="layer1"
     inkscape:window-width="1065"
     inkscape:window-height="973"
     inkscape:window-x="555"
     inkscape:window-y="119"
     showguides="true"
     inkscape:guide-bbox="true"
     inkscape:guide-points="true"
     guidetolerance="5px">
    <sodipodi:guide
       orientation="vertical"
       position="0"
       id="guide8185" />
    <sodipodi:guide
       orientation="vertical"
       position="260"
       id="guide8187" />
    <sodipodi:guide
       orientation="horizontal"
       position="0"
       id="guide8189" />
    <sodipodi:guide
       orientation="horizontal"
       position="306"
       id="guide8191" />
  </sodipodi:namedview>
  <metadata
     id="metadata7">
    <rdf:RDF>
      <cc:Work
         rdf:about="">
        <dc:format>image/svg+xml</dc:format>
        <dc:type
           rdf:resource="http://purl.org/dc/dcmitype/StillImage" />
      </cc:Work>
    </rdf:RDF>
  </metadata>
  <g
     inkscape:label="Layer 1"
     inkscape:groupmode="layer"
     id="layer1">
    <path
       style="opacity:1;fill:#ffffff;fill-opacity:1;stroke:none;stroke-opacity:1"
       d="M 48.21875,0 C 42.50936,15.918658 39.40625,33.062353 39.40625,50.9375 C 39.40625,134.29935 107.04439,201.96875 190.40625,201.96875 C 215.48995,201.96875 239.1757,195.83604 260,185 L 260,91.78125 C 249.0435,98.157927 236.33222,101.8125 222.75,101.8125 C 181.76609,101.8125 148.5,68.546408 148.5,27.5625 C 148.5,17.822385 150.36672,8.5250339 153.78125,0 L 48.21875,0 z M 0,80.53125 L 0,119.125 C 2.08002,126.18917 4.47529,133.12036 7.15625,139.90625 C 8.97813,137.91526 11.45374,136.53465 14.25,136.125 C 7.37814,118.51238 2.51571,99.888587 0,80.53125 z M 23.65625,157.21875 C 21.61413,158.91579 19.00845,159.96383 16.15625,160 C 25.24686,178.07406 36.49597,194.86627 49.5625,210.0625 C 50.20307,210.02081 50.84903,210 51.5,210 C 55.11619,210 58.57879,210.65139 61.78125,211.84375 C 46.66532,195.58539 33.79615,177.20952 23.65625,157.21875 z M 0,178.34375 L 0,192.15625 C 8.16659,203.15372 17.26218,213.40987 27.15625,222.84375 C 28.66695,220.64311 30.46285,218.65437 32.5,216.9375 C 20.32496,205.31008 9.40822,192.3771 0,178.34375 z M 78.84375,228.46875 C 80.2221,231.87912 81,235.59756 81,239.5 C 81,239.89358 80.98396,240.29756 80.96875,240.6875 C 96.82363,253.60634 114.32893,264.58408 133.09375,273.28125 C 113.83249,268.21996 95.5738,260.72367 78.625,251.15625 C 77.5629,253.63515 76.16868,255.9284 74.5,258 C 104.58123,275.03667 138.69636,285.74082 175.0625,288.28125 C 175.073,288.28094 175.1145,288.28156 175.125,288.28125 C 194.74907,293.32006 215.3153,296 236.5,296 C 244.42808,296 252.26231,295.60877 260,294.875 L 260,286.84375 C 254.62291,287.37003 249.193,287.73974 243.71875,287.90625 C 241.88978,289.45292 239.51853,290.375 236.9375,290.375 C 234.35647,290.375 231.98522,289.45292 230.15625,287.90625 C 226.38379,287.80273 222.63331,287.61564 218.90625,287.34375 C 222.10755,286.98312 225.27551,286.54829 228.4375,286.0625 C 227.17243,284.32834 226.4375,282.18434 226.4375,279.875 C 226.4375,279.33163 226.48279,278.80245 226.5625,278.28125 C 215.26813,279.9776 203.70734,280.84375 191.9375,280.84375 C 186.67017,280.84375 181.42943,280.65976 176.25,280.3125 C 176.24739,280.31259 176.22136,280.31248 176.21875,280.3125 C 139.60353,270.77132 106.39195,252.75155 78.84375,228.46875 z M 260,270.65625 C 255.37216,272.08221 250.68372,273.36315 245.9375,274.5 C 246.8823,276.07572 247.4375,277.90527 247.4375,279.875 C 247.4375,280.75665 247.32998,281.61909 247.125,282.4375 C 251.46579,281.40963 255.75409,280.26207 260,279 L 260,270.65625 z "
       id="rect8193"
       sodipodi:nodetypes="cssccssccccccccccsccccccccsccccccscccscccscssccccsccc" />
    <path
       style="opacity:1;fill:#0000c0;fill-opacity:1;stroke:none;stroke-width:2.5;stroke-linecap:butt;stroke-linejoin:miter;stroke-miterlimit:4;stroke-dasharray:none;stroke-dashoffset:0;stroke-opacity:1"
       d="M 0,0 L 0,80.53125 C 2.5157083,99.888587 7.3781439,118.51238 14.25,136.125 C 14.821984,136.0412 15.404875,136 16,136 C 22.623997,136 28,141.376 28,148 C 28,151.71151 26.305683,155.01702 23.65625,157.21875 C 33.796157,177.20952 46.665324,195.58539 61.78125,211.84375 C 69.543767,214.73395 75.747784,220.80863 78.84375,228.46875 C 106.39195,252.75155 139.60353,270.77132 176.21875,280.3125 C 176.22136,280.31248 176.24739,280.31259 176.25,280.3125 C 181.42943,280.65976 186.67017,280.84375 191.9375,280.84375 C 203.70734,280.84375 215.26813,279.9776 226.5625,278.28125 C 227.33304,273.24296 231.68487,269.375 236.9375,269.375 C 240.76377,269.37501 244.10221,271.43911 245.9375,274.5 C 250.68372,273.36315 255.37216,272.08221 260,270.65625 L 260,185 C 239.1757,195.83604 215.48995,201.96875 190.40625,201.96875 C 107.04439,201.96875 39.40625,134.29935 39.40625,50.9375 C 39.40625,33.062353 42.509361,15.918658 48.21875,0 L 0,0 z "
       id="rect2241" />
    <path
       style="opacity:1;fill:#0000c0;fill-opacity:1;stroke:none;stroke-width:2.5;stroke-linecap:butt;stroke-linejoin:miter;stroke-miterlimit:4;stroke-dasharray:none;stroke-dashoffset:0;stroke-opacity:1"
       d="M 0,119.125 L 0,178.34375 C 9.4082191,192.3771 20.32497,205.31008 32.5,216.9375 C 37.175005,212.99602 43.078702,210.48076 49.5625,210.0625 C 36.495963,194.86627 25.246853,178.07406 16.15625,160 C 16.104654,160.00065 16.05175,160 16,160 C 9.3760031,160 4,154.624 4,148 C 4,144.88051 5.2028006,142.04102 7.15625,139.90625 C 4.4752962,133.12036 2.0800218,126.18917 0,119.125 z "
       id="path1335" />
    <path
       style="opacity:1;fill:#0000c0;fill-opacity:1;stroke:none;stroke-width:2.5;stroke-linecap:butt;stroke-linejoin:miter;stroke-miterlimit:4;stroke-dasharray:none;stroke-dashoffset:0;stroke-opacity:1"
       d="M 0,192.15625 L 0,306 L 260,306 L 260,294.875 C 252.26231,295.60877 244.42808,296 236.5,296 C 215.3153,296 194.74907,293.32006 175.125,288.28125 C 175.1145,288.28156 175.073,288.28094 175.0625,288.28125 C 138.69636,285.74082 104.58123,275.03667 74.5,258 C 69.091234,264.71475 60.786973,269 51.5,269 C 35.215994,269 22,255.78401 22,239.5 C 22,233.31593 23.900016,227.58708 27.15625,222.84375 C 17.26219,213.40987 8.1665968,203.15372 0,192.15625 z "
       id="path1333" />
    <path
       style="opacity:1;fill:#0000c0;fill-opacity:1;stroke:none;stroke-width:2.5;stroke-linecap:butt;stroke-linejoin:miter;stroke-miterlimit:4;stroke-dasharray:none;stroke-dashoffset:0;stroke-opacity:1"
       d="M 80.96875,240.6875 C 80.821304,244.38632 80.014195,247.92884 78.625,251.15625 C 95.57381,260.72367 113.83249,268.21996 133.09375,273.28125 C 114.32893,264.58408 96.823633,253.60634 80.96875,240.6875 z "
       id="path1331" />
    <path
       style="opacity:1;fill:#0000ff;fill-opacity:1;stroke:none;stroke-width:2.5;stroke-linecap:butt;stroke-linejoin:miter;stroke-miterlimit:4;stroke-dasharray:none;stroke-dashoffset:0;stroke-opacity:1"
       d="M 260,279 C 255.74438,280.26496 251.4447,281.4078 247.09375,282.4375 C 246.55205,284.59363 245.36246,286.51086 243.71875,287.90625 C 249.193,287.73974 254.62291,287.37003 260,286.84375 L 260,279 z "
       id="path1329" />
    <path
       style="opacity:1;fill:#0000c0;fill-opacity:1;stroke:none;stroke-width:2.5;stroke-linecap:butt;stroke-linejoin:miter;stroke-miterlimit:4;stroke-dasharray:none;stroke-dashoffset:0;stroke-opacity:1"
       d="M 228.4375,286.0625 C 225.27551,286.54829 222.10755,286.98312 218.90625,287.34375 C 222.63331,287.61564 226.38379,287.80273 230.15625,287.90625 C 229.51451,287.36356 228.93361,286.74256 228.4375,286.0625 z "
       id="path1327" />
    <path
       style="fill:#c00000;fill-opacity:1;stroke:none;stroke-width:2.5;stroke-linecap:butt;stroke-linejoin:miter;stroke-miterlimit:4;stroke-dasharray:none;stroke-dashoffset:0;stroke-opacity:1"
       d="M 153.78125,0 C 150.36672,8.5250339 148.5,17.822385 148.5,27.5625 C 148.5,68.546408 181.76609,101.8125 222.75,101.8125 C 236.33222,101.8125 249.0435,98.157927 260,91.78125 L 260,0 L 153.78125,0 z "
       id="path1317" />
    <path
       sodipodi:type="arc"
       style="opacity:1;fill:#b2b2b2;fill-opacity:1;stroke:none;stroke-width:2.5;stroke-linecap:butt;stroke-linejoin:miter;stroke-miterlimit:4;stroke-dasharray:none;stroke-dashoffset:0;stroke-opacity:1"
       id="path2198"
       sodipodi:cx="17.172594"
       sodipodi:cy="147.40605"
       sodipodi:rx="12.121831"
       sodipodi:ry="12.121831"
       d="M 29.294425 147.40605 A 12.121831 12.121831 0 1 1  5.0507631,147.40605 A 12.121831 12.121831 0 1 1  29.294425 147.40605 z"
       transform="matrix(0.989949,0,0,0.989949,-0.999998,2.075532)" />
    <path
       sodipodi:type="arc"
       style="opacity:1;fill:#90b8ff;fill-opacity:1;stroke:none;stroke-width:2.5;stroke-linecap:butt;stroke-linejoin:miter;stroke-miterlimit:4;stroke-dasharray:none;stroke-dashoffset:0;stroke-opacity:1"
       id="path2196"
       sodipodi:cx="53.538086"
       sodipodi:cy="242.36038"
       sodipodi:rx="29.294424"
       sodipodi:ry="29.294424"
       d="M 82.83251 242.36038 A 29.294424 29.294424 0 1 1  24.243662,242.36038 A 29.294424 29.294424 0 1 1  82.83251 242.36038 z"
       transform="matrix(1.007018,0,0,1.007018,-2.413804,-4.56128)" />
    <path
       sodipodi:type="arc"
       style="opacity:1;fill:#80ffff;fill-opacity:1;stroke:none;stroke-width:2.5;stroke-linecap:butt;stroke-linejoin:miter;stroke-miterlimit:4;stroke-dasharray:none;stroke-dashoffset:0;stroke-opacity:1"
       id="path2200"
       sodipodi:cx="17.172594"
       sodipodi:cy="147.40605"
       sodipodi:rx="12.121831"
       sodipodi:ry="12.121831"
       d="M 29.294425 147.40605 A 12.121831 12.121831 0 1 1  5.0507631,147.40605 A 12.121831 12.121831 0 1 1  29.294425 147.40605 z"
       transform="matrix(0.866206,0,0,0.866206,222.0534,152.2012)" />
    <path
       d="M 650,104 L 650,66 C 650,34 669.5,34 689,34 C 708.5,34 728,34 728,66 L 728,104 L 650,104 z M 552,314 L 552,81 C 552,34 591.10433,-4.21814 689,-4.21814 C 786.27023,-4.21814 825.99997,34 825.99997,81 L 825.99997,314 L 728,314 L 728,145 L 650,145 L 650,314 L 552,314 z "
       style="fill:#0000c0;fill-opacity:1;fill-rule:evenodd;stroke:none;stroke-width:1px;stroke-linecap:butt;stroke-linejoin:miter;stroke-opacity:1"
       id="path5478" />
    <path
       style="fill:#0000c0;fill-opacity:1;fill-rule:evenodd;stroke:none;stroke-width:1px;stroke-linecap:butt;stroke-linejoin:miter;stroke-opacity:1"
       d="M 419.71875,313.99793 C 323.49814,313.40722 285,275.41199 285,228.77918 L 285,0 L 383,0 L 383,243.77918 C 383,275.77918 402.5,275.77918 422,275.77918 L 525,276.18906 L 525,314 L 422,313.99793 C 421.23519,313.99793 420.47639,314.00258 419.71875,313.99793 z "
       id="path6356"
       sodipodi:nodetypes="cccccccccc" />
    <path
       style="fill:#0000c0;fill-opacity:1;fill-rule:evenodd;stroke:none;stroke-width:1px;stroke-linecap:butt;stroke-linejoin:miter;stroke-opacity:1"
       d="M 1094,74.04148 C 1094,15.045339 1032.5,-4.21814 971,-4.21814 C 909.5,-4.21814 848,24.175868 848,74.04148 C 848,154.93092 1017,185.07256 1017,240 C 1017,264.4122 996.75,273 976.5,273 C 956.25,273 936,263.90361 936,240 L 844,240 C 844,299.50473 910.5,318 977,318 C 1043.5,318 1110,292.46705 1110,234.40554 C 1110,133.81107 936,114.39317 936,65.41046 C 936,42.0348 956.9368,42.0348 969,42.0348 C 987.53435,42.0348 1002,49.120696 1002,74.04148 L 1094,74.04148 z "
       id="path6400"
       sodipodi:nodetypes="cssczcczssscc" />
    <path
       id="path7301"
       style="fill:#0000c0;fill-opacity:1;fill-rule:evenodd;stroke:none;stroke-width:1px;stroke-linecap:butt;stroke-linejoin:miter;stroke-opacity:1"
       d="M 1128,0 L 1128,314 L 1226,314 L 1226,170 L 1283,170 C 1399,170 1399,104.11232 1399,85 C 1399,65.470039 1399,0 1283,0 L 1128,0 z M 1226,35 L 1226,135 L 1253.7465,135 C 1301,135 1301,102.0649 1301,85 C 1301,68.352742 1301,35 1253.7465,35 L 1226,35 z " />
    <path
       id="path9962"
       d="M 260,279 C 255.74438,280.26496 251.4447,281.4078 247.09375,282.4375 C 246.55205,284.59363 245.36246,286.51086 243.71875,287.90625 C 249.193,287.73974 254.62291,287.37003 260,286.84375 L 260,279 z "
       style="opacity:1;fill:#0000c0;fill-opacity:1;stroke:none;stroke-width:2.5;stroke-linecap:butt;stroke-linejoin:miter;stroke-miterlimit:4;stroke-dasharray:none;stroke-dashoffset:0;stroke-opacity:1" />
  </g>
</svg>
