<?xml version="1.0" encoding="UTF-8" standalone="no"?>
<!-- Created with Inkscape (http://www.inkscape.org/) -->
<svg
   xmlns:dc="http://purl.org/dc/elements/1.1/"
   xmlns:cc="http://web.resource.org/cc/"
   xmlns:rdf="http://www.w3.org/1999/02/22-rdf-syntax-ns#"
   xmlns:svg="http://www.w3.org/2000/svg"
   xmlns="http://www.w3.org/2000/svg"
   xmlns:xlink="http://www.w3.org/1999/xlink"
   xmlns:sodipodi="http://inkscape.sourceforge.net/DTD/sodipodi-0.dtd"
   xmlns:inkscape="http://www.inkscape.org/namespaces/inkscape"
   width="1100"
   height="1075"
   id="svg2"
   sodipodi:version="0.32"
   inkscape:version="0.43"
   sodipodi:docbase="/home/chrisj"
   sodipodi:docname="Omoikane.svg"
   version="1.0">
  <defs
     id="defs4">
    <linearGradient
       id="linearGradient3164">
      <stop
         style="stop-color:#724316;stop-opacity:1;"
         offset="0"
         id="stop3166" />
      <stop
         id="stop3178"
         offset="0.5"
         style="stop-color:#e87e1a;stop-opacity:1;" />
      <stop
         style="stop-color:#ff9e41;stop-opacity:1;"
         offset="1"
         id="stop3168" />
    </linearGradient>
    <radialGradient
       inkscape:collect="always"
       xlink:href="#linearGradient3164"
       id="radialGradient3172"
       cx="594.45953"
       cy="742.11401"
       fx="594.45953"
       fy="742.11401"
       r="394.29688"
       gradientTransform="matrix(-2.097028,-2.554594e-2,3.049449e-2,-2.510177,2130.497,2641.945)"
       gradientUnits="userSpaceOnUse" />
  </defs>
  <sodipodi:namedview
     id="base"
     pagecolor="#ffffff"
     bordercolor="#666666"
     borderopacity="1.0"
     inkscape:pageopacity="0.0"
     inkscape:pageshadow="2"
     inkscape:zoom="0.3652848"
     inkscape:cx="507.34718"
     inkscape:cy="604.22877"
     inkscape:document-units="px"
     inkscape:current-layer="layer1"
     showguides="true"
     inkscape:guide-bbox="true"
     inkscape:window-width="1272"
     inkscape:window-height="948"
     inkscape:window-x="0"
     inkscape:window-y="0"
     inkscape:guide-points="true">
    <sodipodi:guide
       orientation="vertical"
       position="550"
       id="guide1361" />
    <sodipodi:guide
       orientation="horizontal"
       position="700"
       id="guide1363" />
  </sodipodi:namedview>
  <metadata
     id="metadata7">
    <rdf:RDF>
      <cc:Work
         rdf:about="">
        <dc:format>image/svg+xml</dc:format>
        <dc:type
           rdf:resource="http://purl.org/dc/dcmitype/StillImage" />
      </cc:Work>
    </rdf:RDF>
  </metadata>
  <g
     inkscape:label="Layer 1"
     inkscape:groupmode="layer"
     id="layer1">
    <path
       style="fill:#e87e1a;fill-opacity:1;fill-rule:evenodd;stroke:none;stroke-width:1px;stroke-linecap:butt;stroke-linejoin:miter;stroke-opacity:1"
       d="M 550,0 C 37.5,0 187.5,760 0,950 C 200,950 275,1075 550,1075 C 825,1075 900,950 1100,950 C 922.5,760 1062.5,0 550,0 z "
       id="path1350"
       sodipodi:nodetypes="cczcz" />
    <path
       sodipodi:type="inkscape:offset"
       inkscape:radius="-100"
       inkscape:original="M 550 0 C 37.5 0 187.5 760 0 950 C 200 950 275 1075 550 1075 C 825 1075 900 950 1100 950 C 922.5 760 1062.5 0 550 0 z "
       style="fill:url(#radialGradient3172);fill-opacity:1;fill-rule:evenodd;stroke:#000000;stroke-width:5;stroke-linecap:butt;stroke-linejoin:miter;stroke-miterlimit:4;stroke-dasharray:none;stroke-opacity:1"
       id="path1359"
       d="M 550,100 C 446.59045,100 396.19053,130.75673 351.5,185.1875 C 306.80947,239.61827 273.94478,326.30481 250.5,426.53125 C 227.05522,526.75769 212.31954,638.29009 190.875,741.71875 C 181.51385,786.86832 171.80473,831.18159 157.59375,873.125 C 204.6094,886.81758 245.85163,904.3969 284,919.65625 C 359.56368,949.88172 427.65152,975 550,975 C 672.34848,975 740.43632,949.88172 816,919.65625 C 854.89133,904.09972 897.02502,886.14524 945.1875,872.34375 C 931.64798,830.55639 922.40079,786.42751 913.25,741.25 C 892.40781,638.35192 877.36441,527.11588 853.375,427.0625 C 829.38559,327.00912 795.78674,240.34046 750.3125,185.65625 C 704.83826,130.97204 653.40955,100 550,100 z " />
    <path
       style="fill:#000000;fill-opacity:1;fill-rule:evenodd;stroke:none;stroke-width:1px;stroke-linecap:butt;stroke-linejoin:miter;stroke-opacity:1"
       d="M 550,0 L 472.0625,105.0625 L 358.125,54.53125 L 354.3125,177.09375 L 250.78125,159.40625 L 299.1875,266.46875 L 187.5625,293.46875 L 265.59375,354.375 L 151.4375,434.5625 L 231,503.25 L 127.34375,556.75 L 205.3125,647.96875 L 98.09375,732.28125 L 173.4375,800.9375 L 39.65625,896.65625 L 157.59375,873.125 C 171.80473,831.18159 181.51385,786.86832 190.875,741.71875 C 212.31954,638.29009 227.05522,526.75769 250.5,426.53125 C 273.94478,326.30481 306.80947,239.61827 351.5,185.1875 C 396.19053,130.75673 446.59045,100 550,100 C 653.40955,100 704.83826,130.97204 750.3125,185.65625 C 795.78674,240.34046 829.38559,327.00912 853.375,427.0625 C 859.27864,451.68501 864.64768,476.97018 869.6875,502.65625 L 948.5625,434.5625 L 834.40625,354.375 L 912.4375,293.46875 L 800.8125,266.46875 L 849.21875,159.40625 L 745.6875,177.09375 L 741.875,54.53125 L 627.9375,105.0625 L 550,0 z M 869.875,503.6875 C 879.08436,550.72099 887.23779,599.0314 895.65625,646.84375 L 972.65625,556.75 L 869.875,503.6875 z M 896.03125,649.03125 C 901.51976,680.1602 907.13564,711.06337 913.25,741.25 C 922.40079,786.42751 931.64798,830.55639 945.1875,872.34375 C 944.27863,872.6042 943.37334,872.86164 942.46875,873.125 L 1060.3438,896.65625 L 926.5625,800.9375 L 1001.9062,732.28125 L 896.03125,649.03125 z "
       id="path2285" />
    <path
       style="fill:#000000"
       d="M 500.60628,913.47554 L 501.37549,873.07004 L 494.31811,883.68159 C 484.52523,898.40628 453.80914,928.59042 438.22304,938.80523 L 425.26225,947.29944 L 418.6325,943.46397 C 414.98613,941.35446 409.24782,938.73779 405.88069,937.64916 C 402.51357,936.56053 399.75865,935.13853 399.75865,934.48919 C 399.75865,933.83984 403.24822,931.62484 407.51324,929.56695 C 433.29223,917.12852 459.4496,893.38072 473.52002,869.64062 L 481.16331,856.74459 L 429.14446,855.84744 L 429.14446,844.46006 L 429.14446,833.07269 L 500.97645,833.07269 L 500.97645,815.11469 L 401.3912,815.11469 L 401.3912,803.68687 L 401.3912,792.25905 L 500.97645,792.25905 L 500.97645,774.30106 L 429.14446,774.30106 L 429.14446,762.87324 L 429.14446,751.44542 L 500.97645,751.44542 L 500.97645,736.75252 L 409.55392,736.75252 L 409.55392,725.3247 L 409.55392,713.89688 C 409.55392,713.89688 569.54335,713.36859 569.54335,712.14516 C 569.54335,711.18172 573.68766,705.12089 578.75293,698.67667 C 587.40373,687.6708 597.29245,669.88621 597.29532,665.32867 C 597.29603,664.20629 598.70398,663.28798 600.4241,663.28798 C 604.30644,663.28798 629.94752,674.716 629.94752,676.44631 C 629.94752,677.14068 628.03271,678.34707 625.69239,679.12718 C 623.013,680.0203 617.03072,686.56968 609.53781,696.81308 L 597.63837,713.08061 L 690.35169,713.94696 L 690.35169,725.34974 L 690.35169,736.75252 L 587.50134,736.75252 L 587.50134,751.44542 L 649.53806,751.44542 L 649.53806,792.25905 L 693.61678,792.25905 L 693.61678,803.68687 L 693.61678,815.11469 L 649.53806,815.11469 L 649.53806,859.19341 L 636.4777,859.19341 C 628.85915,859.19341 623.41734,858.51318 623.41734,857.56086 C 623.41734,856.66296 621.2134,855.92832 618.5197,855.92832 C 615.826,855.92832 613.62207,856.51914 613.62207,857.24124 C 613.62207,860.06622 624.11035,875.10565 631.32509,882.62606 C 644.6729,896.53938 665.90557,910.39917 684.28296,917.1947 C 688.57731,918.78266 692.45509,920.67122 692.90025,921.39152 L 675.23788,945.72448 L 669.32629,942.16801 C 644.87388,927.45726 618.05493,904.62585 606.10488,888.34663 C 602.83736,883.89538 597.34727,874.59665 593.90466,867.68276 L 587.64537,855.11205 L 587.57336,904.49654 L 587.50134,953.88103 L 560.40949,953.88103 L 561.09839,904.90467 L 561.78729,855.92832 L 527.09717,855.92832 L 527.09717,904.90467 L 527.09717,953.88103 L 499.83706,953.88103 L 500.60628,913.47554 z M 561.38062,815.11469 L 527.09717,815.11469 L 527.09717,833.07269 L 561.38062,833.07269 L 561.38062,815.11469 z M 623.41734,815.11469 L 587.50134,815.11469 L 587.50134,833.07269 L 623.41734,833.07269 L 623.41734,815.11469 z M 561.38062,774.30106 L 527.09717,774.30106 L 527.09717,792.25905 L 561.38062,792.25905 L 561.38062,774.30106 z M 623.41734,774.30106 L 587.50134,774.30106 L 587.50134,792.25905 L 623.41734,792.25905 L 623.41734,774.30106 z M 561.38062,736.75252 L 527.09717,736.75252 L 527.09717,751.44542 L 561.38062,751.44542 L 561.38062,736.75252 z M 497.10227,704.12187 C 494.73284,700.54141 487.99303,692.52244 482.12492,686.30194 C 476.25681,680.08144 472.03699,674.66705 472.74754,674.26997 C 473.4581,673.87288 478.95234,672.24488 484.95698,670.65215 L 495.87451,667.75631 L 502.30958,673.27674 C 512.41983,681.94998 524.82569,696.42397 522.7441,697.11781 C 521.7071,697.46349 516.71986,700.64553 511.66133,704.18905 C 506.6028,707.73256 502.22693,710.63179 501.93717,710.63179 C 501.64741,710.63179 499.47171,707.70232 497.10227,704.12187 z M 509.95545,648.74553 C 497.38084,645.57013 489.17629,638.20409 486.3661,627.567 C 485.50751,624.31709 484.58671,602.74031 484.31988,579.61859 L 483.83473,537.5791 L 487.40665,537.58055 C 490.62463,537.58186 508.87162,541.33775 516.07749,543.48205 C 519.94709,544.63355 519.69524,548.54833 515.66936,549.82609 C 512.54126,550.81891 512.40427,552.29618 512.40427,585.03583 C 512.40427,617.03254 512.61224,619.41723 515.66936,622.47435 C 518.76243,625.56744 521.11117,625.73944 560.25232,625.73944 C 592.01683,625.73944 602.2555,625.23833 604.5341,623.57219 C 607.00884,621.76261 607.63678,618.26002 608.33892,602.3491 C 608.80144,591.86839 609.82834,583.29327 610.62093,583.29327 C 611.41351,583.29327 617.78631,586.1714 624.7827,589.68911 L 637.50341,596.08496 L 635.39016,613.62122 C 632.9141,634.16813 629.75857,640.17998 618.5197,645.76235 C 611.46152,649.26816 609.28341,649.42255 563.01317,649.69682 C 536.52512,649.85383 512.64915,649.42575 509.95545,648.74553 z M 412.00274,636.24322 C 407.51324,634.08085 402.92171,632.30218 401.79933,632.29064 C 398.27146,632.25431 399.54167,628.77234 406.39329,619.69744 C 418.58878,603.54463 428.29292,583.19102 434.92149,559.86195 L 437.63629,550.30727 L 446.85887,551.38808 C 462.11622,553.17611 462.30921,553.30376 461.10853,560.81242 C 459.53246,570.6686 454.21083,585.6233 446.3329,602.33451 C 437.79379,620.44825 425.08226,640.48014 422.23908,640.30359 C 421.09859,640.23277 416.49224,638.40561 412.00274,636.24322 z M 667.80728,614.00791 C 661.63785,602.54493 642.74274,575.3565 634.78021,566.48486 C 630.10943,561.28078 626.56033,556.77711 626.89329,556.47669 C 627.22626,556.17627 631.40871,553.54297 636.18763,550.62493 C 644.05736,545.81958 645.25935,545.52424 648.93674,547.49232 C 656.53321,551.55781 697.70802,599.58911 696.55696,603.04228 C 696.23417,604.01061 690.25447,608.02786 683.26871,611.96951 L 670.56733,619.13616 L 667.80728,614.00791 z M 569.3892,578.65532 C 559.77376,565.0916 548.73115,553.2665 537.8941,544.92846 C 532.05906,540.43896 527.24268,536.37155 527.19105,535.88979 C 527.13942,535.40804 530.75551,532.28266 535.22681,528.94453 L 543.35644,522.87519 L 555.03821,529.82046 C 565.67564,536.14482 598.92916,565.51712 598.92916,568.58862 C 598.92916,569.29741 593.49589,573.56376 586.85521,578.0694 L 574.78127,586.26148 L 569.3892,578.65532 z M 441.1368,512.68569 L 442.20482,379.22512 L 649.53806,379.22512 L 649.53806,524.52164 L 621.78479,524.52164 L 621.78479,513.09382 L 545.87144,513.09382 L 469.95809,513.09382 L 469.95809,526.15419 L 440.08834,526.15419 L 441.1368,512.68569 z M 533.62735,455.95474 L 469.95809,455.95474 L 469.95809,490.23819 L 533.62735,490.23819 L 533.62735,455.95474 z M 621.78479,455.95474 L 561.38062,455.95474 L 561.38062,490.23819 L 621.78479,490.23819 L 621.78479,455.95474 z M 533.62735,403.7133 L 469.95809,403.7133 L 469.95809,436.3642 L 533.62735,436.3642 L 533.62735,403.7133 z M 621.78479,403.7133 L 561.38062,403.7133 L 561.38062,436.3642 L 621.78479,436.3642 L 621.78479,403.7133 z "
       id="path1640"
       sodipodi:nodetypes="ccccccsssccccccccccccccccccccsssssscccccccccccccccssssssccsccccccccccccccccccccccccccccccccccccccsscccsssccscccsssssssscccssccsscccsssccsssssccccsscccscccccccccccccccccccccccccccccccccc" />
    <path
       style="fill:#000000;fill-opacity:1;stroke:none;stroke-width:5;stroke-miterlimit:4"
       d="M 660.11909,352.36218 L 439.88091,352.36218 C 439.88091,291.57645 489.21426,242.2431 550,242.2431 C 610.78574,242.2431 660.11909,291.57645 660.11909,352.36218 z "
       id="path2548"
       sodipodi:nodetypes="ccsc" />
    <path
       style="fill:none;fill-opacity:0.75;fill-rule:evenodd;stroke:#000000;stroke-width:10;stroke-linecap:butt;stroke-linejoin:miter;stroke-miterlimit:4;stroke-dasharray:none;stroke-opacity:1"
       d="M 271.97547,348.71036 L 830.44466,349.45853"
       id="path2551" />
  </g>
</svg>
