<?xml version="1.0" encoding="UTF-8" standalone="no"?>
<!-- Created with Inkscape (http://www.inkscape.org/) -->
<svg
   xmlns:dc="http://purl.org/dc/elements/1.1/"
   xmlns:cc="http://web.resource.org/cc/"
   xmlns:rdf="http://www.w3.org/1999/02/22-rdf-syntax-ns#"
   xmlns:svg="http://www.w3.org/2000/svg"
   xmlns="http://www.w3.org/2000/svg"
   xmlns:sodipodi="http://inkscape.sourceforge.net/DTD/sodipodi-0.dtd"
   xmlns:inkscape="http://www.inkscape.org/namespaces/inkscape"
   width="1500.0000px"
   height="653.00000px"
   id="svg13535"
   sodipodi:version="0.32"
   inkscape:version="0.43"
   sodipodi:docbase="/usr/codebase/pov/Pegasus/svg"
   sodipodi:docname="Orbital.svg">
  <defs
     id="defs13537" />
  <sodipodi:namedview
     id="base"
     pagecolor="#ffffff"
     bordercolor="#666666"
     borderopacity="1.0"
     inkscape:pageopacity="0.0"
     inkscape:pageshadow="2"
     inkscape:zoom="0.49497475"
     inkscape:cx="803.41554"
     inkscape:cy="520.00000"
     inkscape:document-units="px"
     inkscape:current-layer="svg13535"
     inkscape:window-width="946"
     inkscape:window-height="743"
     inkscape:window-x="0"
     inkscape:window-y="0" />
  <metadata
     id="metadata13540">
    <rdf:RDF>
      <cc:Work
         rdf:about="">
        <dc:format>image/svg+xml</dc:format>
        <dc:type
           rdf:resource="http://purl.org/dc/dcmitype/StillImage" />
      </cc:Work>
    </rdf:RDF>
  </metadata>
  <path
     style="fill:#c00000;fill-opacity:1"
     d="M 563.38142,652.14459 C 555.91397,649.78985 551.67646,645.53693 547.84041,636.54708 C 544.75154,629.30824 544.99016,615.70066 548.41853,603.57918 C 556.02829,576.67386 576.41458,542.33960 607.94261,503.32968 L 614.61027,495.07972 L 625.65529,495.07972 C 631.73006,495.07972 636.70032,495.29611 636.70032,495.56058 C 636.70032,495.82506 632.03387,502.46359 626.33043,510.31287 C 593.31002,555.75681 573.99871,593.47379 573.99871,612.52209 C 573.99871,618.24704 574.32743,619.51079 576.36646,621.62454 C 580.59785,626.01103 589.52134,624.44652 608.57335,615.97791 C 652.31473,596.53484 728.21823,545.69813 805.32553,484.20225 L 824.91384,468.57986 L 789.78684,468.07986 L 754.65982,467.57986 L 777.61911,375.08033 C 790.24673,324.20558 801.30266,279.76831 802.18786,276.33082 L 803.79732,270.08086 L 849.57562,270.08086 C 892.73074,270.08086 895.32384,270.18114 894.82933,271.83085 C 892.60343,279.25655 851.95766,444.56111 852.27645,444.89158 C 852.77328,445.40661 869.22585,430.97989 901.49407,401.73426 L 925.61007,379.87721 L 935.37693,345.22894 L 945.14379,310.58065 L 927.41864,310.30858 C 914.18100,310.10540 909.69839,309.72565 909.71281,308.80859 C 909.72342,308.13323 911.82876,299.25571 914.39132,289.08076 L 919.05055,270.58085 L 937.26271,270.08086 L 955.47495,269.58086 L 962.70439,246.33098 L 969.93382,223.08109 L 1004.4446,223.08109 C 1023.4254,223.08109 1038.9553,223.43064 1038.9553,223.85787 C 1038.9553,224.28510 1035.9167,234.06050 1032.2028,245.58098 C 1028.4889,257.10146 1025.4503,266.65186 1025.4503,266.80409 C 1025.4503,266.95632 1028.3929,267.08087 1031.9895,267.08087 L 1038.5287,267.08087 L 1044.3793,260.83090 C 1075.0099,228.11019 1116.8835,173.24433 1136.8616,139.65416 C 1152.2202,113.83106 1167.2312,80.794084 1165.6037,76.397234 C 1164.6631,73.856374 1158.2208,75.132584 1139.8995,81.489114 C 1101.3679,94.857634 1061.7384,114.60895 1016.1022,143.18962 C 996.82011,155.26545 968.16439,174.71154 950.49514,187.71116 C 943.49033,192.86469 937.52164,197.08122 937.23130,197.08122 C 936.94096,197.08122 936.69590,196.06873 936.68671,194.83123 C 936.64865,189.72524 933.61392,178.19009 930.57749,171.61004 C 924.24220,157.88125 913.77397,146.52028 901.29757,139.83310 C 897.96099,138.04474 895.22943,136.29516 895.22747,135.94514 C 895.21899,134.43255 934.67313,108.72658 961.51854,92.753794 C 1044.1254,43.603490 1116.4251,12.016829 1166.9214,3.0163450 C 1182.5398,0.23250904 1202.4497,-0.048329962 1211.3700,2.3893780 C 1224.6113,6.0080490 1232.8857,12.667196 1237.8755,23.721300 C 1251.4803,53.859354 1227.8376,109.07575 1168.7840,185.08128 C 1116.6931,252.12565 1030.5107,340.14417 938.63267,420.13619 C 794.90218,545.27261 659.54246,635.81643 593.29151,651.13924 C 584.88557,653.08341 568.14322,653.64616 563.38142,652.14459 z M 41.343830,467.96559 C 27.987364,466.18032 19.144487,460.88944 11.107134,449.87435 C 5.5773335,442.29583 2.5196651,435.48035 0.95817298,427.25255 C -1.4442153,414.59390 -0.45249756,409.21904 17.319147,338.58051 C 39.691585,249.65482 41.032396,244.57504 44.300693,236.35886 C 51.693928,217.77299 62.547423,207.51712 81.549862,201.16075 C 98.023864,195.65015 99.378129,195.58115 191.03653,195.58215 C 283.11370,195.58314 282.33205,195.53928 294.56968,201.39235 C 305.71457,206.72278 315.38126,218.06578 320.29697,231.58105 C 323.01261,239.04741 323.98871,255.14648 322.28236,264.32684 C 320.26933,275.15724 284.71932,416.63299 282.08866,424.28268 C 278.31102,435.26775 274.34332,441.88537 267.17993,449.14863 C 256.60464,459.87133 242.98615,466.01871 225.28126,468.06166 C 214.63987,469.28956 50.608158,469.20388 41.343830,467.96559 z M 182.04452,428.47553 C 183.54153,427.31805 185.48808,425.06806 186.37018,423.47555 C 188.52986,419.57657 229.62214,255.77887 229.62214,251.06919 C 229.62214,246.54511 226.22235,242.58528 221.06247,241.09950 C 216.14443,239.68336 150.20237,239.76762 145.23787,241.19638 C 139.96434,242.71409 134.85402,248.36827 132.28325,255.52967 C 129.08549,264.43774 91.678583,415.21241 91.678583,419.19351 C 91.678583,423.02152 93.614216,426.47804 96.724039,428.20336 C 100.76959,430.44784 109.07438,430.89364 143.94123,430.73799 C 178.28075,430.58470 179.40281,430.51808 182.04452,428.47553 z M 307.30828,465.82987 C 307.61172,464.59238 318.82377,419.48010 332.22396,365.58038 L 356.58794,267.58087 L 401.14476,267.32088 C 425.65100,267.17789 445.70155,267.32544 445.70155,267.64876 C 445.70155,267.97209 443.94141,274.55188 441.79011,282.27052 C 439.63882,289.98917 438.03231,296.46369 438.22009,296.65835 C 438.40787,296.85301 440.49358,294.26118 442.85501,290.89873 C 450.68000,279.75668 461.06798,272.55154 474.40524,269.01542 C 480.35185,267.43880 485.06433,267.08087 499.87571,267.08087 C 509.87133,267.08087 518.04957,267.39789 518.04957,267.78535 C 518.04957,268.17282 515.16148,280.28678 511.63158,294.70529 L 505.21358,320.92076 L 478.11033,321.25316 C 452.87595,321.56264 450.70054,321.73234 446.56156,323.71423 C 441.53272,326.12222 437.99454,330.49001 435.73404,337.08052 C 434.37419,341.04518 403.25739,465.99769 403.25739,467.49363 C 403.25739,467.81606 381.54471,468.07986 355.00700,468.07986 L 306.75660,468.07986 L 307.30828,465.82987 z M 501.08116,451.82994 C 503.33691,442.89249 518.82128,381.24720 535.49090,314.84042 L 565.79926,194.10082 L 604.14371,194.09103 C 637.34372,194.08255 642.48816,194.27963 642.48816,195.55996 C 642.48816,196.37326 638.14727,214.44982 632.84176,235.73009 C 627.53624,257.01035 623.19536,274.58736 623.19536,274.79011 C 623.19536,274.99286 624.17206,274.20303 625.36579,273.03494 C 631.02892,267.49350 630.29105,267.58087 671.42737,267.58087 C 705.66364,267.58087 710.19430,267.77054 716.06982,269.44972 C 731.85120,273.95994 747.03201,289.54773 751.11154,305.43087 C 754.56281,318.86790 752.47936,332.62084 738.96905,385.58434 C 730.23918,419.80738 727.45001,429.30678 723.89912,436.90950 C 716.33669,453.10127 704.80973,462.62684 688.11814,466.47797 C 682.01670,467.88572 670.01331,468.07986 589.07752,468.07986 L 496.97981,468.07986 L 501.08116,451.82994 z M 649.27741,431.83004 C 656.39912,428.10715 658.18439,423.05866 671.38941,369.30083 C 677.77691,343.29722 683.00305,320.41483 683.00305,318.45108 C 683.00305,313.32138 678.32262,308.70705 671.60445,307.21346 C 665.50490,305.85740 625.37073,305.72133 619.89377,307.03814 C 614.65063,308.29874 611.50527,310.92231 608.99054,316.13259 C 606.34208,321.61995 582.47205,416.99483 582.31311,422.72468 C 582.23388,425.58102 582.79780,427.56611 584.12743,429.11127 C 588.06454,433.68662 590.23953,433.99938 618.40892,434.04089 C 644.07743,434.07871 645.11843,434.00415 649.27741,431.83004 z M 966.12495,467.42398 C 957.60448,466.37521 950.97654,464.61796 945.14398,461.86130 C 941.56283,460.16869 938.65423,458.51295 938.68048,458.18187 C 938.70683,457.85079 942.50258,454.65493 947.11564,451.07995 C 957.71089,442.86883 989.29264,416.75381 1005.5464,402.76347 C 1012.3728,396.88769 1018.3111,392.08024 1018.7427,392.08024 C 1019.1743,392.08024 1018.4290,396.23550 1017.0866,401.31415 C 1014.0753,412.70639 1014.4294,417.41725 1018.5869,421.26838 C 1022.7839,425.15626 1027.1400,426.15943 1042.5726,426.79221 C 1050.1330,427.10220 1056.3187,427.59039 1056.3187,427.87708 C 1056.3187,428.16377 1053.9071,436.53918 1050.9594,446.48911 C 1048.0118,456.43903 1045.3781,465.36737 1045.1067,466.32987 C 1044.6466,467.96138 1042.0542,468.06972 1006.8159,467.93003 C 986.02761,467.84762 967.71654,467.61990 966.12495,467.42398 z M 1128.1845,466.58342 C 1108.3216,461.97371 1095.5972,451.58555 1089.8817,435.31310 C 1088.3624,430.98770 1087.8559,427.12476 1087.8188,419.58010 C 1087.7756,410.80593 1088.3327,407.31248 1092.3632,391.08025 C 1098.1645,367.71642 1102.2378,358.51024 1110.1066,350.97768 C 1113.2075,348.00921 1118.0445,344.29036 1120.8554,342.71355 C 1131.5560,336.71093 1130.7861,336.77889 1193.0501,336.34147 L 1250.1986,335.93999 L 1253.0771,332.95597 C 1256.0036,329.92219 1258.8933,321.97250 1258.8933,316.95488 C 1258.8933,313.08979 1255.2604,309.14550 1250.6938,308.05217 C 1248.5378,307.53600 1217.4699,307.11786 1180.2841,307.10453 L 1113.7330,307.08067 L 1133.0076,287.08077 L 1152.2824,267.08087 L 1219.8547,267.08087 C 1277.3690,267.08087 1288.2829,267.30868 1293.1764,268.61131 C 1310.7180,273.28075 1323.4405,286.13275 1327.8349,303.62224 C 1329.7041,311.06153 1329.7231,323.40915 1327.8820,334.19954 C 1327.0954,338.80906 1319.3668,370.70535 1310.7072,405.08018 L 1294.9624,467.57986 L 1214.4674,467.75325 C 1150.1255,467.89184 1132.8109,467.65709 1128.1845,466.58342 z M 1226.9697,431.77360 C 1228.7770,431.11715 1231.1039,429.39376 1232.1405,427.94385 C 1233.7444,425.70050 1246.3275,379.09828 1246.3465,375.33033 C 1246.3516,374.35209 1238.3629,374.08033 1209.6012,374.08033 C 1167.8568,374.08033 1167.8582,374.08009 1164.4354,381.42327 C 1161.3004,388.14891 1153.5378,420.10767 1154.1787,423.64964 C 1155.7606,432.39050 1158.3576,432.99502 1194.2623,432.97970 C 1214.5501,432.97105 1224.7039,432.59662 1226.9697,431.77360 z M 1336.0505,467.33920 C 1336.0428,466.92157 1351.3246,405.26768 1370.0100,330.33055 L 1403.9833,194.08124 L 1452.0183,194.08124 C 1478.4376,194.08124 1500.0292,194.41874 1500.0000,194.83123 C 1499.9706,195.24373 1484.6476,256.78092 1465.9488,331.58055 L 1431.9509,467.57986 L 1384.0076,467.83920 C 1357.6389,467.98183 1336.0581,467.75683 1336.0505,467.33920 z M 858.68470,245.99819 C 847.48264,243.97350 836.21798,236.09587 830.02978,225.95915 C 821.12582,211.37381 821.90554,190.45013 831.87562,176.42682 C 853.67865,145.75998 901.17282,156.12172 908.84763,193.21971 C 913.26849,214.58893 901.09010,237.00004 881.20261,244.09312 C 874.73698,246.39915 865.31389,247.19637 858.68470,245.99819 z "
     id="path13586" />
</svg>
