<?xml version="1.0" encoding="UTF-8" standalone="no"?>
<!-- Created with Inkscape (http://www.inkscape.org/) -->
<svg
   xmlns:dc="http://purl.org/dc/elements/1.1/"
   xmlns:cc="http://web.resource.org/cc/"
   xmlns:rdf="http://www.w3.org/1999/02/22-rdf-syntax-ns#"
   xmlns:svg="http://www.w3.org/2000/svg"
   xmlns="http://www.w3.org/2000/svg"
   xmlns:sodipodi="http://inkscape.sourceforge.net/DTD/sodipodi-0.dtd"
   xmlns:inkscape="http://www.inkscape.org/namespaces/inkscape"
   id="svg1376"
   sodipodi:version="0.32"
   inkscape:version="0.43"
   width="1000.0000"
   height="300.00000"
   sodipodi:docbase="/usr/codebase/pov/Pegasus/svg"
   sodipodi:docname="PegasusLeft.svg"
   version="1.0"
   x="0.0000000"
   y="0.0000000">
  <metadata
     id="metadata1381">
    <rdf:RDF>
      <cc:Work
         rdf:about="">
        <dc:format>image/svg+xml</dc:format>
        <dc:type
           rdf:resource="http://purl.org/dc/dcmitype/StillImage" />
      </cc:Work>
    </rdf:RDF>
  </metadata>
  <defs
     id="defs1379" />
  <sodipodi:namedview
     inkscape:window-height="743"
     inkscape:window-width="1012"
     inkscape:pageshadow="2"
     inkscape:pageopacity="0.0"
     borderopacity="1.0"
     bordercolor="#666666"
     pagecolor="#ffffff"
     id="base"
     inkscape:zoom="1.3018026"
     inkscape:cx="683.42919"
     inkscape:cy="262.26747"
     inkscape:window-x="0"
     inkscape:window-y="0"
     inkscape:current-layer="layer3"
     showgrid="false"
     inkscape:grid-points="false"
     gridspacingy="20.700000px"
     gridempspacing="1"
     gridoriginx="0.0000000px"
     gridoriginy="16.400000px"
     gridspacingx="1000.0000px"
     inkscape:grid-bbox="false"
     gridempcolor="#ff0000"
     gridempopacity="1.0000000"
     showguides="true"
     inkscape:guide-bbox="true"
     gridtolerance="2.0000000px"
     guidetolerance="5.0000000px"
     inkscape:guide-points="false" />
  <g
     inkscape:groupmode="layer"
     id="layer1"
     inkscape:label="Pegasus"
     style="display:inline">
    <path
       id="path1387"
       style="fill:#c00000;fill-opacity:1"
       d="M 244.02616,298.82197 C 243.28987,297.38857 243.48893,293.68110 244.62829,287.60795 C 245.26439,284.21737 246.75839,278.31495 246.98051,278.31495 C 247.01959,278.31495 248.02248,278.79886 249.20916,279.39029 C 250.39583,279.98173 252.34162,280.64331 253.53310,280.86046 C 256.46069,281.39405 306.32572,281.39679 309.59048,280.86356 C 314.34931,280.08630 315.65460,278.21590 316.94785,270.32089 C 317.38661,267.64242 317.88414,265.45093 318.05349,265.45093 C 318.22284,265.45093 318.36138,265.10245 318.36138,264.67653 C 318.36138,264.07863 318.21576,263.96518 317.72247,264.17878 C 317.37108,264.33096 315.76923,264.88537 314.16282,265.41084 L 311.24207,266.36623 L 290.61430,266.36802 L 269.98653,266.36979 L 267.24832,265.05132 C 260.06531,261.59262 255.41841,254.29315 254.63377,245.23605 C 253.79805,235.58937 262.46061,202.14777 268.42480,191.99621 C 270.09727,189.14951 274.55779,184.51959 277.57013,182.50354 C 278.96502,181.57001 281.36161,180.29337 282.89591,179.66659 L 285.68553,178.52696 L 307.77368,178.52696 L 329.86183,178.52696 L 332.68411,179.88370 C 334.37086,180.69455 336.13364,181.89014 337.06533,182.85521 L 338.62426,184.47001 L 339.26008,183.13023 C 339.60977,182.39336 340.48506,181.09752 341.20517,180.25060 L 342.51445,178.71074 L 364.23948,178.71074 C 376.18823,178.71074 385.90118,178.83477 385.82373,178.98639 C 382.23125,186.02105 381.91983,187.16161 369.08921,240.27422 C 363.86401,261.90414 359.32849,280.42832 359.01029,281.43906 C 357.91024,284.93331 355.84921,288.35720 353.09524,291.26543 C 350.05807,294.47272 347.00116,296.56559 342.89058,298.25187 C 340.20894,299.35196 339.77667,299.41490 333.14767,299.67051 C 329.33245,299.81763 307.85548,299.95193 285.42109,299.96899 L 244.63128,300.00000 L 244.02616,298.82197 z M 321.49163,247.49772 C 322.93127,246.04842 323.82112,244.04530 325.19036,239.17160 C 327.23601,231.89024 332.54487,210.11653 333.56030,204.84321 C 334.43554,200.29791 334.46579,199.82781 333.95270,198.74464 C 332.90803,196.53922 331.94326,196.35265 321.59205,196.35419 C 310.75157,196.35580 310.54343,196.41306 309.05360,199.80445 C 307.46723,203.41559 301.65042,225.02198 298.64554,238.46497 C 297.39261,244.07022 297.44511,245.42932 298.99229,247.44132 L 299.69887,248.36018 L 309.48650,248.54395 C 314.86969,248.64502 319.55725,248.66824 319.90328,248.59553 C 320.24932,248.52284 320.96407,248.02882 321.49163,247.49772 z M 0.0000000,266.40673 C 1.2310180e-18,266.32596 0.59267317,265.37495 1.3170515,264.29336 C 2.0414298,263.21176 3.1705856,261.25175 3.8262866,259.93779 C 7.0785675,253.42050 8.3469858,249.14455 18.926669,209.03305 C 24.738345,186.99884 29.671768,168.06117 29.889832,166.94935 C 30.556741,163.54905 31.032933,157.55894 31.032933,152.57008 L 31.032933,147.82482 L 82.967460,147.92285 L 134.90199,148.02087 L 137.64019,149.07236 C 141.54806,150.57299 144.08903,152.22497 146.70051,154.96280 C 149.95185,158.37145 150.90042,160.62288 151.08460,165.36842 C 151.43692,174.44674 147.84135,193.27340 143.65592,204.26545 C 140.28255,213.12482 133.50501,220.50705 126.24034,223.23486 L 123.94919,224.09516 L 93.103166,224.28252 L 62.257146,224.46986 L 60.698819,228.81398 C 56.025744,241.84097 53.661236,254.24318 54.221921,262.78625 L 54.469172,266.55357 L 27.234586,266.55357 C 12.255564,266.55357 -1.2310180e-18,266.48748 0.0000000,266.40673 z M 94.193390,202.78518 C 96.064815,201.81093 98.193171,196.40283 101.47444,184.28422 C 104.48635,173.16041 104.64295,170.91831 102.55181,168.86009 C 100.73731,167.07420 99.433454,166.91173 87.845644,167.02763 L 77.298631,167.13312 L 72.632172,184.35749 C 70.065620,193.83089 67.867310,201.97657 67.747034,202.45900 L 67.528357,203.33613 L 80.331709,203.33613 C 90.994690,203.33613 93.311985,203.24403 94.193390,202.78518 z M 152.15416,266.15517 C 147.56181,265.06528 142.34234,260.61103 140.06123,255.83519 C 138.08054,251.68830 137.56493,249.33522 137.37635,243.58212 C 137.22743,239.03858 137.32124,237.87745 138.17819,233.65845 C 141.02871,219.62452 147.48946,197.16848 150.49743,190.83965 C 152.35240,186.93676 156.31045,182.74144 159.81585,180.96262 C 164.36752,178.65286 163.01138,178.72213 203.79538,178.71617 C 229.33809,178.71243 241.52945,178.83656 242.86037,179.11393 C 253.71514,181.37601 260.64844,193.22087 259.22840,207.07704 C 258.85661,210.70471 256.67169,219.46546 254.35765,226.60701 L 252.78736,231.45319 L 218.41436,231.54694 L 184.04136,231.64071 L 183.14900,232.83335 C 181.73156,234.72778 181.00901,237.38777 180.81079,241.44126 C 180.64706,244.78962 180.70830,245.31204 181.39578,246.43188 C 181.81810,247.11980 182.58613,247.87644 183.10252,248.11329 C 183.79478,248.43083 191.59754,248.54395 212.80819,248.54395 C 240.38646,248.54395 241.69302,248.51356 244.43194,247.80836 C 246.00326,247.40378 247.34314,247.12739 247.40944,247.19413 C 247.87160,247.65939 244.21060,258.51292 241.66452,264.22572 L 240.62704,266.55357 L 197.07440,266.51665 C 173.12044,266.49633 152.90633,266.33367 152.15416,266.15517 z M 212.92404,212.91204 C 214.10458,211.97720 215.52441,208.74168 216.69193,204.32572 C 217.74863,200.32891 217.66091,198.76536 216.29683,197.28362 L 215.43994,196.35281 L 204.89590,196.35281 L 194.35186,196.35281 L 193.24570,197.73851 C 190.94357,200.62242 188.89431,206.32340 188.50860,210.91694 L 188.28101,213.62734 L 200.15089,213.62734 C 211.35846,213.62734 212.07116,213.58744 212.92404,212.91204 z M 391.56260,266.02314 C 384.65233,264.71041 380.07220,261.87598 377.33922,257.22099 C 375.14928,253.49095 374.77736,251.69976 374.77422,244.86853 C 374.77104,237.94965 375.51602,233.32111 377.76152,226.30758 C 379.29112,221.53007 380.43905,219.15190 382.93180,215.59643 C 385.08066,212.53142 387.15994,210.70937 390.00552,209.39790 C 394.56049,207.29856 394.80861,207.28104 423.32573,207.04519 C 443.33232,206.87973 449.80262,206.71820 450.40853,206.36911 C 452.44305,205.19683 453.84140,201.42937 453.09124,199.14113 C 452.85563,198.42247 452.23630,197.49667 451.71487,197.08378 C 450.77486,196.33939 450.50622,196.33394 419.70436,196.43483 C 391.50776,196.52719 388.51685,196.59365 387.28678,197.15513 L 385.93169,197.77368 L 386.14246,196.60381 C 386.79799,192.96539 391.02289,184.30198 393.97561,180.54142 L 395.41306,178.71074 L 434.37831,178.71350 C 459.64320,178.71531 474.17789,178.85103 475.71661,179.09950 C 485.20916,180.63238 492.95351,186.37441 495.40366,193.69637 C 496.32924,196.46237 496.39153,200.53189 495.62023,207.84842 C 494.86576,215.00511 494.21936,218.14104 491.91683,225.81467 C 490.80432,229.52230 488.75322,237.07537 487.35886,242.59927 C 485.03814,251.79291 484.79305,253.12699 484.46224,258.36593 C 484.26349,261.51369 484.20419,264.64362 484.33048,265.32135 L 484.56013,266.55357 L 464.10453,266.55357 L 443.64889,266.55357 L 443.25357,264.69775 C 443.03612,263.67707 442.85822,262.42191 442.85822,261.90851 L 442.85822,260.97507 L 441.67166,261.98447 C 440.18548,263.24876 437.48126,264.46701 433.82449,265.51967 C 431.08910,266.30708 430.36498,266.33780 412.55547,266.42174 C 398.50602,266.48795 393.51004,266.39311 391.56260,266.02314 z M 437.34534,249.25257 C 439.45393,248.79732 441.86947,247.17314 442.62470,245.70274 C 444.10694,242.81694 446.61594,233.00851 447.09242,228.23718 L 447.34017,225.75627 L 436.42823,225.75832 C 430.36786,225.75946 424.93892,225.92184 424.21772,226.12354 C 423.50349,226.32327 422.48593,226.94259 421.95651,227.49977 C 419.80298,229.76620 417.41559,237.24858 417.05262,242.86935 C 416.83758,246.19908 416.83772,246.19974 417.97093,247.49905 C 418.59426,248.21378 419.64339,248.97248 420.30228,249.18504 C 421.89747,249.69968 435.03339,249.75172 437.34534,249.25257 z M 492.17488,266.03750 C 491.25692,264.92402 490.89183,261.13830 491.32556,257.23095 C 491.78539,253.08821 493.36446,247.51162 494.16529,247.20225 C 494.44838,247.09290 495.11822,247.35044 495.65381,247.77458 C 496.18944,248.19872 497.69020,248.87612 498.98887,249.27993 C 501.25201,249.98364 502.39074,250.01410 526.41176,250.01355 C 554.43610,250.01291 553.34195,250.11251 554.66747,247.44132 C 555.47304,245.81793 555.49499,243.09707 554.71160,241.97112 C 553.30932,239.95565 553.10658,239.93580 531.75844,239.72357 C 513.40563,239.54112 511.92990,239.47897 510.40048,238.82404 C 505.24799,236.61762 502.12144,232.80286 500.95563,227.30024 C 500.36498,224.51240 500.44658,218.37063 501.12791,214.33532 C 501.83956,210.12060 505.89315,196.39520 507.46046,192.89356 C 511.03070,184.91686 516.75636,179.85171 523.47129,178.72968 C 525.19184,178.44218 538.28156,178.35155 567.62061,178.42399 L 609.32427,178.52696 L 610.29575,179.50498 C 611.54667,180.76438 611.74925,182.75758 611.20093,188.41089 C 610.82908,192.24453 609.55666,197.47476 608.65447,198.87795 C 608.38518,199.29677 607.93911,199.25433 606.00624,198.62600 C 599.51648,196.51632 599.83079,196.53658 573.60120,196.53658 L 549.36211,196.53658 L 548.66442,197.47706 C 547.71598,198.75558 547.39239,202.16987 548.12660,203.15236 C 548.66186,203.86869 549.21476,203.89223 569.78970,204.07498 C 588.86948,204.24443 591.06069,204.32524 592.53450,204.91381 C 595.30563,206.02045 597.12000,207.26958 599.05993,209.40641 C 602.49487,213.19003 604.15419,218.10820 603.70494,223.17419 C 603.13707,229.57806 600.07442,242.54644 597.51044,249.40400 C 593.90737,259.04075 588.59428,264.39575 581.04605,265.99823 C 577.30585,266.79229 492.82788,266.82961 492.17488,266.03750 z M 621.97340,265.96772 C 614.66789,264.18819 608.63114,258.15457 607.18858,251.19055 C 606.21306,246.48129 606.77775,240.88502 609.71785,226.12382 C 612.47543,212.27902 614.62266,203.54217 616.59847,198.12749 C 617.74975,194.97234 618.48308,190.14731 618.72553,184.13200 L 618.94404,178.71074 L 640.38656,178.71074 L 661.82903,178.71074 L 662.04919,179.53771 C 662.65666,181.81974 662.25135,186.39849 660.98184,191.59405 C 660.26827,194.51459 658.30330,203.27181 656.61529,211.05453 C 652.38546,230.55640 651.45904,234.62013 650.37289,238.43651 C 649.23511,242.43422 649.27100,245.72828 650.47000,247.34548 L 651.22231,248.36018 L 660.95595,248.45808 C 671.73271,248.56647 672.01463,248.51733 673.74959,246.22741 C 674.25576,245.55932 674.91730,244.41660 675.21971,243.68801 C 675.52209,242.95942 678.08044,233.29275 680.90491,222.20650 C 683.72938,211.12027 686.43648,200.72657 686.92070,199.10938 C 687.94529,195.68744 688.43964,191.68367 688.76993,184.13200 L 689.00702,178.71074 L 713.24779,178.71074 C 726.58020,178.71074 737.48853,178.76911 737.48853,178.84048 C 737.48853,178.91184 736.60983,180.85522 735.53584,183.15911 C 731.07023,192.73851 730.20145,195.57329 723.08418,223.78843 C 719.35435,238.57480 716.14576,251.88905 715.95405,253.37566 C 715.76234,254.86226 715.60042,258.43546 715.59422,261.31608 L 715.58294,266.55357 L 694.59748,266.55357 L 673.61202,266.55357 L 672.87443,265.09804 C 672.46874,264.29749 672.13682,263.38891 672.13682,263.07898 C 672.13682,262.67692 671.66184,262.88043 670.47923,263.78922 C 669.56752,264.48980 667.74300,265.39837 666.42472,265.80828 C 664.13515,266.52020 663.13469,266.55220 644.07747,266.52294 C 628.12592,266.49846 623.69537,266.38716 621.97340,265.96772 z M 721.94685,265.64752 C 720.25460,263.04751 721.46937,250.76827 723.72616,247.66118 C 724.20984,246.99528 724.27924,247.00349 725.83739,247.91065 C 729.48448,250.03408 729.19482,250.01417 756.44838,250.01355 C 779.55058,250.01302 781.58086,249.96339 782.75971,249.37035 C 784.25072,248.62026 785.00886,247.21963 785.24114,244.78603 C 785.44413,242.65926 784.83632,241.58351 782.87873,240.60483 C 781.57421,239.95265 780.18430,239.89424 761.76724,239.71778 C 742.20726,239.53036 742.03559,239.52217 739.94029,238.67588 C 737.36429,237.63543 733.99842,234.60033 732.64561,232.09809 C 731.08147,229.20494 730.55121,226.47958 730.55654,221.36042 C 730.55980,218.23388 730.79130,215.62947 731.27629,213.26313 C 732.15569,208.97213 735.42039,197.76625 736.74882,194.47896 C 739.36354,188.00861 743.26968,183.10730 747.66434,180.78248 C 752.51184,178.21809 750.29674,178.32335 797.15818,178.43051 L 839.33307,178.52696 L 840.34533,179.54874 C 841.34298,180.55576 841.35650,180.63048 841.28249,184.72837 C 841.19520,189.56269 840.70915,193.00406 839.67093,196.13902 C 838.59179,199.39762 838.58919,199.39881 834.96846,198.33594 C 828.33310,196.38812 827.48850,196.33882 802.51451,196.44146 L 779.37044,196.53658 L 778.60348,197.57076 C 778.01999,198.35761 777.83595,199.14495 777.83398,200.86314 C 777.83160,202.90294 777.91963,203.16676 778.74408,203.59086 C 779.45101,203.95453 784.10507,204.06160 799.38643,204.06580 C 815.96805,204.07036 819.46324,204.16166 821.29202,204.63809 C 827.25666,206.19197 831.86586,211.30917 833.37978,218.05807 C 833.85941,220.19615 833.88686,221.18586 833.54693,224.08758 C 832.60736,232.10772 829.43050,244.74863 826.71475,251.27323 C 824.03738,257.70566 820.29331,262.16584 815.70821,264.38489 C 811.13082,266.60022 812.52387,266.54021 765.51788,266.54718 L 722.53654,266.55357 L 721.94685,265.64752 z " />
  </g>
  <g
     inkscape:groupmode="layer"
     id="layer2"
     inkscape:label="R">
    <path
       id="path1455"
       style="fill:#000000;fill-opacity:1.0000000"
       d="M 858.69416,203.70382 C 850.59321,201.42034 845.58320,193.67428 846.92589,185.50870 C 847.94591,179.30536 851.75015,174.80984 857.77235,172.69120 C 859.55504,172.06405 860.60698,171.95255 863.76917,172.05555 C 867.17356,172.16644 867.88119,172.31142 870.07250,173.34693 C 876.30643,176.29278 879.85617,182.33472 879.37542,189.18125 C 878.92513,195.59408 875.10928,200.88147 869.27714,203.17384 C 866.59876,204.22659 861.46147,204.48387 858.69416,203.70382 z M 865.66866,200.91454 C 869.65471,200.06599 872.91001,197.45351 874.66392,193.69550 C 875.50632,191.89058 875.63915,191.13123 875.63915,188.12118 C 875.63915,185.11429 875.50592,184.35097 874.66749,182.55470 C 870.40296,173.41814 858.33382,172.25784 852.72805,180.44548 C 848.25906,186.97277 850.43930,196.19106 857.28484,199.71218 C 860.30723,201.26680 862.52191,201.58441 865.66866,200.91454 z M 856.82980,188.08679 L 856.82980,178.51518 L 862.03433,178.64128 C 866.40877,178.74726 867.42725,178.88182 868.41994,179.48489 C 870.03652,180.46696 870.83422,182.27689 870.62308,184.48380 C 870.41099,186.70054 869.58587,187.97959 867.86015,188.76672 C 867.11669,189.10583 866.44905,189.42027 866.37652,189.46549 C 866.30398,189.51070 867.33119,191.21323 868.65920,193.24891 C 869.98722,195.28456 871.07378,197.11852 871.07378,197.32435 C 871.07378,197.54132 870.35712,197.65161 869.36841,197.58679 L 867.66300,197.47499 L 865.25957,193.53299 C 862.89361,189.65249 862.83473,189.59098 861.48649,189.58972 L 860.11687,189.58844 L 860.11687,193.62342 L 860.11687,197.65839 L 858.47334,197.65839 L 856.82980,197.65839 L 856.82980,188.08679 z M 866.52502,185.75355 C 867.40420,184.87055 867.67367,183.56535 867.14196,182.76556 C 866.57272,181.90933 865.17980,181.51849 862.69748,181.51849 L 860.11687,181.51849 L 860.11687,184.08621 L 860.11687,186.65392 L 862.87272,186.65392 C 865.31165,186.65392 865.73159,186.55039 866.52502,185.75355 z " />
  </g>
  <g
     inkscape:groupmode="layer"
     id="layer3"
     inkscape:label="Horse"
     style="display:inline">
    <path
       style="fill:#000000;fill-opacity:1.0000000;stroke:none;stroke-width:0.20000000;stroke-miterlimit:4.0000000;stroke-dasharray:none;stroke-opacity:1.0000000"
       d="M 837.49836,0.0000000 C 832.71788,-2.0039636e-08 828.19448,1.2890753 823.78475,3.0998852 L 651.25563,3.0998852 C 647.17211,4.1492521 643.42137,5.5403403 639.82241,7.0765056 L 439.83482,7.0765056 C 436.88851,8.7717237 434.49600,9.2028153 432.21268,11.397558 L 312.60123,11.397558 C 306.44683,11.397558 297.12874,14.820488 298.16529,18.724559 L 201.33042,18.724559 C 201.13965,7.3459829 205.19796,0.0000000 216.16861,0.0000000 L 837.49836,0.0000000 z M 999.99999,13.933827 C 995.21950,13.933827 989.01975,15.222903 982.25664,17.033713 L 809.72752,17.033713 C 804.28022,18.083079 798.73539,19.474168 793.13998,21.010333 L 608.36544,21.010333 C 603.21595,22.705551 598.06940,24.670929 592.93372,26.865672 L 474.47810,26.865672 L 474.22819,26.959608 C 468.13668,26.959608 461.23338,29.161697 453.92330,32.658386 L 301.45615,32.721010 L 302.75162,39.484396 L 204.82910,39.484396 C 202.91963,32.610351 201.60033,26.200926 201.26794,20.728525 L 357.52191,20.728525 C 365.21134,16.543663 372.39666,13.933827 378.67024,13.933827 L 999.99999,13.933827 z M 936.55501,34.662353 C 934.48530,35.630312 932.26808,36.774035 930.15116,37.793550 L 747.09473,37.793550 C 744.27640,39.041494 741.47530,40.429972 738.66039,41.738858 L 564.31944,41.738858 C 561.14262,43.632427 557.99358,45.593193 554.85424,47.594197 L 429.96352,47.594197 C 427.54206,49.436355 425.10084,51.424534 422.65376,53.418224 L 304.97909,53.230352 C 305.32693,54.669506 306.12340,59.515191 306.75967,62.968375 C 309.15508,60.466995 311.54149,57.807962 313.94448,55.422190 L 895.53912,55.422190 C 893.67373,56.428034 891.76382,57.526660 889.88499,58.553387 L 705.73522,58.553387 C 703.48346,59.812835 701.34749,61.214224 699.11270,62.498695 L 533.48724,62.498695 C 530.96282,64.386958 528.55938,66.390298 526.08377,68.322722 L 405.81632,68.322722 C 403.79893,70.229659 401.79604,72.188164 399.78732,74.146749 L 296.13865,74.146749 C 296.13865,74.146749 294.04803,76.459478 294.32683,76.150715 L 858.74041,76.150715 C 856.92866,77.203227 855.11506,78.220791 853.30494,79.281912 L 671.15442,79.281912 C 669.14216,80.580139 667.31844,81.919149 665.34410,83.227221 L 507.59069,83.227221 C 505.33458,85.168398 503.20572,87.128162 500.99941,89.082559 L 385.10532,89.082559 C 383.30243,91.004090 381.62995,92.958013 379.91977,94.906586 L 279.20749,95.188394 C 279.20747,95.188394 277.31371,97.827489 278.08291,96.910552 L 824.22209,96.910552 C 822.50774,97.960851 820.76832,98.992448 819.06777,100.04175 L 640.82204,100.04175 C 638.99871,101.35609 637.39967,102.64468 635.60524,103.95575 L 484.78673,103.95575 C 482.66659,105.97370 480.81338,107.86848 478.85146,109.81108 L 366.64349,109.81108 C 364.93438,111.79712 363.33447,113.70799 361.70784,115.63511 L 261.02680,115.63511 C 262.12801,114.25377 259.05263,118.15875 259.46489,117.63908 L 791.07825,117.63908 C 789.41893,118.70338 787.83562,119.71721 786.20508,120.77027 L 613.39481,120.77027 C 611.68545,122.13584 610.35046,123.37289 608.70906,124.71558 L 464.01327,124.71558 C 462.04753,126.74327 460.27493,128.60093 458.35913,130.57092 L 349.46243,130.57092 C 347.91125,132.51670 346.33679,134.44822 344.80792,136.36364 L 244.78289,136.36364 C 245.81141,135.01322 242.26992,139.70423 243.28345,138.36760 L 759.34014,138.36760 C 757.68584,139.48120 756.37470,140.41525 754.77935,141.49880 L 588.84151,141.49880 C 587.30575,142.87897 586.02294,144.11735 584.59310,145.44411 L 444.42685,145.44411 C 442.49790,147.56742 440.95965,149.29999 439.14758,151.29945 L 333.56213,151.29945 C 331.56615,154.03049 329.54494,156.73715 327.87676,159.12744 L 729.47633,159.12744 C 727.83427,160.32144 726.79904,161.15973 725.32163,162.25864 L 567.66194,162.25864 C 566.33621,163.72115 565.52833,164.85429 564.38192,166.20395 L 425.84007,166.20395 C 424.37027,167.88649 422.21912,170.34518 421.09184,171.62092 L 319.59861,171.62092 C 319.59861,171.62092 215.70003,171.71485 215.70003,171.71485 C 203.74804,147.13216 160.81552,105.07577 142.75861,95.282330 C 132.92489,108.20124 122.38659,109.16800 106.08484,98.037783 C 101.92050,95.194527 99.189418,95.446445 93.089708,95.501513 L 70.348228,95.720697 C 63.848848,95.779378 51.130258,80.556712 61.257878,75.273980 C 72.264918,69.532538 158.87565,40.820206 189.52234,40.267195 C 189.63260,40.265216 178.73318,55.754195 178.83884,55.860557 C 178.94321,55.965619 215.87596,67.503753 216.85585,67.727795 C 212.70212,58.632957 206.68443,46.017131 205.36016,41.488362 L 328.90763,41.488362 C 331.57193,39.130799 334.23210,36.769118 336.84215,34.662353 L 936.55501,34.662353 z "
       id="path1397"
       sodipodi:nodetypes="cccccccccccccccccccccccccccccccccccccccccccccccccccccccccccccccccccccccccccccccccccccccccccccccsccsssccccc" />
  </g>
</svg>
