<?xml version="1.0" encoding="UTF-8" standalone="no"?>
<!-- Created with Inkscape (http://www.inkscape.org/) -->
<svg
   xmlns:dc="http://purl.org/dc/elements/1.1/"
   xmlns:cc="http://web.resource.org/cc/"
   xmlns:rdf="http://www.w3.org/1999/02/22-rdf-syntax-ns#"
   xmlns:svg="http://www.w3.org/2000/svg"
   xmlns="http://www.w3.org/2000/svg"
   xmlns:sodipodi="http://inkscape.sourceforge.net/DTD/sodipodi-0.dtd"
   xmlns:inkscape="http://www.inkscape.org/namespaces/inkscape"
   width="1000"
   height="500"
   id="svg2"
   sodipodi:version="0.32"
   inkscape:version="0.43"
   version="1.0"
   sodipodi:docbase="/custom/usr/codebase/pov/Pegasus/svg"
   sodipodi:docname="PHFlag.svg">
  <defs
     id="defs4" />
  <sodipodi:namedview
     id="base"
     pagecolor="#ffffff"
     bordercolor="#666666"
     borderopacity="1.0"
     inkscape:pageopacity="0.0"
     inkscape:pageshadow="2"
     inkscape:zoom="1.3453395"
     inkscape:cx="108.75"
     inkscape:cy="271.51295"
     inkscape:document-units="px"
     inkscape:current-layer="layer1"
     showguides="true"
     inkscape:guide-bbox="true"
     inkscape:guide-points="true"
     guidetolerance="10px"
     inkscape:window-width="1266"
     inkscape:window-height="965"
     inkscape:window-x="0"
     inkscape:window-y="0">
    <sodipodi:guide
       orientation="horizontal"
       position="250"
       id="guide1307" />
    <sodipodi:guide
       orientation="horizontal"
       position="500"
       id="guide1309" />
    <sodipodi:guide
       orientation="horizontal"
       position="0"
       id="guide1311" />
    <sodipodi:guide
       orientation="vertical"
       position="0"
       id="guide1313" />
    <sodipodi:guide
       orientation="vertical"
       position="1000"
       id="guide1315" />
    <sodipodi:guide
       orientation="vertical"
       position="433.0127019"
       id="guide1317" />
    <sodipodi:guide
       orientation="vertical"
       position="144.3375673"
       id="guide1319" />
    <sodipodi:guide
       orientation="horizontal"
       position="355.55555556"
       id="guide2438" />
    <sodipodi:guide
       orientation="horizontal"
       position="144.444444444444"
       id="guide2440" />
    <sodipodi:guide
       orientation="vertical"
       position="249.893112"
       id="guide2442" />
    <sodipodi:guide
       orientation="vertical"
       position="38.7820118"
       id="guide2444" />
  </sodipodi:namedview>
  <metadata
     id="metadata7">
    <rdf:RDF>
      <cc:Work
         rdf:about="">
        <dc:format>image/svg+xml</dc:format>
        <dc:type
           rdf:resource="http://purl.org/dc/dcmitype/StillImage" />
      </cc:Work>
    </rdf:RDF>
  </metadata>
  <g
     inkscape:label="Layer 1"
     inkscape:groupmode="layer"
     id="layer1">
    <path
       style="fill:#ffffff;fill-opacity:1;fill-rule:evenodd;stroke:none;stroke-width:1px;stroke-linecap:butt;stroke-linejoin:miter;stroke-opacity:1"
       d="M 0,0 L 433.0127,250 L 0,500 L 0,0 z "
       id="path1321" />
    <path
       style="fill:#0061f3;fill-opacity:1;fill-rule:evenodd;stroke:none;stroke-width:1;stroke-linecap:round;stroke-linejoin:round;stroke-miterlimit:4;stroke-dasharray:none;stroke-dashoffset:0;stroke-opacity:1"
       d="M 0,0 L 433.0127,250 L 1000,250 L 1000,0 L 0,0 z "
       id="rect1323" />
    <path
       style="fill:#e61650;fill-opacity:1;fill-rule:evenodd;stroke:none;stroke-width:1;stroke-linecap:round;stroke-linejoin:round;stroke-miterlimit:4;stroke-dasharray:none;stroke-dashoffset:0;stroke-opacity:1"
       d="M 433.0127,250 L 0,500 L 1000,500 L 1000,250 L 433,250 L 433.0127,250 z "
       id="rect2205" />
    <path
       style="fill:#ffd126;fill-opacity:1;fill-rule:evenodd;stroke:none;stroke-width:1;stroke-linecap:round;stroke-linejoin:round;stroke-miterlimit:4;stroke-dasharray:none;stroke-dashoffset:0;stroke-opacity:1"
       d="M 144.34375 144.4375 L 137.84375 150.9375 L 141.0625 200.09375 C 139.96906 200.1645 138.88573 200.29747 137.8125 200.4375 L 132.0625 156.71875 L 126.84375 161.9375 L 134.59375 200.96875 C 128.03643 202.26482 121.92786 204.81624 116.5625 208.40625 L 94.5 175.375 L 87.0625 175.375 L 113.90625 210.34375 C 113.03449 211.01359 112.20005 211.71287 111.375 212.4375 L 78.875 175.375 L 69.6875 175.375 L 69.6875 184.53125 L 106.75 217.03125 C 106.02898 217.85215 105.32303 218.69534 104.65625 219.5625 L 69.6875 192.71875 L 69.6875 200.125 L 102.78125 222.21875 C 99.183868 227.58494 96.582165 233.65772 95.28125 240.21875 L 56.3125 232.46875 L 51.0625 237.71875 L 94.75 243.46875 C 94.61017 244.54097 94.508186 245.62636 94.4375 246.71875 L 45.28125 243.5 L 38.78125 250 L 45.28125 256.5 L 94.4375 253.28125 C 94.508186 254.37364 94.61017 255.45903 94.75 256.53125 L 51.0625 262.28125 L 56.28125 267.5 L 95.28125 259.75 C 96.580264 266.32221 99.178496 272.40705 102.78125 277.78125 L 69.6875 299.875 L 69.6875 307.28125 L 104.65625 280.4375 C 105.32303 281.30466 106.02898 282.14785 106.75 282.96875 L 69.6875 315.46875 L 69.6875 324.625 L 78.875 324.625 L 111.375 287.5625 C 112.20005 288.28713 113.03449 288.98641 113.90625 289.65625 L 87.0625 324.625 L 94.46875 324.625 L 116.5625 291.5625 C 121.93126 295.15741 128.0307 297.73405 134.59375 299.03125 L 126.8125 338.03125 L 132.0625 343.28125 L 137.8125 299.5625 C 138.88573 299.70253 139.96906 299.8355 141.0625 299.90625 L 137.84375 349.0625 L 144.34375 355.5625 L 150.8125 349.09375 L 147.59375 299.90625 C 148.69788 299.8355 149.76021 299.70388 150.84375 299.5625 L 156.59375 343.3125 L 161.84375 338.0625 L 154.09375 299.03125 C 160.65478 297.73033 166.75881 295.15988 172.125 291.5625 L 194.1875 324.625 L 201.59375 324.625 L 174.75 289.65625 C 175.61199 288.99405 176.46491 288.30953 177.28125 287.59375 L 209.78125 324.625 L 218.96875 324.625 L 218.96875 315.46875 L 181.90625 282.96875 C 182.62798 282.14713 183.33261 281.30546 184 280.4375 L 218.96875 307.28125 L 218.96875 299.875 L 185.90625 277.78125 C 189.50171 272.41639 192.07453 266.34004 193.375 259.78125 L 232.375 267.53125 L 237.625 262.28125 L 193.9375 256.53125 C 194.07733 255.45903 194.17931 254.37364 194.25 253.28125 L 243.40625 256.5 L 249.90625 250 L 243.40625 243.5 L 194.25 246.71875 C 194.17931 245.62636 194.07733 244.54097 193.9375 243.46875 L 237.625 237.71875 L 232.40625 232.5 L 193.375 240.25 C 192.07804 233.68819 189.5001 227.61803 185.90625 222.25 L 218.96875 200.15625 L 218.96875 192.71875 L 184 219.5625 C 183.33261 218.69454 182.62798 217.85287 181.90625 217.03125 L 218.96875 184.53125 L 218.96875 175.375 L 209.78125 175.375 L 177.28125 212.40625 C 176.46491 211.69047 175.61199 211.00595 174.75 210.34375 L 201.59375 175.375 L 194.21875 175.375 L 172.125 208.4375 C 166.76682 204.84549 160.67486 202.27155 154.125 200.96875 L 161.875 161.96875 L 156.59375 156.6875 L 150.84375 200.4375 C 149.76021 200.29612 148.69788 200.1645 147.59375 200.09375 L 150.8125 150.90625 L 144.34375 144.4375 z "
       id="path2215" />
    <path
       d="M 383.0127,250 L 364.224,256.53095 L 363.81873,276.41824 L 351.8014,260.56729 L 332.76223,266.32737 L 344.12381,250 L 332.76223,233.67263 L 351.8014,239.43271 L 363.81873,223.58176 L 364.224,243.46905 L 383.0127,250 z "
       inkscape:randomized="0"
       inkscape:rounded="0"
       inkscape:flatsided="false"
       sodipodi:arg2="0.62831853"
       sodipodi:arg1="0"
       sodipodi:r2="11.111111"
       sodipodi:r1="27.777779"
       sodipodi:cy="250"
       sodipodi:cx="355.23492"
       sodipodi:sides="5"
       id="path2865"
       style="fill:#ffd126;fill-opacity:1;stroke:none;stroke-width:60;stroke-linecap:round;stroke-linejoin:round;stroke-miterlimit:4;stroke-dasharray:none;stroke-opacity:1"
       sodipodi:type="star"
       inkscape:tile-w="58.204660"
       inkscape:tile-h="55.355921"
       inkscape:tile-cx="63.333332"
       inkscape:tile-cy="50.924113" />
    <path
       inkscape:tile-cy="50.924113"
       inkscape:tile-cx="63.333332"
       inkscape:tile-h="55.355921"
       inkscape:tile-w="58.204660"
       sodipodi:type="star"
       style="fill:#ffd126;fill-opacity:1;stroke:none;stroke-width:60;stroke-linecap:round;stroke-linejoin:round;stroke-miterlimit:4;stroke-dasharray:none;stroke-opacity:1"
       id="path2430"
       sodipodi:sides="5"
       sodipodi:cx="355.23492"
       sodipodi:cy="250"
       sodipodi:r1="27.777779"
       sodipodi:r2="11.111111"
       sodipodi:arg1="0"
       sodipodi:arg2="0.62831853"
       inkscape:flatsided="false"
       inkscape:rounded="0"
       inkscape:randomized="0"
       d="M 383.0127,250 L 364.224,256.53095 L 363.81873,276.41824 L 351.8014,260.56729 L 332.76223,266.32737 L 344.12381,250 L 332.76223,233.67263 L 351.8014,239.43271 L 363.81873,223.58176 L 364.224,243.46905 L 383.0127,250 z "
       transform="matrix(-0.5,-0.866025,0.866025,-0.5,0,500)" />
    <path
       transform="matrix(-0.5,0.866025,-0.866025,-0.5,433.0127,250)"
       d="M 383.0127,250 L 364.224,256.53095 L 363.81873,276.41824 L 351.8014,260.56729 L 332.76223,266.32737 L 344.12381,250 L 332.76223,233.67263 L 351.8014,239.43271 L 363.81873,223.58176 L 364.224,243.46905 L 383.0127,250 z "
       inkscape:randomized="0"
       inkscape:rounded="0"
       inkscape:flatsided="false"
       sodipodi:arg2="0.62831853"
       sodipodi:arg1="0"
       sodipodi:r2="11.111111"
       sodipodi:r1="27.777779"
       sodipodi:cy="250"
       sodipodi:cx="355.23492"
       sodipodi:sides="5"
       id="path2432"
       style="fill:#ffd126;fill-opacity:1;stroke:none;stroke-width:60;stroke-linecap:round;stroke-linejoin:round;stroke-miterlimit:4;stroke-dasharray:none;stroke-opacity:1"
       sodipodi:type="star"
       inkscape:tile-w="58.204660"
       inkscape:tile-h="55.355921"
       inkscape:tile-cx="63.333332"
       inkscape:tile-cy="50.924113" />
  </g>
</svg>
