<?xml version="1.0" encoding="UTF-8" standalone="no"?>
<!-- Created with Inkscape (http://www.inkscape.org/) -->
<svg
   xmlns:dc="http://purl.org/dc/elements/1.1/"
   xmlns:cc="http://web.resource.org/cc/"
   xmlns:rdf="http://www.w3.org/1999/02/22-rdf-syntax-ns#"
   xmlns:svg="http://www.w3.org/2000/svg"
   xmlns="http://www.w3.org/2000/svg"
   xmlns:xlink="http://www.w3.org/1999/xlink"
   xmlns:sodipodi="http://inkscape.sourceforge.net/DTD/sodipodi-0.dtd"
   xmlns:inkscape="http://www.inkscape.org/namespaces/inkscape"
   width="1000.0000px"
   height="1000.0000px"
   id="svg2"
   sodipodi:version="0.32"
   inkscape:version="0.42.2"
   sodipodi:docbase="C:\Documents and Settings\jeppesen\Desktop"
   sodipodi:docname="SDL.svg"
   inkscape:export-filename="C:\Documents and Settings\jeppesen\Desktop\SDL.png"
   inkscape:export-xdpi="90.000000"
   inkscape:export-ydpi="90.000000">
  <defs
     id="defs4" />
  <sodipodi:namedview
     id="base"
     pagecolor="#ffffff"
     bordercolor="#666666"
     borderopacity="1.0"
     inkscape:pageopacity="0.0"
     inkscape:pageshadow="2"
     inkscape:zoom="0.63083541"
     inkscape:cx="426.34003"
     inkscape:cy="574.47555"
     inkscape:document-units="px"
     inkscape:current-layer="layer5"
     showguides="true"
     inkscape:guide-bbox="true"
     guidetolerance="5.0000000px"
     inkscape:guide-points="true"
     inkscape:window-width="1600"
     inkscape:window-height="1144"
     inkscape:window-x="-4"
     inkscape:window-y="26">
    <sodipodi:guide
       orientation="vertical"
       position="0"
       id="guide1349" />
    <sodipodi:guide
       orientation="vertical"
       position="1000"
       id="guide1351" />
    <sodipodi:guide
       orientation="horizontal"
       position="1000"
       id="guide1353" />
    <sodipodi:guide
       orientation="horizontal"
       position="1000"
       id="guide1355" />
    <sodipodi:guide
       orientation="vertical"
       position="500"
       id="guide1357" />
    <sodipodi:guide
       orientation="horizontal"
       position="500"
       id="guide2114" />
  </sodipodi:namedview>
  <metadata
     id="metadata7">
    <rdf:RDF>
      <cc:Work
         rdf:about="">
        <dc:format>image/svg+xml</dc:format>
        <dc:type
           rdf:resource="http://purl.org/dc/dcmitype/StillImage" />
      </cc:Work>
    </rdf:RDF>
  </metadata>
  <g
     inkscape:groupmode="layer"
     id="layer6"
     inkscape:label="Circles">
    <path
       style="fill:#505083;fill-opacity:1.0000000;stroke:none;stroke-width:1.2500000;stroke-miterlimit:4.0000000;stroke-dasharray:none;stroke-opacity:1.0000000"
       d="M 500.00000 60.000000 C 257.12000 60.000000 60.000000 257.12000 60.000000 500.00000 C 60.000000 742.88000 257.12000 940.00000 500.00000 940.00000 C 742.88000 940.00000 940.00000 742.88000 940.00000 500.00000 C 940.00000 257.12000 742.88000 60.000000 500.00000 60.000000 z M 500.00000 80.000000 L 522.78125 118.90625 L 507.46875 124.68750 L 524.34375 153.65625 L 539.65625 147.87500 L 546.00000 158.78125 L 530.68750 164.53125 L 547.56250 193.50000 L 562.87500 187.75000 L 569.65625 199.40625 L 554.34375 205.15625 L 571.21875 234.15625 L 600.40625 217.62500 L 590.00000 204.96875 L 601.71875 198.28125 L 612.09375 210.90625 L 641.18750 194.25000 L 630.81250 181.62500 L 641.75000 175.34375 L 652.12500 188.00000 L 681.21875 171.37500 L 670.84375 158.68750 L 710.00000 136.28125 L 710.28125 181.34375 L 694.12500 178.71875 L 694.25000 212.21875 L 710.40625 214.87500 L 710.43750 227.50000 L 694.31250 224.81250 L 694.43750 258.34375 L 710.56250 261.03125 L 710.62500 274.50000 L 694.50000 271.84375 L 694.59375 305.37500 L 728.12500 305.65625 L 725.46875 289.50000 L 738.93750 289.56250 L 741.62500 305.68750 L 775.15625 305.81250 L 772.46875 289.68750 L 785.09375 289.71875 L 787.75000 305.87500 L 821.25000 306.00000 L 818.62500 289.84375 L 863.71875 290.00000 L 841.43750 329.18750 L 828.75000 318.81250 L 812.12500 347.90625 L 824.78125 358.28125 L 818.50000 369.21875 L 805.87500 358.84375 L 789.21875 387.93750 L 801.84375 398.31250 L 795.15625 410.03125 L 782.50000 399.65625 L 765.84375 428.75000 L 794.75000 445.78125 L 800.50000 430.43750 L 812.15625 437.21875 L 806.40625 452.53125 L 835.37500 469.40625 L 841.12500 454.09375 L 852.03125 460.43750 L 846.25000 475.75000 L 875.21875 492.62500 L 881.00000 477.31250 L 920.00000 500.00000 L 881.09375 522.78125 L 875.31250 507.46875 L 846.34375 524.34375 L 852.12500 539.65625 L 841.21875 546.00000 L 835.46875 530.68750 L 806.50000 547.56250 L 812.21875 562.87500 L 800.59375 569.65625 L 794.84375 554.37500 L 765.84375 571.21875 L 766.15625 572.03125 L 782.37500 600.40625 L 795.03125 590.00000 L 801.71875 601.71875 L 789.09375 612.09375 L 805.75000 641.18750 L 818.37500 630.81250 L 824.65625 641.75000 L 812.00000 652.12500 L 828.62500 681.21875 L 841.31250 670.84375 L 863.71875 710.00000 L 818.65625 710.28125 L 821.28125 694.12500 L 787.78125 694.25000 L 785.12500 710.40625 L 772.50000 710.43750 L 775.18750 694.31250 L 741.65625 694.43750 L 738.96875 710.56250 L 725.50000 710.62500 L 728.15625 694.50000 L 694.62500 694.59375 L 694.34375 728.15625 L 710.50000 725.46875 L 710.43750 738.93750 L 694.31250 741.62500 L 694.18750 775.15625 L 710.31250 772.46875 L 710.28125 785.09375 L 694.12500 787.75000 L 694.00000 821.25000 L 710.15625 818.62500 L 710.00000 863.71875 L 670.81250 841.43750 L 681.18750 828.75000 L 652.09375 812.12500 L 641.71875 824.78125 L 630.78125 818.50000 L 641.15625 805.87500 L 612.06250 789.21875 L 601.65625 801.84375 L 589.96875 795.15625 L 600.34375 782.53125 L 571.25000 765.84375 L 554.25000 794.71875 L 569.56250 800.50000 L 562.78125 812.15625 L 547.46875 806.40625 L 530.59375 835.37500 L 545.90625 841.12500 L 539.56250 852.03125 L 524.25000 846.25000 L 507.37500 875.21875 L 522.68750 881.00000 L 500.00000 920.00000 L 477.21875 881.09375 L 492.53125 875.31250 L 475.65625 846.34375 L 460.34375 852.12500 L 454.00000 841.21875 L 469.31250 835.46875 L 452.43750 806.50000 L 437.15625 812.25000 L 430.34375 800.59375 L 445.65625 794.81250 L 428.78125 765.84375 L 399.59375 782.37500 L 410.00000 795.03125 L 398.28125 801.71875 L 387.90625 789.09375 L 358.81250 805.75000 L 369.18750 818.37500 L 358.25000 824.65625 L 347.87500 812.00000 L 318.78125 828.62500 L 329.15625 841.31250 L 290.00000 863.71875 L 289.71875 818.65625 L 305.87500 821.28125 L 305.75000 787.78125 L 289.59375 785.12500 L 289.56250 772.50000 L 305.68750 775.18750 L 305.56250 741.65625 L 289.43750 738.93750 L 289.37500 725.50000 L 305.50000 728.15625 L 305.40625 694.62500 L 271.87500 694.34375 L 274.53125 710.50000 L 261.06250 710.43750 L 258.37500 694.31250 L 224.84375 694.18750 L 227.53125 710.31250 L 214.90625 710.28125 L 212.25000 694.12500 L 178.75000 694.00000 L 181.37500 710.15625 L 136.28125 710.00000 L 158.56250 670.81250 L 171.25000 681.18750 L 187.87500 652.09375 L 175.21875 641.71875 L 181.50000 630.78125 L 194.12500 641.15625 L 210.78125 612.06250 L 198.15625 601.68750 L 204.84375 589.96875 L 217.50000 600.34375 L 234.15625 571.25000 L 205.25000 554.21875 L 199.50000 569.56250 L 187.84375 562.78125 L 193.59375 547.46875 L 164.62500 530.59375 L 158.87500 545.90625 L 147.96875 539.56250 L 153.75000 524.25000 L 124.78125 507.37500 L 119.00000 522.68750 L 80.000000 500.00000 L 118.90625 477.21875 L 124.68750 492.53125 L 153.65625 475.65625 L 147.87500 460.34375 L 158.78125 454.00000 L 164.53125 469.31250 L 193.50000 452.43750 L 187.78125 437.12500 L 199.40625 430.34375 L 205.15625 445.62500 L 234.15625 428.78125 L 217.62500 399.62500 L 204.96875 410.00000 L 198.28125 398.28125 L 210.90625 387.90625 L 194.25000 358.81250 L 181.62500 369.18750 L 175.34375 358.25000 L 188.00000 347.87500 L 171.37500 318.78125 L 158.68750 329.15625 L 136.28125 290.00000 L 181.34375 289.71875 L 178.71875 305.87500 L 212.21875 305.75000 L 214.87500 289.59375 L 227.50000 289.56250 L 224.81250 305.68750 L 258.34375 305.56250 L 261.00000 289.43750 L 274.50000 289.37500 L 271.84375 305.53125 L 305.37500 305.40625 L 305.65625 271.84375 L 289.50000 274.53125 L 289.56250 261.06250 L 305.68750 258.37500 L 305.81250 224.84375 L 289.68750 227.53125 L 289.71875 214.90625 L 305.87500 212.25000 L 306.00000 178.75000 L 289.84375 181.37500 L 290.00000 136.28125 L 329.18750 158.56250 L 318.81250 171.25000 L 347.90625 187.87500 L 358.28125 175.21875 L 369.21875 181.50000 L 358.84375 194.12500 L 387.93750 210.78125 L 398.34375 198.18750 L 410.03125 204.84375 L 399.65625 217.46875 L 428.75000 234.15625 L 445.75000 205.25000 L 430.43750 199.50000 L 437.21875 187.84375 L 452.53125 193.59375 L 469.40625 164.62500 L 454.09375 158.87500 L 460.43750 147.96875 L 475.75000 153.75000 L 492.62500 124.78125 L 477.31250 119.00000 L 500.00000 80.000000 z "
       id="path4118" />
    <path
       sodipodi:type="arc"
       style="fill:none;fill-opacity:1.0000000;stroke:#505083;stroke-width:20.000000;stroke-miterlimit:4.0000000;stroke-dasharray:none;stroke-opacity:1.0000000;display:inline"
       id="path4123"
       sodipodi:cx="500.00000"
       sodipodi:cy="500.00000"
       sodipodi:rx="490.00000"
       sodipodi:ry="490.00000"
       d="M 990.00000 500.00000 A 490.00000 490.00000 0 1 1  10.000000,500.00000 A 490.00000 490.00000 0 1 1  990.00000 500.00000 z" />
  </g>
  <g
     inkscape:groupmode="layer"
     id="layer5"
     inkscape:label="SDL USU"
     style="display:inline">
    <path
       sodipodi:type="arc"
       style="fill:none;fill-opacity:1.0000000;stroke:#000000;stroke-width:12.500000;stroke-miterlimit:4.0000000;stroke-dasharray:none;stroke-opacity:1.0000000"
       id="path3979"
       sodipodi:cx="500.00000"
       sodipodi:cy="500.00000"
       sodipodi:rx="235.00000"
       sodipodi:ry="235.00000"
       d="M 528.63929,266.75165 A 235.00000,235.00000 0 0 1 734.10575,479.51839"
       sodipodi:start="4.8345620"
       sodipodi:end="6.1959188"
       sodipodi:open="true" />
    <path
       sodipodi:open="true"
       sodipodi:end="4.5902159"
       sodipodi:start="3.2288591"
       d="M 265.89425,479.51840 A 235.00000,235.00000 0 0 1 471.36070,266.75166"
       sodipodi:ry="235.00000"
       sodipodi:rx="235.00000"
       sodipodi:cy="500.00000"
       sodipodi:cx="500.00000"
       id="path3981"
       style="fill:none;fill-opacity:1.0000000;stroke:#000000;stroke-width:12.500000;stroke-miterlimit:4.0000000;stroke-dasharray:none;stroke-opacity:1.0000000"
       sodipodi:type="arc" />
    <path
       style="font-size:12.000000px;font-style:normal;font-weight:normal;line-height:125.00000%;fill:#000000;fill-opacity:1.0000000;stroke:none;stroke-width:1.0000000px;stroke-linecap:butt;stroke-linejoin:miter;stroke-opacity:1.0000000;display:inline;font-family:Bitstream Vera Sans"
       d="M 250.89604,534.27548 C 249.33200,533.44298 248.28821,532.71509 247.76468,532.09181 C 247.25003,531.50986 246.88599,530.72243 246.67256,529.72950 C 246.25459,527.78497 246.55793,526.07497 247.58258,524.59948 C 248.65750,523.15646 250.70506,522.11036 253.72528,521.46117 L 262.28943,519.62030 C 265.35099,518.96221 267.64756,519.07454 269.17914,519.95730 C 270.76094,520.87252 271.76084,522.30240 272.17884,524.24692 C 272.49896,525.73633 272.37272,527.06199 271.80010,528.22392 C 271.23631,529.42719 270.08136,530.49785 268.33522,531.43590 C 266.63041,532.36502 265.50928,533.19034 264.97185,533.91187 C 263.94717,535.38734 263.10192,537.79817 262.43610,541.14435 C 261.77025,544.49048 261.82862,547.98395 262.61123,551.62479 C 263.82956,557.29281 266.15396,561.66265 269.58442,564.73434 C 271.69594,566.70433 273.93084,567.43590 276.28911,566.92905 C 277.86124,566.59106 279.20991,565.71683 280.33514,564.30634 C 281.50166,562.88687 282.26880,560.81746 282.63656,558.09813 C 282.90139,556.30978 282.95360,552.42462 282.79319,546.44263 C 282.58167,539.21630 283.00373,533.62848 284.05936,529.67915 C 285.11492,525.72979 287.07529,522.36508 289.94050,519.58501 C 292.80562,516.80492 296.16203,515.00136 300.00974,514.17430 C 306.09147,512.86702 311.95478,514.26868 317.59969,518.37929 C 323.28583,522.48099 327.00491,528.60706 328.75693,536.75749 C 329.45939,540.02591 329.73623,543.12616 329.58745,546.05823 C 329.48875,549.02273 328.93930,551.80281 327.93909,554.39850 C 329.90826,555.70654 331.07075,557.18803 331.42656,558.84298 C 331.82666,560.70471 331.48929,562.35710 330.41446,563.80016 C 329.38972,565.27560 327.36729,566.33795 324.34717,566.98719 L 314.79007,569.04149 C 311.72842,569.69952 309.40672,569.57095 307.82496,568.65578 C 306.29333,567.77297 305.32746,566.40071 304.92733,564.53899 C 304.58934,562.96678 304.77165,561.49921 305.47428,560.13628 C 305.98191,559.07486 307.24184,558.08984 309.25409,557.18124 C 311.26621,556.27255 312.65181,555.36874 313.41089,554.46979 C 314.72509,552.93201 315.66216,550.84772 316.22213,548.21692 C 316.78195,545.58605 316.72396,542.69847 316.04816,539.55417 C 315.06095,534.96178 313.20267,531.55221 310.47331,529.32543 C 307.79408,527.13112 305.29607,526.28297 302.97926,526.78099 C 301.40704,527.11892 299.99186,527.98581 298.73372,529.38166 C 297.52573,530.80996 296.73481,532.66806 296.36096,534.95595 C 296.08405,536.48710 296.00245,540.63828 296.11616,547.40951 C 296.23866,554.22205 295.90805,559.53050 295.12433,563.33490 C 294.34940,567.18057 292.57675,570.61315 289.80636,573.63263 C 287.03589,576.65199 283.39586,578.64637 278.88627,579.61578 C 272.59759,580.96746 267.09503,579.83453 262.37858,576.21698 C 256.15103,571.40917 252.05902,564.45430 250.10255,555.35235 C 249.34664,551.83563 249.04293,548.30832 249.19142,544.77041 C 249.30742,541.28271 249.87563,537.78440 250.89604,534.27548 M 291.02111,623.48122 L 331.40867,592.48945 C 329.76766,590.28151 329.01788,588.29649 329.15933,586.53437 C 329.33425,584.74657 330.17712,583.27300 331.68793,582.11367 C 333.23220,580.92866 334.87369,580.49583 336.61240,580.81519 C 338.41032,581.14245 340.26251,582.54824 342.16897,585.03255 L 358.69650,606.67502 C 361.27262,610.03227 363.16333,613.78217 364.36864,617.92473 C 365.59953,622.10087 366.00531,625.89676 365.58597,629.31240 C 365.27580,631.89734 364.46721,634.94485 363.16019,638.45491 C 361.87875,641.99852 360.30505,645.12640 358.43907,647.83855 C 356.57292,650.55066 353.84377,653.28499 350.25160,656.04156 L 345.31646,659.82859 C 340.95199,663.17761 336.50762,665.41454 331.98334,666.53937 C 327.49252,667.63835 323.24539,667.80364 319.24194,667.03524 C 315.29773,666.27457 312.01056,665.22316 309.38041,663.88101 C 305.22627,661.73455 301.10114,657.99234 297.00500,652.65437 L 281.08404,631.90664 C 279.17764,629.42228 278.28226,627.28228 278.39791,625.48663 C 278.57288,623.69878 279.43253,622.21233 280.97686,621.02728 C 282.48761,619.86799 284.12910,619.43516 285.90133,619.72880 C 287.69930,620.05602 289.40589,621.30683 291.02111,623.48122 M 298.94295,633.80472 L 307.36714,644.78289 C 310.51008,648.87869 313.46770,651.51651 316.24003,652.69635 C 319.87104,654.23063 323.40650,654.77146 326.84644,654.31885 C 330.28626,653.86618 333.90304,652.18431 337.69678,649.27322 L 342.58156,645.52484 C 345.83801,643.02590 348.21506,640.21504 349.71272,637.09225 C 352.04569,632.20816 352.97692,627.99974 352.50641,624.46695 C 352.09507,620.94197 350.48541,617.34979 347.67742,613.69040 L 339.33051,602.81295 L 298.94295,633.80472 M 402.29861,663.14740 L 377.33500,707.51476 L 401.78684,721.27276 L 407.82542,710.54051 C 409.36094,707.81134 410.96670,706.16562 412.64271,705.60336 C 414.37621,705.02496 416.09125,705.21304 417.78783,706.16759 C 419.44738,707.10139 420.46151,708.44889 420.83021,710.21011 C 421.25638,711.95518 420.70171,714.19230 419.16621,716.92148 L 406.74666,738.99452 L 353.03006,708.77050 C 350.30088,707.23491 348.63673,705.61877 348.03759,703.92208 C 347.49607,702.20926 347.70258,700.50460 348.65714,698.80809 C 349.59093,697.14847 350.92000,696.12397 352.64434,695.73459 C 354.42629,695.32910 356.68185,695.89414 359.41103,697.42971 L 365.99422,701.13379 L 390.95783,656.76642 L 384.37464,653.06235 C 381.64544,651.52681 379.98128,649.91068 379.38217,648.21393 C 378.84062,646.50116 379.04714,644.79650 380.00173,643.09994 C 380.95624,641.40349 382.29568,640.36055 384.02005,639.97112 C 385.80197,639.56568 388.05753,640.13072 390.78674,641.66624 L 415.31810,655.54181 C 418.04718,657.07744 419.69290,658.68320 420.25524,660.35910 C 420.85431,662.05584 420.67661,663.75244 419.72214,665.44890 C 418.76751,667.14545 417.39925,668.19645 415.61737,668.60192 C 413.89296,668.99132 411.66622,668.41822 408.93712,666.88260 L 402.29861,663.14740 M 615.49160,653.85812 L 632.84191,686.40182 C 636.62448,693.49688 637.28178,700.89137 634.81379,708.58531 C 632.38305,716.25941 627.58285,722.00766 620.41320,725.83008 C 616.86566,727.72141 613.19505,728.88708 609.40135,729.32709 C 605.62504,729.70988 601.83891,729.35459 598.04294,728.26121 C 594.28430,727.14795 591.01735,725.65264 588.24210,723.77529 C 585.44693,721.86063 582.87474,718.70011 580.52553,714.29371 L 563.17522,681.75001 C 560.74800,683.04412 558.66691,683.45827 556.93192,682.99246 C 555.19700,682.52676 553.88158,681.45368 552.98566,679.77322 C 552.06990,678.05555 551.91209,676.36531 552.51222,674.70249 C 553.11242,673.03982 554.81284,671.46188 557.61347,669.96866 L 572.65117,661.87954 C 575.41450,660.40639 577.66364,659.90266 579.39859,660.36833 C 581.15098,660.77692 582.48507,661.84004 583.40086,663.55770 C 584.31666,665.27552 584.46575,666.99439 583.84815,668.71431 C 583.24798,670.37712 581.56624,671.94511 578.80292,673.41828 L 574.65794,675.62813 L 592.54578,709.18007 C 594.37736,712.61558 597.41890,714.90244 601.67043,716.04065 C 605.93935,717.12167 610.09030,716.58710 614.12328,714.43695 C 616.81188,713.00357 618.99403,711.02492 620.66973,708.50102 C 622.34536,705.97718 623.28301,703.10346 623.48268,699.87983 C 623.59994,697.85114 623.07129,695.73517 621.89672,693.53194 L 604.00888,659.98000 L 599.86390,662.18985 C 597.10057,663.66316 594.84272,664.19552 593.09034,663.78694 C 591.35538,663.32126 590.03000,662.22951 589.11421,660.51169 C 588.19842,658.79404 588.04060,657.10379 588.64077,655.44096 C 589.25837,653.72105 590.94883,652.12444 593.71216,650.65112 L 608.80959,642.67403 C 611.57288,641.20090 613.81206,640.67849 615.52714,641.10680 C 617.27949,641.51541 618.61358,642.57853 619.52941,644.29617 C 620.42526,645.97666 620.58307,647.66691 620.00285,649.36690 C 619.42256,651.06708 617.91881,652.56415 615.49160,653.85812 M 685.89212,669.21922 C 686.25509,670.95345 686.36503,672.22121 686.22195,673.02252 C 686.10490,673.79051 685.73359,674.57455 685.10801,675.37461 C 683.88288,676.94145 682.37564,677.80421 680.58629,677.96291 C 678.78965,678.06222 676.67455,677.16045 674.24098,675.25760 L 667.34029,669.86186 C 664.87338,667.93297 663.48814,666.09777 663.18455,664.35627 C 662.87371,662.55541 663.33085,660.87155 664.55595,659.30470 C 665.49435,658.10461 666.59304,657.35214 667.85202,657.04729 C 669.13708,656.70917 670.69912,656.90990 672.53812,657.64947 C 674.34380,658.36305 675.69580,658.69499 676.59411,658.64531 C 678.38347,658.48663 680.77599,657.59089 683.77168,655.95807 C 686.76735,654.32531 689.41211,652.04210 691.70596,649.10844 C 695.27704,644.54136 697.14273,639.95687 697.30304,635.35495 C 697.46260,632.47156 696.59230,630.28695 694.69213,628.80111 C 693.42532,627.81065 691.88998,627.33534 690.08609,627.37518 C 688.24884,627.38907 686.16850,628.12603 683.84505,629.58604 C 682.30234,630.52857 679.28600,632.97784 674.79603,636.93386 C 669.38345,641.72641 664.82290,644.98267 661.11437,646.70266 C 657.40587,648.42274 653.56649,649.07351 649.59621,648.65500 C 645.62599,648.23657 642.09072,646.81524 638.99037,644.39103 C 634.08992,640.55932 631.40925,635.15960 630.94833,628.19184 C 630.45417,621.19813 632.77460,614.41758 637.90963,607.85019 C 639.96891,605.21667 642.17178,603.01769 644.51825,601.25325 C 646.85751,599.42957 649.34401,598.07012 651.97776,597.17491 C 651.72031,594.82495 652.11289,592.98319 653.15553,591.64963 C 654.32853,590.14957 655.81334,589.34985 657.60995,589.25045 C 659.39933,589.09184 661.51080,589.96391 663.94436,591.86665 L 671.64513,597.88798 C 674.11204,599.81698 675.50092,601.68188 675.81177,603.48268 C 676.11535,605.22424 675.68065,606.84506 674.50766,608.34513 C 673.51714,609.61200 672.27358,610.41235 670.77698,610.74617 C 669.63680,611.03652 668.07326,610.70032 666.08635,609.73757 C 664.09946,608.77496 662.51775,608.29025 661.34120,608.28344 C 659.31850,608.25976 657.11784,608.87578 654.73922,610.13150 C 652.36064,611.38738 650.18082,613.28207 648.19975,615.81559 C 645.30642,619.51602 643.87933,623.12737 643.91849,626.64964 C 643.95045,630.11263 644.89984,632.57395 646.76666,634.03361 C 648.03348,635.02419 649.60580,635.55526 651.48362,635.62685 C 653.35421,635.63913 655.28756,635.05583 657.28365,633.87693 C 658.63664,633.10847 661.87605,630.51131 667.00189,626.08546 C 672.15382,621.62639 676.44129,618.47891 679.86432,616.64302 C 683.31341,614.77393 687.08461,613.93554 691.17793,614.12786 C 695.27123,614.32032 699.13473,615.83713 702.76845,618.67829 C 707.83559,622.64044 710.49144,627.59101 710.73601,633.53001 C 711.03496,641.39183 708.31715,648.98974 702.58258,656.32377 C 700.36692,659.15741 697.85338,661.65066 695.04195,663.80351 C 692.28989,665.94913 689.23995,667.75437 685.89212,669.21922 M 692.00022,512.74009 L 727.98383,520.82127 C 735.82880,522.58316 741.86183,526.90902 746.08295,533.79885 C 750.31332,540.64752 751.53833,548.03559 749.75797,555.96309 C 748.87706,559.88561 747.36588,563.42799 745.22443,566.59026 C 743.05095,569.70203 740.31168,572.33972 737.00661,574.50335 C 733.71081,576.62573 730.44624,578.12622 727.21289,579.00482 C 723.93827,579.87417 719.86490,579.76175 714.99274,578.66756 L 679.00913,570.58637 C 678.40646,573.27020 677.36268,575.11763 675.87777,576.12867 C 674.39299,577.13974 672.72157,577.43663 670.86348,577.01935 C 668.96424,576.59282 667.58027,575.60974 666.71155,574.07012 C 665.84298,572.53054 665.75638,570.21239 666.45177,567.11567 L 670.13138,550.44153 C 670.81763,547.38617 671.90314,545.35294 673.38792,544.34184 C 674.84081,543.28027 676.51687,542.96273 678.41612,543.38922 C 680.31548,543.81582 681.71547,544.82417 682.61607,546.41429 C 683.48477,547.95394 683.57600,550.25144 682.88977,553.30681 L 681.86049,557.88992 L 718.95892,566.22146 C 722.75755,567.07458 726.47498,566.26132 730.11124,563.78167 C 733.71549,561.25152 736.01834,557.75681 737.01979,553.29753 C 737.68743,550.32474 737.61142,547.38008 736.79177,544.46354 C 735.97212,541.54709 734.40584,538.96170 732.09294,536.70734 C 730.63191,535.29499 728.68336,534.31524 726.24728,533.76809 L 689.14886,525.43654 L 688.11959,530.01965 C 687.43346,533.07512 686.36395,535.13363 684.91107,536.19519 C 683.42628,537.20631 681.73421,537.49857 679.83485,537.07196 C 677.93560,536.64547 676.55162,535.66240 675.68292,534.12274 C 674.78232,532.53263 674.67508,530.20985 675.36120,527.15438 L 679.16468,510.50806 C 679.85092,507.45274 680.91578,505.41487 682.35928,504.39445 C 683.81216,503.33292 685.48823,503.01539 687.38748,503.44184 C 689.24555,503.85920 690.62952,504.84228 691.53941,506.39107 C 692.44939,507.94003 692.60300,510.05637 692.00022,512.74009"
       id="text3994" />
  </g>
  <g
     inkscape:groupmode="layer"
     id="layer2"
     inkscape:label="Rocket"
     style="display:inline">
    <path
       style="fill:#a60000;fill-opacity:1.0000000;fill-rule:evenodd;stroke:none;stroke-width:1.0000000px;stroke-linecap:butt;stroke-linejoin:miter;stroke-opacity:1.0000000"
       d="M 500.00000,160.00000 L 475.00000,520.00000 L 500.00000,580.00000 L 525.00000,520.00000 L 500.00000,160.00000 z "
       id="path1373" />
    <path
       style="fill:#a60000;fill-opacity:1.0000000;fill-rule:evenodd;stroke:none;stroke-width:1.0000000px;stroke-linecap:butt;stroke-linejoin:miter;stroke-opacity:1.0000000"
       d="M 500.00000,620.00000 L 483.00000,700.00000 L 491.50000,750.00000 L 491.50000,848.00000 L 508.50000,848.00000 L 508.50000,750.00000 L 517.00000,700.00000 L 500.00000,620.00000 z "
       id="path2111" />
    <path
       style="fill:#a60000;fill-opacity:1.0000000;fill-rule:evenodd;stroke:none;stroke-width:1.0000000px;stroke-linecap:butt;stroke-linejoin:miter;stroke-opacity:1.0000000"
       d="M 464.00000,525.00000 L 445.00000,591.00000 L 464.00000,662.00000 L 489.00000,591.00000 L 464.00000,525.00000 z "
       id="path4048" />
    <path
       style="fill:#a60000;fill-opacity:1.0000000;fill-rule:evenodd;stroke:none;stroke-width:1.0000000px;stroke-linecap:butt;stroke-linejoin:miter;stroke-opacity:1.0000000"
       d="M 536.00000,525.00000 L 511.00000,591.00000 L 536.00000,662.00000 L 555.00000,591.00000 L 536.00000,525.00000 z "
       id="path4056" />
  </g>
</svg>
