<?xml version="1.0" encoding="UTF-8" standalone="no"?>
<!-- Created with Inkscape (http://www.inkscape.org/) -->
<svg
   xmlns:dc="http://purl.org/dc/elements/1.1/"
   xmlns:cc="http://web.resource.org/cc/"
   xmlns:rdf="http://www.w3.org/1999/02/22-rdf-syntax-ns#"
   xmlns:svg="http://www.w3.org/2000/svg"
   xmlns="http://www.w3.org/2000/svg"
   xmlns:sodipodi="http://inkscape.sourceforge.net/DTD/sodipodi-0.dtd"
   xmlns:inkscape="http://www.inkscape.org/namespaces/inkscape"
   width="2168"
   height="1000"
   id="svg2"
   sodipodi:version="0.32"
   inkscape:version="0.43"
   sodipodi:docbase="/usr/codebase/pov/Pegasus/svg"
   sodipodi:docname="USFlagSkew.svg"
   inkscape:export-filename="/usr/codebase/pov/Pegasus/svg/USFlag.svg.png"
   inkscape:export-xdpi="90"
   inkscape:export-ydpi="90"
   version="1.0">
  <defs
     id="defs4" />
  <sodipodi:namedview
     id="base"
     pagecolor="#ffffff"
     bordercolor="#666666"
     borderopacity="1.0"
     inkscape:pageopacity="0.0"
     inkscape:pageshadow="2"
     inkscape:zoom="0.5322236"
     inkscape:cx="902.76139"
     inkscape:cy="461.20939"
     inkscape:document-units="px"
     inkscape:current-layer="layer1"
     showguides="true"
     inkscape:guide-bbox="true"
     inkscape:guide-points="true"
     guidetolerance="10.000000px"
     inkscape:window-width="1272"
     inkscape:window-height="960"
     inkscape:window-x="0"
     inkscape:window-y="0" />
  <metadata
     id="metadata7">
    <rdf:RDF>
      <cc:Work
         rdf:about="">
        <dc:format>image/svg+xml</dc:format>
        <dc:type
           rdf:resource="http://purl.org/dc/dcmitype/StillImage" />
      </cc:Work>
    </rdf:RDF>
  </metadata>
  <g
     inkscape:label="Layer 1"
     inkscape:groupmode="layer"
     id="layer1">
    <path
       style="fill:#0000c0;fill-opacity:1;stroke:none;stroke-width:60;stroke-linecap:round;stroke-linejoin:round;stroke-miterlimit:4;stroke-dasharray:none;stroke-opacity:1"
       d="M 267.95543,0 L 123.66977,538.46875 L 883.68761,538.46875 L 1027.9732,0 L 267.95543,0 z M 325.07071,23.25 L 326.32492,44.34375 L 348.50457,44.375 L 327.08936,57.46875 L 328.21021,78.59375 L 313.71609,65.625 L 292.24062,78.59375 L 304.71384,57.46875 L 290.28446,44.375 L 312.48085,44.34375 L 325.07071,23.25 z M 451.72993,23.25 L 452.98415,44.34375 L 475.1638,44.375 L 453.74858,57.46875 L 454.90068,78.59375 L 440.37531,65.625 L 418.89984,78.59375 L 431.37306,57.46875 L 416.97493,44.375 L 439.17132,44.34375 L 451.72993,23.25 z M 578.38915,23.25 L 579.67462,44.34375 L 601.85427,44.375 L 580.4078,57.46875 L 581.5599,78.59375 L 567.03453,65.625 L 545.59031,78.59375 L 558.03228,57.46875 L 543.63415,44.375 L 565.83054,44.34375 L 578.38915,23.25 z M 705.07962,23.25 L 706.33384,44.34375 L 728.51349,44.375 L 707.09828,57.46875 L 708.21912,78.59375 L 693.725,65.625 L 672.24953,78.59375 L 684.72275,57.46875 L 670.29337,44.375 L 692.48976,44.34375 L 705.07962,23.25 z M 831.73884,23.25 L 832.99306,44.34375 L 855.17271,44.375 L 833.7575,57.46875 L 834.90959,78.59375 L 820.38422,65.625 L 798.90875,78.59375 L 811.38197,57.46875 L 796.98384,44.375 L 819.18024,44.34375 L 831.73884,23.25 z M 958.39806,23.25 L 959.68353,44.34375 L 981.86318,44.375 L 960.41672,57.46875 L 961.56882,78.59375 L 947.04344,65.625 L 925.59922,78.59375 L 938.04119,57.46875 L 923.64307,44.375 L 945.83946,44.34375 L 958.39806,23.25 z M 373.95696,77.09375 L 375.24243,98.1875 L 397.41371,98.25 L 375.97562,111.3125 L 377.12772,132.4375 L 362.60235,119.46875 L 341.15812,132.4375 L 353.60009,111.3125 L 339.1936,98.25 L 361.39836,98.1875 L 373.95696,77.09375 z M 500.64743,77.09375 L 501.90165,98.1875 L 524.07293,98.25 L 502.66609,111.3125 L 503.78694,132.4375 L 489.29282,119.46875 L 467.81734,132.4375 L 480.29057,111.3125 L 465.85282,98.25 L 488.05758,98.1875 L 500.64743,77.09375 z M 627.30665,77.09375 L 628.56087,98.1875 L 650.73215,98.25 L 629.32531,111.3125 L 630.47741,132.4375 L 615.95204,119.46875 L 594.47656,132.4375 L 606.94979,111.3125 L 592.54329,98.25 L 614.74805,98.1875 L 627.30665,77.09375 z M 753.96588,77.09375 L 755.25135,98.1875 L 777.42263,98.25 L 755.98453,111.3125 L 757.13663,132.4375 L 742.61126,119.46875 L 721.16704,132.4375 L 733.60901,111.3125 L 719.20251,98.25 L 741.40727,98.1875 L 753.96588,77.09375 z M 880.65635,77.09375 L 881.91057,98.1875 L 904.08185,98.25 L 882.675,111.3125 L 883.79585,132.4375 L 869.30173,119.46875 L 847.82626,132.4375 L 860.29948,111.3125 L 845.86173,98.25 L 868.06649,98.1875 L 880.65635,77.09375 z M 296.21525,130.9375 L 297.46947,152.03125 L 319.64075,152.09375 L 298.22554,165.1875 L 299.35475,186.28125 L 284.86063,173.3125 L 263.38516,186.28125 L 275.85001,165.1875 L 261.42063,152.09375 L 283.62539,152.03125 L 296.21525,130.9375 z M 422.87447,130.9375 L 424.12869,152.03125 L 446.29997,152.09375 L 424.88476,165.1875 L 426.04522,186.28125 L 411.51985,173.3125 L 390.04438,186.28125 L 402.50923,165.1875 L 388.1111,152.09375 L 410.31586,152.03125 L 422.87447,130.9375 z M 549.53369,130.9375 L 550.81916,152.03125 L 572.99044,152.09375 L 551.54398,165.1875 L 552.70444,186.28125 L 538.17907,173.3125 L 516.73485,186.28125 L 529.16845,165.1875 L 514.77032,152.09375 L 536.97509,152.03125 L 549.53369,130.9375 z M 676.22416,130.9375 L 677.47838,152.03125 L 699.64966,152.09375 L 678.23445,165.1875 L 679.36367,186.28125 L 664.86955,173.3125 L 643.39407,186.28125 L 655.85892,165.1875 L 641.42955,152.09375 L 663.63431,152.03125 L 676.22416,130.9375 z M 802.88338,130.9375 L 804.1376,152.03125 L 826.30888,152.09375 L 804.89367,165.1875 L 806.05414,186.28125 L 791.52877,173.3125 L 770.05329,186.28125 L 782.51815,165.1875 L 768.12002,152.09375 L 790.32478,152.03125 L 802.88338,130.9375 z M 929.5426,130.9375 L 930.82807,152.03125 L 952.99935,152.09375 L 931.55289,165.1875 L 932.71336,186.28125 L 918.18799,173.3125 L 896.74376,186.28125 L 909.17737,165.1875 L 894.77924,152.09375 L 916.984,152.03125 L 929.5426,130.9375 z M 345.1015,184.78125 L 346.38698,205.875 L 368.55826,205.9375 L 347.11179,219.03125 L 348.27226,240.125 L 333.74689,227.15625 L 312.30267,240.125 L 324.73627,219.03125 L 310.33814,205.9375 L 332.5429,205.875 L 345.1015,184.78125 z M 471.79198,184.78125 L 473.0462,205.875 L 495.21748,205.9375 L 473.80226,219.03125 L 474.93148,240.125 L 460.43736,227.15625 L 438.96189,240.125 L 451.42674,219.03125 L 436.99736,205.9375 L 459.20212,205.875 L 471.79198,184.78125 z M 598.4512,184.78125 L 599.70542,205.875 L 621.8767,205.9375 L 600.46148,219.03125 L 601.62195,240.125 L 587.09658,227.15625 L 565.62111,240.125 L 578.08596,219.03125 L 563.68783,205.9375 L 585.89259,205.875 L 598.4512,184.78125 z M 725.11042,184.78125 L 726.39589,205.875 L 748.56717,205.9375 L 727.12071,219.03125 L 728.28117,240.125 L 713.7558,227.15625 L 692.31158,240.125 L 704.74518,219.03125 L 690.34705,205.9375 L 712.55181,205.875 L 725.11042,184.78125 z M 851.80089,184.78125 L 853.05511,205.875 L 875.22639,205.9375 L 853.81118,219.03125 L 854.94039,240.125 L 840.44627,227.15625 L 818.9708,240.125 L 831.43565,219.03125 L 817.00627,205.9375 L 839.21104,205.875 L 851.80089,184.78125 z M 267.35979,238.625 L 268.61401,259.71875 L 290.78529,259.78125 L 269.37008,272.875 L 270.49092,294 L 256.00518,281 L 234.52133,294 L 246.99455,272.875 L 232.56517,259.78125 L 254.76994,259.71875 L 267.35979,238.625 z M 394.01901,238.625 L 395.27323,259.71875 L 417.44451,259.78125 L 396.0293,272.875 L 397.1814,294 L 382.6644,281 L 361.18055,294 L 373.65377,272.875 L 359.25565,259.78125 L 381.46041,259.71875 L 394.01901,238.625 z M 520.67823,238.625 L 521.9637,259.71875 L 544.13498,259.78125 L 522.68852,272.875 L 523.84062,294 L 509.32362,281 L 487.87102,294 L 500.313,272.875 L 485.91487,259.78125 L 508.11963,259.71875 L 520.67823,238.625 z M 647.36871,238.625 L 648.62292,259.71875 L 670.7942,259.78125 L 649.37899,272.875 L 650.49984,294 L 636.01409,281 L 614.53024,294 L 627.00347,272.875 L 612.57409,259.78125 L 634.77885,259.71875 L 647.36871,238.625 z M 774.02793,238.625 L 775.28215,259.71875 L 797.45343,259.78125 L 776.03821,272.875 L 777.19031,294 L 762.67331,281 L 741.18947,294 L 753.66269,272.875 L 739.26456,259.78125 L 761.46932,259.71875 L 774.02793,238.625 z M 900.68715,238.625 L 901.97262,259.71875 L 924.1439,259.78125 L 902.69743,272.875 L 903.84953,294 L 889.33253,281 L 867.87994,294 L 880.32191,272.875 L 865.92378,259.78125 L 888.12854,259.71875 L 900.68715,238.625 z M 316.24605,292.46875 L 317.53153,313.5625 L 339.7028,313.625 L 318.25634,326.71875 L 319.40843,347.84375 L 304.89143,334.84375 L 283.43884,347.84375 L 295.88081,326.71875 L 281.48268,313.625 L 303.68745,313.5625 L 316.24605,292.46875 z M 442.93652,292.46875 L 444.19075,313.5625 L 466.36202,313.625 L 444.94681,326.71875 L 446.06765,347.84375 L 431.5819,334.84375 L 410.09806,347.84375 L 422.57128,326.71875 L 408.1419,313.625 L 430.34667,313.5625 L 442.93652,292.46875 z M 569.59574,292.46875 L 570.84997,313.5625 L 593.02124,313.625 L 571.60603,326.71875 L 572.75813,347.84375 L 558.24112,334.84375 L 536.75728,347.84375 L 549.2305,326.71875 L 534.83238,313.625 L 557.03715,313.5625 L 569.59574,292.46875 z M 696.25496,292.46875 L 697.54044,313.5625 L 719.71171,313.625 L 698.26525,326.71875 L 699.41735,347.84375 L 684.90035,334.84375 L 663.44775,347.84375 L 675.88972,326.71875 L 661.4916,313.625 L 683.69637,313.5625 L 696.25496,292.46875 z M 822.94543,292.46875 L 824.19966,313.5625 L 846.37093,313.625 L 824.95572,326.71875 L 826.07657,347.84375 L 811.59082,334.84375 L 790.10697,347.84375 L 802.5802,326.71875 L 788.15082,313.625 L 810.35559,313.5625 L 822.94543,292.46875 z M 238.50433,346.3125 L 239.75856,367.40625 L 261.92983,367.46875 L 240.51462,380.5625 L 241.63547,401.6875 L 227.14972,388.6875 L 205.66587,401.6875 L 218.1391,380.5625 L 203.70972,367.46875 L 225.91448,367.40625 L 238.50433,346.3125 z M 365.16356,346.3125 L 366.41778,367.40625 L 388.58906,367.46875 L 367.17384,380.5625 L 368.32594,401.6875 L 353.80894,388.6875 L 332.3251,401.6875 L 344.79832,380.5625 L 330.40019,367.46875 L 352.60496,367.40625 L 365.16356,346.3125 z M 491.82278,346.3125 L 493.10826,367.40625 L 515.27953,367.46875 L 493.83306,380.5625 L 494.98516,401.6875 L 480.46816,388.6875 L 459.01557,401.6875 L 471.45754,380.5625 L 457.05941,367.46875 L 479.26418,367.40625 L 491.82278,346.3125 z M 618.51325,346.3125 L 619.76748,367.40625 L 641.93875,367.46875 L 620.52354,380.5625 L 621.64438,401.6875 L 607.15863,388.6875 L 585.67479,401.6875 L 598.14801,380.5625 L 583.71863,367.46875 L 605.9234,367.40625 L 618.51325,346.3125 z M 745.17247,346.3125 L 746.4267,367.40625 L 768.59797,367.46875 L 747.18276,380.5625 L 748.33485,401.6875 L 733.81785,388.6875 L 712.33401,401.6875 L 724.80723,380.5625 L 710.4091,367.46875 L 732.61387,367.40625 L 745.17247,346.3125 z M 871.83169,346.3125 L 873.11717,367.40625 L 895.28844,367.46875 L 873.84198,380.5625 L 874.99407,401.6875 L 860.47707,388.6875 L 839.02448,401.6875 L 851.46645,380.5625 L 837.06832,367.46875 L 859.2731,367.40625 L 871.83169,346.3125 z M 287.39059,400.15625 L 288.67607,421.25 L 310.84734,421.3125 L 289.40088,434.40625 L 290.55298,455.53125 L 276.03597,442.53125 L 254.58338,455.53125 L 267.02535,434.40625 L 252.62723,421.3125 L 274.832,421.25 L 287.39059,400.15625 z M 414.08106,400.15625 L 415.33529,421.25 L 437.50656,421.3125 L 416.09135,434.40625 L 417.2122,455.53125 L 402.72645,442.53125 L 381.2426,455.53125 L 393.71583,434.40625 L 379.28645,421.3125 L 401.49122,421.25 L 414.08106,400.15625 z M 540.74028,400.15625 L 541.99451,421.25 L 564.16578,421.3125 L 542.75057,434.40625 L 543.90267,455.53125 L 529.38567,442.53125 L 507.90182,455.53125 L 520.37505,434.40625 L 505.97692,421.3125 L 528.18169,421.25 L 540.74028,400.15625 z M 667.39951,400.15625 L 668.68499,421.25 L 690.85626,421.3125 L 669.40979,434.40625 L 670.56189,455.53125 L 656.04489,442.53125 L 634.5923,455.53125 L 647.03427,434.40625 L 632.63614,421.3125 L 654.84091,421.25 L 667.39951,400.15625 z M 794.08998,400.15625 L 795.34421,421.25 L 817.51548,421.3125 L 796.10026,434.40625 L 797.22111,455.53125 L 782.73536,442.53125 L 761.25152,455.53125 L 773.72474,434.40625 L 759.29536,421.3125 L 781.50013,421.25 L 794.08998,400.15625 z M 209.64888,454 L 210.9031,475.09375 L 233.07438,475.15625 L 211.65916,488.25 L 212.78001,509.375 L 198.29426,496.375 L 176.81042,509.375 L 189.28364,488.25 L 174.85426,475.15625 L 197.05902,475.09375 L 209.64888,454 z M 336.3081,454 L 337.56233,475.09375 L 359.7336,475.15625 L 338.31839,488.25 L 339.47048,509.375 L 324.95348,496.375 L 303.46964,509.375 L 315.94286,488.25 L 301.54473,475.15625 L 323.7495,475.09375 L 336.3081,454 z M 462.96732,454 L 464.2528,475.09375 L 486.42407,475.15625 L 464.97761,488.25 L 466.1297,509.375 L 451.6127,496.375 L 430.16011,509.375 L 442.60208,488.25 L 428.20395,475.15625 L 450.40873,475.09375 L 462.96732,454 z M 589.65779,454 L 590.91202,475.09375 L 613.08329,475.15625 L 591.66808,488.25 L 592.78892,509.375 L 578.30318,496.375 L 556.81933,509.375 L 569.29255,488.25 L 554.86318,475.15625 L 577.06795,475.09375 L 589.65779,454 z M 716.31701,454 L 717.57124,475.09375 L 739.74251,475.15625 L 718.3273,488.25 L 719.4794,509.375 L 704.9624,496.375 L 683.47855,509.375 L 695.95177,488.25 L 681.55365,475.15625 L 703.75842,475.09375 L 716.31701,454 z M 842.97623,454 L 844.26171,475.09375 L 866.43298,475.15625 L 844.98652,488.25 L 846.13862,509.375 L 831.62162,496.375 L 810.16902,509.375 L 822.611,488.25 L 808.21287,475.15625 L 830.41764,475.09375 L 842.97623,454 z "
       id="rect2813" />
    <rect
       style="fill:#c00000;fill-opacity:1;stroke:none;stroke-width:60;stroke-linecap:round;stroke-linejoin:round;stroke-miterlimit:4;stroke-dasharray:none;stroke-opacity:1"
       id="rect1336"
       width="1140.0267"
       height="79.636787"
       x="1027.9733"
       y="0"
       transform="matrix(1,0,-0.258825,0.965924,0,0)" />
    <rect
       style="fill:#c00000;fill-opacity:1;stroke:none;stroke-width:60;stroke-linecap:round;stroke-linejoin:round;stroke-miterlimit:4;stroke-dasharray:none;stroke-opacity:1"
       id="rect2064"
       width="1140.0267"
       height="79.636787"
       x="1027.9733"
       y="159.27356"
       transform="matrix(1,0,-0.258825,0.965924,0,0)" />
    <rect
       style="fill:#c00000;fill-opacity:1;stroke:none;stroke-width:60;stroke-linecap:round;stroke-linejoin:round;stroke-miterlimit:4;stroke-dasharray:none;stroke-opacity:1"
       id="rect2066"
       width="1140.0267"
       height="79.63678"
       x="1027.9733"
       y="318.54715"
       transform="matrix(1,0,-0.258825,0.965924,0,0)" />
    <rect
       style="fill:#c00000;fill-opacity:1;stroke:none;stroke-width:60;stroke-linecap:round;stroke-linejoin:round;stroke-miterlimit:4;stroke-dasharray:none;stroke-opacity:1"
       id="rect2068"
       width="1140.0267"
       height="79.636787"
       x="1027.9733"
       y="477.82065"
       transform="matrix(1,0,-0.258825,0.965924,0,0)" />
    <rect
       style="fill:#c00000;fill-opacity:1;stroke:none;stroke-width:60;stroke-linecap:round;stroke-linejoin:round;stroke-miterlimit:4;stroke-dasharray:none;stroke-opacity:1"
       id="rect2070"
       width="1900.0446"
       height="79.63678"
       x="267.95541"
       y="637.0943"
       transform="matrix(1,0,-0.258825,0.965924,0,0)" />
    <rect
       style="fill:#c00000;fill-opacity:1;stroke:none;stroke-width:60;stroke-linecap:round;stroke-linejoin:round;stroke-miterlimit:4;stroke-dasharray:none;stroke-opacity:1"
       id="rect2072"
       width="1900.0446"
       height="79.636787"
       x="267.95541"
       y="796.3678"
       transform="matrix(1,0,-0.258825,0.965924,0,0)" />
    <rect
       style="fill:#c00000;fill-opacity:1;stroke:none;stroke-width:60;stroke-linecap:round;stroke-linejoin:round;stroke-miterlimit:4;stroke-dasharray:none;stroke-opacity:1"
       id="rect2074"
       width="1900.0446"
       height="79.636787"
       x="267.95541"
       y="955.6413"
       transform="matrix(1,0,-0.258825,0.965924,0,0)" />
    <rect
       y="0"
       x="1027.9733"
       height="79.636787"
       width="1140.0267"
       id="rect3615"
       style="fill:#c00000;fill-opacity:1;stroke:none;stroke-width:60;stroke-linecap:round;stroke-linejoin:round;stroke-miterlimit:4;stroke-dasharray:none;stroke-opacity:1"
       transform="matrix(1,0,-0.258825,0.965924,0,0)" />
  </g>
</svg>
