<?xml version="1.0" encoding="UTF-8" standalone="no"?>
<!-- Created with Inkscape (http://www.inkscape.org/) -->

<svg
   xmlns:dc="http://purl.org/dc/elements/1.1/"
   xmlns:cc="http://creativecommons.org/ns#"
   xmlns:rdf="http://www.w3.org/1999/02/22-rdf-syntax-ns#"
   xmlns:svg="http://www.w3.org/2000/svg"
   xmlns="http://www.w3.org/2000/svg"
   xmlns:sodipodi="http://sodipodi.sourceforge.net/DTD/sodipodi-0.dtd"
   xmlns:inkscape="http://www.inkscape.org/namespaces/inkscape"
   width="933.12732"
   height="961.94177"
   id="svg2"
   version="1.1"
   inkscape:version="0.48.0 r9654"
   sodipodi:docname="RCO horizontal.svg">
  <defs
     id="defs4">
    <marker
       inkscape:stockid="Arrow2Mend"
       orient="auto"
       refY="0"
       refX="0"
       id="Arrow2Mend"
       style="overflow:visible">
      <path
         id="path3952"
         style="font-size:12px;fill-rule:evenodd;stroke-width:0.625;stroke-linejoin:round"
         d="M 8.7185878,4.0337352 -2.2072895,0.01601326 8.7185884,-4.0017078 c -1.7454984,2.3720609 -1.7354408,5.6174519 -6e-7,8.035443 z"
         transform="scale(-0.6,-0.6)"
         inkscape:connector-curvature="0" />
    </marker>
    <marker
       inkscape:stockid="Arrow2Lend"
       orient="auto"
       refY="0"
       refX="0"
       id="Arrow2Lend"
       style="overflow:visible">
      <path
         id="path3946"
         style="font-size:12px;fill-rule:evenodd;stroke-width:0.625;stroke-linejoin:round"
         d="M 8.7185878,4.0337352 -2.2072895,0.01601326 8.7185884,-4.0017078 c -1.7454984,2.3720609 -1.7354408,5.6174519 -6e-7,8.035443 z"
         transform="matrix(-1.1,0,0,-1.1,-1.1,0)"
         inkscape:connector-curvature="0" />
    </marker>
  </defs>
  <sodipodi:namedview
     id="base"
     pagecolor="#ffffff"
     bordercolor="#666666"
     borderopacity="1.0"
     inkscape:pageopacity="0.0"
     inkscape:pageshadow="2"
     inkscape:zoom="1.2892132"
     inkscape:cx="282.69182"
     inkscape:cy="625.72457"
     inkscape:document-units="px"
     inkscape:current-layer="layer1"
     showgrid="false"
     showguides="true"
     inkscape:guide-bbox="true"
     inkscape:window-width="1920"
     inkscape:window-height="1125"
     inkscape:window-x="0"
     inkscape:window-y="25"
     inkscape:window-maximized="1"
     fit-margin-top="0"
     fit-margin-left="0"
     fit-margin-right="0"
     fit-margin-bottom="0">
    <sodipodi:guide
       orientation="0,1"
       position="486.34316,546.90258"
       id="guide3017" />
    <sodipodi:guide
       orientation="0,1"
       position="200.89773,380.13419"
       id="guide3021" />
    <sodipodi:guide
       orientation="0,1"
       position="313.36944,183.89046"
       id="guide3829" />
    <sodipodi:guide
       orientation="1,0"
       position="454.54082,574.05092"
       id="guide3831" />
    <sodipodi:guide
       orientation="0,1"
       position="487.11883,480.97089"
       id="guide3850" />
  </sodipodi:namedview>
  <metadata
     id="metadata7">
    <rdf:RDF>
      <cc:Work
         rdf:about="">
        <dc:format>image/svg+xml</dc:format>
        <dc:type
           rdf:resource="http://purl.org/dc/dcmitype/StillImage" />
        <dc:title />
      </cc:Work>
    </rdf:RDF>
  </metadata>
  <g
     inkscape:label="Layer 1"
     inkscape:groupmode="layer"
     id="layer1"
     transform="translate(17.064672,135.24129)">
    <path
       style="fill:#800000;fill-opacity:1;stroke:#000000;stroke-width:10;stroke-miterlimit:4;stroke-opacity:1"
       d="m 363.88474,279.79792 105.39375,0 75.53056,0 0,66.38739 0,66.38739 -180.92431,0 z"
       id="rect2989"
       inkscape:connector-curvature="0"
       sodipodi:nodetypes="ccccccc" />
    <path
       style="fill:#800000;fill-opacity:1;stroke:#000000;stroke-width:10;stroke-miterlimit:4;stroke-opacity:1"
       d="m 576.12661,279.79792 81.89104,0 c 45.43419,0 75.53056,30.16106 75.53056,66.38739 l 0,66.38739 -157.4216,0 z"
       id="rect2989-4"
       inkscape:connector-curvature="0"
       sodipodi:nodetypes="cccccc" />
    <path
       sodipodi:nodetypes="ccccccc"
       inkscape:connector-curvature="0"
       id="path3019"
       d="m 151.352,279.79792 105.39375,0 75.53056,0 0,66.38739 0,66.38739 -180.92431,0 z"
       style="fill:#800000;fill-opacity:1;stroke:#000000;stroke-width:10;stroke-miterlimit:4;stroke-opacity:1" />
    <path
       sodipodi:type="arc"
       style="fill:#800000;fill-opacity:1;stroke:#000000;stroke-width:10;stroke-miterlimit:4;stroke-opacity:1;stroke-dasharray:none"
       id="path3023"
       sodipodi:cx="183.83305"
       sodipodi:cy="446.56631"
       sodipodi:rx="20.943005"
       sodipodi:ry="20.943005"
       d="m 204.77606,446.56631 c 0,11.56651 -9.3765,20.94301 -20.94301,20.94301 -11.5665,0 -20.943,-9.3765 -20.943,-20.94301 0,-11.5665 9.3765,-20.943 20.943,-20.943 11.56651,0 20.94301,9.3765 20.94301,20.943 z" />
    <path
       d="m 204.77606,446.56631 c 0,11.56651 -9.3765,20.94301 -20.94301,20.94301 -11.5665,0 -20.943,-9.3765 -20.943,-20.94301 0,-11.5665 9.3765,-20.943 20.943,-20.943 11.56651,0 20.94301,9.3765 20.94301,20.943 z"
       sodipodi:ry="20.943005"
       sodipodi:rx="20.943005"
       sodipodi:cy="446.56631"
       sodipodi:cx="183.83305"
       id="path3025"
       style="fill:#800000;fill-opacity:1;stroke:#000000;stroke-width:10;stroke-miterlimit:4;stroke-opacity:1;stroke-dasharray:none"
       sodipodi:type="arc"
       transform="translate(113.24737,0)" />
    <path
       d="m 204.77606,446.56631 c 0,11.56651 -9.3765,20.94301 -20.94301,20.94301 -11.5665,0 -20.943,-9.3765 -20.943,-20.94301 0,-11.5665 9.3765,-20.943 20.943,-20.943 11.56651,0 20.94301,9.3765 20.94301,20.943 z"
       sodipodi:ry="20.943005"
       sodipodi:rx="20.943005"
       sodipodi:cy="446.56631"
       sodipodi:cx="183.83305"
       id="path3027"
       style="fill:#800000;fill-opacity:1;stroke:#000000;stroke-width:10;stroke-miterlimit:4;stroke-opacity:1;stroke-dasharray:none"
       sodipodi:type="arc"
       transform="translate(214.08407,0)" />
    <path
       transform="translate(327.33144,0)"
       sodipodi:type="arc"
       style="fill:#800000;fill-opacity:1;stroke:#000000;stroke-width:10;stroke-miterlimit:4;stroke-opacity:1;stroke-dasharray:none"
       id="path3029"
       sodipodi:cx="183.83305"
       sodipodi:cy="446.56631"
       sodipodi:rx="20.943005"
       sodipodi:ry="20.943005"
       d="m 204.77606,446.56631 c 0,11.56651 -9.3765,20.94301 -20.94301,20.94301 -11.5665,0 -20.943,-9.3765 -20.943,-20.94301 0,-11.5665 9.3765,-20.943 20.943,-20.943 11.56651,0 20.94301,9.3765 20.94301,20.943 z" />
    <path
       transform="translate(416.53314,0)"
       sodipodi:type="arc"
       style="fill:#800000;fill-opacity:1;stroke:#000000;stroke-width:10;stroke-miterlimit:4;stroke-opacity:1;stroke-dasharray:none"
       id="path3031"
       sodipodi:cx="183.83305"
       sodipodi:cy="446.56631"
       sodipodi:rx="20.943005"
       sodipodi:ry="20.943005"
       d="m 204.77606,446.56631 c 0,11.56651 -9.3765,20.94301 -20.94301,20.94301 -11.5665,0 -20.943,-9.3765 -20.943,-20.94301 0,-11.5665 9.3765,-20.943 20.943,-20.943 11.56651,0 20.94301,9.3765 20.94301,20.943 z" />
    <path
       d="m 204.77606,446.56631 c 0,11.56651 -9.3765,20.94301 -20.94301,20.94301 -11.5665,0 -20.943,-9.3765 -20.943,-20.94301 0,-11.5665 9.3765,-20.943 20.943,-20.943 11.56651,0 20.94301,9.3765 20.94301,20.943 z"
       sodipodi:ry="20.943005"
       sodipodi:rx="20.943005"
       sodipodi:cy="446.56631"
       sodipodi:cx="183.83305"
       id="path3033"
       style="fill:#800000;fill-opacity:1;stroke:#000000;stroke-width:10;stroke-miterlimit:4;stroke-opacity:1;stroke-dasharray:none"
       sodipodi:type="arc"
       transform="translate(529.78051,0)" />
    <rect
       style="fill:#000080;fill-opacity:1;stroke:none"
       id="rect3046"
       width="933.12732"
       height="18.616007"
       x="-17.064672"
       y="475.26599" />
    <path
       d="m 204.77606,446.56631 c 0,11.56651 -9.3765,20.94301 -20.94301,20.94301 -11.5665,0 -20.943,-9.3765 -20.943,-20.94301 0,-11.5665 9.3765,-20.943 20.943,-20.943 11.56651,0 20.94301,9.3765 20.94301,20.943 z"
       sodipodi:ry="20.943005"
       sodipodi:rx="20.943005"
       sodipodi:cy="446.56631"
       sodipodi:cx="183.83305"
       id="path3876"
       style="fill:#800000;fill-opacity:1;stroke:#000000;stroke-width:10;stroke-miterlimit:4;stroke-opacity:1;stroke-dasharray:none"
       sodipodi:type="arc" />
    <path
       transform="translate(113.24737,0)"
       sodipodi:type="arc"
       style="fill:#800000;fill-opacity:1;stroke:#000000;stroke-width:10;stroke-miterlimit:4;stroke-opacity:1;stroke-dasharray:none"
       id="path3878"
       sodipodi:cx="183.83305"
       sodipodi:cy="446.56631"
       sodipodi:rx="20.943005"
       sodipodi:ry="20.943005"
       d="m 204.77606,446.56631 c 0,11.56651 -9.3765,20.94301 -20.94301,20.94301 -11.5665,0 -20.943,-9.3765 -20.943,-20.94301 0,-11.5665 9.3765,-20.943 20.943,-20.943 11.56651,0 20.94301,9.3765 20.94301,20.943 z" />
    <path
       transform="translate(214.08407,0)"
       sodipodi:type="arc"
       style="fill:#800000;fill-opacity:1;stroke:#000000;stroke-width:10;stroke-miterlimit:4;stroke-opacity:1;stroke-dasharray:none"
       id="path3880"
       sodipodi:cx="183.83305"
       sodipodi:cy="446.56631"
       sodipodi:rx="20.943005"
       sodipodi:ry="20.943005"
       d="m 204.77606,446.56631 c 0,11.56651 -9.3765,20.94301 -20.94301,20.94301 -11.5665,0 -20.943,-9.3765 -20.943,-20.94301 0,-11.5665 9.3765,-20.943 20.943,-20.943 11.56651,0 20.94301,9.3765 20.94301,20.943 z" />
    <path
       d="m 204.77606,446.56631 c 0,11.56651 -9.3765,20.94301 -20.94301,20.94301 -11.5665,0 -20.943,-9.3765 -20.943,-20.94301 0,-11.5665 9.3765,-20.943 20.943,-20.943 11.56651,0 20.94301,9.3765 20.94301,20.943 z"
       sodipodi:ry="20.943005"
       sodipodi:rx="20.943005"
       sodipodi:cy="446.56631"
       sodipodi:cx="183.83305"
       id="path3882"
       style="fill:#800000;fill-opacity:1;stroke:#000000;stroke-width:10;stroke-miterlimit:4;stroke-opacity:1;stroke-dasharray:none"
       sodipodi:type="arc"
       transform="translate(327.33144,0)" />
    <path
       d="m 204.77606,446.56631 c 0,11.56651 -9.3765,20.94301 -20.94301,20.94301 -11.5665,0 -20.943,-9.3765 -20.943,-20.94301 0,-11.5665 9.3765,-20.943 20.943,-20.943 11.56651,0 20.94301,9.3765 20.94301,20.943 z"
       sodipodi:ry="20.943005"
       sodipodi:rx="20.943005"
       sodipodi:cy="446.56631"
       sodipodi:cx="183.83305"
       id="path3884"
       style="fill:#800000;fill-opacity:1;stroke:#000000;stroke-width:10;stroke-miterlimit:4;stroke-opacity:1;stroke-dasharray:none"
       sodipodi:type="arc"
       transform="translate(416.53314,0)" />
    <path
       transform="translate(529.78051,0)"
       sodipodi:type="arc"
       style="fill:#800000;fill-opacity:1;stroke:#000000;stroke-width:10;stroke-miterlimit:4;stroke-opacity:1;stroke-dasharray:none"
       id="path3886"
       sodipodi:cx="183.83305"
       sodipodi:cy="446.56631"
       sodipodi:rx="20.943005"
       sodipodi:ry="20.943005"
       d="m 204.77606,446.56631 c 0,11.56651 -9.3765,20.94301 -20.94301,20.94301 -11.5665,0 -20.943,-9.3765 -20.943,-20.94301 0,-11.5665 9.3765,-20.943 20.943,-20.943 11.56651,0 20.94301,9.3765 20.94301,20.943 z" />
    <path
       style="fill:#800000;fill-opacity:1;stroke:#ffff00;stroke-width:4;stroke-miterlimit:4;stroke-opacity:1;stroke-dasharray:none"
       d="m 151.34375,376.75 0,20.9375 180.9375,0 0,-20.9375 -180.9375,0 z m 212.53125,0 0,20.9375 180.9375,0 0,-20.9375 -180.9375,0 z m 212.25,0 0,20.9375 157.4375,0 0,-20.9375 -157.4375,0 z"
       id="rect3863"
       inkscape:connector-curvature="0" />
    <path
       id="path3917"
       style="fill:none;stroke:#000000;stroke-width:10;stroke-miterlimit:4;stroke-opacity:1"
       d="m 151.352,279.79792 105.39375,0 75.53056,0 0,66.38739 0,66.38739 -180.92431,0 z m 424.77461,0 81.89104,0 c 45.43419,0 75.53056,30.16106 75.53056,66.38739 l 0,66.38739 -157.4216,0 z m -212.24187,0 105.39375,0 75.53056,0 0,66.38739 0,66.38739 -180.92431,0 z"
       inkscape:connector-curvature="0" />
    <path
       style="font-size:medium;font-style:normal;font-variant:normal;font-weight:normal;font-stretch:normal;text-indent:0;text-align:start;text-decoration:none;line-height:normal;letter-spacing:normal;word-spacing:normal;text-transform:none;direction:ltr;block-progression:tb;writing-mode:lr-tb;text-anchor:start;baseline-shift:baseline;color:#000000;fill:#ffffff;fill-opacity:1;stroke:#000000;stroke-width:2;marker:none;visibility:visible;display:inline;overflow:visible;enable-background:accumulate;font-family:Sans;-inkscape-font-specification:Sans;stroke-miterlimit:4;stroke-dasharray:none"
       d="M 454.625 0 L 451 9.84375 A 5.0005 5.0005 0 0 0 449.71875 13.25 L 449.71875 13.34375 L 430.53125 65.5625 C 436.34538 61.389585 442.9668 58.867266 449.71875 58.03125 L 449.71875 480.96875 A 5.0005 5.0005 0 1 0 459.71875 480.96875 L 459.71875 58.03125 C 466.46859 58.849503 473.03039 61.353685 478.75 65.5625 L 459.71875 13.84375 L 459.71875 13.25 A 5.0005 5.0005 0 0 0 458.125 9.53125 L 454.625 0 z "
       transform="translate(-17.064672,-135.24129)"
       id="path3920" />
    <path
       inkscape:transform-center-y="237.98545"
       inkscape:connector-curvature="0"
       id="path4554"
       d="m 437.47615,345.72961 0,467.72716"
       style="fill:none;stroke:#000000;stroke-width:10;stroke-linecap:round;stroke-linejoin:miter;stroke-miterlimit:4;stroke-opacity:1;stroke-dasharray:none;marker-end:url(#Arrow2Mend)" />
    <g
       id="g3845"
       transform="matrix(0.34264023,0,0,0.34264023,305.12065,125.47619)">
      <path
         d="m 456.09216,642.81006 c 0,38.55501 -31.25502,69.81002 -69.81002,69.81002 -38.55501,0 -69.81003,-31.25501 -69.81003,-69.81002 0,-38.55501 31.25502,-69.81002 69.81003,-69.81002 38.555,0 69.81002,31.25501 69.81002,69.81002 z"
         sodipodi:ry="69.81002"
         sodipodi:rx="69.81002"
         sodipodi:cy="642.81006"
         sodipodi:cx="386.28214"
         id="path3833"
         style="fill:#ffffff;fill-opacity:1;stroke:none"
         sodipodi:type="arc" />
      <path
         id="path3835"
         d="m 386.28125,573 c -38.55501,0 -69.8125,31.25749 -69.8125,69.8125 l 69.8125,0 0,-69.8125 z m 0,69.8125 0,69.8125 c 38.55501,0 69.8125,-31.25749 69.8125,-69.8125 l -69.8125,0 z"
         style="fill:#ff6600;fill-opacity:1;stroke:none"
         inkscape:connector-curvature="0" />
      <path
         sodipodi:type="arc"
         style="fill:none;stroke:#000000;stroke-width:4;stroke-miterlimit:4;stroke-dasharray:none"
         id="path3843"
         sodipodi:cx="386.28214"
         sodipodi:cy="642.81006"
         sodipodi:rx="69.81002"
         sodipodi:ry="69.81002"
         d="m 456.09216,642.81006 c 0,38.55501 -31.25502,69.81002 -69.81002,69.81002 -38.55501,0 -69.81003,-31.25501 -69.81003,-69.81002 0,-38.55501 31.25502,-69.81002 69.81003,-69.81002 38.555,0 69.81002,31.25501 69.81002,69.81002 z" />
    </g>
  </g>
</svg>
