<?xml version="1.0" encoding="UTF-8" standalone="no"?>
<!-- Created with Inkscape (http://www.inkscape.org/) -->

<svg
   xmlns:dc="http://purl.org/dc/elements/1.1/"
   xmlns:cc="http://creativecommons.org/ns#"
   xmlns:rdf="http://www.w3.org/1999/02/22-rdf-syntax-ns#"
   xmlns:svg="http://www.w3.org/2000/svg"
   xmlns="http://www.w3.org/2000/svg"
   xmlns:sodipodi="http://sodipodi.sourceforge.net/DTD/sodipodi-0.dtd"
   xmlns:inkscape="http://www.inkscape.org/namespaces/inkscape"
   width="520"
   height="670"
   id="svg2"
   version="1.1"
   inkscape:version="0.48.0 r9654"
   sodipodi:docname="Steep Grade.svg">
  <defs
     id="defs4" />
  <sodipodi:namedview
     id="base"
     pagecolor="#ffffff"
     bordercolor="#666666"
     borderopacity="1.0"
     inkscape:pageopacity="0.0"
     inkscape:pageshadow="2"
     inkscape:zoom="1.1594772"
     inkscape:cx="393.4319"
     inkscape:cy="294.5685"
     inkscape:document-units="px"
     inkscape:current-layer="layer1"
     showgrid="false"
     showguides="true"
     inkscape:guide-bbox="true"
     inkscape:snap-global="true"
     inkscape:object-paths="true"
     fit-margin-top="0"
     fit-margin-left="0"
     fit-margin-right="0"
     fit-margin-bottom="0"
     inkscape:window-width="1920"
     inkscape:window-height="1125"
     inkscape:window-x="0"
     inkscape:window-y="25"
     inkscape:window-maximized="1">
    <sodipodi:guide
       orientation="1,0"
       position="544.06456,795.866"
       id="guide3052" />
    <sodipodi:guide
       orientation="0,1"
       position="-24.944744,950.92778"
       id="guide3062" />
    <sodipodi:guide
       orientation="1,0"
       position="662.04634,517.42899"
       id="guide3066" />
  </sodipodi:namedview>
  <metadata
     id="metadata7">
    <rdf:RDF>
      <cc:Work
         rdf:about="">
        <dc:format>image/svg+xml</dc:format>
        <dc:type
           rdf:resource="http://purl.org/dc/dcmitype/StillImage" />
        <dc:title></dc:title>
      </cc:Work>
    </rdf:RDF>
  </metadata>
  <g
     inkscape:label="Layer 1"
     inkscape:groupmode="layer"
     id="layer1"
     transform="translate(-2.4039888e-5,-532.3622)">
    <g
       id="Gold"
       inkscape:label="#g3070">
      <rect
         ry="20.324556"
         transform="matrix(0.70710678,0.70710678,-0.70710678,0.70710678,0,0)"
         y="186.64929"
         x="554.34485"
         height="379.57523"
         width="379.57523"
         id="TopSignBackground"
         style="fill:#fccb04;fill-opacity:1;stroke:none"
         inkscape:label="#rect3866" />
      <rect
         inkscape:label="#rect3886"
         ry="20"
         y="1062.3622"
         x="100"
         height="140"
         width="320"
         id="BottomSignBackground"
         style="fill:#fccb04;fill-opacity:1;stroke:none" />
    </g>
    <path
       inkscape:label="#path3070"
       style="fill:#000000;stroke:none"
       d="m 125.46873,729.42075 0,143.38699 287.79853,0 z"
       id="Ramp"
       inkscape:connector-curvature="0" />
    <rect
       inkscape:label="#rect3072"
       style="fill:#000000;fill-opacity:1;stroke:none"
       id="Trailer"
       width="179.15883"
       height="84.508888"
       x="459.8457"
       y="488.5506"
       transform="matrix(0.89475821,0.44655094,-0.44655094,0.89475821,0,0)" />
    <rect
       inkscape:label="#rect3074"
       style="fill:#000000;fill-opacity:1;stroke:none"
       id="Hitch"
       width="144.67921"
       height="9.4649916"
       x="563.96069"
       y="563.59448"
       transform="matrix(0.89475821,0.44655094,-0.44655094,0.89475821,0,0)" />
    <path
       inkscape:label="#path3082"
       style="fill:#000000;stroke:none"
       d="m 342.72791,750.30684 -28.37862,56.8625 88.31834,44.07742 13.26922,-26.58764 -3.34386,-8.50518 -34.64945,-17.29266 -0.34152,-31.14967 z"
       id="Cab"
       inkscape:connector-curvature="0" />
    <path
       inkscape:label="#path3084"
       sodipodi:type="arc"
       style="fill:#000000;fill-opacity:1;stroke:none"
       id="BackWheel"
       sodipodi:cx="297.202"
       sodipodi:cy="512.38007"
       sodipodi:rx="15.64221"
       sodipodi:ry="15.64221"
       d="m 312.84421,512.38007 a 15.64221,15.64221 0 1 1 -31.28442,0 15.64221,15.64221 0 1 1 31.28442,0 z"
       transform="matrix(0.89726586,0.44780244,-0.44780244,0.89726586,143.60393,149.2816)" />
    <path
       inkscape:label="#path3086"
       transform="matrix(0.89726586,0.44780244,-0.44780244,0.89726586,244.48208,199.6273)"
       d="m 312.84421,512.38007 a 15.64221,15.64221 0 1 1 -31.28442,0 15.64221,15.64221 0 1 1 31.28442,0 z"
       sodipodi:ry="15.64221"
       sodipodi:rx="15.64221"
       sodipodi:cy="512.38007"
       sodipodi:cx="297.202"
       id="MidWheel"
       style="fill:#000000;fill-opacity:1;stroke:none"
       sodipodi:type="arc" />
    <path
       inkscape:label="#path3088"
       sodipodi:type="arc"
       style="fill:#000000;fill-opacity:1;stroke:none"
       id="FrontWheel"
       sodipodi:cx="297.202"
       sodipodi:cy="512.38007"
       sodipodi:rx="15.64221"
       sodipodi:ry="15.64221"
       d="m 312.84421,512.38007 a 15.64221,15.64221 0 1 1 -31.28442,0 15.64221,15.64221 0 1 1 31.28442,0 z"
       transform="matrix(0.89726586,0.44780244,-0.44780244,0.89726586,335.41861,245.0114)" />
    <path
       inkscape:label="#rect3868"
       style="font-size:medium;font-style:normal;font-variant:normal;font-weight:normal;font-stretch:normal;text-indent:0;text-align:start;text-decoration:none;line-height:normal;letter-spacing:normal;word-spacing:normal;text-transform:none;direction:ltr;block-progression:tb;writing-mode:lr-tb;text-anchor:start;baseline-shift:baseline;color:#000000;fill:#000000;fill-opacity:1;stroke:none;stroke-width:10;marker:none;visibility:visible;display:inline;overflow:visible;enable-background:accumulate;font-family:Sans;-inkscape-font-specification:Sans"
       d="m 271.8928,552.33386 c -5.79526,-5.79525 -15.30013,-5.79525 -21.09538,0 L 21.318648,781.81263 c -5.795256,5.79527 -5.795256,15.30013 0,21.09539 L 250.79742,1032.3868 c 5.79525,5.7953 15.32228,5.8174 21.11754,0.022 L 501.39374,802.93018 c 5.79525,-5.79526 5.77309,-15.32228 -0.0222,-21.11755 L 271.8928,552.33386 z m -6.29316,6.29317 229.47878,229.47877 c 2.40815,2.40815 2.40815,6.10091 0,8.50906 L 265.59964,1026.0936 c -2.40814,2.4082 -6.07875,2.386 -8.4869,-0.022 L 27.633968,796.5927 c -2.40815,-2.40815 -2.40815,-6.0566 0,-8.46475 L 257.11274,558.64918 c 2.40815,-2.40815 6.07876,-2.4303 8.4869,-0.0222 z"
       id="TopSignOutline"
       inkscape:connector-curvature="0" />
    <path
       style="font-size:medium;font-style:normal;font-variant:normal;font-weight:normal;font-stretch:normal;text-indent:0;text-align:start;text-decoration:none;line-height:normal;letter-spacing:normal;word-spacing:normal;text-transform:none;direction:ltr;block-progression:tb;writing-mode:lr-tb;text-anchor:start;baseline-shift:baseline;color:#000000;fill:#000000;fill-opacity:1;fill-rule:nonzero;stroke:none;stroke-width:10;marker:none;visibility:visible;display:inline;overflow:visible;enable-background:accumulate;font-family:Sans;-inkscape-font-specification:Sans"
       d="m 130,1067.375 c -13.76351,0 -25,11.2365 -25,25 l 0,80 c 0,13.7635 11.23649,25 25,25 l 260,0 c 13.76351,0 25,-11.2365 25,-25 l 0,-80 c 0,-13.7635 -11.23649,-25 -25,-25 l -260,0 z m 0,10 260,0 c 8.39649,0 15,6.6035 15,15 l 0,80 c 0,8.3965 -6.60351,15 -15,15 l -260,0 c -8.39649,0 -15,-6.6035 -15,-15 l 0,-80 c 0,-8.3965 6.60351,-15 15,-15 z"
       id="BottomSignOutline"
       inkscape:connector-curvature="0" />
    <path
       inkscape:connector-curvature="0"
       id="Sign1"
       style="font-size:48px;font-style:normal;font-weight:normal;text-align:center;line-height:125%;letter-spacing:0px;word-spacing:0px;text-anchor:middle;fill:#000000;fill-opacity:1;stroke:none;font-family:Bitstream Vera Sans"
       d="m 216.00983,1116.512 7.73437,0 0,-26.6953 -8.41406,1.6875 0,-4.3125 8.36719,-1.6875 4.73437,0 0,31.0078 7.73438,0 0,3.9843 -20.15625,0 0,-3.9843"
       inkscape:label="#path3911" />
    <path
       inkscape:connector-curvature="0"
       id="Sign0"
       style="font-size:48px;font-style:normal;font-weight:normal;text-align:center;line-height:125%;letter-spacing:0px;word-spacing:0px;text-anchor:middle;fill:#000000;fill-opacity:1;stroke:none;font-family:Bitstream Vera Sans"
       d="m 255.87701,1088.6213 c -2.43751,10e-5 -4.27345,1.2032 -5.50781,3.6094 -1.21876,2.3907 -1.82813,5.9922 -1.82812,10.8047 -1e-5,4.7969 0.60936,8.3984 1.82812,10.8047 1.23436,2.3906 3.0703,3.5859 5.50781,3.5859 2.45311,0 4.28905,-1.1953 5.50782,-3.5859 1.23435,-2.4063 1.85154,-6.0078 1.85156,-10.8047 -2e-5,-4.8125 -0.61721,-8.414 -1.85156,-10.8047 -1.21877,-2.4062 -3.05471,-3.6093 -5.50782,-3.6094 m 0,-3.75 c 3.92186,10e-5 6.91404,1.5548 8.97657,4.6641 2.07809,3.0938 3.11716,7.5938 3.11718,13.5 -2e-5,5.8906 -1.03909,10.3906 -3.11718,13.5 -2.06253,3.0938 -5.05471,4.6406 -8.97657,4.6406 -3.92188,0 -6.92188,-1.5468 -9,-4.6406 -2.0625,-3.1094 -3.09375,-7.6094 -3.09375,-13.5 0,-5.9062 1.03125,-10.4062 3.09375,-13.5 2.07812,-3.1093 5.07812,-4.664 9,-4.6641"
       inkscape:label="#path3913" />
    <path
       inkscape:connector-curvature="0"
       id="SignPercent"
       style="font-size:48px;font-style:normal;font-weight:normal;text-align:center;line-height:125%;letter-spacing:0px;word-spacing:0px;text-anchor:middle;fill:#000000;fill-opacity:1;stroke:none;font-family:Bitstream Vera Sans"
       d="m 306.08014,1105.0979 c -1.35941,0 -2.42972,0.5781 -3.21094,1.7344 -0.76566,1.1562 -1.14847,2.7656 -1.14844,4.8281 -3e-5,2.0313 0.38278,3.6328 1.14844,4.8047 0.78122,1.1562 1.85153,1.7344 3.21094,1.7344 1.32809,0 2.37496,-0.5782 3.14062,-1.7344 0.78121,-1.1719 1.17184,-2.7734 1.17188,-4.8047 -4e-5,-2.0469 -0.39067,-3.6484 -1.17188,-4.8047 -0.76566,-1.1718 -1.81253,-1.7578 -3.14062,-1.7578 m 0,-2.9766 c 2.46871,10e-5 4.42965,0.8594 5.88281,2.5782 1.45308,1.7187 2.17965,4.039 2.17969,6.9609 -4e-5,2.9219 -0.73442,5.2422 -2.20313,6.9609 -1.45316,1.7032 -3.40628,2.5547 -5.85937,2.5547 -2.50003,0 -4.47659,-0.8515 -5.92969,-2.5547 -1.45315,-1.7187 -2.17971,-4.039 -2.17969,-6.9609 -2e-5,-2.9375 0.72654,-5.2578 2.17969,-6.9609 1.46872,-1.7188 3.44528,-2.5781 5.92969,-2.5782 m -24.1875,-14.2734 c -1.34376,0 -2.40626,0.586 -3.1875,1.7578 -0.76563,1.1563 -1.14845,2.75 -1.14844,4.7813 -10e-6,2.0625 0.38281,3.6719 1.14844,4.8281 0.76561,1.1563 1.82811,1.7344 3.1875,1.7344 1.35936,0 2.42186,-0.5781 3.1875,-1.7344 0.78123,-1.1562 1.17186,-2.7656 1.17187,-4.8281 -10e-6,-2.0156 -0.39064,-3.6094 -1.17187,-4.7813 -0.78126,-1.1718 -1.84376,-1.7578 -3.1875,-1.7578 m 21.16406,-2.9766 3.75,0 -21.89062,36.3047 -3.75,0 21.89062,-36.3047 m -21.16406,0 c 2.46874,10e-5 4.43748,0.8594 5.90625,2.5782 1.46873,1.7031 2.2031,4.0156 2.20312,6.9375 -2e-5,2.9531 -0.73439,5.2812 -2.20312,6.9843 -1.45314,1.7032 -3.42189,2.5547 -5.90625,2.5547 -2.48438,0 -4.45313,-0.8515 -5.90625,-2.5547 -1.43751,-1.7187 -2.15625,-4.0468 -2.15625,-6.9843 0,-2.9063 0.72656,-5.2188 2.17969,-6.9375 1.45311,-1.7188 3.41405,-2.5781 5.88281,-2.5782"
       inkscape:label="#path3915" />
    <path
       inkscape:connector-curvature="0"
       id="SignG"
       style="font-size:48px;font-style:normal;font-weight:normal;text-align:center;line-height:125%;letter-spacing:0px;word-spacing:0px;text-anchor:middle;fill:#000000;fill-opacity:1;stroke:none;font-family:Bitstream Vera Sans"
       d="m 207.64264,1175.5042 0,-9.3985 -7.73438,0 0,-3.8906 12.42188,0 0,15.0234 c -1.82816,1.2969 -3.84378,2.2813 -6.04688,2.9532 -2.20315,0.6562 -4.55471,0.9843 -7.05468,0.9843 -5.46877,0 -9.75001,-1.5937 -12.84375,-4.7812 -3.07813,-3.2031 -4.61719,-7.6563 -4.61719,-13.3594 0,-5.7187 1.53906,-10.1718 4.61719,-13.3594 3.09374,-3.2031 7.37498,-4.8046 12.84375,-4.8047 2.28122,10e-5 4.44528,0.2813 6.49218,0.8438 2.06247,0.5625 3.96091,1.3906 5.69532,2.4844 l 0,5.039 c -1.75003,-1.4843 -3.60941,-2.6015 -5.57813,-3.3515 -1.96877,-0.75 -4.03908,-1.125 -6.21094,-1.125 -4.28126,0 -7.50001,1.1953 -9.65625,3.5859 -2.14063,2.3907 -3.21094,5.9531 -3.21093,10.6875 -1e-5,4.7188 1.0703,8.2734 3.21093,10.6641 2.15624,2.3906 5.37499,3.5859 9.65625,3.5859 1.67186,0 3.16404,-0.1406 4.47657,-0.4219 1.31247,-0.2968 2.49216,-0.75 3.53906,-1.3593"
       inkscape:label="#path3917" />
    <path
       inkscape:connector-curvature="0"
       id="SignR"
       style="font-size:48px;font-style:normal;font-weight:normal;text-align:center;line-height:125%;letter-spacing:0px;word-spacing:0px;text-anchor:middle;fill:#000000;fill-opacity:1;stroke:none;font-family:Bitstream Vera Sans"
       d="m 237.59576,1164.0901 c 1.01561,0.3438 1.99998,1.0781 2.95313,2.2031 0.96872,1.125 1.93747,2.6719 2.90625,4.6406 l 4.80469,9.5625 -5.08594,0 -4.47656,-8.9765 c -1.15628,-2.3438 -2.28127,-3.8984 -3.375,-4.6641 -1.07815,-0.7656 -2.55471,-1.1484 -4.42969,-1.1484 l -5.15625,0 0,14.789 -4.73438,0 0,-34.9921 10.6875,0 c 3.99998,0 6.98436,0.8359 8.95313,2.5078 1.96872,1.6719 2.9531,4.1953 2.95312,7.5703 -2e-5,2.2031 -0.51565,4.0312 -1.54687,5.4844 -1.01565,1.4531 -2.50002,2.4609 -4.45313,3.0234 m -11.85937,-14.6953 0,12.4219 5.95312,0 c 2.28124,0 3.99998,-0.5235 5.15625,-1.5704 1.17186,-1.0624 1.75779,-2.6171 1.75782,-4.664 -3e-5,-2.0469 -0.58596,-3.5859 -1.75782,-4.6172 -1.15627,-1.0469 -2.87501,-1.5703 -5.15625,-1.5703 l -5.95312,0"
       inkscape:label="#path3919" />
    <path
       inkscape:connector-curvature="0"
       id="SignA"
       style="font-size:48px;font-style:normal;font-weight:normal;text-align:center;line-height:125%;letter-spacing:0px;word-spacing:0px;text-anchor:middle;fill:#000000;fill-opacity:1;stroke:none;font-family:Bitstream Vera Sans"
       d="m 264.10358,1150.1682 -6.42188,17.4141 12.86719,0 -6.44531,-17.4141 m -2.67188,-4.664 5.36719,0 13.33594,34.9921 -4.92188,0 -3.1875,-8.9765 -15.77344,0 -3.1875,8.9765 -4.99218,0 13.35937,-34.9921"
       inkscape:label="#path3921" />
    <path
       inkscape:connector-curvature="0"
       id="SignD"
       style="font-size:48px;font-style:normal;font-weight:normal;text-align:center;line-height:125%;letter-spacing:0px;word-spacing:0px;text-anchor:middle;fill:#000000;fill-opacity:1;stroke:none;font-family:Bitstream Vera Sans"
       d="m 289.95514,1149.3948 0,27.2109 5.71875,0 c 4.8281,0 8.35935,-1.0937 10.59375,-3.2812 2.24997,-2.1875 3.37497,-5.6406 3.375,-10.3594 -3e-5,-4.6875 -1.12503,-8.1172 -3.375,-10.2891 -2.2344,-2.1874 -5.76565,-3.2812 -10.59375,-3.2812 l -5.71875,0 m -4.73438,-3.8906 9.72657,0 c 6.78122,0 11.75778,1.414 14.92968,4.2421 3.17185,2.8126 4.75778,7.2188 4.75782,13.2188 -4e-5,6.0312 -1.59379,10.4609 -4.78125,13.2891 -3.18753,2.8281 -8.15628,4.2421 -14.90625,4.2421 l -9.72657,0 0,-34.9921"
       inkscape:label="#path3923" />
    <path
       inkscape:connector-curvature="0"
       id="SignE"
       style="font-size:48px;font-style:normal;font-weight:normal;text-align:center;line-height:125%;letter-spacing:0px;word-spacing:0px;text-anchor:middle;fill:#000000;fill-opacity:1;stroke:none;font-family:Bitstream Vera Sans"
       d="m 322.15826,1145.5042 22.125,0 0,3.9843 -17.39062,0 0,10.3594 16.66406,0 0,3.9844 -16.66406,0 0,12.6797 17.8125,0 0,3.9843 -22.54688,0 0,-34.9921"
       inkscape:label="#path3925" />
  </g>
</svg>
