<?xml version="1.0" encoding="UTF-8" standalone="no"?>
<!-- Created with Inkscape (http://www.inkscape.org/) -->
<svg
   xmlns:dc="http://purl.org/dc/elements/1.1/"
   xmlns:cc="http://web.resource.org/cc/"
   xmlns:rdf="http://www.w3.org/1999/02/22-rdf-syntax-ns#"
   xmlns:svg="http://www.w3.org/2000/svg"
   xmlns="http://www.w3.org/2000/svg"
   xmlns:sodipodi="http://sodipodi.sourceforge.net/DTD/sodipodi-0.dtd"
   xmlns:inkscape="http://www.inkscape.org/namespaces/inkscape"
   id="svg1941"
   sodipodi:version="0.32"
   inkscape:version="0.44.1"
   width="116.21875"
   height="53.173149"
   version="1.0"
   sodipodi:docbase="o:\usr\codebase\pov\Pegasus\svg"
   sodipodi:docname="ATKBlue.svg"
   inkscape:export-filename="o:\usr\codebase\pov\Pegasus\svg\ATKBlue.svg.png"
   inkscape:export-xdpi="774.40002"
   inkscape:export-ydpi="774.40002">
  <metadata
     id="metadata1946">
    <rdf:RDF>
      <cc:Work
         rdf:about="">
        <dc:format>image/svg+xml</dc:format>
        <dc:type
           rdf:resource="http://purl.org/dc/dcmitype/StillImage" />
      </cc:Work>
    </rdf:RDF>
  </metadata>
  <defs
     id="defs1944" />
  <sodipodi:namedview
     inkscape:window-height="1174"
     inkscape:window-width="1807"
     inkscape:pageshadow="2"
     inkscape:pageopacity="0.0"
     guidetolerance="10.0"
     gridtolerance="10.0"
     objecttolerance="10.0"
     borderopacity="1.0"
     bordercolor="#666666"
     pagecolor="#ffffff"
     id="base"
     showguides="true"
     inkscape:guide-bbox="true"
     inkscape:guide-points="true"
     inkscape:grid-bbox="false"
     inkscape:object-paths="false"
     inkscape:zoom="5.1543624"
     inkscape:cx="99.350484"
     inkscape:cy="13.00921"
     inkscape:window-x="109"
     inkscape:window-y="-4"
     inkscape:current-layer="svg1941" />
  <path
     style="fill:navy;fill-opacity:1;fill-rule:evenodd;stroke:none;stroke-width:1px;stroke-linecap:butt;stroke-linejoin:miter;stroke-opacity:1"
     d="M 35.3125,0 L 19.21875,27.75 L 26.96875,27.75 L 29.78125,22.5 L 40.09375,22.5 L 40.5625,27.75 L 49.28125,27.75 L 44.4375,0 L 35.3125,0 z M 38.625,6.03125 L 39.65625,17.46875 L 32.5,17.46875 L 38.625,6.03125 z "
     id="path1962" />
  <path
     style="fill:navy;fill-opacity:1;stroke:none;stroke-width:9.69999981;stroke-linecap:butt;stroke-linejoin:round;stroke-miterlimit:4;stroke-dashoffset:0;stroke-opacity:1"
     d="M 49.09375,0 L 47.9375,6.03125 L 55.84375,6.03125 L 51.625,27.75 L 58.78125,27.75 L 63.03125,6.03125 L 71.40625,6.03125 L 72.5625,0 L 49.09375,0 z "
     id="rect2854"
     sodipodi:nodetypes="ccccccccc" />
  <path
     style="fill:navy;fill-opacity:1;stroke:none;stroke-width:9.69999981;stroke-linecap:butt;stroke-linejoin:round;stroke-miterlimit:4;stroke-dashoffset:0;stroke-opacity:1"
     inkscape:transform-center-x="-3.5891926"
     inkscape:transform-center-y="-13.871745"
     d="M 74.118487,0.002604 L 81.296873,0.002604 L 75.864581,27.746094 L 68.686195,27.746094 L 74.118487,0.002604 z "
     id="rect2861"
     sodipodi:nodetypes="ccccc" />
  <path
     style="fill:navy;fill-opacity:1;fill-rule:evenodd;stroke:none;stroke-width:1px;stroke-linecap:butt;stroke-linejoin:miter;stroke-opacity:1"
     d="M 90.02734,0.002604 L 78.77474,13.001302 L 84.595052,27.746094 L 93.71354,27.746094 L 86.92318,13.001302 L 98.5638,0.002604 L 90.02734,0.002604 z "
     id="path2864" />
  <g
     style="fill:navy;fill-opacity:1"
     id="g3791"
     transform="matrix(1,0,0,1.136948,-14.15625,-8.54181)">
    <path
       id="path3753"
       d="M 33.8125,26.34375 C 21.868839,29.202727 14.15625,33.653229 14.15625,38.65625 C 14.15625,47.277302 36.981632,54.281251 65.09375,54.28125 C 72.02795,54.28125 78.629469,53.833274 84.65625,53.0625 C 80.217233,53.464788 75.561717,53.6875 70.71875,53.6875 C 42.60663,53.687501 19.78125,46.442336 19.78125,37.5 C 19.78125,33.179424 25.136178,29.249168 33.8125,26.34375 z "
       style="opacity:1;fill:navy;fill-opacity:1;stroke:none;stroke-width:9.69999981;stroke-linecap:butt;stroke-linejoin:round;stroke-miterlimit:4;stroke-dasharray:none;stroke-dashoffset:0;stroke-opacity:1" />
    <path
       id="path3764"
       d="M 108.46875,24.53125 C 118.0624,27.289472 124.15625,31.37514 124.15625,35.9375 C 124.15625,44.237264 104.0422,50.96875 79.25,50.96875 C 74.702727,50.96875 70.325164,50.733802 66.1875,50.3125 C 72.037862,51.223174 78.557825,51.75 85.46875,51.75 C 110.26095,51.75 130.375,45.179328 130.375,37.09375 C 130.375,31.753017 121.57379,27.090597 108.46875,24.53125 z "
       style="opacity:1;fill:navy;fill-opacity:1;stroke:none;stroke-width:9.69999981;stroke-linecap:butt;stroke-linejoin:round;stroke-miterlimit:4;stroke-dasharray:none;stroke-dashoffset:0;stroke-opacity:1" />
  </g>
  <path
     style="font-size:32.85695648px;font-style:normal;font-weight:bold;fill:navy;fill-opacity:1;stroke:none;stroke-width:1px;stroke-linecap:butt;stroke-linejoin:miter;stroke-opacity:1;font-family:Lucida Console"
     d="M 22.924201,37.970243 L 21.544465,37.970243 L 21.134689,38.617329 L 19.896671,38.617329 L 22.702099,34.697383 L 24.023009,34.697383 L 24.164225,38.617329 L 22.896793,38.617329 L 22.924201,37.970243 z M 22.958293,37.122615 L 23.003917,35.713467 L 22.094621,37.122615 L 22.958293,37.122615 z M 25.881373,34.697383 L 27.092653,34.697383 L 26.088601,37.652049 L 27.979052,37.652049 L 27.650998,38.617329 L 24.549267,38.617329 L 25.881373,34.697383 z M 29.539276,34.697383 L 30.750556,34.697383 L 29.746504,37.652049 L 31.636956,37.652049 L 31.308901,38.617329 L 28.20717,38.617329 L 29.539276,34.697383 z M 33.24531,34.697383 L 34.459263,34.697383 L 33.127157,38.617329 L 31.913204,38.617329 L 33.24531,34.697383 z M 36.625294,37.970243 L 35.245559,37.970243 L 34.835783,38.617329 L 33.597765,38.617329 L 36.403193,34.697383 L 37.724103,34.697383 L 37.865318,38.617329 L 36.597887,38.617329 L 36.625294,37.970243 z M 36.659387,37.122615 L 36.70501,35.713467 L 35.795715,37.122615 L 36.659387,37.122615 z M 39.590488,34.697383 L 40.72155,34.697383 L 41.460718,36.86592 L 42.197546,34.697383 L 43.339304,34.697383 L 42.007197,38.617329 L 40.865439,38.617329 L 40.128946,36.464834 L 39.397465,38.617329 L 38.258381,38.617329 L 39.590488,34.697383 z M 43.874086,34.697383 L 47.556054,34.697383 L 47.227163,35.665337 L 45.991819,35.665337 L 44.988603,38.617329 L 43.777324,38.617329 L 44.78054,35.665337 L 43.545195,35.665337 L 43.874086,34.697383 z M 49.660417,34.697383 L 53.342385,34.697383 L 53.013495,35.665337 L 51.77815,35.665337 L 50.774934,38.617329 L 49.563655,38.617329 L 50.566871,35.665337 L 49.331526,35.665337 L 49.660417,34.697383 z M 53.890537,34.697383 L 57.136659,34.697383 L 56.852222,35.534315 L 54.820054,35.534315 L 54.608481,36.157335 L 56.493585,36.157335 L 56.221849,36.956833 L 54.336745,36.956833 L 54.074034,37.729592 L 56.165028,37.729592 L 55.863378,38.617329 L 52.558431,38.617329 L 53.890537,34.697383 z M 59.672522,37.015659 L 60.625101,37.336528 C 60.45263,37.634224 60.255819,37.882897 60.034669,38.082547 C 59.813511,38.282199 59.572024,38.432829 59.310208,38.534438 C 59.048385,38.636046 58.741889,38.68685 58.390719,38.68685 C 57.964674,38.68685 57.637651,38.624905 57.409646,38.501014 C 57.181639,38.377123 57.022625,38.1592 56.932604,37.847244 C 56.842582,37.535289 56.88024,37.135986 57.045577,36.649334 C 57.266062,36.000469 57.607987,35.501786 58.071354,35.153284 C 58.534717,34.804788 59.08192,34.630539 59.712965,34.630535 C 60.206742,34.630539 60.560979,34.730365 60.775675,34.930013 C 60.990363,35.129668 61.096094,35.436275 61.092868,35.849836 L 59.94242,36.087814 C 59.945535,35.968382 59.93601,35.881034 59.913842,35.825771 C 59.877629,35.733078 59.818971,35.661774 59.737866,35.611859 C 59.656754,35.561949 59.555591,35.536992 59.434377,35.536989 C 59.159853,35.536992 58.91196,35.647514 58.690697,35.868553 C 58.524467,36.032556 58.381636,36.290142 58.262204,36.641312 C 58.114469,37.076269 58.079123,37.374409 58.156167,37.535734 C 58.233207,37.69706 58.391162,37.777723 58.630033,37.777722 C 58.861769,37.777723 59.059025,37.712658 59.221802,37.582527 C 59.384573,37.452398 59.534813,37.263442 59.672522,37.015659 L 59.672522,37.015659 z M 62.112796,34.697383 L 63.324076,34.697383 L 62.85798,36.069096 L 64.181564,36.069096 L 64.647659,34.697383 L 65.864286,34.697383 L 64.53218,38.617329 L 63.315553,38.617329 L 63.854345,37.031702 L 62.530761,37.031702 L 61.991969,38.617329 L 60.78069,38.617329 L 62.112796,34.697383 z M 65.571828,37.320484 L 66.748848,37.248289 C 66.710186,37.435463 66.712526,37.578072 66.755867,37.676114 C 66.826724,37.834766 66.978022,37.914092 67.209763,37.914091 C 67.382673,37.914092 67.52971,37.873538 67.650874,37.792429 C 67.772032,37.711321 67.850773,37.617289 67.887097,37.510332 C 67.921632,37.408724 67.907984,37.317812 67.846152,37.237593 C 67.784204,37.157378 67.603159,37.081617 67.303015,37.010311 C 66.812352,36.890879 66.487472,36.732227 66.328377,36.534356 C 66.167384,36.336489 66.139029,36.084251 66.243313,35.777641 C 66.311719,35.576209 66.434746,35.385917 66.612396,35.206762 C 66.790041,35.027614 67.013479,34.886788 67.28271,34.784285 C 67.551937,34.681789 67.890659,34.630539 68.298878,34.630535 C 68.799786,34.630539 69.150067,34.72368 69.349723,34.909958 C 69.54937,35.096244 69.605076,35.392601 69.516842,35.799032 L 68.352356,35.86588 C 68.3821,35.689405 68.362018,35.561057 68.29211,35.480837 C 68.222195,35.400623 68.101674,35.360515 67.930548,35.360511 C 67.789719,35.360515 67.673516,35.390373 67.581937,35.450087 C 67.490353,35.509808 67.430023,35.582449 67.400947,35.668011 C 67.379665,35.730405 67.38997,35.786557 67.431864,35.836467 C 67.471302,35.888165 67.590402,35.936295 67.789165,35.980858 C 68.279823,36.094947 68.619855,36.21037 68.80926,36.327128 C 68.998657,36.443891 69.116114,36.588727 69.161631,36.761638 C 69.207138,36.934552 69.193574,37.127965 69.120937,37.341876 C 69.035479,37.593224 68.887189,37.824962 68.676066,38.037091 C 68.464935,38.249221 68.215956,38.410101 67.929127,38.519731 C 67.642292,38.629361 67.309029,38.684176 66.929337,38.684176 C 66.262642,38.684176 65.844566,38.555829 65.675108,38.299134 C 65.505649,38.042439 65.471222,37.716223 65.571828,37.320484 L 65.571828,37.320484 z M 70.236121,34.697383 L 71.581095,34.697383 L 71.922854,36.020966 L 73.164048,34.697383 L 74.501,34.697383 L 72.202778,36.97555 L 71.644768,38.617329 L 70.430814,38.617329 L 70.988825,36.97555 L 70.236121,34.697383 z M 73.786066,37.320484 L 74.963086,37.248289 C 74.924424,37.435463 74.926763,37.578072 74.970105,37.676114 C 75.040961,37.834766 75.19226,37.914092 75.424,37.914091 C 75.59691,37.914092 75.743947,37.873538 75.865111,37.792429 C 75.986269,37.711321 76.06501,37.617289 76.101334,37.510332 C 76.135869,37.408724 76.122221,37.317812 76.06039,37.237593 C 75.998441,37.157378 75.817396,37.081617 75.517253,37.010311 C 75.026589,36.890879 74.70171,36.732227 74.542614,36.534356 C 74.381621,36.336489 74.353267,36.084251 74.45755,35.777641 C 74.525956,35.576209 74.648984,35.385917 74.826633,35.206762 C 75.004279,35.027614 75.227717,34.886788 75.496948,34.784285 C 75.766174,34.681789 76.104896,34.630539 76.513115,34.630535 C 77.014023,34.630539 77.364304,34.72368 77.56396,34.909958 C 77.763607,35.096244 77.819314,35.392601 77.731079,35.799032 L 76.566593,35.86588 C 76.596337,35.689405 76.576255,35.561057 76.506347,35.480837 C 76.436432,35.400623 76.315912,35.360515 76.144785,35.360511 C 76.003956,35.360515 75.887753,35.390373 75.796174,35.450087 C 75.70459,35.509808 75.644261,35.582449 75.615184,35.668011 C 75.593902,35.730405 75.604208,35.786557 75.646101,35.836467 C 75.685539,35.888165 75.804639,35.936295 76.003402,35.980858 C 76.49406,36.094947 76.834092,36.21037 77.023497,36.327128 C 77.212895,36.443891 77.330351,36.588727 77.375868,36.761638 C 77.421376,36.934552 77.407811,37.127965 77.335174,37.341876 C 77.249717,37.593224 77.101426,37.824962 76.890303,38.037091 C 76.679172,38.249221 76.430193,38.410101 76.143364,38.519731 C 75.856529,38.629361 75.523266,38.684176 75.143574,38.684176 C 74.476879,38.684176 74.058803,38.555829 73.889345,38.299134 C 73.719886,38.042439 73.685459,37.716223 73.786066,37.320484 L 73.786066,37.320484 z M 78.570687,34.697383 L 82.252656,34.697383 L 81.923765,35.665337 L 80.688421,35.665337 L 79.685205,38.617329 L 78.473925,38.617329 L 79.477142,35.665337 L 78.241797,35.665337 L 78.570687,34.697383 z M 82.800804,34.697383 L 86.04693,34.697383 L 85.762489,35.534315 L 83.730321,35.534315 L 83.518748,36.157335 L 85.403852,36.157335 L 85.132116,36.956833 L 83.247012,36.956833 L 82.984301,37.729592 L 85.075295,37.729592 L 84.773645,38.617329 L 81.468698,38.617329 L 82.800804,34.697383 z M 86.74749,34.697383 L 88.34114,34.697383 L 88.14561,37.082507 L 89.56846,34.697383 L 91.15676,34.697383 L 89.82466,38.617329 L 88.83531,38.617329 L 89.85123,35.627902 L 88.0679,38.617329 L 87.17214,38.617329 L 87.42332,35.627902 L 86.4074,38.617329 L 85.415384,38.617329 L 86.74749,34.697383 z M 90.82419,37.320484 L 92.00121,37.248289 C 91.96255,37.435463 91.96489,37.578072 92.00823,37.676114 C 92.07909,37.834766 92.23039,37.914092 92.46213,37.914091 C 92.63504,37.914092 92.78207,37.873538 92.90324,37.792429 C 93.0244,37.711321 93.10314,37.617289 93.13946,37.510332 C 93.174,37.408724 93.16035,37.317812 93.09852,37.237593 C 93.03657,37.157378 92.85552,37.081617 92.55538,37.010311 C 92.06472,36.890879 91.73984,36.732227 91.58074,36.534356 C 91.41975,36.336489 91.39139,36.084251 91.49568,35.777641 C 91.56408,35.576209 91.68711,35.385917 91.86476,35.206762 C 92.04241,35.027614 92.26584,34.886788 92.53508,34.784285 C 92.8043,34.681789 93.14302,34.630539 93.55124,34.630535 C 94.05215,34.630539 94.40243,34.72368 94.60209,34.909958 C 94.80174,35.096244 94.85744,35.392601 94.76921,35.799032 L 93.60472,35.86588 C 93.63447,35.689405 93.61438,35.561057 93.54447,35.480837 C 93.47456,35.400623 93.35404,35.360515 93.18291,35.360511 C 93.04208,35.360515 92.92588,35.390373 92.8343,35.450087 C 92.74272,35.509808 92.68239,35.582449 92.65331,35.668011 C 92.63203,35.730405 92.64234,35.786557 92.68423,35.836467 C 92.72367,35.888165 92.84277,35.936295 93.04153,35.980858 C 93.53219,36.094947 93.87222,36.21037 94.06162,36.327128 C 94.25102,36.443891 94.36848,36.588727 94.414,36.761638 C 94.4595,36.934552 94.44594,37.127965 94.3733,37.341876 C 94.28784,37.593224 94.13955,37.824962 93.92843,38.037091 C 93.7173,38.249221 93.46832,38.410101 93.18149,38.519731 C 92.89466,38.629361 92.56139,38.684176 92.1817,38.684176 C 91.51501,38.684176 91.09693,38.555829 90.92747,38.299134 C 90.75801,38.042439 90.72359,37.716223 90.82419,37.320484 L 90.82419,37.320484 z "
     id="text3795" />
</svg>
