<?xml version="1.0" encoding="UTF-8" standalone="no"?>
<!-- Created with Inkscape (http://www.inkscape.org/) -->
<svg
   xmlns:dc="http://purl.org/dc/elements/1.1/"
   xmlns:cc="http://web.resource.org/cc/"
   xmlns:rdf="http://www.w3.org/1999/02/22-rdf-syntax-ns#"
   xmlns:svg="http://www.w3.org/2000/svg"
   xmlns="http://www.w3.org/2000/svg"
   xmlns:sodipodi="http://inkscape.sourceforge.net/DTD/sodipodi-0.dtd"
   xmlns:inkscape="http://www.inkscape.org/namespaces/inkscape"
   width="1000.0000px"
   height="1000.0000px"
   id="svg5698"
   sodipodi:version="0.32"
   inkscape:version="0.42.2"
   sodipodi:docbase="/usr/codebase/pov/Pegasus"
   sodipodi:docname="KwanLogo.svg">
  <defs
     id="defs5700" />
  <sodipodi:namedview
     id="base"
     pagecolor="#ffffff"
     bordercolor="#666666"
     borderopacity="1.0"
     inkscape:pageopacity="0.0"
     inkscape:pageshadow="2"
     inkscape:zoom="1.4000000"
     inkscape:cx="646.06932"
     inkscape:cy="909.47014"
     inkscape:document-units="px"
     inkscape:current-layer="svg5698"
     showguides="true"
     inkscape:guide-bbox="true"
     inkscape:window-width="946"
     inkscape:window-height="743"
     inkscape:window-x="0"
     inkscape:window-y="0" />
  <metadata
     id="metadata5703">
    <rdf:RDF>
      <cc:Work
         rdf:about="">
        <dc:format>image/svg+xml</dc:format>
        <dc:type
           rdf:resource="http://purl.org/dc/dcmitype/StillImage" />
      </cc:Work>
    </rdf:RDF>
  </metadata>
  <path
     style="fill:#ff8000;fill-opacity:1.0000000;stroke:none;stroke-width:1.0000000;stroke-miterlimit:4.0000000;stroke-dasharray:none;stroke-opacity:1.0000000"
     d="M 500.00000 0.0000000 C 476.81625 0.0000000 454.03550 1.7221716 431.68750 4.7812500 L 343.75000 312.50000 L 421.87500 312.50000 L 328.12500 515.62500 L 625.00000 312.50000 L 562.50000 312.50000 L 793.31250 95.250000 C 710.89177 35.397862 609.57751 -4.4105189e-14 500.00000 0.0000000 z M 194.56250 104.34375 C 76.279852 195.81490 -3.9840377e-17 339.01638 0.0000000 500.00000 C 1.2171229e-14 588.64507 23.203793 671.87538 63.718750 744.09375 L 194.56250 104.34375 z M 924.96875 236.71875 L 640.62500 484.37500 L 843.68750 862.84375 C 939.87267 771.69883 1000.0000 642.86850 1000.0000 500.00000 C 1000.0000 403.39449 972.47925 313.20704 924.96875 236.71875 z M 484.37500 625.00000 L 265.62500 796.87500 L 246.46875 930.87500 C 320.82844 974.74665 407.47023 1000.0000 500.00000 1000.0000 C 555.56404 1000.0000 608.96067 990.78499 658.90625 974.03125 L 484.37500 625.00000 z "
     id="path5710" />
</svg>
