<?xml version="1.0" encoding="UTF-8" standalone="no"?>
<svg
   xmlns:dc="http://purl.org/dc/elements/1.1/"
   xmlns:cc="http://web.resource.org/cc/"
   xmlns:rdf="http://www.w3.org/1999/02/22-rdf-syntax-ns#"
   xmlns:svg="http://www.w3.org/2000/svg"
   xmlns="http://www.w3.org/2000/svg"
   xmlns:sodipodi="http://sodipodi.sourceforge.net/DTD/sodipodi-0.dtd"
   xmlns:inkscape="http://www.inkscape.org/namespaces/inkscape"
   width="1000"
   height="1131.813"
   viewBox="0 0 1024 1024"
   id="svg2"
   sodipodi:version="0.32"
   inkscape:version="0.45.1"
   sodipodi:docname="Nadesico.svg"
   inkscape:output_extension="org.inkscape.output.svg.inkscape"
   sodipodi:docbase="O:\usr\codebase\pov\Pegasus\svg"
   version="1.0">
  <metadata
     id="metadata11">
    <rdf:RDF>
      <cc:Work
         rdf:about="">
        <dc:format>image/svg+xml</dc:format>
        <dc:type
           rdf:resource="http://purl.org/dc/dcmitype/StillImage" />
      </cc:Work>
    </rdf:RDF>
  </metadata>
  <defs
     id="defs9" />
  <sodipodi:namedview
     inkscape:window-height="1144"
     inkscape:window-width="1600"
     inkscape:pageshadow="2"
     inkscape:pageopacity="0.0"
     guidetolerance="10.0"
     gridtolerance="10.0"
     objecttolerance="10.0"
     borderopacity="1.0"
     bordercolor="#666666"
     pagecolor="#ffffff"
     id="base"
     width="1000px"
     height="1131.813px"
     inkscape:zoom="0.41653072"
     inkscape:cx="639.99902"
     inkscape:cy="566.11222"
     inkscape:window-x="-4"
     inkscape:window-y="-4"
     inkscape:current-layer="svg2" />
  <path
     id="Circle"
     d="M 5.1256957,579.48836 C 5.1256957,299.54568 232.05733,72.614069 512.00003,72.614069 C 791.94273,72.614069 1018.8743,299.54568 1018.8743,579.48836 C 1018.8743,859.43105 791.94273,1086.3626 512.00003,1086.3626 C 232.05733,1086.3626 5.1256957,859.43105 5.1256957,579.48836 z "
     style="fill:none;stroke:#000000;stroke-width:10.25139141" />
  <path
     id="NERGAL ND-001"
     d="M 306.65327,762.12258 C 305.98125,761.86061 304.92193,761.73531 303.45256,761.73531 C 300.85555,761.73531 299.02168,761.82643 297.97377,761.99728 C 294.87557,762.50986 293.2809,763.75142 293.1784,765.72196 C 293.13283,766.57625 293.25813,767.30523 293.55428,767.89753 C 293.85042,768.47843 294.41995,769.08213 295.24007,769.70859 C 295.74124,770.05032 296.09435,770.4262 296.29937,770.81348 C 296.5044,771.20074 296.65248,771.79305 296.76637,772.57899 C 297.03976,774.73178 297.05114,778.19447 296.78916,782.95568 C 296.54997,787.39794 296.18547,790.81507 295.71847,793.18428 C 295.44508,794.49418 294.80722,795.39402 293.80487,795.9066 C 292.80252,796.70392 292.14187,797.3418 291.83432,797.8088 C 291.52678,798.27581 291.35593,798.97062 291.31036,799.89325 C 291.23063,801.18037 291.92545,802.15995 293.38342,802.84337 C 294.8414,803.53819 296.92585,803.8799 299.62538,803.8799 C 305.3206,803.8799 308.24793,802.54721 308.39602,799.89325 C 308.47575,798.25303 307.79232,796.93174 306.33435,795.9066 C 305.4345,795.45098 304.85359,794.74477 304.61439,793.78797 C 304.3752,792.83118 304.31824,791.03149 304.46632,788.4003 C 304.63717,785.15402 305.4231,783.53658 306.78996,783.53658 C 307.72398,783.53658 308.86302,784.08333 310.2071,785.17681 C 310.2071,785.17681 326.96243,801.72711 326.96243,801.72711 C 327.96478,802.64973 328.69376,803.24204 329.138,803.49262 C 329.59362,803.75461 330.12896,803.8799 330.75543,803.8799 C 332.20202,803.8799 333.26134,802.93449 333.92198,801.05507 C 334.45733,799.52875 334.79904,797.05703 334.9699,793.62851 C 335.0838,791.11123 335.17492,789.12929 335.25466,787.67131 C 335.25466,787.67131 335.77862,778.16029 335.77862,778.16029 C 336.00643,774.5837 336.51899,772.14615 337.29355,770.87042 C 337.52136,770.48315 337.78334,770.19839 338.07949,770.01614 C 338.37563,769.81111 338.75152,769.54913 339.20714,769.2302 C 340.3234,768.43287 340.92709,767.25966 341.01821,765.72196 C 341.10934,764.05895 340.30062,762.9313 338.58066,762.32761 C 337.50997,761.92895 335.5508,761.73531 332.69181,761.73531 C 330.28842,761.73531 328.60264,761.84921 327.63446,762.07702 C 325.26525,762.62377 324.03508,763.83115 323.93257,765.72196 C 323.87561,766.65598 324.0123,767.41914 324.31984,768.02282 C 324.62738,768.61512 325.18552,769.17325 325.99424,769.70859 C 326.90547,770.10726 327.48638,770.72234 327.72559,771.54246 C 327.97617,772.35118 328.04451,773.86611 327.91922,776.07586 C 327.80532,778.17169 327.16746,779.20822 326.00563,779.20822 C 325.3222,779.20822 324.24011,778.61592 322.73658,777.41992 C 322.73658,777.41992 308.97693,763.81976 308.97693,763.81976 C 308.09986,762.94269 307.32531,762.37317 306.65327,762.12258 z M 345.49466,763.19328 C 344.86818,763.37554 344.34422,763.75142 343.93416,764.33232 C 343.52412,764.90184 343.2963,765.5511 343.26214,766.29149 C 343.15962,768.057 343.86582,769.19603 345.35797,769.70859 C 345.82498,769.90223 346.13252,770.06171 346.26921,770.20978 C 346.41728,770.33508 346.54258,770.57427 346.65648,770.9046 C 347.16905,772.62455 347.24878,776.75927 346.88429,783.30878 C 346.6451,787.64854 346.21225,791.11123 345.57439,793.68547 C 345.41493,794.30055 345.22129,794.77894 344.98209,795.10926 C 344.74289,795.4282 344.38979,795.69018 343.92278,795.9066 C 342.90903,796.5103 342.25977,797.01147 341.96362,797.42153 C 341.67886,797.8088 341.508,798.44666 341.45106,799.32373 C 341.3941,800.40582 341.6333,801.24871 342.15726,801.85241 C 342.69262,802.44471 343.47855,802.74085 344.50369,802.74085 C 344.50369,802.74085 369.99549,802.74085 369.99549,802.74085 C 372.12549,802.84337 373.81128,803.11674 375.07562,803.56097 C 375.78182,803.77738 376.32856,803.8799 376.71584,803.8799 C 377.17145,803.8799 377.55873,803.76599 377.86627,803.5268 C 378.19659,803.29898 378.59526,802.84337 379.08505,802.17133 C 380.07601,800.77031 380.93029,799.17565 381.63651,797.38735 C 382.3541,795.58766 382.74138,794.09552 382.80972,792.89952 C 382.86668,791.80605 382.65025,790.8948 382.13769,790.17721 C 381.63651,789.43683 380.96447,789.07234 380.13297,789.07234 C 379.41537,789.07234 378.82307,789.26598 378.35606,789.66464 C 377.90045,790.04052 377.3537,790.79229 376.72723,791.89717 C 375.66792,793.85632 374.35802,795.21178 372.80892,795.94077 C 371.25982,796.68115 368.99312,797.04564 366.02022,797.04564 C 364.08384,797.04564 362.7056,796.93174 361.8855,796.69254 C 361.08816,796.45334 360.60976,796.0205 360.48448,795.40541 C 360.38196,794.92701 360.30223,793.91327 360.25666,792.38695 C 360.21109,790.84925 360.21109,789.60769 360.26805,788.65089 C 360.34778,787.05623 360.5756,785.97413 360.91731,785.39323 C 361.27041,784.81232 361.8855,784.51616 362.76255,784.51616 C 365.04064,784.51616 366.2822,785.57548 366.48723,787.6827 C 366.57835,788.71923 366.74921,789.40266 367.02258,789.73299 C 367.28455,790.05191 367.78574,790.21137 368.50333,790.21137 C 369.67655,790.21137 370.58778,789.66464 371.22564,788.57116 C 372.38747,786.55505 373.04812,783.96942 373.21897,780.81427 C 373.31009,779.21961 373.24176,777.69329 373.01394,776.22393 C 372.79753,774.75456 372.4786,773.72943 372.05716,773.14851 C 371.48763,772.37396 370.77003,771.98668 369.91574,771.98668 C 369.32345,771.98668 368.79948,772.16893 368.33248,772.53342 C 367.88825,772.88654 367.56932,773.28519 367.37568,773.7522 C 367.20482,774.19643 366.99979,775.03933 366.79478,776.28087 C 366.6353,777.22628 366.37332,777.88692 365.99744,778.2742 C 365.63295,778.63869 365.05203,778.82094 364.26609,778.82094 C 362.69421,778.82094 361.72602,778.69565 361.37292,778.43368 C 361.01982,778.17169 360.87174,777.48827 360.9287,776.40617 C 361.08816,773.64968 361.20207,771.94113 361.2818,771.28048 C 361.37292,770.60845 361.54378,770.07309 361.81715,769.67443 C 362.3525,768.93404 363.75353,768.56955 366.00883,768.56955 C 369.0273,768.56955 371.19148,768.79736 372.50138,769.26437 C 373.81128,769.71999 374.87059,770.61984 375.65652,771.98668 C 376.21465,772.94348 376.65889,773.56995 377.0006,773.85471 C 377.3537,774.12808 377.85488,774.26477 378.50414,774.26477 C 379.46093,774.26477 380.22409,773.88889 380.79362,773.12573 C 381.38592,772.36257 381.71624,771.33743 381.78458,770.05032 C 381.92127,767.4533 381.38592,765.23217 380.15576,763.4097 C 379.41537,762.29344 378.53831,761.73531 377.50178,761.73531 C 377.25118,761.73531 376.92087,761.79225 376.49941,761.91755 C 375.12118,762.30483 373.72016,762.56681 372.27357,762.69211 C 370.83838,762.81739 368.56029,762.87435 365.42792,762.87435 C 365.42792,762.87435 350.02806,762.87435 350.02806,762.87435 C 347.80691,762.87435 346.29198,762.97687 345.49466,763.19328 z M 407.16247,786.98789 C 407.80033,787.808 408.29013,789.22041 408.62044,791.22513 C 409.1558,794.33472 409.63419,796.62419 410.05564,798.09356 C 410.49986,799.56292 411.06939,800.79309 411.74142,801.76128 C 413.25635,803.93686 415.89893,805.01894 419.66917,805.01894 C 422.50539,805.01894 424.76069,804.54054 426.43508,803.59514 C 427.19825,803.15091 427.82471,802.55861 428.3259,801.81823 C 428.83846,801.05507 429.11184,800.29191 429.14601,799.54014 C 429.18018,798.97062 429.05488,798.44666 428.77012,797.96826 C 428.49675,797.50126 428.14365,797.19371 427.69943,797.04564 C 426.26423,796.71531 425.35299,796.3736 424.96572,796.0319 C 424.58984,795.67878 424.32785,794.89285 424.17978,793.68547 C 423.6672,790.67838 423.05213,788.4117 422.31175,786.88538 C 421.58277,785.34766 420.3526,784.20862 418.62125,783.44546 C 417.82391,783.08097 417.43665,782.61396 417.47081,782.04444 C 417.49359,781.60021 417.82391,781.22433 418.47318,780.90539 C 420.02227,780.14223 421.27522,779.01458 422.22063,777.52243 C 423.16603,776.0189 423.68999,774.3445 423.7925,772.52203 C 423.97475,769.2302 422.88127,766.66737 420.51206,764.81072 C 417.89226,762.76045 414.49791,761.73531 410.31762,761.73531 C 409.58863,761.73531 408.29013,761.88338 406.4221,762.16814 C 403.46058,762.63515 401.10276,762.87435 399.34864,762.87435 C 398.28932,762.87435 397.52616,762.87435 397.03637,762.87435 C 394.46214,762.87435 392.8447,762.87435 392.19544,762.87435 C 390.73746,762.87435 389.58702,762.97687 388.74413,763.19328 C 387.719,763.44387 386.92167,763.84254 386.32937,764.38928 C 385.74845,764.92463 385.44091,765.5511 385.40674,766.29149 C 385.36117,767.05463 385.47508,767.66972 385.74845,768.14811 C 386.03321,768.61512 386.61413,769.13907 387.50259,769.70859 C 388.41382,770.11865 388.98334,770.7793 389.22253,771.67914 C 389.47313,772.57899 389.53008,774.25338 389.39339,776.7365 C 388.96055,784.5845 388.67579,789.14068 388.51633,790.40501 C 388.3113,792.14775 388.04932,793.37792 387.73039,794.07273 C 387.42284,794.77894 386.86471,795.38264 386.06739,795.9066 C 385.05364,796.78366 384.393,797.46708 384.08545,797.95687 C 383.7893,798.43527 383.60705,799.08453 383.57288,799.89325 C 383.42481,802.54721 387.14947,803.8799 394.73551,803.8799 C 398.47157,803.8799 401.12554,803.57237 402.70881,802.96867 C 404.30347,802.36497 405.13497,801.33983 405.2147,799.89325 C 405.30582,798.23024 404.80465,796.90895 403.72256,795.9066 C 403.26694,795.62184 402.97079,795.38264 402.81132,795.20038 C 402.66325,794.99537 402.54935,794.722 402.481,794.38028 C 402.29875,793.10455 402.26459,791.35042 402.37849,789.10651 C 402.46962,787.61436 402.61769,786.66895 402.8455,786.25889 C 403.0733,785.86024 403.5517,785.65521 404.28069,785.65521 C 405.55642,785.71215 406.5246,786.15639 407.16247,786.98789 z M 404.22374,769.04795 C 404.53128,768.72902 405.00968,768.56955 405.68171,768.56955 C 408.02815,768.56955 409.11023,770.28951 408.9166,773.71804 C 408.82547,775.49494 408.40403,776.79345 407.67504,777.61356 C 406.95744,778.42228 405.82979,778.82094 404.31486,778.82094 C 403.76812,778.82094 403.40363,778.71844 403.23276,778.50202 C 403.06191,778.28559 402.99357,777.85276 403.03914,777.20351 C 403.03914,777.0896 403.03914,777.02126 403.05052,776.98709 C 403.05052,776.98709 403.66561,770.75652 403.66561,770.75652 C 403.75673,769.92502 403.93898,769.35549 404.22374,769.04795 z M 442.82592,764.22981 C 438.95317,766.09785 435.87776,768.77458 433.59967,772.23727 C 431.44688,775.46077 430.28505,778.86651 430.08002,782.4545 C 429.88638,785.98552 430.52426,789.27736 431.98223,792.33 C 433.74774,795.99772 436.45867,798.84533 440.09222,800.87282 C 443.64603,802.87754 447.62129,803.8799 451.99521,803.8799 C 454.67197,803.8799 457.25761,803.43567 459.71793,802.54721 C 462.18966,801.64738 464.33105,800.39442 466.15353,798.81116 C 468.77333,796.48751 470.60719,793.58295 471.66649,790.12025 C 471.92848,789.2432 472.16768,788.69646 472.3841,788.46864 C 472.6119,788.22945 473.07891,788.04719 473.78512,787.9333 C 474.59384,787.85357 475.25448,787.5688 475.77845,787.10178 C 476.31379,786.61201 476.58716,786.04248 476.62134,785.39323 C 476.71246,783.77579 475.66454,782.65953 473.50036,782.04444 C 471.22227,781.41797 468.37466,781.09903 464.96893,781.09903 C 461.77961,781.09903 458.94339,781.44075 456.48305,782.13556 C 454.22775,782.76204 453.05453,783.82134 452.9748,785.30211 C 452.92924,786.06527 453.17983,786.70313 453.72656,787.2043 C 454.2733,787.69409 454.96812,787.9333 455.84519,787.9333 C 456.81337,787.9333 457.39428,787.95607 457.57653,787.99024 C 457.77017,788.02442 457.9752,788.12694 458.20301,788.30918 C 458.73836,788.74201 458.97755,789.51657 458.9206,790.59865 C 458.85227,791.81743 458.4536,792.8084 457.73599,793.59434 C 457.0184,794.38028 456.14133,794.76755 455.09342,794.76755 C 453.81769,794.76755 452.56474,794.41445 451.3118,793.69685 C 450.04745,792.97925 448.98814,792.02246 448.12248,790.83786 C 445.84439,787.53463 444.83064,783.55936 445.08123,778.88929 C 445.26347,775.73413 446.1747,773.22824 447.84911,771.36021 C 449.51211,769.50356 451.67629,768.56955 454.34165,768.56955 C 457.26898,768.56955 459.77489,769.90223 461.88211,772.55621 C 463.14645,774.13947 463.94379,775.05072 464.27411,775.3127 C 465.36758,776.1328 466.50663,776.54286 467.69124,776.54286 C 469.14921,776.54286 470.35659,776.05307 471.302,775.0621 C 472.23602,774.08253 472.75998,772.78402 472.83971,771.18936 C 472.9764,768.83154 472.27019,766.67875 470.7211,764.70821 C 469.7643,763.48943 468.71638,762.87435 467.58873,762.87435 C 467.1445,762.87435 466.71166,762.94269 466.27883,763.06799 C 464.96893,763.52361 464.11464,763.75142 463.71598,763.75142 C 463.31731,763.75142 462.61111,763.58055 461.58597,763.25024 C 459.30788,762.23649 456.84755,761.73531 454.21636,761.73531 C 450.0019,761.73531 446.20888,762.56681 442.82592,764.22981 z M 502.79656,764.04756 C 501.06521,762.50986 499.19718,761.73531 497.19246,761.73531 C 495.09663,761.73531 493.31971,762.41874 491.88452,763.78558 C 491.20109,764.41206 490.74548,765.04993 490.51766,765.69918 C 490.30126,766.35983 490.14178,767.52164 490.01649,769.19603 C 489.91398,770.7793 489.54949,772.39674 488.9344,774.04835 C 488.34209,775.69997 487.16888,778.18308 485.43753,781.50909 C 485.43753,781.50909 480.76746,790.56449 480.76746,790.56449 C 479.4006,793.25262 478.36407,794.99537 477.65787,795.81547 C 476.95166,796.63558 475.9493,797.28484 474.6508,797.77463 C 473.8193,798.08217 473.24977,798.41249 472.91944,798.77698 C 472.60052,799.13009 472.42965,799.63126 472.39549,800.26914 C 472.31576,801.77268 472.88528,802.75224 474.11544,803.18509 C 475.45951,803.6521 477.57814,803.8799 480.47131,803.8799 C 485.58561,803.8799 488.2168,802.55861 488.35348,799.92742 C 488.42183,798.74282 487.95481,797.94548 486.96385,797.54683 C 486.1893,797.2165 485.74508,796.9773 485.60839,796.82922 C 485.47171,796.68115 485.42614,796.35082 485.44892,795.84965 C 485.47171,795.49654 485.60839,795.13204 485.88175,794.76755 C 486.16652,794.39167 486.47406,794.12969 486.81578,793.98161 C 487.3853,793.74242 489.08247,793.62851 491.90729,793.62851 C 495.25609,793.62851 497.84171,793.73102 499.68697,793.93605 C 501.39554,794.14108 502.21564,794.8245 502.1587,795.97494 C 502.11313,796.69254 501.65751,797.2165 500.76905,797.54683 C 499.97173,797.84297 499.4136,798.1619 499.11745,798.5264 C 498.8099,798.8681 498.63905,799.35789 498.60487,799.99577 C 498.55932,800.81588 498.8099,801.52208 499.34525,802.10299 C 499.892,802.68391 500.64377,803.07118 501.60057,803.25343 C 503.6964,803.67487 506.94268,803.8799 511.32799,803.8799 C 515.23491,803.8799 518.05974,803.53819 519.80247,802.86615 C 521.55661,802.19411 522.46784,801.08925 522.54757,799.55153 C 522.6273,798.24163 521.95526,797.46708 520.55424,797.23928 C 519.82526,797.11398 519.30129,796.87479 518.95958,796.53307 C 518.61787,796.17997 518.2192,795.45098 517.74081,794.34611 C 517.74081,794.34611 512.78597,782.48866 512.78597,782.48866 C 508.52595,772.30562 505.19993,766.16619 502.79656,764.04756 z M 489.98232,785.11986 C 490.0051,784.78953 490.43793,783.753 491.29222,782.02165 C 491.89592,781.08764 492.23762,780.52951 492.35153,780.34726 C 492.95522,779.03736 493.65004,778.37672 494.43598,778.37672 C 494.86881,778.37672 495.27887,778.57035 495.66615,778.96902 C 496.04203,779.3563 496.57738,780.13085 497.26081,781.29267 C 498.25177,783.58215 498.73017,785.01735 498.696,785.59825 C 498.65044,786.39558 498.1037,786.79425 497.05578,786.79425 C 497.05578,786.79425 491.24665,786.79425 491.24665,786.79425 C 490.34681,786.79425 489.92537,786.23612 489.98232,785.11986 z M 543.84768,771.32604 C 544.15522,770.57427 544.80448,770.02753 545.82962,769.70859 C 546.86615,768.93404 547.5268,768.31896 547.81156,767.86336 C 548.09632,767.39635 548.26717,766.67875 548.32412,765.72196 C 548.41524,764.03618 547.34455,762.91991 545.10062,762.36178 C 543.35789,761.94034 540.70392,761.73531 537.15011,761.73531 C 533.83549,761.73531 531.18151,762.04285 529.17681,762.65793 C 526.83037,763.36414 525.61159,764.37789 525.54325,765.72196 C 525.4863,766.63319 525.65716,767.44191 526.03304,768.14811 C 526.24946,768.53539 526.77342,769.05934 527.60492,769.70859 C 528.37947,769.9478 528.88065,770.33508 529.09706,770.88182 C 529.33627,771.42855 529.40461,772.43091 529.32488,773.8775 C 529.25654,775.41521 529.18819,777.70468 529.10846,780.74593 C 529.05151,783.91246 528.97178,786.32725 528.88065,788.00164 C 528.67562,791.62379 528.43642,793.81075 528.16305,794.57391 C 527.84412,795.46237 527.1607,796.20275 526.12417,796.78366 C 525.09903,797.29623 524.43838,797.70629 524.16501,798.00244 C 523.89164,798.2872 523.73217,798.73143 523.69801,799.32373 C 523.62965,800.54251 523.99416,801.46513 524.78009,802.08021 C 525.32683,802.52444 526.28363,802.74085 527.66188,802.74085 C 527.66188,802.74085 548.59749,802.74085 548.59749,802.74085 C 548.59749,802.74085 555.16977,803.8799 555.16977,803.8799 C 555.79625,803.8799 556.34299,803.70904 556.7986,803.36734 C 557.25422,803.01422 557.80096,802.38775 558.42744,801.46513 C 560.42077,798.53779 561.48007,795.80408 561.61676,793.25262 C 561.70788,791.68075 561.36617,790.39363 560.60301,789.41405 C 559.85125,788.42308 558.82611,787.9333 557.53898,787.9333 C 556.26326,787.9333 555.40897,788.57116 554.97614,789.85827 C 554.36105,791.93133 553.40425,793.45765 552.09435,794.44862 C 550.77306,795.41681 549.04173,795.9066 546.86615,795.9066 C 544.85004,795.9066 543.55153,795.41681 542.98201,794.44862 C 542.50361,793.61712 542.34415,791.78326 542.49222,788.93565 C 542.49222,788.93565 543.18704,776.2581 543.18704,776.2581 C 543.32372,773.71804 543.55153,772.07781 543.84768,771.32604 z M 592.55317,762.12258 C 591.88114,761.86061 590.82184,761.73531 589.35246,761.73531 C 586.75545,761.73531 584.92158,761.82643 583.87367,761.99728 C 580.77546,762.50986 579.1808,763.75142 579.07829,765.72196 C 579.03273,766.57625 579.15803,767.30523 579.45417,767.89753 C 579.75033,768.47843 580.31985,769.08213 581.13997,769.70859 C 581.64114,770.05032 581.99424,770.4262 582.19927,770.81348 C 582.4043,771.20074 582.55238,771.79305 582.66628,772.57899 C 582.93965,774.73178 582.95104,778.19447 582.68906,782.95568 C 582.44987,787.39794 582.08538,790.81507 581.61836,793.18428 C 581.34499,794.49418 580.70712,795.39402 579.70477,795.9066 C 578.7024,796.70392 578.04176,797.3418 577.73423,797.8088 C 577.42668,798.27581 577.25583,798.97062 577.21026,799.89325 C 577.13053,801.18037 577.82535,802.15995 579.28332,802.84337 C 580.7413,803.53819 582.82575,803.8799 585.52528,803.8799 C 591.22049,803.8799 594.14783,802.54721 594.29592,799.89325 C 594.37565,798.25303 593.69222,796.93174 592.23425,795.9066 C 591.3344,795.45098 590.75348,794.74477 590.51429,793.78797 C 590.2751,792.83118 590.21814,791.03149 590.36622,788.4003 C 590.53707,785.15402 591.32301,783.53658 592.68987,783.53658 C 593.62388,783.53658 594.76292,784.08333 596.107,785.17681 C 596.107,785.17681 612.86233,801.72711 612.86233,801.72711 C 613.86468,802.64973 614.59367,803.24204 615.03789,803.49262 C 615.49352,803.75461 616.02886,803.8799 616.65533,803.8799 C 618.10192,803.8799 619.16124,802.93449 619.82188,801.05507 C 620.35723,799.52875 620.69894,797.05703 620.8698,793.62851 C 620.9837,791.11123 621.07482,789.12929 621.15455,787.67131 C 621.15455,787.67131 621.67852,778.16029 621.67852,778.16029 C 621.90633,774.5837 622.4189,772.14615 623.19345,770.87042 C 623.42125,770.48315 623.68324,770.19839 623.97938,770.01614 C 624.27553,769.81111 624.65142,769.54913 625.10705,769.2302 C 626.22331,768.43287 626.82699,767.25966 626.91812,765.72196 C 627.00924,764.05895 626.20052,762.9313 624.48056,762.32761 C 623.40987,761.92895 621.45071,761.73531 618.59171,761.73531 C 616.18833,761.73531 614.50254,761.84921 613.53435,762.07702 C 611.16515,762.62377 609.93499,763.83115 609.83247,765.72196 C 609.77551,766.65598 609.9122,767.41914 610.21975,768.02282 C 610.52728,768.61512 611.08541,769.17325 611.89414,769.70859 C 612.80537,770.10726 613.38628,770.72234 613.62548,771.54246 C 613.87607,772.35118 613.94441,773.86611 613.81911,776.07586 C 613.70522,778.17169 613.06735,779.20822 611.90553,779.20822 C 611.2221,779.20822 610.14,778.61592 608.63647,777.41992 C 608.63647,777.41992 594.87683,763.81976 594.87683,763.81976 C 593.99976,762.94269 593.22521,762.37317 592.55317,762.12258 z M 646.37299,802.74085 C 646.37299,802.74085 649.47118,802.74085 649.47118,802.74085 C 649.47118,802.74085 653.08194,802.74085 653.08194,802.74085 C 655.77009,802.74085 658.33294,802.35358 660.7591,801.56765 C 664.89383,800.23496 668.19706,797.93409 670.68016,794.66504 C 671.87617,793.0362 672.85574,791.11123 673.63029,788.89008 C 674.41623,786.68035 674.87185,784.45922 674.98576,782.23807 C 675.22495,777.87555 674.53013,774.10531 672.88991,770.93876 C 671.06744,767.3394 668.18566,764.78795 664.26736,763.26163 C 661.61339,762.24788 657.96844,761.73531 653.30976,761.73531 C 652.15932,761.73531 651.20252,761.73531 650.42798,761.73531 C 646.78303,761.73531 643.51398,761.73531 640.60942,761.73531 C 639.83487,761.73531 638.6047,761.70113 636.90753,761.64418 C 636.13298,761.63279 635.47233,761.63279 634.9142,761.63279 C 633.18286,761.63279 631.816,761.98589 630.80226,762.71489 C 629.7999,763.42109 629.26454,764.42344 629.1962,765.72196 C 629.09369,767.60139 629.77712,768.92266 631.25787,769.70859 C 632.22606,770.01614 632.81837,770.41481 633.05756,770.9046 C 633.30815,771.37161 633.38789,772.35118 633.30815,773.82055 C 633.10313,777.55661 632.84114,781.32684 632.52222,785.11986 C 632.21467,788.90148 631.95269,791.45293 631.73627,792.75144 C 631.54263,793.89049 631.31483,794.66504 631.06423,795.05231 C 630.81365,795.43959 630.34664,795.72435 629.66321,795.9066 C 628.88866,796.21414 628.31914,796.63558 627.95464,797.14816 C 627.60154,797.67211 627.40791,798.4011 627.35096,799.32373 C 627.294,800.34887 627.66988,801.16898 628.46722,801.79545 C 629.26454,802.42193 630.33525,802.74085 631.66793,802.74085 C 632.04382,802.74085 632.70446,802.74085 633.68403,802.74085 C 635.23314,802.74085 636.63416,802.74085 637.88711,802.74085 C 637.88711,802.74085 640.01712,802.74085 640.01712,802.74085 C 641.86237,802.74085 643.9696,802.74085 646.37299,802.74085 z M 647.88791,769.10491 C 648.34353,768.7518 649.10669,768.56955 650.16599,768.56955 C 654.16404,768.56955 656.92053,769.95919 658.43544,772.74984 C 659.8137,775.28991 660.37183,778.85512 660.12124,783.43407 C 659.66561,791.74909 656.18014,795.9066 649.68759,795.9066 C 648.27518,795.9066 647.27282,795.65601 646.69191,795.15483 C 646.13378,794.66504 645.88319,793.82215 645.94014,792.64894 C 645.94014,792.64894 647.13613,770.9046 647.13613,770.9046 C 647.1817,770.06171 647.43229,769.45801 647.88791,769.10491 z M 679.34828,782.34059 C 678.93824,782.70508 678.44845,783.36573 677.90171,784.33392 C 677.44609,785.17681 676.96769,786.38419 676.45512,787.9333 C 675.94254,789.471 675.66917,790.57588 675.63501,791.22513 C 675.58944,792.19331 675.93116,792.6831 676.68293,792.6831 C 676.99046,792.6831 677.44609,792.66032 678.04978,792.59198 C 678.81294,792.52364 679.64444,792.48946 680.5329,792.48946 C 682.65151,792.48946 684.50815,792.63755 686.1142,792.9337 C 686.66095,793.02482 687.09378,793.08177 687.44688,793.08177 C 687.85694,793.08177 688.22144,792.91092 688.54037,792.58059 C 688.87069,792.23888 689.26936,791.57823 689.74776,790.62143 C 690.36283,789.37987 690.87541,788.06998 691.29685,786.70313 C 691.72969,785.33627 691.96889,784.22001 692.01445,783.34294 C 692.0714,782.40893 691.80942,781.93053 691.25129,781.93053 C 691.04626,781.93053 690.62482,781.98749 689.99834,782.1014 C 689.463,782.19252 688.59732,782.23807 687.41272,782.23807 C 686.2395,782.23807 684.55372,782.11277 682.36675,781.8508 C 681.86558,781.78246 681.38718,781.75967 680.92017,781.75967 C 680.2823,781.78246 679.75834,781.9761 679.34828,782.34059 z M 699.99915,772.77263 C 696.41116,775.95056 694.4634,780.32448 694.15585,785.88301 C 693.84831,791.56684 695.46575,796.12302 699.03096,799.55153 C 702.02664,802.43332 705.7741,803.8799 710.27332,803.8799 C 714.32832,803.8799 718.01882,802.58139 721.34482,799.98438 C 725.67318,796.57863 727.98545,792.2047 728.27021,786.86259 C 728.42967,783.93525 727.95127,781.17876 726.82362,778.59314 C 725.2973,775.03933 722.83696,772.37396 719.44261,770.58566 C 716.9595,769.24159 714.32832,768.56955 711.54904,768.56955 C 707.02704,768.56955 703.17707,769.97057 699.99915,772.77263 z M 713.65628,779.82331 C 714.29414,781.04208 714.79532,782.63674 715.15981,784.60729 C 715.52431,786.56644 715.661,788.4117 715.55848,790.14303 C 715.39901,793.22984 714.21441,794.76755 712.01605,794.76755 C 710.77449,794.76755 709.8177,794.15248 709.14567,792.9337 C 707.42571,789.76715 706.66255,786.20195 706.87897,782.23807 C 707.04982,779.19682 708.24582,777.68191 710.47835,777.68191 C 711.86798,777.73885 712.92729,778.45645 713.65628,779.82331 z M 736.44854,772.77263 C 732.86055,775.95056 730.91279,780.32448 730.60524,785.88301 C 730.2977,791.56684 731.91514,796.12302 735.48035,799.55153 C 738.47603,802.43332 742.22348,803.8799 746.72271,803.8799 C 750.77771,803.8799 754.4682,802.58139 757.79421,799.98438 C 762.12257,796.57863 764.43483,792.2047 764.71959,786.86259 C 764.87906,783.93525 764.40066,781.17876 763.27301,778.59314 C 761.74669,775.03933 759.28635,772.37396 755.892,770.58566 C 753.4089,769.24159 750.77771,768.56955 747.99843,768.56955 C 743.47643,768.56955 739.62647,769.97057 736.44854,772.77263 z M 750.10567,779.82331 C 750.74353,781.04208 751.24471,782.63674 751.60921,784.60729 C 751.9737,786.56644 752.11038,788.4117 752.00786,790.14303 C 751.8484,793.22984 750.6638,794.76755 748.46544,794.76755 C 747.22388,794.76755 746.26708,794.15248 745.59506,792.9337 C 743.8751,789.76715 743.11194,786.20195 743.32836,782.23807 C 743.49922,779.19682 744.69521,777.68191 746.92773,777.68191 C 748.31737,777.73885 749.37667,778.45645 750.10567,779.82331 z M 764.76516,796.82922 C 764.33232,797.63795 764.08173,798.66309 764.01339,799.89325 C 763.95644,800.907 764.69682,801.65877 766.23452,802.14856 C 767.80641,802.67251 770.03893,803.11674 772.94349,803.49262 C 775.24436,803.75461 777.6933,803.8799 780.30171,803.8799 C 784.20862,803.8799 788.02442,803.54958 791.74909,802.90033 C 794.43724,802.41054 795.81548,801.40818 795.9066,799.89325 C 796.04329,797.36457 794.77895,796.0319 792.13637,795.9066 C 790.89481,795.83826 790.02914,795.63323 789.55074,795.28013 C 789.08374,794.92701 788.78758,794.27776 788.66228,793.34375 C 788.58255,792.76283 788.54838,792.30722 788.55977,791.9769 C 788.55977,791.62379 788.6395,789.10651 788.77619,784.41365 C 789.12929,779.76635 789.40266,777.11239 789.61908,776.44035 C 789.84688,775.74553 790.61004,775.07349 791.90856,774.41284 C 792.71728,773.9914 793.27541,773.60413 793.54878,773.25103 C 793.83354,772.89791 793.993,772.39674 794.02718,771.75887 C 794.08413,770.64261 793.71963,769.83389 792.9337,769.33271 C 792.14776,768.82015 790.87203,768.56955 789.09512,768.56955 C 782.55701,768.56955 776.30366,769.93641 770.35786,772.65872 C 769.16186,773.20546 768.21645,773.84332 767.51025,774.54953 C 766.82682,775.26713 766.45094,775.98473 766.41676,776.70233 C 766.3826,777.38575 766.56485,777.94388 766.98628,778.35393 C 767.39635,778.76399 767.96587,778.96902 768.69485,778.96902 C 768.99101,778.96902 769.3555,778.94624 769.79972,778.91206 C 770.34647,778.85512 770.76791,778.82094 771.05267,778.82094 C 772.27145,778.82094 773.10295,779.0032 773.54718,779.3563 C 773.99141,779.7094 774.18505,780.35865 774.13948,781.29267 C 773.80916,787.42072 773.49022,791.13401 773.20546,792.4553 C 772.71567,794.75616 771.23492,795.9066 768.78597,795.9066 C 768.55817,795.9066 768.26202,795.87242 767.88614,795.80408 C 767.05464,795.65601 766.54206,795.58766 766.32564,795.58766 C 765.72195,795.61044 765.19799,796.0205 764.76516,796.82922 z M 161.15187,835.27194 C 159.93309,834.85049 157.96255,834.63408 155.22884,834.63408 C 150.44486,834.63408 147.09607,834.75937 145.19388,835.02134 C 139.52144,835.87563 136.59409,837.93729 136.41185,841.20636 C 136.3549,842.2315 136.61688,843.10856 137.17501,843.81476 C 137.75592,844.53236 138.82662,845.26135 140.37572,846.00173 C 141.7084,846.66237 142.65381,847.3458 143.21194,848.052 C 143.78146,848.7696 144.21429,849.85169 144.51045,851.30966 C 145.36473,855.3305 145.54698,861.73192 145.06858,870.51394 C 144.61296,878.74923 144.00926,885.05953 143.2461,889.45623 C 142.81327,891.87101 141.86787,893.5454 140.40988,894.49081 C 138.87218,895.48177 137.86982,896.26772 137.4142,896.86002 C 136.96998,897.42953 136.708,898.29521 136.65104,899.45704 C 136.52576,901.65539 137.59645,903.36395 139.85175,904.58272 C 142.12984,905.79012 145.37612,906.39381 149.60197,906.39381 C 158.93074,906.39381 163.7375,904.01321 163.99948,899.24061 C 164.0906,897.40676 163.13381,895.92599 161.10631,894.78696 C 159.64833,893.96684 158.71432,892.69112 158.32704,890.94838 C 157.95116,889.19425 157.89421,885.9252 158.15619,881.14122 C 158.46373,875.37766 159.6939,872.48448 161.82391,872.48448 C 163.2705,872.48448 165.03601,873.42989 167.09768,875.3207 C 167.09768,875.3207 195.66488,902.71469 195.66488,902.71469 C 197.33928,904.28658 198.55806,905.30033 199.30983,905.73316 C 200.0502,906.1774 200.95004,906.39381 202.00936,906.39381 C 204.43552,906.39381 206.17826,904.7422 207.26034,901.45036 C 208.17159,898.785 208.76388,894.46803 209.06003,888.48804 C 209.26506,884.06855 209.43592,880.58308 209.57261,878.04301 C 209.57261,878.04301 210.48384,861.42438 210.48384,861.42438 C 210.84833,855.15964 211.47482,850.89962 212.36326,848.6557 C 212.62524,847.98367 212.92139,847.47109 213.24033,847.12938 C 213.57065,846.78766 214.16295,846.38901 215.01724,845.95616 C 217.18142,844.82851 218.32046,843.15412 218.43437,840.95576 C 218.58244,838.29041 217.23836,836.49072 214.39077,835.54531 C 212.61385,834.94161 209.3448,834.63408 204.60637,834.63408 C 200.92727,834.63408 198.33025,834.80493 196.82671,835.14664 C 193.18177,835.96675 191.26818,837.8234 191.12011,840.71657 C 191.05175,841.87839 191.24539,842.83518 191.68963,843.58695 C 192.13385,844.32734 192.94257,845.01075 194.1044,845.6714 C 195.5282,846.46874 196.42804,847.65334 196.79253,849.22523 C 197.16842,850.80849 197.23677,853.75861 196.99756,858.08697 C 196.79253,861.87999 195.79018,863.7708 193.9791,863.7708 C 192.9084,863.7708 191.21123,862.74567 188.89896,860.69539 C 188.89896,860.69539 165.41189,838.15372 165.41189,838.15372 C 163.79445,836.66157 162.38204,835.70477 161.15187,835.27194 z M 296.6297,838.58656 C 293.67957,835.95537 290.50164,834.63408 287.10729,834.63408 C 283.5193,834.63408 280.48945,835.80729 278.0405,838.14232 C 276.87869,839.21303 276.10413,840.29511 275.72825,841.41139 C 275.34097,842.52765 275.05621,844.53236 274.86257,847.41414 C 274.68033,850.11367 274.05386,852.88155 273.00594,855.70638 C 271.95801,858.53121 269.97608,862.77984 267.04874,868.45227 C 267.04874,868.45227 259.08683,883.93187 259.08683,883.93187 C 256.7404,888.51082 254.96349,891.50651 253.7561,892.90754 C 252.5601,894.30856 250.85154,895.40204 248.60762,896.21076 C 247.24078,896.70055 246.28398,897.24729 245.72585,897.85098 C 245.16772,898.45468 244.86017,899.29757 244.80321,900.37966 C 244.66654,902.88556 245.73724,904.4916 248.02671,905.2206 C 250.52122,906.00653 254.4737,906.39381 259.87276,906.39381 C 269.34961,906.39381 274.21332,904.19546 274.45251,899.81014 C 274.55503,897.8282 273.65519,896.50691 271.7302,895.83487 C 270.26084,895.27674 269.38377,894.93503 269.1218,894.78696 C 268.85982,894.63888 268.73452,894.31996 268.7573,893.83016 C 268.80287,893.11256 269.04206,892.38357 269.48629,891.62041 C 269.93052,890.84586 270.44309,890.32191 271.00122,890.02575 C 271.88968,889.54735 274.57781,889.30816 279.04287,889.30816 C 284.36219,889.30816 288.48553,889.49041 291.40148,889.8549 C 294.10102,890.208 295.39953,891.35844 295.28562,893.32898 C 295.22867,894.44524 294.44273,895.28813 292.9278,895.85766 C 291.57235,896.35884 290.63833,896.89419 290.11437,897.4751 C 289.6018,898.04462 289.30565,898.86473 289.24869,899.93543 C 289.18035,901.31367 289.6018,902.48689 290.52443,903.45507 C 291.44705,904.42326 292.74556,905.06112 294.39718,905.40284 C 298.00793,906.06349 303.56647,906.39381 311.09554,906.39381 C 317.77034,906.39381 322.61128,905.83568 325.59557,904.71942 C 328.59125,903.59176 330.16314,901.74652 330.29982,899.17227 C 330.41372,896.9967 329.27468,895.72098 326.88269,895.34509 C 325.65253,895.11728 324.75268,894.70722 324.17176,894.12632 C 323.59086,893.53401 322.90743,892.30384 322.0987,890.41303 C 322.0987,890.41303 313.68118,870.10389 313.68118,870.10389 C 306.42547,852.69931 300.74164,842.19732 296.6297,838.58656 z M 276.30916,875.50295 C 276.35472,874.8423 277.16345,872.86036 278.75811,869.53437 C 279.64655,867.44992 280.15913,866.25392 280.3072,865.93499 C 281.16148,863.69107 282.15246,862.56342 283.24593,862.56342 C 283.8724,862.56342 284.43055,862.89374 284.94311,863.57717 C 285.45568,864.2492 286.18467,865.58189 287.13008,867.56382 C 288.96393,871.98331 289.841,874.76257 289.78405,875.89022 C 289.74987,876.48253 288.90698,876.77868 287.26675,876.77868 C 287.26675,876.77868 278.34805,876.77868 278.34805,876.77868 C 276.94703,876.77868 276.2636,876.35723 276.30916,875.50295 z M 391.44367,905.25476 C 391.44367,905.25476 396.58075,905.25476 396.58075,905.25476 C 396.58075,905.25476 402.56074,905.25476 402.56074,905.25476 C 407.03717,905.25476 411.28581,904.58272 415.30663,903.23866 C 422.15228,900.94918 427.63108,896.97392 431.7658,891.32426 C 433.77052,888.53361 435.41075,885.23038 436.70926,881.4032 C 438.00777,877.5874 438.75953,873.77161 438.96456,869.9672 C 439.37462,862.42673 438.23558,855.93418 435.54743,850.48956 C 432.51757,844.29316 427.73359,839.88507 421.21826,837.26527 C 416.83295,835.51113 410.79602,834.63408 403.09609,834.63408 C 401.18249,834.63408 399.58783,834.63408 398.31211,834.63408 C 392.26378,834.63408 386.81916,834.63408 382.01239,834.63408 C 380.72528,834.63408 378.67499,834.58851 375.86155,834.49739 C 374.57444,834.45182 373.46957,834.44044 372.53556,834.44044 C 369.67655,834.44044 367.42125,834.90745 365.75825,835.84146 C 364.11802,836.77548 363.25234,838.07398 363.16122,839.73698 C 363.04731,841.87839 364.06107,843.38193 366.21386,844.25899 C 367.70601,844.8399 368.64002,845.61445 369.00451,846.55986 C 369.36901,847.50527 369.47152,849.40747 369.31206,852.25507 C 368.91339,859.52217 368.43499,866.84622 367.86547,874.21583 C 367.29595,881.57405 366.84033,886.5175 366.49862,889.05756 C 366.16829,891.27871 365.79241,892.77085 365.38236,893.52262 C 364.98369,894.28578 364.25471,894.83252 363.1954,895.18562 C 362.09053,895.58429 361.2818,896.11963 360.75784,896.78028 C 360.24527,897.44092 359.96051,898.36356 359.89217,899.55955 C 359.80105,901.25673 360.41612,902.63496 361.73741,903.69428 C 363.05871,904.73081 364.83561,905.25476 367.03397,905.25476 C 367.66044,905.25476 368.7767,905.25476 370.40554,905.25476 C 372.96839,905.25476 375.28064,905.25476 377.36509,905.25476 C 377.36509,905.25476 380.91892,905.25476 380.91892,905.25476 C 383.94876,905.25476 387.45702,905.25476 391.44367,905.25476 z M 394.55326,846.96992 C 395.28225,846.34344 396.48963,846.02451 398.18681,846.02451 C 404.49711,846.02451 408.83686,848.47346 411.20608,853.35995 C 413.37026,857.77944 414.23593,864.01 413.7917,872.04026 C 412.99438,886.58585 407.44723,893.86433 397.15028,893.86433 C 394.92915,893.86433 393.36865,893.4315 392.45742,892.56582 C 391.55757,891.70014 391.15891,890.23078 391.27282,888.14633 C 391.27282,888.14633 393.35726,850.10228 393.35726,850.10228 C 393.437,848.63292 393.83566,847.585 394.55326,846.96992 z M 476.05182,836.24012 C 475.02668,836.5135 474.18379,837.07163 473.52314,837.92591 C 472.87389,838.76881 472.5094,839.73698 472.45244,840.83047 C 472.33853,842.83518 473.01057,844.12231 474.44577,844.69183 C 475.40256,845.05632 476.02903,845.37525 476.31379,845.64863 C 476.60995,845.922 476.87193,846.4004 477.08835,847.09521 C 478.13627,850.51234 478.30712,858.75901 477.58953,871.84662 C 477.11113,880.54892 476.29101,887.4629 475.10641,892.5886 C 474.82165,893.84156 474.45716,894.78696 474.02431,895.43622 C 473.59148,896.07408 472.96501,896.60942 472.12212,897.05365 C 470.90335,897.73708 470.1174,898.3066 469.7643,898.73944 C 469.42258,899.18367 469.21756,899.88987 469.17199,900.88084 C 469.09226,902.27047 469.49093,903.34118 470.36799,904.11572 C 471.24505,904.87888 472.53217,905.25476 474.21795,905.25476 C 474.21795,905.25476 515.98668,905.25476 515.98668,905.25476 C 519.49493,905.36867 522.28559,905.64204 524.35865,906.07488 C 525.53186,906.29129 526.43171,906.39381 527.06957,906.39381 C 527.80995,906.39381 528.43642,906.20017 528.94899,905.80151 C 529.47295,905.41424 530.13359,904.65108 530.96511,903.51203 C 532.57116,901.15421 533.97218,898.45468 535.14539,895.41343 C 536.33,892.37218 536.97925,889.84351 537.08177,887.81602 C 537.18428,885.95937 536.80839,884.42167 535.95412,883.1915 C 535.09983,881.94994 533.9494,881.33485 532.52559,881.33485 C 531.30681,881.33485 530.29307,881.66518 529.50712,882.33721 C 528.7098,882.99786 527.78716,884.28498 526.72786,886.19857 C 524.92817,889.52457 522.70703,891.82544 520.06445,893.10117 C 517.43326,894.36551 513.58329,895.00337 508.52595,895.00337 C 505.23411,895.00337 502.89907,894.80973 501.52082,894.43385 C 500.14258,894.04657 499.34525,893.34037 499.12884,892.33802 C 498.9352,891.52929 498.79851,889.86629 498.70739,887.37178 C 498.62766,884.86589 498.62766,882.82701 498.71878,881.24373 C 498.85547,878.6581 499.20857,876.89259 499.77809,875.94718 C 500.34762,874.97899 501.33858,874.50059 502.7396,874.50059 C 506.38455,874.50059 508.36648,876.4028 508.68541,880.19582 C 508.84488,882.05245 509.14102,883.27123 509.57387,883.86354 C 510.0067,884.45583 510.81543,884.75198 512.02281,884.75198 C 513.98196,884.75198 515.49689,883.79518 516.55621,881.87021 C 518.50397,878.35056 519.63162,873.82856 519.92777,868.3042 C 520.08723,865.50215 519.97333,862.8254 519.60883,860.26255 C 519.23295,857.69971 518.709,855.91141 518.02557,854.90904 C 517.08016,853.5422 515.88417,852.85877 514.43758,852.85877 C 513.46939,852.85877 512.59233,853.17771 511.80639,853.80418 C 511.0774,854.38509 510.55344,855.05713 510.2573,855.8089 C 509.94975,856.56066 509.63081,857.96169 509.27771,860.01196 C 509.00434,861.60662 508.52595,862.71149 507.85391,863.32658 C 507.19326,863.94166 506.15673,864.2492 504.75571,864.2492 C 501.91949,864.2492 500.18815,864.02139 499.53889,863.55438 C 498.90103,863.08737 498.63905,861.89138 498.74156,859.95501 C 499.01493,855.06851 499.21996,852.03866 499.36803,850.84266 C 499.51612,849.65806 499.82365,848.71265 500.30205,847.99506 C 501.22468,846.68516 503.62806,846.02451 507.53497,846.02451 C 512.7518,846.02451 516.48785,846.38901 518.72039,847.12938 C 520.97569,847.85837 522.78676,849.32773 524.15362,851.52609 C 525.12181,853.05241 525.89635,854.04337 526.48866,854.47621 C 527.09236,854.92044 527.95803,855.13686 529.08568,855.13686 C 530.71451,855.13686 532.02441,854.52177 533.01538,853.30299 C 534.01773,852.07282 534.57587,850.37565 534.70116,848.23425 C 534.92897,843.99701 534.05191,840.38624 532.08137,837.41334 C 530.89675,835.5567 529.46157,834.63408 527.78716,834.63408 C 527.38851,834.63408 526.84176,834.69103 526.16973,834.81633 C 523.94859,835.2036 521.6705,835.46558 519.34686,835.59086 C 517.04598,835.71616 513.36689,835.77311 508.32092,835.77311 C 508.32092,835.77311 483.38726,835.77311 483.38726,835.77311 C 479.77648,835.77311 477.32754,835.93259 476.05182,836.24012 z M 579.38583,841.69615 C 576.76604,843.72364 574.68158,846.13841 573.15526,848.94046 C 571.64033,851.73112 570.79744,854.59012 570.63798,857.51745 C 570.30766,863.47465 572.63131,868.79399 577.59754,873.48685 C 579.63643,875.38905 581.86895,876.96093 584.27233,878.22526 C 586.6985,879.46682 590.24092,880.81089 594.8996,882.25748 C 597.47385,883.13454 599.30771,884.09134 600.41258,885.10508 C 601.52884,886.11884 602.04142,887.32622 601.96167,888.71585 C 601.88194,890.23078 601.05044,891.46095 599.46717,892.41775 C 597.88391,893.38593 595.84501,893.86433 593.37329,893.86433 C 590.5029,893.86433 587.74641,893.22647 585.12661,891.96213 C 582.51821,890.6864 580.65018,889.10313 579.51113,887.18953 C 577.13053,883.10038 575.60421,880.6742 574.94356,879.93383 C 573.86148,878.58976 572.67686,877.91773 571.41253,877.91773 C 570.1368,877.91773 569.04332,878.46447 568.13209,879.55794 C 567.43727,880.41223 567.0386,881.66518 566.94748,883.32818 C 566.75384,886.80226 567.20947,890.37885 568.30294,894.04657 C 569.40781,897.71429 570.7405,900.08351 572.2896,901.17699 C 574.33988,902.56662 577.72283,903.7854 582.44987,904.83332 C 587.18828,905.86985 591.71028,906.39381 596.02726,906.39381 C 605.69774,906.39381 613.65965,904.05877 619.90161,899.40009 C 626.02967,894.83252 629.28733,888.95506 629.6746,881.77908 C 630.13022,873.62353 626.29165,867.46131 618.18165,863.2924 C 616.33641,862.33561 612.07638,860.83207 605.41298,858.7704 C 600.49231,857.28965 598.11171,855.06851 598.27118,852.12978 C 598.35091,850.64902 598.96599,849.45303 600.10503,848.5304 C 601.25547,847.61917 602.74762,847.16355 604.59286,847.16355 C 608.38588,847.16355 612.14472,849.07714 615.8694,852.89294 C 618.50059,855.58108 620.22054,857.18713 621.00648,857.73387 C 621.80382,858.28061 622.85173,858.55398 624.17302,858.55398 C 625.73352,858.55398 627.10036,857.90473 628.26219,856.61761 C 629.43541,855.3191 630.07327,853.72444 630.17579,851.82224 C 630.35803,848.59874 629.28733,845.20439 626.97508,841.65058 C 624.68559,838.07398 622.4189,836.28569 620.18637,836.28569 C 619.57128,836.28569 618.99037,836.39959 618.44363,836.60462 C 616.73506,837.2197 615.72132,837.51585 615.391,837.51585 C 614.98094,837.51585 614.4456,837.41334 613.78495,837.2197 C 608.29476,835.49974 603.81832,834.63408 600.36701,834.63408 C 592.25702,834.63408 585.2633,836.9919 579.38583,841.69615 z M 671.85338,835.92119 C 668.50459,836.59323 666.13539,837.36778 664.76853,838.23345 C 663.42445,839.09912 662.70686,840.26095 662.62713,841.71892 C 662.57018,842.66433 662.72965,843.45027 663.08275,844.06535 C 663.43585,844.68044 664.17622,845.45499 665.2925,846.37761 C 666.72768,847.48248 667.59336,848.73543 667.91229,850.13646 C 668.50459,852.59679 668.56155,858.1781 668.08315,866.88039 C 667.39972,879.46682 666.63656,887.70211 665.80506,891.58625 C 665.42917,893.35176 664.41543,894.75279 662.78659,895.76653 C 660.6338,897.09922 659.51754,898.52302 659.43781,900.06073 C 659.1986,904.28658 664.38125,906.39381 674.98576,906.39381 C 681.18215,906.39381 686.46731,905.84707 690.81845,904.75359 C 694.83928,903.75122 696.92373,901.8832 697.0718,899.14949 C 697.17432,897.20173 696.29725,895.72098 694.42922,894.69584 C 693.42687,894.08075 692.72065,893.51123 692.33338,892.98727 C 691.9461,892.46331 691.67273,891.70014 691.51327,890.73197 C 691.13739,887.62238 691.30824,879.56933 692.01445,866.58424 C 692.43589,858.8957 692.92568,853.72444 693.49521,851.05908 C 694.06473,848.40511 695.03292,846.68516 696.41116,845.89921 C 698.06276,844.95381 699.09929,844.23622 699.52075,843.74642 C 699.93081,843.24524 700.17,842.50486 700.22696,841.50251 C 700.38642,838.51821 698.34753,836.55906 694.08751,835.63643 C 690.93236,834.9644 687.5494,834.63408 683.93864,834.63408 C 679.89502,834.63408 675.86281,835.06691 671.85338,835.92119 z M 755.43639,837.86895 C 748.68186,840.69378 743.11194,844.79435 738.71524,850.15924 C 733.66927,856.31007 730.93556,863.13294 730.52551,870.60506 C 730.1724,877.04066 731.69872,883.21427 735.10446,889.09174 C 738.58994,895.17423 743.53338,899.66207 749.9348,902.58941 C 755.43639,905.12948 761.0177,906.39381 766.69013,906.39381 C 772.13477,906.39381 777.4427,905.18642 782.60257,902.78305 C 784.80093,901.75791 786.54367,901.13143 787.85357,900.89223 C 790.10887,900.45939 791.61241,899.93543 792.36418,899.34313 C 794.10691,897.96489 795.63323,896.06269 796.95452,893.61374 C 798.2872,891.1648 799.0048,888.94367 799.1187,886.97312 C 799.19844,885.41263 798.83394,884.07994 798.01384,882.98647 C 797.20511,881.8816 796.20275,881.33485 795.00676,881.33485 C 794.17525,881.33485 793.07038,881.94994 791.70353,883.1915 C 790.0747,884.66086 787.86496,885.85685 785.0629,886.77949 C 782.27225,887.70211 779.4816,888.16912 776.67954,888.16912 C 769.07074,888.16912 763.3983,885.00257 759.66224,878.68089 C 756.90575,873.95385 755.68697,868.73703 755.99452,863.04182 C 756.22233,858.8957 757.46388,855.60387 759.70781,853.14353 C 761.95172,850.6718 764.87906,849.44163 768.46705,849.44163 C 772.16893,849.44163 775.65441,850.5579 778.93485,852.80182 C 780.22198,853.74723 781.30406,854.78376 782.19252,855.92279 C 783.08097,857.06183 784.19723,858.94126 785.5527,861.56107 C 786.50949,863.4177 787.52324,864.70482 788.59395,865.44519 C 789.67603,866.1628 791.09984,866.52729 792.87674,866.52729 C 794.83589,866.52729 796.62419,866.02611 798.25303,865.01236 C 801.24871,863.09877 802.86615,860.10308 803.08258,856.01391 C 803.4015,850.1934 802.02326,845.3183 798.95924,841.37721 C 797.71768,839.77116 796.20275,838.96244 794.42585,838.96244 C 793.87911,838.96244 793.37793,839.008 792.9337,839.09912 C 791.54406,839.40667 790.54171,839.56613 789.92663,839.56613 C 789.07234,839.56613 787.5802,839.05357 785.45018,838.01704 C 780.92818,835.76173 776.16698,834.63408 771.16658,834.63408 C 765.82447,834.63408 760.58486,835.71616 755.43639,837.86895 z M 857.03903,837.26527 C 850.01116,839.81673 844.30456,843.82616 839.91925,849.28217 C 835.02136,855.41023 832.3446,862.49508 831.91177,870.51394 C 831.52449,877.41654 832.95968,883.72684 836.20596,889.45623 C 839.55474,895.39065 844.38429,899.82153 850.69459,902.74887 C 855.94558,905.17503 861.50413,906.39381 867.37023,906.39381 C 871.84663,906.39381 876.34583,905.68761 880.86783,904.2638 C 888.22603,901.92876 894.28583,898.11296 899.06973,892.79363 C 904.69663,886.52889 907.73793,879.42126 908.17073,871.47073 C 908.46683,866.08306 907.41893,860.69539 905.04973,855.29632 C 902.57803,849.87448 899.24063,845.46637 895.02613,842.06064 C 888.78423,837.10579 881.28933,834.63408 872.56423,834.63408 C 866.92593,834.63408 861.75473,835.51113 857.03903,837.26527 z M 872.26803,851.29828 C 873.95383,852.47149 875.40043,854.07754 876.61923,856.11643 C 878.60113,859.43105 880.13883,863.4291 881.24373,868.11056 C 882.36003,872.78063 882.80423,877.14317 882.57643,881.19817 C 882.40553,884.29637 881.46013,886.81365 879.72883,888.71585 C 878.00883,890.62945 875.82193,891.58625 873.16793,891.58625 C 871.51633,891.58625 869.92163,891.09646 868.38393,890.12827 C 866.84623,889.14869 865.58193,887.85018 864.59093,886.20996 C 862.35843,882.37138 860.57013,877.96328 859.23743,873.00845 C 857.90473,868.03083 857.33523,863.6569 857.55163,859.87527 C 857.68833,857.30104 858.47423,855.06851 859.90943,853.20048 C 861.76613,850.69459 864.15813,849.44163 867.08543,849.44163 C 868.86233,849.49859 870.59373,850.11367 872.26803,851.29828 z "
     style="fill:#000000" />
  <path
     id="Petal"
     d="M 35.879866,856.2759 C 79.163516,680.86322 245.46386,451.9155 309.2503,376.73864 C 429.9889,211.57735 484.66298,35.025644 513.67442,-62.943477 C 514.07309,-65.904996 514.27812,-67.488264 514.27812,-67.488264 C 514.27812,-67.488264 524.52951,122.73198 524.52951,122.73198 C 524.52951,122.73198 632.73862,-18.509406 632.73862,-18.509406 C 632.73862,-18.509406 575.78645,152.34709 575.78645,152.34709 C 575.78645,152.34709 706.77645,49.8332 706.77645,49.8332 C 706.77645,49.8332 615.65298,221.82874 615.65298,221.82874 C 615.65298,221.82874 720.44498,142.0957 720.44498,142.0957 C 720.44498,142.0957 674.88324,262.83431 674.88324,262.83431 C 674.88324,262.83431 785.37045,184.24032 785.37045,184.24032 C 785.37045,184.24032 738.66967,310.67414 738.66967,310.67414 C 738.66967,310.67414 878.77203,207.02119 878.77203,207.02119 C 878.77203,207.02119 779.67524,381.29481 779.67524,381.29481 C 779.67524,381.29481 940.28033,308.39605 940.28033,308.39605 C 940.28033,308.39605 785.37045,480.3916 785.37045,480.3916 C 785.37045,480.3916 973.31263,402.93663 973.31263,402.93663 C 973.31263,402.93663 722.72307,634.16244 448.2136,669.47279 C 338.86542,682.00227 157.75752,748.06678 35.879866,856.2759 z "
     style="fill:#ff0000" />
  <path
     id="N"
     d="M 123.58622,740.09348 C 172.56509,669.47279 246.6029,558.98558 273.93995,507.72863 C 273.93995,507.72863 259.13238,594.29593 263.68856,633.0234 C 297.85986,620.49392 336.58733,598.85209 417.45942,506.58959 C 417.45942,506.58959 328.61403,646.69192 239.76865,688.83652 C 240.90769,650.10905 236.35151,630.74531 248.88099,589.73975 C 218.12682,628.46723 186.23361,687.69748 123.58622,740.09348 z "
     style="fill:#000000" />
</svg>
