<?xml version="1.0" encoding="UTF-8" standalone="no"?>
<!-- Created with Inkscape (http://www.inkscape.org/) -->
<svg
   xmlns:dc="http://purl.org/dc/elements/1.1/"
   xmlns:cc="http://web.resource.org/cc/"
   xmlns:rdf="http://www.w3.org/1999/02/22-rdf-syntax-ns#"
   xmlns:svg="http://www.w3.org/2000/svg"
   xmlns="http://www.w3.org/2000/svg"
   xmlns:sodipodi="http://sodipodi.sourceforge.net/DTD/sodipodi-0.dtd"
   xmlns:inkscape="http://www.inkscape.org/namespaces/inkscape"
   width="1400"
   height="456.3989"
   id="svg2"
   sodipodi:version="0.32"
   inkscape:version="0.45"
   version="1.0"
   sodipodi:docbase="/mnt/big/codebase/pov/Pegasus/svg"
   sodipodi:docname="NewLASPLogoFull.svg"
   inkscape:output_extension="org.inkscape.output.svg.inkscape"
   sodipodi:modified="TRUE"
   inkscape:export-filename="/mnt/big/codebase/pov/Pegasus/svg/NewLASPLogoFull.svg.png"
   inkscape:export-xdpi="90"
   inkscape:export-ydpi="90">
  <defs
     id="defs4" />
  <sodipodi:namedview
     id="base"
     pagecolor="#ffffff"
     bordercolor="#666666"
     borderopacity="1.0"
     inkscape:pageopacity="0.0"
     inkscape:pageshadow="2"
     inkscape:zoom="0.29130932"
     inkscape:cx="131.71822"
     inkscape:cy="147.90705"
     inkscape:document-units="px"
     inkscape:current-layer="layer1"
     inkscape:window-width="1065"
     inkscape:window-height="973"
     inkscape:window-x="555"
     inkscape:window-y="119"
     showguides="true"
     inkscape:guide-bbox="true"
     inkscape:guide-points="true"
     guidetolerance="5px"
     width="1400px"
     height="456.3989px">
    <sodipodi:guide
       orientation="vertical"
       position="0"
       id="guide8185" />
    <sodipodi:guide
       orientation="vertical"
       position="260"
       id="guide8187" />
    <sodipodi:guide
       orientation="horizontal"
       position="0"
       id="guide8189" />
    <sodipodi:guide
       orientation="horizontal"
       position="306"
       id="guide8191" />
  </sodipodi:namedview>
  <metadata
     id="metadata7">
    <rdf:RDF>
      <cc:Work
         rdf:about="">
        <dc:format>image/svg+xml</dc:format>
        <dc:type
           rdf:resource="http://purl.org/dc/dcmitype/StillImage" />
      </cc:Work>
    </rdf:RDF>
  </metadata>
  <g
     inkscape:label="Layer 1"
     inkscape:groupmode="layer"
     id="layer1"
     transform="translate(0,4.21814)">
    <path
       style="opacity:1;fill:#ffffff;fill-opacity:1;stroke:none;stroke-opacity:1"
       d="M 48.21875,0 C 42.50936,15.918658 39.40625,33.062353 39.40625,50.9375 C 39.40625,134.29935 107.04439,201.96875 190.40625,201.96875 C 215.48995,201.96875 239.1757,195.83604 260,185 L 260,91.78125 C 249.0435,98.157927 236.33222,101.8125 222.75,101.8125 C 181.76609,101.8125 148.5,68.546408 148.5,27.5625 C 148.5,17.822385 150.36672,8.5250339 153.78125,0 L 48.21875,0 z M 0,80.53125 L 0,119.125 C 2.08002,126.18917 4.47529,133.12036 7.15625,139.90625 C 8.97813,137.91526 11.45374,136.53465 14.25,136.125 C 7.37814,118.51238 2.51571,99.888587 0,80.53125 z M 23.65625,157.21875 C 21.61413,158.91579 19.00845,159.96383 16.15625,160 C 25.24686,178.07406 36.49597,194.86627 49.5625,210.0625 C 50.20307,210.02081 50.84903,210 51.5,210 C 55.11619,210 58.57879,210.65139 61.78125,211.84375 C 46.66532,195.58539 33.79615,177.20952 23.65625,157.21875 z M 0,178.34375 L 0,192.15625 C 8.16659,203.15372 17.26218,213.40987 27.15625,222.84375 C 28.66695,220.64311 30.46285,218.65437 32.5,216.9375 C 20.32496,205.31008 9.40822,192.3771 0,178.34375 z M 78.84375,228.46875 C 80.2221,231.87912 81,235.59756 81,239.5 C 81,239.89358 80.98396,240.29756 80.96875,240.6875 C 96.82363,253.60634 114.32893,264.58408 133.09375,273.28125 C 113.83249,268.21996 95.5738,260.72367 78.625,251.15625 C 77.5629,253.63515 76.16868,255.9284 74.5,258 C 104.58123,275.03667 138.69636,285.74082 175.0625,288.28125 C 175.073,288.28094 175.1145,288.28156 175.125,288.28125 C 194.74907,293.32006 215.3153,296 236.5,296 C 244.42808,296 252.26231,295.60877 260,294.875 L 260,286.84375 C 254.62291,287.37003 249.193,287.73974 243.71875,287.90625 C 241.88978,289.45292 239.51853,290.375 236.9375,290.375 C 234.35647,290.375 231.98522,289.45292 230.15625,287.90625 C 226.38379,287.80273 222.63331,287.61564 218.90625,287.34375 C 222.10755,286.98312 225.27551,286.54829 228.4375,286.0625 C 227.17243,284.32834 226.4375,282.18434 226.4375,279.875 C 226.4375,279.33163 226.48279,278.80245 226.5625,278.28125 C 215.26813,279.9776 203.70734,280.84375 191.9375,280.84375 C 186.67017,280.84375 181.42943,280.65976 176.25,280.3125 C 176.24739,280.31259 176.22136,280.31248 176.21875,280.3125 C 139.60353,270.77132 106.39195,252.75155 78.84375,228.46875 z M 260,270.65625 C 255.37216,272.08221 250.68372,273.36315 245.9375,274.5 C 246.8823,276.07572 247.4375,277.90527 247.4375,279.875 C 247.4375,280.75665 247.32998,281.61909 247.125,282.4375 C 251.46579,281.40963 255.75409,280.26207 260,279 L 260,270.65625 z "
       id="rect8193"
       sodipodi:nodetypes="cssccssccccccccccsccccccccsccccccscccscccscssccccsccc" />
    <path
       style="opacity:1;fill:#0000c0;fill-opacity:1;stroke:none;stroke-width:2.5;stroke-linecap:butt;stroke-linejoin:miter;stroke-miterlimit:4;stroke-dasharray:none;stroke-dashoffset:0;stroke-opacity:1"
       d="M 0,0 L 0,80.53125 C 2.5157083,99.888587 7.3781439,118.51238 14.25,136.125 C 14.821984,136.0412 15.404875,136 16,136 C 22.623997,136 28,141.376 28,148 C 28,151.71151 26.305683,155.01702 23.65625,157.21875 C 33.796157,177.20952 46.665324,195.58539 61.78125,211.84375 C 69.543767,214.73395 75.747784,220.80863 78.84375,228.46875 C 106.39195,252.75155 139.60353,270.77132 176.21875,280.3125 C 176.22136,280.31248 176.24739,280.31259 176.25,280.3125 C 181.42943,280.65976 186.67017,280.84375 191.9375,280.84375 C 203.70734,280.84375 215.26813,279.9776 226.5625,278.28125 C 227.33304,273.24296 231.68487,269.375 236.9375,269.375 C 240.76377,269.37501 244.10221,271.43911 245.9375,274.5 C 250.68372,273.36315 255.37216,272.08221 260,270.65625 L 260,185 C 239.1757,195.83604 215.48995,201.96875 190.40625,201.96875 C 107.04439,201.96875 39.40625,134.29935 39.40625,50.9375 C 39.40625,33.062353 42.509361,15.918658 48.21875,0 L 0,0 z "
       id="rect2241" />
    <path
       style="opacity:1;fill:#0000c0;fill-opacity:1;stroke:none;stroke-width:2.5;stroke-linecap:butt;stroke-linejoin:miter;stroke-miterlimit:4;stroke-dasharray:none;stroke-dashoffset:0;stroke-opacity:1"
       d="M 0,119.125 L 0,178.34375 C 9.4082191,192.3771 20.32497,205.31008 32.5,216.9375 C 37.175005,212.99602 43.078702,210.48076 49.5625,210.0625 C 36.495963,194.86627 25.246853,178.07406 16.15625,160 C 16.104654,160.00065 16.05175,160 16,160 C 9.3760031,160 4,154.624 4,148 C 4,144.88051 5.2028006,142.04102 7.15625,139.90625 C 4.4752962,133.12036 2.0800218,126.18917 0,119.125 z "
       id="path1335" />
    <path
       style="opacity:1;fill:#0000c0;fill-opacity:1;stroke:none;stroke-width:2.5;stroke-linecap:butt;stroke-linejoin:miter;stroke-miterlimit:4;stroke-dasharray:none;stroke-dashoffset:0;stroke-opacity:1"
       d="M 0,192.15625 L 0,306 L 260,306 L 260,294.875 C 252.26231,295.60877 244.42808,296 236.5,296 C 215.3153,296 194.74907,293.32006 175.125,288.28125 C 175.1145,288.28156 175.073,288.28094 175.0625,288.28125 C 138.69636,285.74082 104.58123,275.03667 74.5,258 C 69.091234,264.71475 60.786973,269 51.5,269 C 35.215994,269 22,255.78401 22,239.5 C 22,233.31593 23.900016,227.58708 27.15625,222.84375 C 17.26219,213.40987 8.1665968,203.15372 0,192.15625 z "
       id="path1333" />
    <path
       style="opacity:1;fill:#0000c0;fill-opacity:1;stroke:none;stroke-width:2.5;stroke-linecap:butt;stroke-linejoin:miter;stroke-miterlimit:4;stroke-dasharray:none;stroke-dashoffset:0;stroke-opacity:1"
       d="M 80.96875,240.6875 C 80.821304,244.38632 80.014195,247.92884 78.625,251.15625 C 95.57381,260.72367 113.83249,268.21996 133.09375,273.28125 C 114.32893,264.58408 96.823633,253.60634 80.96875,240.6875 z "
       id="path1331" />
    <path
       style="opacity:1;fill:#0000ff;fill-opacity:1;stroke:none;stroke-width:2.5;stroke-linecap:butt;stroke-linejoin:miter;stroke-miterlimit:4;stroke-dasharray:none;stroke-dashoffset:0;stroke-opacity:1"
       d="M 260,279 C 255.74438,280.26496 251.4447,281.4078 247.09375,282.4375 C 246.55205,284.59363 245.36246,286.51086 243.71875,287.90625 C 249.193,287.73974 254.62291,287.37003 260,286.84375 L 260,279 z "
       id="path1329" />
    <path
       style="opacity:1;fill:#0000c0;fill-opacity:1;stroke:none;stroke-width:2.5;stroke-linecap:butt;stroke-linejoin:miter;stroke-miterlimit:4;stroke-dasharray:none;stroke-dashoffset:0;stroke-opacity:1"
       d="M 228.4375,286.0625 C 225.27551,286.54829 222.10755,286.98312 218.90625,287.34375 C 222.63331,287.61564 226.38379,287.80273 230.15625,287.90625 C 229.51451,287.36356 228.93361,286.74256 228.4375,286.0625 z "
       id="path1327" />
    <path
       style="fill:#c00000;fill-opacity:1;stroke:none;stroke-width:2.5;stroke-linecap:butt;stroke-linejoin:miter;stroke-miterlimit:4;stroke-dasharray:none;stroke-dashoffset:0;stroke-opacity:1"
       d="M 153.78125,0 C 150.36672,8.5250339 148.5,17.822385 148.5,27.5625 C 148.5,68.546408 181.76609,101.8125 222.75,101.8125 C 236.33222,101.8125 249.0435,98.157927 260,91.78125 L 260,0 L 153.78125,0 z "
       id="path1317" />
    <path
       sodipodi:type="arc"
       style="opacity:1;fill:#b2b2b2;fill-opacity:1;stroke:none;stroke-width:2.5;stroke-linecap:butt;stroke-linejoin:miter;stroke-miterlimit:4;stroke-dasharray:none;stroke-dashoffset:0;stroke-opacity:1"
       id="path2198"
       sodipodi:cx="17.172594"
       sodipodi:cy="147.40605"
       sodipodi:rx="12.121831"
       sodipodi:ry="12.121831"
       d="M 29.294425 147.40605 A 12.121831 12.121831 0 1 1  5.0507631,147.40605 A 12.121831 12.121831 0 1 1  29.294425 147.40605 z"
       transform="matrix(0.989949,0,0,0.989949,-0.999998,2.075532)" />
    <path
       sodipodi:type="arc"
       style="opacity:1;fill:#90b8ff;fill-opacity:1;stroke:none;stroke-width:2.5;stroke-linecap:butt;stroke-linejoin:miter;stroke-miterlimit:4;stroke-dasharray:none;stroke-dashoffset:0;stroke-opacity:1"
       id="path2196"
       sodipodi:cx="53.538086"
       sodipodi:cy="242.36038"
       sodipodi:rx="29.294424"
       sodipodi:ry="29.294424"
       d="M 82.83251 242.36038 A 29.294424 29.294424 0 1 1  24.243662,242.36038 A 29.294424 29.294424 0 1 1  82.83251 242.36038 z"
       transform="matrix(1.007018,0,0,1.007018,-2.413804,-4.56128)" />
    <path
       sodipodi:type="arc"
       style="opacity:1;fill:#80ffff;fill-opacity:1;stroke:none;stroke-width:2.5;stroke-linecap:butt;stroke-linejoin:miter;stroke-miterlimit:4;stroke-dasharray:none;stroke-dashoffset:0;stroke-opacity:1"
       id="path2200"
       sodipodi:cx="17.172594"
       sodipodi:cy="147.40605"
       sodipodi:rx="12.121831"
       sodipodi:ry="12.121831"
       d="M 29.294425 147.40605 A 12.121831 12.121831 0 1 1  5.0507631,147.40605 A 12.121831 12.121831 0 1 1  29.294425 147.40605 z"
       transform="matrix(0.866206,0,0,0.866206,222.0534,152.2012)" />
    <path
       d="M 650,104 L 650,66 C 650,34 669.5,34 689,34 C 708.5,34 728,34 728,66 L 728,104 L 650,104 z M 552,314 L 552,81 C 552,34 591.10433,-4.21814 689,-4.21814 C 786.27023,-4.21814 825.99997,34 825.99997,81 L 825.99997,314 L 728,314 L 728,145 L 650,145 L 650,314 L 552,314 z "
       style="fill:#0000c0;fill-opacity:1;fill-rule:evenodd;stroke:none;stroke-width:1px;stroke-linecap:butt;stroke-linejoin:miter;stroke-opacity:1"
       id="path5478" />
    <path
       style="fill:#0000c0;fill-opacity:1;fill-rule:evenodd;stroke:none;stroke-width:1px;stroke-linecap:butt;stroke-linejoin:miter;stroke-opacity:1"
       d="M 419.71875,313.99793 C 323.49814,313.40722 285,275.41199 285,228.77918 L 285,0 L 383,0 L 383,243.77918 C 383,275.77918 402.5,275.77918 422,275.77918 L 525,276.18906 L 525,314 L 422,313.99793 C 421.23519,313.99793 420.47639,314.00258 419.71875,313.99793 z "
       id="path6356"
       sodipodi:nodetypes="cccccccccc" />
    <path
       style="fill:#0000c0;fill-opacity:1;fill-rule:evenodd;stroke:none;stroke-width:1px;stroke-linecap:butt;stroke-linejoin:miter;stroke-opacity:1"
       d="M 1094,74.04148 C 1094,15.045339 1032.5,-4.21814 971,-4.21814 C 909.5,-4.21814 848,24.175868 848,74.04148 C 848,154.93092 1017,185.07256 1017,240 C 1017,264.4122 996.75,273 976.5,273 C 956.25,273 936,263.90361 936,240 L 844,240 C 844,299.50473 910.5,318 977,318 C 1043.5,318 1110,292.46705 1110,234.40554 C 1110,133.81107 936,114.39317 936,65.41046 C 936,42.0348 956.9368,42.0348 969,42.0348 C 987.53435,42.0348 1002,49.120696 1002,74.04148 L 1094,74.04148 z "
       id="path6400"
       sodipodi:nodetypes="cssczcczssscc" />
    <path
       id="path7301"
       style="fill:#0000c0;fill-opacity:1;fill-rule:evenodd;stroke:none;stroke-width:1px;stroke-linecap:butt;stroke-linejoin:miter;stroke-opacity:1"
       d="M 1128,0 L 1128,314 L 1226,314 L 1226,170 L 1283,170 C 1399,170 1399,104.11232 1399,85 C 1399,65.470039 1399,0 1283,0 L 1128,0 z M 1226,35 L 1226,135 L 1253.7465,135 C 1301,135 1301,102.0649 1301,85 C 1301,68.352742 1301,35 1253.7465,35 L 1226,35 z " />
    <path
       id="path9962"
       d="M 260,279 C 255.74438,280.26496 251.4447,281.4078 247.09375,282.4375 C 246.55205,284.59363 245.36246,286.51086 243.71875,287.90625 C 249.193,287.73974 254.62291,287.37003 260,286.84375 L 260,279 z "
       style="opacity:1;fill:#0000c0;fill-opacity:1;stroke:none;stroke-width:2.5;stroke-linecap:butt;stroke-linejoin:miter;stroke-miterlimit:4;stroke-dasharray:none;stroke-dashoffset:0;stroke-opacity:1" />
    <g
       style="display:inline"
       id="g1370"
       transform="matrix(2.5990616,0,0,2.5743098,-355.00239,-1266.8813)">
      <path
         id="text4045"
         d="M 136.58868,641.91852 L 136.58868,625.58942 L 139.30646,625.58942 L 139.30646,639.14459 L 146.08966,639.14459 L 146.08966,641.91852 L 136.58868,641.91852 M 160.22882,641.91852 L 157.26398,641.91852 L 156.08478,638.17877 L 150.69415,638.17877 L 149.58234,641.91852 L 146.68488,641.91852 L 151.94073,625.45465 L 154.82697,625.45465 L 160.22882,641.91852 M 155.2088,635.40485 L 153.35577,629.29547 L 151.52521,635.40485 L 155.2088,635.40485 M 161.66632,625.45465 L 167.06818,625.45465 C 168.5431,625.45467 169.58005,625.58943 170.17902,625.85895 C 170.77796,626.12849 171.28333,626.60392 171.69513,627.28522 C 172.1069,627.96655 172.31279,628.7377 172.31281,629.59869 C 172.31279,630.39233 172.13685,631.11107 171.78497,631.75494 C 171.43307,632.39135 170.97637,632.86303 170.41486,633.16998 C 171.21595,633.4545 171.84111,633.94115 172.29034,634.62994 C 172.74704,635.31875 172.97539,636.15729 172.9754,637.14557 C 172.97539,638.34349 172.68714,639.35797 172.11066,640.18903 C 171.53415,641.01259 170.85283,641.52171 170.06671,641.71637 C 169.52015,641.85114 168.25111,641.91852 166.25958,641.91852 L 161.66632,641.91852 L 161.66632,625.45465 M 164.38409,628.19489 L 164.38409,632.00201 L 166.18097,632.00201 C 167.25909,632.00202 167.92543,631.98331 168.17999,631.94586 C 168.64418,631.871 169.0073,631.67634 169.26935,631.36188 C 169.53138,631.03995 169.66241,630.6057 169.66241,630.05914 C 169.66241,629.5725 169.55384,629.17944 169.33673,628.87994 C 169.12709,628.57299 168.86879,628.38207 168.56183,628.30719 C 168.26234,628.23233 167.39385,628.1949 165.95636,628.19489 L 164.38409,628.19489 M 164.38409,634.74225 L 164.38409,639.14459 L 166.91095,639.14459 C 168.01901,639.1446 168.73028,639.08844 169.04474,638.97614 C 169.35918,638.85635 169.62123,638.62799 169.83087,638.29108 C 170.04798,637.94668 170.15655,637.51244 170.15656,636.98834 C 170.15655,636.44929 170.0405,636.00755 169.80841,635.66315 C 169.58379,635.31127 169.28057,635.07168 168.89874,634.9444 C 168.52439,634.80964 167.75323,634.74226 166.58527,634.74225 L 164.38409,634.74225 M 174.73859,633.78766 C 174.73859,631.82608 175.02683,630.21264 175.60333,628.94733 C 176.18731,627.67455 176.94724,626.72745 177.88312,626.10602 C 178.81899,625.48462 179.95326,625.17391 181.28595,625.17389 C 183.21758,625.17391 184.78985,625.91137 186.00275,627.38629 C 187.22311,628.86124 187.8333,630.96134 187.83331,633.68658 C 187.8333,636.4418 187.18942,638.5943 185.90167,640.1441 C 184.77113,641.51422 183.2363,642.19928 181.29718,642.19928 C 179.34307,642.19928 177.80076,641.52171 176.67023,640.16656 C 175.38247,638.61676 174.73859,636.49046 174.73859,633.78766 M 177.5462,633.67535 C 177.5462,635.56957 177.90557,636.99209 178.62433,637.94293 C 179.34307,638.88629 180.23402,639.35797 181.29718,639.35797 C 182.36781,639.35797 183.25502,638.89004 183.9588,637.95416 C 184.66257,637.01081 185.01445,635.56582 185.01447,633.6192 C 185.01445,631.71003 184.67005,630.29874 183.98126,629.38531 C 183.29994,628.47192 182.40524,628.01521 181.29718,628.0152 C 180.1891,628.01521 179.28692,628.47566 178.59064,629.39655 C 177.89434,630.31746 177.5462,631.74372 177.5462,633.67535 M 189.97833,641.91852 L 189.97833,625.45465 L 195.7171,625.45465 C 197.18454,625.45467 198.23272,625.60441 198.86163,625.90387 C 199.49053,626.19588 200.00713,626.70874 200.41144,627.44244 C 200.81572,628.16869 201.01787,629.04093 201.01788,630.05914 C 201.01787,631.34691 200.70716,632.38386 200.08575,633.16998 C 199.47181,633.95612 198.59584,634.45026 197.45782,634.6524 C 198.0418,635.07168 198.52471,635.53213 198.90656,636.03375 C 199.28838,636.5279 199.80872,637.41885 200.46759,638.7066 L 202.10724,641.91852 L 198.86163,641.91852 L 196.88507,638.336 C 196.1738,637.04076 195.69089,636.23216 195.43634,635.91022 C 195.18178,635.5808 194.91225,635.35619 194.62775,635.23639 C 194.34324,635.10912 193.88653,635.04548 193.25763,635.04547 L 192.69611,635.04547 L 192.69611,641.91852 L 189.97833,641.91852 M 192.69611,632.41754 L 194.71759,632.41754 C 195.95293,632.41755 196.73907,632.36514 197.07599,632.26031 C 197.41289,632.14802 197.68617,631.92715 197.89581,631.59772 C 198.10544,631.2683 198.21026,630.83031 198.21027,630.28375 C 198.21026,629.75968 198.10544,629.34041 197.89581,629.02594 C 197.68617,628.70401 197.40166,628.48315 197.0423,628.36334 C 196.78773,628.281 196.05027,628.23982 194.8299,628.23981 L 192.69611,628.23981 L 192.69611,632.41754 M 215.75226,641.91852 L 212.78741,641.91852 L 211.60822,638.17877 L 206.21759,638.17877 L 205.10577,641.91852 L 202.20831,641.91852 L 207.46417,625.45465 L 210.3504,625.45465 L 215.75226,641.91852 M 210.73224,635.40485 L 208.87921,629.29547 L 207.04865,635.40485 L 210.73224,635.40485 M 220.23322,641.91852 L 220.23322,628.23981 L 216.22394,628.23981 L 216.22394,625.45465 L 226.94904,625.45465 L 226.94904,628.23981 L 222.95099,628.23981 L 222.95099,641.91852 L 220.23322,641.91852 M 228.19562,633.78766 C 228.19562,631.82608 228.48387,630.21264 229.06036,628.94733 C 229.64435,627.67455 230.40427,626.72745 231.34015,626.10602 C 232.27602,625.48462 233.41029,625.17391 234.74298,625.17389 C 236.67461,625.17391 238.24688,625.91137 239.45978,627.38629 C 240.68014,628.86124 241.29033,630.96134 241.29034,633.68658 C 241.29033,636.4418 240.64645,638.5943 239.3587,640.1441 C 238.22816,641.51422 236.69333,642.19928 234.75421,642.19928 C 232.8001,642.19928 231.25779,641.52171 230.12726,640.16656 C 228.8395,638.61676 228.19562,636.49046 228.19562,633.78766 M 231.00323,633.67535 C 231.00323,635.56957 231.36261,636.99209 232.08136,637.94293 C 232.8001,638.88629 233.69105,639.35797 234.75421,639.35797 C 235.82484,639.35797 236.71205,638.89004 237.41583,637.95416 C 238.1196,637.01081 238.47149,635.56582 238.4715,633.6192 C 238.47149,631.71003 238.12708,630.29874 237.43829,629.38531 C 236.75697,628.47192 235.86228,628.01521 234.75421,628.0152 C 233.64613,628.01521 232.74395,628.47566 232.04767,629.39655 C 231.35138,630.31746 231.00323,631.74372 231.00323,633.67535 M 243.43536,641.91852 L 243.43536,625.45465 L 249.17413,625.45465 C 250.64157,625.45467 251.68975,625.60441 252.31866,625.90387 C 252.94756,626.19588 253.46416,626.70874 253.86847,627.44244 C 254.27275,628.16869 254.4749,629.04093 254.47491,630.05914 C 254.4749,631.34691 254.16419,632.38386 253.54279,633.16998 C 252.92884,633.95612 252.05287,634.45026 250.91486,634.6524 C 251.49883,635.07168 251.98174,635.53213 252.36359,636.03375 C 252.74541,636.5279 253.26576,637.41885 253.92462,638.7066 L 255.56427,641.91852 L 252.31866,641.91852 L 250.3421,638.336 C 249.63083,637.04076 249.14792,636.23216 248.89337,635.91022 C 248.63881,635.5808 248.36928,635.35619 248.08478,635.23639 C 247.80027,635.10912 247.34356,635.04548 246.71466,635.04547 L 246.15314,635.04547 L 246.15314,641.91852 L 243.43536,641.91852 M 246.15314,632.41754 L 248.17462,632.41754 C 249.40997,632.41755 250.1961,632.36514 250.53302,632.26031 C 250.86993,632.14802 251.1432,631.92715 251.35284,631.59772 C 251.56247,631.2683 251.66729,630.83031 251.6673,630.28375 C 251.66729,629.75968 251.56247,629.34041 251.35284,629.02594 C 251.1432,628.70401 250.85869,628.48315 250.49933,628.36334 C 250.24476,628.281 249.5073,628.23982 248.28693,628.23981 L 246.15314,628.23981 L 246.15314,632.41754 M 260.58429,641.91852 L 260.58429,634.98932 L 255.64288,625.45465 L 258.83234,625.45465 L 262.01056,631.96832 L 265.13263,625.45465 L 268.26593,625.45465 L 263.30206,635.01178 L 263.30206,641.91852 L 260.58429,641.91852 M 274.89191,641.91852 L 274.89191,625.45465 L 284.14581,625.45465 L 284.14581,628.23981 L 277.60968,628.23981 L 277.60968,632.13678 L 283.25861,632.13678 L 283.25861,634.92194 L 277.60968,634.92194 L 277.60968,641.91852 L 274.89191,641.91852 M 285.87531,633.78766 C 285.8753,631.82608 286.16355,630.21264 286.74005,628.94733 C 287.32403,627.67455 288.08396,626.72745 289.01984,626.10602 C 289.9557,625.48462 291.08998,625.17391 292.42267,625.17389 C 294.3543,625.17391 295.92656,625.91137 297.13947,627.38629 C 298.35983,628.86124 298.97002,630.96134 298.97003,633.68658 C 298.97002,636.4418 298.32614,638.5943 297.03839,640.1441 C 295.90785,641.51422 294.37302,642.19928 292.4339,642.19928 C 290.47979,642.19928 288.93748,641.52171 287.80695,640.16656 C 286.51918,638.61676 285.8753,636.49046 285.87531,633.78766 M 288.68292,633.67535 C 288.68292,635.56957 289.04229,636.99209 289.76105,637.94293 C 290.47979,638.88629 291.37074,639.35797 292.4339,639.35797 C 293.50453,639.35797 294.39173,638.89004 295.09552,637.95416 C 295.79929,637.01081 296.15117,635.56582 296.15118,633.6192 C 296.15117,631.71003 295.80677,630.29874 295.11798,629.38531 C 294.43666,628.47192 293.54196,628.01521 292.4339,628.0152 C 291.32582,628.01521 290.42364,628.47566 289.72736,629.39655 C 289.03106,630.31746 288.68292,631.74372 288.68292,633.67535 M 301.11505,641.91852 L 301.11505,625.45465 L 306.85382,625.45465 C 308.32126,625.45467 309.36944,625.60441 309.99835,625.90387 C 310.62725,626.19588 311.14385,626.70874 311.54816,627.44244 C 311.95244,628.16869 312.15459,629.04093 312.1546,630.05914 C 312.15459,631.34691 311.84388,632.38386 311.22247,633.16998 C 310.60853,633.95612 309.73255,634.45026 308.59454,634.6524 C 309.17852,635.07168 309.66143,635.53213 310.04327,636.03375 C 310.4251,636.5279 310.94544,637.41885 311.60431,638.7066 L 313.24396,641.91852 L 309.99835,641.91852 L 308.02179,638.336 C 307.31052,637.04076 306.82761,636.23216 306.57306,635.91022 C 306.3185,635.5808 306.04896,635.35619 305.76447,635.23639 C 305.47995,635.10912 305.02325,635.04548 304.39435,635.04547 L 303.83282,635.04547 L 303.83282,641.91852 L 301.11505,641.91852 M 303.83282,632.41754 L 305.85431,632.41754 C 307.08965,632.41755 307.87579,632.36514 308.21271,632.26031 C 308.54961,632.14802 308.82289,631.92715 309.03253,631.59772 C 309.24216,631.2683 309.34698,630.83031 309.34698,630.28375 C 309.34698,629.75968 309.24216,629.34041 309.03253,629.02594 C 308.82289,628.70401 308.53838,628.48315 308.17902,628.36334 C 307.92445,628.281 307.18698,628.23982 305.96661,628.23981 L 303.83282,628.23981 L 303.83282,632.41754 M 332.14484,641.91852 L 329.17999,641.91852 L 328.00079,638.17877 L 322.61017,638.17877 L 321.49835,641.91852 L 318.60089,641.91852 L 323.85675,625.45465 L 326.74298,625.45465 L 332.14484,641.91852 M 327.12482,635.40485 L 325.27179,629.29547 L 323.44122,635.40485 L 327.12482,635.40485 M 336.62579,641.91852 L 336.62579,628.23981 L 332.61652,628.23981 L 332.61652,625.45465 L 343.34161,625.45465 L 343.34161,628.23981 L 339.34357,628.23981 L 339.34357,641.91852 L 336.62579,641.91852 M 346.09833,641.91852 L 346.09833,625.45465 L 350.17499,625.45465 L 352.62323,636.68512 L 355.04901,625.45465 L 359.1369,625.45465 L 359.1369,641.91852 L 356.61005,641.91852 L 356.61005,628.95856 L 353.92596,641.91852 L 351.29803,641.91852 L 348.63641,628.95856 L 348.63641,641.91852 L 346.09833,641.91852 M 363.32512,633.78766 C 363.32512,631.82608 363.61337,630.21264 364.18987,628.94733 C 364.77385,627.67455 365.53377,626.72745 366.46965,626.10602 C 367.40552,625.48462 368.53979,625.17391 369.87248,625.17389 C 371.80411,625.17391 373.37638,625.91137 374.58928,627.38629 C 375.80964,628.86124 376.41983,630.96134 376.41985,633.68658 C 376.41983,636.4418 375.77595,638.5943 374.4882,640.1441 C 373.35766,641.51422 371.82283,642.19928 369.88371,642.19928 C 367.92961,642.19928 366.38729,641.52171 365.25676,640.16656 C 363.969,638.61676 363.32512,636.49046 363.32512,633.78766 M 366.13274,633.67535 C 366.13273,635.56957 366.49211,636.99209 367.21086,637.94293 C 367.92961,638.88629 368.82056,639.35797 369.88371,639.35797 C 370.95434,639.35797 371.84155,638.89004 372.54533,637.95416 C 373.2491,637.01081 373.60099,635.56582 373.601,633.6192 C 373.60099,631.71003 373.25659,630.29874 372.56779,629.38531 C 371.88647,628.47192 370.99178,628.01521 369.88371,628.0152 C 368.77563,628.01521 367.87345,628.47566 367.17717,629.39655 C 366.48088,630.31746 366.13273,631.74372 366.13274,633.67535 M 377.86858,636.56158 L 380.5302,636.24713 C 380.82967,638.35098 381.81047,639.4029 383.47258,639.40289 C 384.29614,639.4029 384.94376,639.18952 385.41545,638.76276 C 385.88712,638.32852 386.12296,637.7932 386.12297,637.1568 C 386.12296,636.78246 386.0406,636.46426 385.8759,636.20221 C 385.71118,635.94017 385.46036,635.72679 385.12346,635.56207 C 384.78654,635.38988 383.97046,635.10537 382.67522,634.70856 C 381.51473,634.35668 380.66496,633.97484 380.1259,633.56305 C 379.58684,633.15127 379.15633,632.61221 378.8344,631.94586 C 378.51994,631.27204 378.36272,630.54955 378.36272,629.77838 C 378.36272,628.87996 378.56486,628.07136 378.96916,627.3526 C 379.38094,626.63387 379.94621,626.09106 380.66496,625.72418 C 381.38371,625.35734 382.27091,625.17391 383.32658,625.17389 C 384.91382,625.17391 386.15291,625.60441 387.04387,626.46539 C 387.93481,627.32641 388.40649,628.55802 388.45891,630.16022 L 385.7299,630.30621 C 385.6101,629.42276 385.3518,628.80509 384.955,628.45319 C 384.55818,628.10131 383.99292,627.92537 383.2592,627.92535 C 382.52547,627.92537 381.96021,628.07885 381.5634,628.3858 C 381.16659,628.69278 380.96818,629.07462 380.96819,629.53131 C 380.96818,629.98054 381.14787,630.35863 381.50725,630.66559 C 381.86662,630.97257 382.69393,631.30948 383.98918,631.67633 C 385.35929,632.07315 386.34757,632.49242 386.95403,632.93414 C 387.56795,633.3684 388.03588,633.93366 388.35783,634.62994 C 388.67976,635.31875 388.84073,636.15729 388.84074,637.14557 C 388.84073,638.57559 388.399,639.77724 387.51555,640.75055 C 386.63956,641.72386 385.2657,642.21051 383.39397,642.21051 C 380.08472,642.21051 378.24292,640.32754 377.86858,636.56158 M 391.13176,641.91852 L 391.13176,625.45465 L 395.51164,625.45465 C 397.1438,625.45467 398.21069,625.53328 398.71233,625.69049 C 399.51342,625.94506 400.17228,626.48787 400.68889,627.31891 C 401.21297,628.14998 401.47501,629.22061 401.47502,630.53082 C 401.47501,631.72126 401.2504,632.72077 400.80119,633.52936 C 400.35196,634.33047 399.79044,634.89574 399.11662,635.22516 C 398.44279,635.54711 397.28231,635.70808 395.63518,635.70807 L 393.84953,635.70807 L 393.84953,641.91852 L 391.13176,641.91852 M 393.84953,628.23981 L 393.84953,632.91168 L 395.35442,632.91168 C 396.36515,632.91169 397.05021,632.84056 397.40959,632.6983 C 397.77645,632.55606 398.07592,632.3015 398.30803,631.93463 C 398.54012,631.56029 398.65616,631.10359 398.65617,630.56451 C 398.65616,630.01798 398.53637,629.55753 398.2968,629.18317 C 398.05721,628.80883 397.76147,628.55802 397.40959,628.43073 C 397.0577,628.30346 396.31274,628.23982 395.17473,628.23981 L 393.84953,628.23981 M 404.72589,641.91852 L 404.72589,625.45465 L 407.44366,625.45465 L 407.44366,631.93463 L 412.78937,631.93463 L 412.78937,625.45465 L 415.51837,625.45465 L 415.51837,641.91852 L 412.78937,641.91852 L 412.78937,634.71979 L 407.44366,634.71979 L 407.44366,641.91852 L 404.72589,641.91852 M 418.8396,641.91852 L 418.8396,625.45465 L 428.85718,625.45465 L 428.85718,628.23981 L 421.55737,628.23981 L 421.55737,631.88971 L 428.34058,631.88971 L 428.34058,634.66364 L 421.55737,634.66364 L 421.55737,639.14459 L 429.10425,639.14459 L 429.10425,641.91852 L 418.8396,641.91852 M 431.41772,641.91852 L 431.41772,625.45465 L 437.15649,625.45465 C 438.62393,625.45467 439.67211,625.60441 440.30103,625.90387 C 440.92992,626.19588 441.44652,626.70874 441.85083,627.44244 C 442.25511,628.16869 442.45726,629.04093 442.45728,630.05914 C 442.45726,631.34691 442.14655,632.38386 441.52515,633.16998 C 440.9112,633.95612 440.03523,634.45026 438.89722,634.6524 C 439.48119,635.07168 439.9641,635.53213 440.34595,636.03375 C 440.72777,636.5279 441.24812,637.41885 441.90698,638.7066 L 443.54663,641.91852 L 440.30103,641.91852 L 438.32446,638.336 C 437.61319,637.04076 437.13028,636.23216 436.87573,635.91022 C 436.62117,635.5808 436.35164,635.35619 436.06714,635.23639 C 435.78263,635.10912 435.32592,635.04548 434.69702,635.04547 L 434.1355,635.04547 L 434.1355,641.91852 L 431.41772,641.91852 M 434.1355,632.41754 L 436.15698,632.41754 C 437.39233,632.41755 438.17846,632.36514 438.51538,632.26031 C 438.85229,632.14802 439.12556,631.92715 439.33521,631.59772 C 439.54483,631.2683 439.64965,630.83031 439.64966,630.28375 C 439.64965,629.75968 439.54483,629.34041 439.33521,629.02594 C 439.12556,628.70401 438.84106,628.48315 438.48169,628.36334 C 438.22712,628.281 437.48966,628.23982 436.26929,628.23981 L 434.1355,628.23981 L 434.1355,632.41754 M 444.93921,641.91852 L 444.93921,625.45465 L 447.65698,625.45465 L 447.65698,641.91852 L 444.93921,641.91852 M 459.9259,635.8653 L 462.56506,636.88727 C 462.15327,638.72907 461.46821,640.07672 460.50989,640.93024 C 459.55154,641.77627 458.37235,642.19928 456.97229,642.19928 C 455.21284,642.19928 453.78658,641.52171 452.69348,640.16656 C 451.43567,638.60179 450.80676,636.49046 450.80676,633.83258 C 450.80676,631.02497 451.43941,628.82755 452.70471,627.2403 C 453.80529,625.86271 455.28397,625.17391 457.14075,625.17389 C 458.65311,625.17391 459.91841,625.69051 460.93665,626.72369 C 461.66287,627.45743 462.19445,628.54679 462.53137,629.99176 L 459.83606,630.77789 C 459.66385,629.88695 459.31945,629.20564 458.80286,628.73395 C 458.29373,628.25479 457.69103,628.01521 456.99475,628.0152 C 455.99898,628.01521 455.18664,628.44946 454.55774,629.31793 C 453.92883,630.18643 453.61438,631.62019 453.61438,633.6192 C 453.61438,635.6931 453.92134,637.16803 454.53528,638.04401 C 455.14921,638.91999 455.94657,639.35797 456.92737,639.35797 C 457.64611,639.35797 458.26753,639.08096 458.79163,638.52692 C 459.31571,637.9654 459.6938,637.07819 459.9259,635.8653 M 482.31946,641.91852 L 479.35461,641.91852 L 478.17542,638.17877 L 472.78479,638.17877 L 471.67297,641.91852 L 468.77551,641.91852 L 474.03137,625.45465 L 476.9176,625.45465 L 482.31946,641.91852 M 477.29944,635.40485 L 475.44641,629.29547 L 473.61584,635.40485 L 477.29944,635.40485 M 484.79538,641.91852 L 484.79538,625.45465 L 487.44577,625.45465 L 492.97116,636.44928 L 492.97116,625.45465 L 495.50925,625.45465 L 495.50925,641.91852 L 492.76901,641.91852 L 487.33347,631.18219 L 487.33347,641.91852 L 484.79538,641.91852 M 499.36655,625.45465 L 504.34164,625.45465 C 505.59945,625.45467 506.54655,625.59692 507.18295,625.88141 C 507.82682,626.15844 508.41829,626.63012 508.95737,627.29645 C 509.49642,627.9628 509.91943,628.82755 510.22641,629.89069 C 510.53336,630.95385 510.68685,632.2753 510.68686,633.85504 C 510.68685,635.27757 510.52588,636.51667 510.20395,637.57233 C 509.882,638.62051 509.47396,639.45156 508.97983,640.06549 C 508.48568,640.67942 507.88672,641.14362 507.18295,641.45807 C 506.48666,641.76504 505.58822,641.91852 504.48764,641.91852 L 499.36655,641.91852 L 499.36655,625.45465 M 502.08432,628.23981 L 502.08432,639.14459 L 504.12827,639.14459 C 505.00423,639.1446 505.63688,639.06224 506.02621,638.89752 C 506.42302,638.73281 506.74496,638.48574 506.99203,638.15631 C 507.24658,637.8194 507.45622,637.29157 507.62094,636.57281 C 507.78564,635.85407 507.868,634.90697 507.86801,633.73151 C 507.868,632.51114 507.7819,631.54906 507.60971,630.84528 C 507.44499,630.14151 507.18294,629.58748 506.82358,629.18317 C 506.47168,628.77888 506.04118,628.5131 505.53207,628.3858 C 505.15023,628.28849 504.41276,628.23982 503.31967,628.23981 L 502.08432,628.23981 M 518.56467,636.56158 L 521.22629,636.24713 C 521.52576,638.35098 522.50656,639.4029 524.16867,639.40289 C 524.99223,639.4029 525.63985,639.18952 526.11154,638.76276 C 526.58321,638.32852 526.81905,637.7932 526.81906,637.1568 C 526.81905,636.78246 526.7367,636.46426 526.57199,636.20221 C 526.40727,635.94017 526.15646,635.72679 525.81955,635.56207 C 525.48263,635.38988 524.66655,635.10537 523.37131,634.70856 C 522.21082,634.35668 521.36105,633.97484 520.82199,633.56305 C 520.28293,633.15127 519.85243,632.61221 519.53049,631.94586 C 519.21603,631.27204 519.05881,630.54955 519.05881,629.77838 C 519.05881,628.87996 519.26095,628.07136 519.66525,627.3526 C 520.07703,626.63387 520.6423,626.09106 521.36105,625.72418 C 522.0798,625.35734 522.96701,625.17391 524.02267,625.17389 C 525.60991,625.17391 526.849,625.60441 527.73996,626.46539 C 528.6309,627.32641 529.10258,628.55802 529.155,630.16022 L 526.42599,630.30621 C 526.30619,629.42276 526.04789,628.80509 525.65109,628.45319 C 525.25428,628.10131 524.68901,627.92537 523.95529,627.92535 C 523.22156,627.92537 522.6563,628.07885 522.25949,628.3858 C 521.86268,628.69278 521.66427,629.07462 521.66428,629.53131 C 521.66427,629.98054 521.84396,630.35863 522.20334,630.66559 C 522.56271,630.97257 523.39002,631.30948 524.68527,631.67633 C 526.05538,632.07315 527.04366,632.49242 527.65012,632.93414 C 528.26404,633.3684 528.73197,633.93366 529.05392,634.62994 C 529.37585,635.31875 529.53682,636.15729 529.53683,637.14557 C 529.53682,638.57559 529.09509,639.77724 528.21164,640.75055 C 527.33565,641.72386 525.96179,642.21051 524.09006,642.21051 C 520.78081,642.21051 518.93901,640.32754 518.56467,636.56158 M 531.82785,641.91852 L 531.82785,625.45465 L 536.20773,625.45465 C 537.83989,625.45467 538.90678,625.53328 539.40842,625.69049 C 540.20951,625.94506 540.86837,626.48787 541.38498,627.31891 C 541.90906,628.14998 542.1711,629.22061 542.17111,630.53082 C 542.1711,631.72126 541.94649,632.72077 541.49728,633.52936 C 541.04805,634.33047 540.48653,634.89574 539.81271,635.22516 C 539.13888,635.54711 537.9784,635.70808 536.33127,635.70807 L 534.54562,635.70807 L 534.54562,641.91852 L 531.82785,641.91852 M 534.54562,628.23981 L 534.54562,632.91168 L 536.05051,632.91168 C 537.06124,632.91169 537.7463,632.84056 538.10568,632.6983 C 538.47254,632.55606 538.77202,632.3015 539.00412,631.93463 C 539.23621,631.56029 539.35226,631.10359 539.35226,630.56451 C 539.35226,630.01798 539.23246,629.55753 538.99289,629.18317 C 538.7533,628.80883 538.45756,628.55802 538.10568,628.43073 C 537.75379,628.30346 537.00883,628.23982 535.87082,628.23981 L 534.54562,628.23981 M 556.5798,641.91852 L 553.61496,641.91852 L 552.43576,638.17877 L 547.04514,638.17877 L 545.93332,641.91852 L 543.03586,641.91852 L 548.29172,625.45465 L 551.17795,625.45465 L 556.5798,641.91852 M 551.55978,635.40485 L 549.70676,629.29547 L 547.87619,635.40485 L 551.55978,635.40485 M 566.66476,635.8653 L 569.30392,636.88727 C 568.89213,638.72907 568.20707,640.07672 567.24875,640.93024 C 566.29041,641.77627 565.11121,642.19928 563.71115,642.19928 C 561.95171,642.19928 560.52544,641.52171 559.43234,640.16656 C 558.17453,638.60179 557.54562,636.49046 557.54562,633.83258 C 557.54562,631.02497 558.17827,628.82755 559.44357,627.2403 C 560.54416,625.86271 562.02283,625.17391 563.87961,625.17389 C 565.39197,625.17391 566.65727,625.69051 567.67551,626.72369 C 568.40173,627.45743 568.93331,628.54679 569.27023,629.99176 L 566.57492,630.77789 C 566.40271,629.88695 566.05831,629.20564 565.54172,628.73395 C 565.03259,628.25479 564.42989,628.01521 563.73361,628.0152 C 562.73784,628.01521 561.9255,628.44946 561.2966,629.31793 C 560.66769,630.18643 560.35324,631.62019 560.35324,633.6192 C 560.35324,635.6931 560.6602,637.16803 561.27414,638.04401 C 561.88807,638.91999 562.68543,639.35797 563.66623,639.35797 C 564.38497,639.35797 565.00639,639.08096 565.53049,638.52692 C 566.05457,637.9654 566.43266,637.07819 566.66476,635.8653 M 571.63986,641.91852 L 571.63986,625.45465 L 581.65744,625.45465 L 581.65744,628.23981 L 574.35764,628.23981 L 574.35764,631.88971 L 581.14084,631.88971 L 581.14084,634.66364 L 574.35764,634.66364 L 574.35764,639.14459 L 581.90451,639.14459 L 581.90451,641.91852 L 571.63986,641.91852 M 589.46262,641.91852 L 589.46262,625.45465 L 593.8425,625.45465 C 595.47465,625.45467 596.54155,625.53328 597.04318,625.69049 C 597.84428,625.94506 598.50313,626.48787 599.01974,627.31891 C 599.54382,628.14998 599.80587,629.22061 599.80588,630.53082 C 599.80587,631.72126 599.58126,632.72077 599.13205,633.52936 C 598.68282,634.33047 598.1213,634.89574 597.44748,635.22516 C 596.77364,635.54711 595.61316,635.70808 593.96603,635.70807 L 592.18039,635.70807 L 592.18039,641.91852 L 589.46262,641.91852 M 592.18039,628.23981 L 592.18039,632.91168 L 593.68527,632.91168 C 594.69601,632.91169 595.38107,632.84056 595.74045,632.6983 C 596.1073,632.55606 596.40678,632.3015 596.63889,631.93463 C 596.87097,631.56029 596.98702,631.10359 596.98703,630.56451 C 596.98702,630.01798 596.86723,629.55753 596.62766,629.18317 C 596.38806,628.80883 596.09233,628.55802 595.74045,628.43073 C 595.38855,628.30346 594.6436,628.23982 593.50558,628.23981 L 592.18039,628.23981 M 602.05197,641.91852 L 602.05197,625.45465 L 604.76974,625.45465 L 604.76974,631.93463 L 610.11545,631.93463 L 610.11545,625.45465 L 612.84445,625.45465 L 612.84445,641.91852 L 610.11545,641.91852 L 610.11545,634.71979 L 604.76974,634.71979 L 604.76974,641.91852 L 602.05197,641.91852 M 619.2009,641.91852 L 619.2009,634.98932 L 614.25949,625.45465 L 617.44894,625.45465 L 620.62717,631.96832 L 623.74924,625.45465 L 626.88254,625.45465 L 621.91867,635.01178 L 621.91867,641.91852 L 619.2009,641.91852 M 627.54514,636.56158 L 630.20676,636.24713 C 630.50623,638.35098 631.48703,639.4029 633.14914,639.40289 C 633.9727,639.4029 634.62032,639.18952 635.09201,638.76276 C 635.56368,638.32852 635.79952,637.7932 635.79953,637.1568 C 635.79952,636.78246 635.71716,636.46426 635.55246,636.20221 C 635.38774,635.94017 635.13692,635.72679 634.80002,635.56207 C 634.4631,635.38988 633.64702,635.10537 632.35178,634.70856 C 631.19129,634.35668 630.34152,633.97484 629.80246,633.56305 C 629.26339,633.15127 628.83289,632.61221 628.51096,631.94586 C 628.1965,631.27204 628.03927,630.54955 628.03928,629.77838 C 628.03927,628.87996 628.24142,628.07136 628.64572,627.3526 C 629.0575,626.63387 629.62277,626.09106 630.34152,625.72418 C 631.06027,625.35734 631.94747,625.17391 633.00314,625.17389 C 634.59038,625.17391 635.82947,625.60441 636.72043,626.46539 C 637.61137,627.32641 638.08305,628.55802 638.13547,630.16022 L 635.40646,630.30621 C 635.28666,629.42276 635.02836,628.80509 634.63156,628.45319 C 634.23474,628.10131 633.66948,627.92537 632.93576,627.92535 C 632.20203,627.92537 631.63676,628.07885 631.23996,628.3858 C 630.84315,628.69278 630.64474,629.07462 630.64474,629.53131 C 630.64474,629.98054 630.82443,630.35863 631.18381,630.66559 C 631.54318,630.97257 632.37049,631.30948 633.66574,631.67633 C 635.03585,632.07315 636.02413,632.49242 636.63058,632.93414 C 637.24451,633.3684 637.71244,633.93366 638.03439,634.62994 C 638.35632,635.31875 638.51729,636.15729 638.5173,637.14557 C 638.51729,638.57559 638.07556,639.77724 637.19211,640.75055 C 636.31612,641.72386 634.94226,642.21051 633.07053,642.21051 C 629.76128,642.21051 627.91948,640.32754 627.54514,636.56158 M 642.73923,641.91852 L 642.73923,625.45465 L 645.457,625.45465 L 645.457,641.91852 L 642.73923,641.91852 M 656.72116,635.8653 L 659.36032,636.88727 C 658.94852,638.72907 658.26347,640.07672 657.30515,640.93024 C 656.3468,641.77627 655.1676,642.19928 653.76755,642.19928 C 652.0081,642.19928 650.58183,641.52171 649.48874,640.16656 C 648.23092,638.60179 647.60202,636.49046 647.60202,633.83258 C 647.60202,631.02497 648.23467,628.82755 649.49997,627.2403 C 650.60055,625.86271 652.07923,625.17391 653.936,625.17389 C 655.44837,625.17391 656.71366,625.69051 657.7319,626.72369 C 658.45813,627.45743 658.9897,628.54679 659.32663,629.99176 L 656.63132,630.77789 C 656.45911,629.88695 656.11471,629.20564 655.59811,628.73395 C 655.08899,628.25479 654.48629,628.01521 653.79001,628.0152 C 652.79423,628.01521 651.9819,628.44946 651.353,629.31793 C 650.72409,630.18643 650.40963,631.62019 650.40964,633.6192 C 650.40963,635.6931 650.7166,637.16803 651.33054,638.04401 C 651.94446,638.91999 652.74183,639.35797 653.72263,639.35797 C 654.44137,639.35797 655.06279,639.08096 655.58688,638.52692 C 656.11096,637.9654 656.48905,637.07819 656.72116,635.8653 M 661,636.56158 L 663.66162,636.24713 C 663.9611,638.35098 664.94189,639.4029 666.604,639.40289 C 667.42756,639.4029 668.07519,639.18952 668.54688,638.76276 C 669.01855,638.32852 669.25439,637.7932 669.25439,637.1568 C 669.25439,636.78246 669.17203,636.46426 669.00732,636.20221 C 668.8426,635.94017 668.59179,635.72679 668.25488,635.56207 C 667.91796,635.38988 667.10188,635.10537 665.80664,634.70856 C 664.64615,634.35668 663.79638,633.97484 663.25732,633.56305 C 662.71826,633.15127 662.28776,632.61221 661.96582,631.94586 C 661.65137,631.27204 661.49414,630.54955 661.49414,629.77838 C 661.49414,628.87996 661.69629,628.07136 662.10059,627.3526 C 662.51237,626.63387 663.07763,626.09106 663.79639,625.72418 C 664.51513,625.35734 665.40234,625.17391 666.45801,625.17389 C 668.04524,625.17391 669.28433,625.60441 670.17529,626.46539 C 671.06623,627.32641 671.53791,628.55802 671.59033,630.16022 L 668.86133,630.30621 C 668.74153,629.42276 668.48323,628.80509 668.08643,628.45319 C 667.68961,628.10131 667.12434,627.92537 666.39063,627.92535 C 665.6569,627.92537 665.09163,628.07885 664.69482,628.3858 C 664.29801,628.69278 664.09961,629.07462 664.09961,629.53131 C 664.09961,629.98054 664.27929,630.35863 664.63867,630.66559 C 664.99804,630.97257 665.82535,631.30948 667.12061,631.67633 C 668.49071,632.07315 669.47899,632.49242 670.08545,632.93414 C 670.69937,633.3684 671.16731,633.93366 671.48926,634.62994 C 671.81119,635.31875 671.97216,636.15729 671.97217,637.14557 C 671.97216,638.57559 671.53042,639.77724 670.64697,640.75055 C 669.77099,641.72386 668.39713,642.21051 666.52539,642.21051 C 663.21614,642.21051 661.37435,640.32754 661,636.56158"
         style="font-size:12px;font-style:normal;font-weight:normal;line-height:125%;fill:#000000;fill-opacity:1;stroke:none;stroke-width:1px;stroke-linecap:butt;stroke-linejoin:miter;stroke-opacity:1;font-family:Bitstream Vera Sans" />
      <path
         id="text8602"
         d="M 129.42778,762.16674 L 129.42778,773.67633 C 129.42777,775.23369 129.25279,776.43233 128.90283,777.27225 C 128.55285,778.11218 127.87479,778.83836 126.86864,779.45081 C 125.87122,780.0545 124.6507,780.35635 123.20709,780.35635 C 121.74597,780.35635 120.54295,780.09387 119.59804,779.56892 C 118.66187,779.04397 117.98819,778.32653 117.57698,777.41661 C 117.16576,776.49795 116.96015,775.32993 116.96016,773.91255 L 116.96016,762.16674 L 120.25423,762.16674 L 120.25423,773.67633 C 120.25423,775.25119 120.58232,776.28797 121.23852,776.78667 C 121.90345,777.27663 122.67338,777.52161 123.54831,777.5216 C 124.55446,777.52161 125.35939,777.25913 125.9631,776.73418 C 126.56678,776.20048 126.86863,775.1812 126.86864,773.67633 L 126.86864,762.16674 L 129.42778,762.16674 M 146.64623,780.08075 L 143.50964,780.08075 L 136.7115,768.63678 C 136.60651,768.46181 136.4359,768.17746 136.19967,767.78373 C 136.09468,767.60876 135.93282,767.33316 135.71409,766.95693 L 135.71409,780.08075 L 133.11558,780.08075 L 133.11558,762.16674 L 136.68526,762.16674 L 142.95844,772.71829 C 143.01092,772.80579 143.39151,773.44885 144.10021,774.64749 L 144.10021,762.16674 L 146.64623,762.16674 L 146.64623,780.08075 M 153.81184,780.08075 L 150.58338,780.08075 L 150.58338,762.16674 L 153.81184,762.16674 L 153.81184,780.08075 M 164.63899,780.08075 L 161.35803,780.08075 L 155.83291,762.16674 L 159.2451,762.16674 L 163.35285,775.89425 L 167.55248,762.16674 L 170.24286,762.16674 L 164.63899,780.08075 M 183.91788,780.08075 L 172.27705,780.08075 L 172.27705,762.16674 L 183.79976,762.16674 L 183.79976,764.83087 L 175.50551,764.83087 L 175.50551,769.68669 L 182.17241,769.68669 L 182.17241,772.2852 L 175.50551,772.2852 L 175.50551,777.2985 L 183.91788,777.2985 L 183.91788,780.08075 M 200.66387,780.08075 L 197.25168,780.08075 L 194.46943,772.71829 L 189.92858,772.71829 L 189.92858,780.08075 L 186.70012,780.08075 L 186.70012,762.16674 L 194.46943,762.16674 C 196.63047,762.16675 198.21845,762.65671 199.23337,763.6366 C 200.24826,764.60778 200.75572,765.86767 200.75573,767.41626 C 200.75572,769.71732 199.67957,771.30092 197.52728,772.16709 L 200.66387,780.08075 M 189.92858,770.13289 L 193.94447,770.13289 C 195.10811,770.1329 195.97428,769.88793 196.54299,769.39796 C 197.11168,768.90802 197.39602,768.23433 197.39604,767.37689 C 197.39602,766.58948 197.11605,765.95516 196.55611,765.47394 C 195.99615,764.984 195.2131,764.73902 194.20695,764.73901 L 189.92858,764.73901 L 189.92858,770.13289 M 202.09437,775.76301 L 205.23096,775.0937 C 205.60717,776.86979 207.05079,777.75784 209.56182,777.75783 C 210.70796,777.75784 211.58726,777.53036 212.19971,777.0754 C 212.82089,776.62044 213.13149,776.05612 213.1315,775.38242 C 213.13149,774.89247 212.9915,774.44189 212.71154,774.03067 C 212.43155,773.61071 211.83223,773.28262 210.91358,773.04638 L 207.48826,772.15396 C 206.31586,771.84775 205.44969,771.50216 204.88974,771.11718 C 204.32979,770.72348 203.87921,770.17228 203.53799,769.46358 C 203.20552,768.75491 203.03928,767.9981 203.03928,767.19316 C 203.03928,765.59207 203.63423,764.31031 204.82412,763.34788 C 206.01401,762.37674 207.53637,761.89116 209.39121,761.89114 C 210.93106,761.89116 212.30469,762.228 213.51209,762.90167 C 214.72822,763.57538 215.50252,764.52904 215.83501,765.76266 L 212.76403,766.52384 C 212.29157,765.16773 211.18917,764.48967 209.45683,764.48965 C 208.45067,764.48967 207.68074,764.69965 207.14704,765.1196 C 206.62208,765.53957 206.35961,766.07327 206.35961,766.7207 C 206.35961,767.74437 207.19078,768.46181 208.85314,768.87301 L 211.89786,769.63419 C 213.74393,770.09791 214.98195,770.78472 215.6119,771.69463 C 216.24183,772.59581 216.5568,773.59321 216.55682,774.68686 C 216.5568,776.44546 215.89186,777.8322 214.562,778.84711 C 213.24085,779.85327 211.52601,780.35635 209.41746,780.35635 C 207.64136,780.35635 206.08401,779.98451 204.74538,779.24083 C 203.4155,778.49714 202.53183,777.33787 202.09437,775.76301 M 222.05202,780.08075 L 218.82356,780.08075 L 218.82356,762.16674 L 222.05202,762.16674 L 222.05202,780.08075 M 232.24923,780.08075 L 228.78454,780.08075 L 228.78454,764.93586 L 224.02059,764.93586 L 224.02059,762.16674 L 237.01317,762.16674 L 237.01317,764.93586 L 232.24923,764.93586 L 232.24923,780.08075 M 246.18673,780.08075 L 242.76141,780.08075 L 242.76141,772.52143 L 236.65883,762.16674 L 240.56973,762.16674 L 244.82185,769.55545 L 248.89023,762.16674 L 251.98745,762.16674 L 246.18673,772.52143 L 246.18673,780.08075 M 268.91875,780.35635 C 266.53896,780.35635 264.68413,779.46393 263.35425,777.67909 C 262.03312,775.89426 261.37256,773.68946 261.37256,771.06469 C 261.37256,768.45743 262.07687,766.27888 263.48549,764.52902 C 264.89411,762.77045 266.75332,761.89116 269.06312,761.89114 C 271.39039,761.89116 273.22773,762.77045 274.57512,764.52902 C 275.93123,766.27888 276.60929,768.47056 276.60931,771.10406 C 276.60929,773.86881 275.90498,776.10424 274.49638,777.81033 C 273.09649,779.50768 271.23728,780.35635 268.91875,780.35635 M 268.945,777.75783 C 270.10864,777.75784 271.09292,777.27663 271.89786,776.31421 C 272.70278,775.3518 273.10524,773.60634 273.10525,771.07781 C 273.10524,769.02176 272.77277,767.4119 272.10784,766.24824 C 271.44289,765.07587 270.41048,764.48967 269.01062,764.48965 C 266.24586,764.48967 264.86349,766.71634 264.86349,771.16968 C 264.86349,773.33074 265.21346,774.97121 265.9134,776.09111 C 266.62208,777.20226 267.63261,777.75784 268.945,777.75783 M 282.93499,780.08075 L 279.61467,780.08075 L 279.61467,762.16674 L 290.94052,762.16674 L 290.94052,764.93586 L 282.93499,764.93586 L 282.93499,769.83105 L 289.23443,769.83105 L 289.23443,772.52143 L 282.93499,772.52143 L 282.93499,780.08075 M 309.99631,773.86006 L 312.98854,774.18815 C 312.79604,775.98175 312.10048,777.46036 310.90185,778.62401 C 309.71194,779.7789 308.14584,780.35635 306.20352,780.35635 C 304.56741,780.35635 303.23753,779.94514 302.21388,779.12271 C 301.19897,778.30029 300.41592,777.18476 299.86472,775.77614 C 299.31352,774.36752 299.03792,772.81454 299.03792,771.11718 C 299.03792,768.38744 299.68536,766.16952 300.98024,764.46341 C 302.27512,762.74858 304.05558,761.89116 306.32164,761.89114 C 308.09772,761.89116 309.57633,762.43798 310.75749,763.53161 C 311.93862,764.62528 312.6823,766.19139 312.98854,768.22994 L 309.99631,768.54491 C 309.44509,765.84142 308.22895,764.48967 306.34788,764.48965 C 305.14049,764.48967 304.19995,765.05399 303.52626,766.18263 C 302.86132,767.30254 302.52885,768.92989 302.52885,771.06469 C 302.52885,773.2345 302.88757,774.87497 303.60501,775.98612 C 304.32244,777.08852 305.27172,777.63972 306.45287,777.63972 C 307.39778,777.63972 308.20271,777.26788 308.86766,776.52419 C 309.53259,775.78052 309.9088,774.89247 309.99631,773.86006 M 322.14896,780.35635 C 319.76917,780.35635 317.91434,779.46393 316.58446,777.67909 C 315.26333,775.89426 314.60277,773.68946 314.60277,771.06469 C 314.60277,768.45743 315.30708,766.27888 316.7157,764.52902 C 318.12432,762.77045 319.98353,761.89116 322.29332,761.89114 C 324.6206,761.89116 326.45794,762.77045 327.80533,764.52902 C 329.16144,766.27888 329.8395,768.47056 329.83952,771.10406 C 329.8395,773.86881 329.13519,776.10424 327.72659,777.81033 C 326.3267,779.50768 324.46749,780.35635 322.14896,780.35635 M 322.17521,777.75783 C 323.33885,777.75784 324.32313,777.27663 325.12807,776.31421 C 325.93298,775.3518 326.33545,773.60634 326.33546,771.07781 C 326.33545,769.02176 326.00298,767.4119 325.33805,766.24824 C 324.6731,765.07587 323.64069,764.48967 322.24083,764.48965 C 319.47607,764.48967 318.0937,766.71634 318.0937,771.16968 C 318.0937,773.33074 318.44367,774.97121 319.14361,776.09111 C 319.85229,777.20226 320.86282,777.75784 322.17521,777.75783 M 343.86889,780.08075 L 332.84488,780.08075 L 332.84488,762.16674 L 336.24395,762.16674 L 336.24395,777.15414 L 343.86889,777.15414 L 343.86889,780.08075 M 351.84081,780.35635 C 349.46102,780.35635 347.60619,779.46393 346.27631,777.67909 C 344.95518,775.89426 344.29461,773.68946 344.29462,771.06469 C 344.29461,768.45743 344.99893,766.27888 346.40755,764.52902 C 347.81617,762.77045 349.67538,761.89116 351.98517,761.89114 C 354.31245,761.89116 356.14979,762.77045 357.49718,764.52902 C 358.85329,766.27888 359.53135,768.47056 359.53137,771.10406 C 359.53135,773.86881 358.82704,776.10424 357.41843,777.81033 C 356.01855,779.50768 354.15934,780.35635 351.84081,780.35635 M 351.86706,777.75783 C 353.03069,777.75784 354.01498,777.27663 354.81992,776.31421 C 355.62483,775.3518 356.0273,773.60634 356.02731,771.07781 C 356.0273,769.02176 355.69483,767.4119 355.0299,766.24824 C 354.36495,765.07587 353.33254,764.48967 351.93268,764.48965 C 349.16792,764.48967 347.78555,766.71634 347.78555,771.16968 C 347.78555,773.33074 348.13552,774.97121 348.83546,776.09111 C 349.54414,777.20226 350.55467,777.75784 351.86706,777.75783 M 375.99809,780.08075 L 372.5859,780.08075 L 369.80365,772.71829 L 365.26281,772.71829 L 365.26281,780.08075 L 362.03435,780.08075 L 362.03435,762.16674 L 369.80365,762.16674 C 371.96469,762.16675 373.55267,762.65671 374.56759,763.6366 C 375.58249,764.60778 376.08994,765.86767 376.08996,767.41626 C 376.08994,769.71732 375.01379,771.30092 372.8615,772.16709 L 375.99809,780.08075 M 365.26281,770.13289 L 369.27869,770.13289 C 370.44233,770.1329 371.3085,769.88793 371.87721,769.39796 C 372.4459,768.90802 372.73025,768.23433 372.73026,767.37689 C 372.73025,766.58948 372.45027,765.95516 371.89033,765.47394 C 371.33037,764.984 370.54732,764.73902 369.54117,764.73901 L 365.26281,764.73901 L 365.26281,770.13289 M 393.36091,780.08075 L 389.90934,780.08075 L 388.47885,775.81551 L 381.58884,775.81551 L 380.18459,780.08075 L 377.42859,780.08075 L 383.37368,762.16674 L 387.3502,762.16674 L 393.36091,780.08075 M 387.61267,773.23012 L 385.00103,765.23771 L 382.38939,773.23012 L 387.61267,773.23012 M 394.91897,780.08075 L 394.91897,762.16674 L 401.52025,762.16674 C 403.96127,762.16675 405.92109,763.03293 407.39972,764.76525 C 408.87832,766.48886 409.61763,768.61929 409.61764,771.15655 C 409.61763,773.69383 408.85644,775.81551 407.3341,777.5216 C 405.81172,779.2277 403.63317,780.08075 400.79844,780.08075 L 394.91897,780.08075 M 398.23929,777.44286 L 400.92967,777.44286 C 402.37328,777.44286 403.59817,776.90041 404.60434,775.81551 C 405.61049,774.73061 406.11357,773.11638 406.11358,770.97282 C 406.11357,769.22299 405.67173,767.74437 404.78808,766.53697 C 403.91314,765.32084 402.75388,764.71277 401.31026,764.71276 L 398.23929,764.71276 L 398.23929,777.44286 M 418.70876,780.35635 C 416.32897,780.35635 414.47414,779.46393 413.14426,777.67909 C 411.82313,775.89426 411.16257,773.68946 411.16257,771.06469 C 411.16257,768.45743 411.86688,766.27888 413.2755,764.52902 C 414.68412,762.77045 416.54333,761.89116 418.85312,761.89114 C 421.1804,761.89116 423.01774,762.77045 424.36513,764.52902 C 425.72124,766.27888 426.3993,768.47056 426.39932,771.10406 C 426.3993,773.86881 425.69499,776.10424 424.28638,777.81033 C 422.8865,779.50768 421.02729,780.35635 418.70876,780.35635 M 418.73501,777.75783 C 419.89865,777.75784 420.88293,777.27663 421.68787,776.31421 C 422.49278,775.3518 422.89525,773.60634 422.89526,771.07781 C 422.89525,769.02176 422.56278,767.4119 421.89785,766.24824 C 421.2329,765.07587 420.20049,764.48967 418.80063,764.48965 C 416.03587,764.48967 414.6535,766.71634 414.6535,771.16968 C 414.6535,773.33074 415.00347,774.97121 415.70341,776.09111 C 416.41209,777.20226 417.42262,777.75784 418.73501,777.75783 M 450.68207,780.08075 L 447.23051,780.08075 L 445.80001,775.81551 L 438.91001,775.81551 L 437.50576,780.08075 L 434.74976,780.08075 L 440.69485,762.16674 L 444.67136,762.16674 L 450.68207,780.08075 M 444.93384,773.23012 L 442.3222,765.23771 L 439.71056,773.23012 L 444.93384,773.23012 M 458.59206,780.08075 L 455.12737,780.08075 L 455.12737,764.93586 L 450.36343,764.93586 L 450.36343,762.16674 L 463.35601,762.16674 L 463.35601,764.93586 L 458.59206,764.93586 L 458.59206,780.08075 M 472.04397,780.08075 L 472.04397,762.16674 L 479.02585,762.16674 C 480.20698,762.16675 481.18689,762.28924 481.96558,762.5342 C 482.74425,762.7792 483.41794,763.29103 483.98665,764.06969 C 484.55533,764.84839 484.83968,765.76268 484.8397,766.81257 C 484.83968,767.80124 484.55096,768.66304 483.97353,769.39796 C 483.39606,770.12416 482.59989,770.58786 481.58499,770.78909 C 482.84486,771.00783 483.79853,771.51965 484.44598,772.32457 C 485.09341,773.12951 485.41713,774.08317 485.41715,775.18557 C 485.41713,776.56794 484.96217,777.73159 484.05227,778.6765 C 483.15109,779.61267 481.75996,780.08075 479.87889,780.08075 L 472.04397,780.08075 M 475.10182,769.68669 L 479.03897,769.68669 C 479.84389,769.6867 480.4782,769.44609 480.94192,768.96488 C 481.41437,768.48368 481.6506,767.87124 481.65061,767.12754 C 481.6506,766.30513 481.38375,765.70143 480.85006,765.31645 C 480.31634,764.92275 479.69078,764.7259 478.97335,764.72588 L 475.10182,764.72588 L 475.10182,769.68669 M 475.10182,777.39037 L 479.2752,777.39037 C 480.15886,777.39037 480.85442,777.15852 481.36189,776.6948 C 481.87808,776.2311 482.13618,775.60553 482.13619,774.8181 C 482.13618,774.06567 481.8737,773.44885 481.34876,772.96764 C 480.83255,772.48644 480.14573,772.24584 479.28832,772.24583 L 475.10182,772.24583 L 475.10182,777.39037 M 494.97127,780.35635 C 492.59148,780.35635 490.73665,779.46393 489.40678,777.67909 C 488.08564,775.89426 487.42508,773.68946 487.42508,771.06469 C 487.42508,768.45743 488.12939,766.27888 489.53801,764.52902 C 490.94663,762.77045 492.80584,761.89116 495.11564,761.89114 C 497.44292,761.89116 499.28025,762.77045 500.62764,764.52902 C 501.98375,766.27888 502.66182,768.47056 502.66183,771.10406 C 502.66182,773.86881 501.9575,776.10424 500.5489,777.81033 C 499.14901,779.50768 497.2898,780.35635 494.97127,780.35635 M 494.99752,777.75783 C 496.16116,777.75784 497.14544,777.27663 497.95038,776.31421 C 498.7553,775.3518 499.15776,773.60634 499.15777,771.07781 C 499.15776,769.02176 498.82529,767.4119 498.16036,766.24824 C 497.49541,765.07587 496.463,764.48967 495.06314,764.48965 C 492.29838,764.48967 490.91601,766.71634 490.91601,771.16968 C 490.91601,773.33074 491.26598,774.97121 491.96592,776.09111 C 492.6746,777.20226 493.68513,777.75784 494.99752,777.75783 M 517.96422,762.16674 L 517.96422,773.67633 C 517.96421,775.23369 517.78922,776.43233 517.43927,777.27225 C 517.08929,778.11218 516.41122,778.83836 515.40508,779.45081 C 514.40766,780.0545 513.18714,780.35635 511.74353,780.35635 C 510.28241,780.35635 509.07939,780.09387 508.13448,779.56892 C 507.19831,779.04397 506.52462,778.32653 506.11341,777.41661 C 505.7022,776.49795 505.49659,775.32993 505.49659,773.91255 L 505.49659,762.16674 L 508.79067,762.16674 L 508.79067,773.67633 C 508.79067,775.25119 509.11876,776.28797 509.77496,776.78667 C 510.43989,777.27663 511.20982,777.52161 512.08475,777.5216 C 513.0909,777.52161 513.89583,777.25913 514.49953,776.73418 C 515.10322,776.20048 515.40507,775.1812 515.40508,773.67633 L 515.40508,762.16674 L 517.96422,762.16674 M 532.67601,780.08075 L 521.65201,780.08075 L 521.65201,762.16674 L 525.05108,762.16674 L 525.05108,777.15414 L 532.67601,777.15414 L 532.67601,780.08075 M 533.45241,780.08075 L 533.45241,762.16674 L 540.05369,762.16674 C 542.49471,762.16675 544.45453,763.03293 545.93316,764.76525 C 547.41177,766.48886 548.15107,768.61929 548.15109,771.15655 C 548.15107,773.69383 547.38989,775.81551 545.86755,777.5216 C 544.34517,779.2277 542.16662,780.08075 539.33188,780.08075 L 533.45241,780.08075 M 536.77274,777.44286 L 539.46312,777.44286 C 540.90673,777.44286 542.13162,776.90041 543.13779,775.81551 C 544.14394,774.73061 544.64702,773.11638 544.64703,770.97282 C 544.64702,769.22299 544.20518,767.74437 543.32152,766.53697 C 542.44659,765.32084 541.28732,764.71277 539.84371,764.71276 L 536.77274,764.71276 L 536.77274,777.44286 M 561.27703,780.08075 L 549.6362,780.08075 L 549.6362,762.16674 L 561.15891,762.16674 L 561.15891,764.83087 L 552.86466,764.83087 L 552.86466,769.68669 L 559.53156,769.68669 L 559.53156,772.2852 L 552.86466,772.2852 L 552.86466,777.2985 L 561.27703,777.2985 L 561.27703,780.08075 M 576.51587,780.08075 L 573.10367,780.08075 L 570.32142,772.71829 L 565.78058,772.71829 L 565.78058,780.08075 L 562.55212,780.08075 L 562.55212,762.16674 L 570.32142,762.16674 C 572.48247,762.16675 574.07045,762.65671 575.08537,763.6366 C 576.10026,764.60778 576.60772,765.86767 576.60773,767.41626 C 576.60772,769.71732 575.53156,771.30092 573.37927,772.16709 L 576.51587,780.08075 M 565.78058,770.13289 L 569.79647,770.13289 C 570.96011,770.1329 571.82628,769.88793 572.39499,769.39796 C 572.96367,768.90802 573.24802,768.23433 573.24803,767.37689 C 573.24802,766.58948 572.96805,765.95516 572.40811,765.47394 C 571.84815,764.984 571.0651,764.73902 570.05895,764.73901 L 565.78058,764.73901 L 565.78058,770.13289"
         style="font-size:26.87758064px;font-style:normal;font-variant:normal;font-weight:normal;font-stretch:normal;text-align:start;line-height:100%;writing-mode:lr-tb;text-anchor:start;fill:#000000;fill-opacity:1;stroke:none;stroke-width:1px;stroke-linecap:butt;stroke-linejoin:miter;stroke-opacity:1;font-family:Franklin Gothic Medium"
         transform="scale(1.16859,0.855732)" />
    </g>
  </g>
</svg>
