<?xml version="1.0" encoding="UTF-8" standalone="no"?>
<!-- Created with Inkscape (http://www.inkscape.org/) -->
<svg
   xmlns:dc="http://purl.org/dc/elements/1.1/"
   xmlns:cc="http://web.resource.org/cc/"
   xmlns:rdf="http://www.w3.org/1999/02/22-rdf-syntax-ns#"
   xmlns:svg="http://www.w3.org/2000/svg"
   xmlns="http://www.w3.org/2000/svg"
   xmlns:sodipodi="http://sodipodi.sourceforge.net/DTD/sodipodi-0.dtd"
   xmlns:inkscape="http://www.inkscape.org/namespaces/inkscape"
   id="svg1376"
   sodipodi:version="0.32"
   inkscape:version="0.45.1"
   width="845.81232"
   height="462.38089"
   sodipodi:docbase="/mnt/big/codebase/pov/Pegasus/svg"
   sodipodi:docname="PegasusLeft.svg"
   version="1.0"
   x="0.0000000"
   y="0.0000000"
   inkscape:output_extension="org.inkscape.output.svg.inkscape"
   inkscape:export-filename="/mnt/big/codebase/pov/Pegasus/svg/PegasusLeft.svg.png"
   inkscape:export-xdpi="89.925865"
   inkscape:export-ydpi="89.925865">
  <metadata
     id="metadata1381">
    <rdf:RDF>
      <cc:Work
         rdf:about="">
        <dc:format>image/svg+xml</dc:format>
        <dc:type
           rdf:resource="http://purl.org/dc/dcmitype/StillImage" />
      </cc:Work>
    </rdf:RDF>
  </metadata>
  <defs
     id="defs1379" />
  <sodipodi:namedview
     inkscape:window-height="1122"
     inkscape:window-width="1592"
     inkscape:pageshadow="2"
     inkscape:pageopacity="0.0"
     borderopacity="1.0"
     bordercolor="#666666"
     pagecolor="#ffffff"
     id="base"
     inkscape:zoom="1.5324259"
     inkscape:cx="443.99973"
     inkscape:cy="220.62815"
     inkscape:window-x="0"
     inkscape:window-y="0"
     inkscape:current-layer="layer3"
     showgrid="false"
     inkscape:grid-points="false"
     gridspacingy="20.700000px"
     gridempspacing="1"
     gridoriginx="0.0000000px"
     gridoriginy="16.400000px"
     gridspacingx="1000.0000px"
     inkscape:grid-bbox="false"
     gridempcolor="#ff0000"
     gridempopacity="1.0000000"
     showguides="true"
     inkscape:guide-bbox="true"
     gridtolerance="2.0000000px"
     guidetolerance="5.0000000px"
     inkscape:guide-points="false" />
  <g
     inkscape:groupmode="layer"
     id="layer1"
     inkscape:label="Pegasus"
     style="display:inline"
     transform="translate(4.8434862e-8,82.380877)">
    <path
       id="path1387"
       style="fill:#c00000;fill-opacity:1"
       d="M 244.02616,298.82197 C 243.28987,297.38857 243.48893,293.6811 244.62829,287.60795 C 245.26439,284.21737 246.75839,278.31495 246.98051,278.31495 C 247.01959,278.31495 248.02248,278.79886 249.20916,279.39029 C 250.39583,279.98173 252.34162,280.64331 253.5331,280.86046 C 256.46069,281.39405 306.32572,281.39679 309.59048,280.86356 C 314.34931,280.0863 315.6546,278.2159 316.94785,270.32089 C 317.38661,267.64242 317.88414,265.45093 318.05349,265.45093 C 318.22284,265.45093 318.36138,265.10245 318.36138,264.67653 C 318.36138,264.07863 318.21576,263.96518 317.72247,264.17878 C 317.37108,264.33096 315.76923,264.88537 314.16282,265.41084 L 311.24207,266.36623 L 290.6143,266.36802 L 269.98653,266.36979 L 267.24832,265.05132 C 260.06531,261.59262 255.41841,254.29315 254.63377,245.23605 C 253.79805,235.58937 262.46061,202.14777 268.4248,191.99621 C 270.09727,189.14951 274.55779,184.51959 277.57013,182.50354 C 278.96502,181.57001 281.36161,180.29337 282.89591,179.66659 L 285.68553,178.52696 L 307.77368,178.52696 L 329.86183,178.52696 L 332.68411,179.8837 C 334.37086,180.69455 336.13364,181.89014 337.06533,182.85521 L 338.62426,184.47001 L 339.26008,183.13023 C 339.60977,182.39336 340.48506,181.09752 341.20517,180.2506 L 342.51445,178.71074 L 364.23948,178.71074 C 376.18823,178.71074 385.90118,178.83477 385.82373,178.98639 C 382.23125,186.02105 381.91983,187.16161 369.08921,240.27422 C 363.86401,261.90414 359.32849,280.42832 359.01029,281.43906 C 357.91024,284.93331 355.84921,288.3572 353.09524,291.26543 C 350.05807,294.47272 347.00116,296.56559 342.89058,298.25187 C 340.20894,299.35196 339.77667,299.4149 333.14767,299.67051 C 329.33245,299.81763 307.85548,299.95193 285.42109,299.96899 L 244.63128,300 L 244.02616,298.82197 z M 321.49163,247.49772 C 322.93127,246.04842 323.82112,244.0453 325.19036,239.1716 C 327.23601,231.89024 332.54487,210.11653 333.5603,204.84321 C 334.43554,200.29791 334.46579,199.82781 333.9527,198.74464 C 332.90803,196.53922 331.94326,196.35265 321.59205,196.35419 C 310.75157,196.3558 310.54343,196.41306 309.0536,199.80445 C 307.46723,203.41559 301.65042,225.02198 298.64554,238.46497 C 297.39261,244.07022 297.44511,245.42932 298.99229,247.44132 L 299.69887,248.36018 L 309.4865,248.54395 C 314.86969,248.64502 319.55725,248.66824 319.90328,248.59553 C 320.24932,248.52284 320.96407,248.02882 321.49163,247.49772 z M 0,266.40673 C 1.231018e-18,266.32596 0.59267317,265.37495 1.3170515,264.29336 C 2.0414298,263.21176 3.1705856,261.25175 3.8262866,259.93779 C 7.0785675,253.4205 8.3469858,249.14455 18.926669,209.03305 C 24.738345,186.99884 29.671768,168.06117 29.889832,166.94935 C 30.556741,163.54905 31.032933,157.55894 31.032933,152.57008 L 31.032933,147.82482 L 82.96746,147.92285 L 134.90199,148.02087 L 137.64019,149.07236 C 141.54806,150.57299 144.08903,152.22497 146.70051,154.9628 C 149.95185,158.37145 150.90042,160.62288 151.0846,165.36842 C 151.43692,174.44674 147.84135,193.2734 143.65592,204.26545 C 140.28255,213.12482 133.50501,220.50705 126.24034,223.23486 L 123.94919,224.09516 L 93.103166,224.28252 L 62.257146,224.46986 L 60.698819,228.81398 C 56.025744,241.84097 53.661236,254.24318 54.221921,262.78625 L 54.469172,266.55357 L 27.234586,266.55357 C 12.255564,266.55357 -1.231018e-18,266.48748 0,266.40673 z M 94.19339,202.78518 C 96.064815,201.81093 98.193171,196.40283 101.47444,184.28422 C 104.48635,173.16041 104.64295,170.91831 102.55181,168.86009 C 100.73731,167.0742 99.433454,166.91173 87.845644,167.02763 L 77.298631,167.13312 L 72.632172,184.35749 C 70.06562,193.83089 67.86731,201.97657 67.747034,202.459 L 67.528357,203.33613 L 80.331709,203.33613 C 90.99469,203.33613 93.311985,203.24403 94.19339,202.78518 z M 152.15416,266.15517 C 147.56181,265.06528 142.34234,260.61103 140.06123,255.83519 C 138.08054,251.6883 137.56493,249.33522 137.37635,243.58212 C 137.22743,239.03858 137.32124,237.87745 138.17819,233.65845 C 141.02871,219.62452 147.48946,197.16848 150.49743,190.83965 C 152.3524,186.93676 156.31045,182.74144 159.81585,180.96262 C 164.36752,178.65286 163.01138,178.72213 203.79538,178.71617 C 229.33809,178.71243 241.52945,178.83656 242.86037,179.11393 C 253.71514,181.37601 260.64844,193.22087 259.2284,207.07704 C 258.85661,210.70471 256.67169,219.46546 254.35765,226.60701 L 252.78736,231.45319 L 218.41436,231.54694 L 184.04136,231.64071 L 183.149,232.83335 C 181.73156,234.72778 181.00901,237.38777 180.81079,241.44126 C 180.64706,244.78962 180.7083,245.31204 181.39578,246.43188 C 181.8181,247.1198 182.58613,247.87644 183.10252,248.11329 C 183.79478,248.43083 191.59754,248.54395 212.80819,248.54395 C 240.38646,248.54395 241.69302,248.51356 244.43194,247.80836 C 246.00326,247.40378 247.34314,247.12739 247.40944,247.19413 C 247.8716,247.65939 244.2106,258.51292 241.66452,264.22572 L 240.62704,266.55357 L 197.0744,266.51665 C 173.12044,266.49633 152.90633,266.33367 152.15416,266.15517 z M 212.92404,212.91204 C 214.10458,211.9772 215.52441,208.74168 216.69193,204.32572 C 217.74863,200.32891 217.66091,198.76536 216.29683,197.28362 L 215.43994,196.35281 L 204.8959,196.35281 L 194.35186,196.35281 L 193.2457,197.73851 C 190.94357,200.62242 188.89431,206.3234 188.5086,210.91694 L 188.28101,213.62734 L 200.15089,213.62734 C 211.35846,213.62734 212.07116,213.58744 212.92404,212.91204 z M 391.5626,266.02314 C 384.65233,264.71041 380.0722,261.87598 377.33922,257.22099 C 375.14928,253.49095 374.77736,251.69976 374.77422,244.86853 C 374.77104,237.94965 375.51602,233.32111 377.76152,226.30758 C 379.29112,221.53007 380.43905,219.1519 382.9318,215.59643 C 385.08066,212.53142 387.15994,210.70937 390.00552,209.3979 C 394.56049,207.29856 394.80861,207.28104 423.32573,207.04519 C 443.33232,206.87973 449.80262,206.7182 450.40853,206.36911 C 452.44305,205.19683 453.8414,201.42937 453.09124,199.14113 C 452.85563,198.42247 452.2363,197.49667 451.71487,197.08378 C 450.77486,196.33939 450.50622,196.33394 419.70436,196.43483 C 391.50776,196.52719 388.51685,196.59365 387.28678,197.15513 L 385.93169,197.77368 L 386.14246,196.60381 C 386.79799,192.96539 391.02289,184.30198 393.97561,180.54142 L 395.41306,178.71074 L 434.37831,178.7135 C 459.6432,178.71531 474.17789,178.85103 475.71661,179.0995 C 485.20916,180.63238 492.95351,186.37441 495.40366,193.69637 C 496.32924,196.46237 496.39153,200.53189 495.62023,207.84842 C 494.86576,215.00511 494.21936,218.14104 491.91683,225.81467 C 490.80432,229.5223 488.75322,237.07537 487.35886,242.59927 C 485.03814,251.79291 484.79305,253.12699 484.46224,258.36593 C 484.26349,261.51369 484.20419,264.64362 484.33048,265.32135 L 484.56013,266.55357 L 464.10453,266.55357 L 443.64889,266.55357 L 443.25357,264.69775 C 443.03612,263.67707 442.85822,262.42191 442.85822,261.90851 L 442.85822,260.97507 L 441.67166,261.98447 C 440.18548,263.24876 437.48126,264.46701 433.82449,265.51967 C 431.0891,266.30708 430.36498,266.3378 412.55547,266.42174 C 398.50602,266.48795 393.51004,266.39311 391.5626,266.02314 z M 437.34534,249.25257 C 439.45393,248.79732 441.86947,247.17314 442.6247,245.70274 C 444.10694,242.81694 446.61594,233.00851 447.09242,228.23718 L 447.34017,225.75627 L 436.42823,225.75832 C 430.36786,225.75946 424.93892,225.92184 424.21772,226.12354 C 423.50349,226.32327 422.48593,226.94259 421.95651,227.49977 C 419.80298,229.7662 417.41559,237.24858 417.05262,242.86935 C 416.83758,246.19908 416.83772,246.19974 417.97093,247.49905 C 418.59426,248.21378 419.64339,248.97248 420.30228,249.18504 C 421.89747,249.69968 435.03339,249.75172 437.34534,249.25257 z M 492.17488,266.0375 C 491.25692,264.92402 490.89183,261.1383 491.32556,257.23095 C 491.78539,253.08821 493.36446,247.51162 494.16529,247.20225 C 494.44838,247.0929 495.11822,247.35044 495.65381,247.77458 C 496.18944,248.19872 497.6902,248.87612 498.98887,249.27993 C 501.25201,249.98364 502.39074,250.0141 526.41176,250.01355 C 554.4361,250.01291 553.34195,250.11251 554.66747,247.44132 C 555.47304,245.81793 555.49499,243.09707 554.7116,241.97112 C 553.30932,239.95565 553.10658,239.9358 531.75844,239.72357 C 513.40563,239.54112 511.9299,239.47897 510.40048,238.82404 C 505.24799,236.61762 502.12144,232.80286 500.95563,227.30024 C 500.36498,224.5124 500.44658,218.37063 501.12791,214.33532 C 501.83956,210.1206 505.89315,196.3952 507.46046,192.89356 C 511.0307,184.91686 516.75636,179.85171 523.47129,178.72968 C 525.19184,178.44218 538.28156,178.35155 567.62061,178.42399 L 609.32427,178.52696 L 610.29575,179.50498 C 611.54667,180.76438 611.74925,182.75758 611.20093,188.41089 C 610.82908,192.24453 609.55666,197.47476 608.65447,198.87795 C 608.38518,199.29677 607.93911,199.25433 606.00624,198.626 C 599.51648,196.51632 599.83079,196.53658 573.6012,196.53658 L 549.36211,196.53658 L 548.66442,197.47706 C 547.71598,198.75558 547.39239,202.16987 548.1266,203.15236 C 548.66186,203.86869 549.21476,203.89223 569.7897,204.07498 C 588.86948,204.24443 591.06069,204.32524 592.5345,204.91381 C 595.30563,206.02045 597.12,207.26958 599.05993,209.40641 C 602.49487,213.19003 604.15419,218.1082 603.70494,223.17419 C 603.13707,229.57806 600.07442,242.54644 597.51044,249.404 C 593.90737,259.04075 588.59428,264.39575 581.04605,265.99823 C 577.30585,266.79229 492.82788,266.82961 492.17488,266.0375 z M 621.9734,265.96772 C 614.66789,264.18819 608.63114,258.15457 607.18858,251.19055 C 606.21306,246.48129 606.77775,240.88502 609.71785,226.12382 C 612.47543,212.27902 614.62266,203.54217 616.59847,198.12749 C 617.74975,194.97234 618.48308,190.14731 618.72553,184.132 L 618.94404,178.71074 L 640.38656,178.71074 L 661.82903,178.71074 L 662.04919,179.53771 C 662.65666,181.81974 662.25135,186.39849 660.98184,191.59405 C 660.26827,194.51459 658.3033,203.27181 656.61529,211.05453 C 652.38546,230.5564 651.45904,234.62013 650.37289,238.43651 C 649.23511,242.43422 649.271,245.72828 650.47,247.34548 L 651.22231,248.36018 L 660.95595,248.45808 C 671.73271,248.56647 672.01463,248.51733 673.74959,246.22741 C 674.25576,245.55932 674.9173,244.4166 675.21971,243.68801 C 675.52209,242.95942 678.08044,233.29275 680.90491,222.2065 C 683.72938,211.12027 686.43648,200.72657 686.9207,199.10938 C 687.94529,195.68744 688.43964,191.68367 688.76993,184.132 L 689.00702,178.71074 L 713.24779,178.71074 C 726.5802,178.71074 737.48853,178.76911 737.48853,178.84048 C 737.48853,178.91184 736.60983,180.85522 735.53584,183.15911 C 731.07023,192.73851 730.20145,195.57329 723.08418,223.78843 C 719.35435,238.5748 716.14576,251.88905 715.95405,253.37566 C 715.76234,254.86226 715.60042,258.43546 715.59422,261.31608 L 715.58294,266.55357 L 694.59748,266.55357 L 673.61202,266.55357 L 672.87443,265.09804 C 672.46874,264.29749 672.13682,263.38891 672.13682,263.07898 C 672.13682,262.67692 671.66184,262.88043 670.47923,263.78922 C 669.56752,264.4898 667.743,265.39837 666.42472,265.80828 C 664.13515,266.5202 663.13469,266.5522 644.07747,266.52294 C 628.12592,266.49846 623.69537,266.38716 621.9734,265.96772 z M 721.94685,265.64752 C 720.2546,263.04751 721.46937,250.76827 723.72616,247.66118 C 724.20984,246.99528 724.27924,247.00349 725.83739,247.91065 C 729.48448,250.03408 729.19482,250.01417 756.44838,250.01355 C 779.55058,250.01302 781.58086,249.96339 782.75971,249.37035 C 784.25072,248.62026 785.00886,247.21963 785.24114,244.78603 C 785.44413,242.65926 784.83632,241.58351 782.87873,240.60483 C 781.57421,239.95265 780.1843,239.89424 761.76724,239.71778 C 742.20726,239.53036 742.03559,239.52217 739.94029,238.67588 C 737.36429,237.63543 733.99842,234.60033 732.64561,232.09809 C 731.08147,229.20494 730.55121,226.47958 730.55654,221.36042 C 730.5598,218.23388 730.7913,215.62947 731.27629,213.26313 C 732.15569,208.97213 735.42039,197.76625 736.74882,194.47896 C 739.36354,188.00861 743.26968,183.1073 747.66434,180.78248 C 752.51184,178.21809 750.29674,178.32335 797.15818,178.43051 L 839.33307,178.52696 L 840.34533,179.54874 C 841.34298,180.55576 841.3565,180.63048 841.28249,184.72837 C 841.1952,189.56269 840.70915,193.00406 839.67093,196.13902 C 838.59179,199.39762 838.58919,199.39881 834.96846,198.33594 C 828.3331,196.38812 827.4885,196.33882 802.51451,196.44146 L 779.37044,196.53658 L 778.60348,197.57076 C 778.01999,198.35761 777.83595,199.14495 777.83398,200.86314 C 777.8316,202.90294 777.91963,203.16676 778.74408,203.59086 C 779.45101,203.95453 784.10507,204.0616 799.38643,204.0658 C 815.96805,204.07036 819.46324,204.16166 821.29202,204.63809 C 827.25666,206.19197 831.86586,211.30917 833.37978,218.05807 C 833.85941,220.19615 833.88686,221.18586 833.54693,224.08758 C 832.60736,232.10772 829.4305,244.74863 826.71475,251.27323 C 824.03738,257.70566 820.29331,262.16584 815.70821,264.38489 C 811.13082,266.60022 812.52387,266.54021 765.51788,266.54718 L 722.53654,266.55357 L 721.94685,265.64752 z " />
    <text
       xml:space="preserve"
       style="font-size:65.94658661px;font-style:normal;font-weight:bold;fill:#000000;fill-opacity:1;stroke:none;stroke-width:1px;stroke-linecap:butt;stroke-linejoin:miter;stroke-opacity:1;font-family:Arial"
       x="-2.8658431"
       y="379.16281"
       id="text2162"><tspan
         sodipodi:role="line"
         id="tspan2164"
         x="-2.8658431"
         y="379.16281">ORBITAL SCIENCES CORP</tspan></text>
  </g>
  <g
     inkscape:groupmode="layer"
     id="layer2"
     inkscape:label="R"
     transform="translate(4.8434862e-8,82.380877)" />
  <g
     inkscape:groupmode="layer"
     id="layer3"
     inkscape:label="Horse"
     style="display:inline"
     transform="translate(4.8434862e-8,82.380877)">
    <path
       style="fill:#000000;fill-opacity:1;stroke:none;stroke-width:0.2;stroke-miterlimit:4;stroke-dasharray:none;stroke-opacity:1"
       d="M 699.9845,-82.380877 C 695.69452,-82.380877 691.63525,-81.22407 687.67799,-79.599062 L 532.85154,-79.599062 C 529.18703,-78.657367 525.82114,-77.409015 522.59146,-76.03047 L 343.12396,-76.03047 C 340.47997,-74.509193 338.33295,-74.122335 336.28391,-72.152788 L 228.94541,-72.152788 C 223.4225,-72.152788 219.56934,-68.715493 217.08745,-65.577587 L 129.09176,-65.577587 C 128.92056,-75.788643 132.56246,-82.380877 142.40744,-82.380877 L 699.9845,-82.380877 z M 845.81234,-69.876757 C 841.52237,-69.876757 835.95876,-68.719949 829.88958,-67.09494 L 675.06313,-67.09494 C 670.17476,-66.153246 665.19887,-64.904893 660.17759,-63.526349 L 494.36219,-63.526349 C 489.74106,-62.005073 485.12259,-60.241355 480.51387,-58.271808 L 374.21261,-58.271808 L 373.98834,-58.18751 C 368.52187,-58.18751 362.32688,-56.211371 355.76687,-53.073466 L 219.91879,-53.017267 C 219.89423,-51.364127 219.73351,-48.736975 219.86271,-46.947852 L 132.23144,-46.947852 C 130.5179,-53.116573 129.33396,-58.868347 129.03568,-63.779241 L 269.25692,-63.779241 C 276.15737,-67.534708 282.60541,-69.876757 288.23529,-69.876757 L 845.81234,-69.876757 z M 788.87726,-51.27512 C 787.01991,-50.40648 785.03019,-49.380112 783.13048,-48.465205 L 618.8569,-48.465205 C 616.32774,-47.345309 613.81406,-46.099298 611.28798,-44.924713 L 454.83561,-44.924713 C 451.98475,-43.225437 449.15882,-41.46586 446.3416,-39.670172 L 334.26552,-39.670172 C 332.09253,-38.017033 329.90179,-36.232853 327.7058,-34.44373 L 222.10536,-34.612326 C 222.41751,-33.320839 223.13226,-28.972354 223.70324,-25.87349 C 225.85287,-28.118211 227.99442,-30.504409 230.15084,-32.645384 L 752.06988,-32.645384 C 750.39589,-31.742748 748.68194,-30.756848 746.99589,-29.83547 L 581.74116,-29.83547 C 579.72044,-28.70525 577.80364,-27.447653 575.79815,-26.294978 L 427.167,-26.294978 C 424.9016,-24.600463 422.74477,-22.80268 420.52317,-21.068536 L 312.596,-21.068536 C 310.78561,-19.357263 308.98822,-17.599715 307.18562,-15.842093 L 214.172,-15.842093 C 214.172,-15.842093 212.2959,-13.766666 212.5461,-14.043749 L 719.04697,-14.043749 C 717.42112,-13.099232 715.7936,-12.186077 714.16921,-11.233834 L 550.70859,-11.233834 C 548.90279,-10.068815 547.2662,-8.8671955 545.49445,-7.6933406 L 403.92761,-7.6933406 C 401.903,-5.9513419 399.99257,-4.1926632 398.01265,-2.4388007 L 294.01009,-2.4388007 C 292.39219,-0.71443189 290.89131,1.0390051 289.35661,2.7876412 L 198.9781,3.0405337 C 198.97808,3.0405337 197.27863,5.4088396 197.96891,4.5859866 L 688.07046,4.5859866 C 686.53202,5.5285177 684.97108,6.4542657 683.44501,7.3959021 L 523.48852,7.3959021 C 521.85227,8.5753819 520.4173,9.7317536 518.80699,10.908299 L 383.4635,10.908299 C 381.5609,12.719194 379.89784,14.419556 378.13723,16.162831 L 277.44257,16.162831 C 275.90883,17.945091 274.47308,19.659892 273.01335,21.389276 L 182.66288,21.389276 C 183.65109,20.149671 180.89127,23.653974 181.26122,23.187626 L 658.32741,23.187626 C 656.83834,24.14272 655.41749,25.052525 653.95426,25.997533 L 498.87551,25.997533 C 497.34154,27.222987 496.14353,28.333107 494.67055,29.538028 L 364.82155,29.538028 C 363.0575,31.357663 361.46678,33.024714 359.74755,34.792569 L 262.0244,34.792569 C 260.63238,36.5387 259.21948,38.272032 257.84748,39.990918 L 168.0857,39.990918 C 169.00869,38.77906 165.83058,42.988739 166.74012,41.789257 L 629.84584,41.789257 C 628.36129,42.788593 627.18468,43.626804 625.75303,44.599174 L 476.84155,44.599174 C 475.46336,45.83773 474.31218,46.949043 473.02905,48.139668 L 347.24482,48.139668 C 345.51379,50.045111 344.13338,51.599908 342.50724,53.39421 L 247.75558,53.39421 C 245.9644,55.845026 244.15058,58.273964 242.65357,60.418994 L 603.04626,60.418994 C 601.57269,61.490482 600.64368,62.242758 599.31787,63.228912 L 457.83514,63.228912 C 456.64544,64.541359 455.92046,65.55823 454.89168,66.769406 L 330.56516,66.769406 C 329.24619,68.279306 327.31575,70.485718 326.30414,71.630558 L 235.22482,71.630558 C 235.22482,71.630558 141.98695,71.71485 141.98695,71.71485 C 131.26131,49.654512 92.733967,11.913397 76.529808,3.1248313 C 67.705109,14.718172 58.248107,15.585737 43.619028,5.5975559 C 39.881973,3.0460375 37.431122,3.2721069 31.957283,3.3215247 L 11.549236,3.5182188 C 5.7167451,3.5708787 -5.6968409,-10.089837 3.3916115,-14.830524 C 13.269262,-19.982855 90.993139,-45.749104 118.49526,-46.245373 C 118.5942,-46.247149 108.81314,-32.347446 108.90796,-32.251997 C 109.00162,-32.157715 142.14482,-21.803473 143.02417,-21.60242 C 139.29663,-29.764064 133.89641,-41.08542 132.70801,-45.149506 L 243.57866,-45.149506 C 245.96959,-47.265167 248.35681,-49.384523 250.69905,-51.27512 L 788.87726,-51.27512 z "
       id="path1397" />
  </g>
</svg>
