<?xml version="1.0" encoding="UTF-8" standalone="no"?>
<!-- Created with Inkscape (http://www.inkscape.org/) -->
<svg
   xmlns:dc="http://purl.org/dc/elements/1.1/"
   xmlns:cc="http://web.resource.org/cc/"
   xmlns:rdf="http://www.w3.org/1999/02/22-rdf-syntax-ns#"
   xmlns:svg="http://www.w3.org/2000/svg"
   xmlns="http://www.w3.org/2000/svg"
   xmlns:sodipodi="http://sodipodi.sourceforge.net/DTD/sodipodi-0.dtd"
   xmlns:inkscape="http://www.inkscape.org/namespaces/inkscape"
   id="svg1376"
   sodipodi:version="0.32"
   inkscape:version="0.45.1"
   width="845.81232"
   height="390.5993"
   sodipodi:docbase="/mnt/big/codebase/pov/Pegasus/svg"
   sodipodi:docname="PegasusRight.svg"
   version="1.0"
   x="0.0000000"
   y="0.0000000"
   inkscape:output_extension="org.inkscape.output.svg.inkscape"
   inkscape:export-filename="/mnt/big/codebase/pov/Pegasus/svg/PegasusRight.svg.png"
   inkscape:export-xdpi="89.925865"
   inkscape:export-ydpi="89.925865">
  <metadata
     id="metadata1381">
    <rdf:RDF>
      <cc:Work
         rdf:about="">
        <dc:format>image/svg+xml</dc:format>
        <dc:type
           rdf:resource="http://purl.org/dc/dcmitype/StillImage" />
      </cc:Work>
    </rdf:RDF>
  </metadata>
  <defs
     id="defs1379" />
  <sodipodi:namedview
     inkscape:window-height="1122"
     inkscape:window-width="1592"
     inkscape:pageshadow="2"
     inkscape:pageopacity="0.0"
     borderopacity="1.0"
     bordercolor="#666666"
     pagecolor="#ffffff"
     id="base"
     inkscape:zoom="1.5324259"
     inkscape:cx="443.99973"
     inkscape:cy="220.62815"
     inkscape:window-x="0"
     inkscape:window-y="0"
     inkscape:current-layer="layer1"
     showgrid="false"
     inkscape:grid-points="false"
     gridspacingy="20.700000px"
     gridempspacing="1"
     gridoriginx="0.0000000px"
     gridoriginy="16.400000px"
     gridspacingx="1000.0000px"
     inkscape:grid-bbox="false"
     gridempcolor="#ff0000"
     gridempopacity="1.0000000"
     showguides="true"
     inkscape:guide-bbox="true"
     gridtolerance="2.0000000px"
     guidetolerance="5.0000000px"
     inkscape:guide-points="false" />
  <g
     inkscape:groupmode="layer"
     id="layer1"
     inkscape:label="Pegasus"
     style="display:inline"
     transform="translate(4.2616562e-8,82.380877)">
    <path
       id="path1387"
       style="fill:#c00000;fill-opacity:1"
       d="M 391.63468,245.59494 C 391.0752,244.50575 391.22646,241.6886 392.09221,237.07385 C 392.57556,234.49749 393.71079,230.01247 393.87957,230.01247 C 393.90927,230.01247 394.67132,230.38018 395.57303,230.82958 C 396.47474,231.27899 397.95326,231.7817 398.85862,231.94671 C 401.08318,232.35216 438.97362,232.35424 441.45438,231.94906 C 445.07042,231.35845 446.06226,229.93721 447.04495,223.93811 C 447.37834,221.90285 447.7564,220.23762 447.88508,220.23762 C 448.01376,220.23762 448.11903,219.97283 448.11903,219.64919 C 448.11903,219.19487 448.00838,219.10866 447.63355,219.27097 C 447.36654,219.3866 446.14936,219.80788 444.92871,220.20716 L 442.70935,220.93312 L 427.03514,220.93448 L 411.36092,220.93583 L 409.28027,219.93397 C 403.82219,217.30585 400.29119,211.75927 399.69498,204.87715 C 399.05995,197.54702 405.64228,172.13609 410.17423,164.42233 C 411.44507,162.25923 414.83444,158.74114 417.1234,157.20923 C 418.18332,156.49988 420.00439,155.52981 421.17024,155.05354 L 423.28996,154.18758 L 440.07386,154.18758 L 456.85776,154.18758 L 459.0023,155.21852 C 460.28399,155.83465 461.62346,156.74313 462.33141,157.47645 L 463.51598,158.70347 L 463.99911,157.68542 C 464.26483,157.12551 464.92993,156.14085 465.47711,155.49731 L 466.47198,154.32723 L 482.97996,154.32723 C 492.05933,154.32723 499.43982,154.42148 499.38096,154.53669 C 496.65118,159.88204 496.41455,160.74871 486.66507,201.10685 C 482.69465,217.54256 479.24829,231.61834 479.00651,232.38636 C 478.17062,235.0415 476.60453,237.64318 474.5119,239.85303 C 472.20407,242.29012 469.88125,243.8804 466.75779,245.16174 C 464.72012,245.99765 464.39165,246.04548 459.35454,246.23971 C 456.45551,246.3515 440.13602,246.45355 423.08903,246.46651 L 392.09449,246.49007 L 391.63468,245.59494 z M 450.49758,206.5957 C 451.59151,205.49443 452.26767,203.97234 453.3081,200.26901 C 454.86251,194.7362 458.8965,178.19123 459.66808,174.18425 C 460.33314,170.73046 460.35613,170.37325 459.96625,169.55019 C 459.17245,167.87438 458.43936,167.73261 450.57389,167.73378 C 442.33664,167.735 442.17848,167.77851 441.04642,170.3555 C 439.841,173.09946 435.42104,189.51728 433.13775,199.73207 C 432.1857,203.99128 432.2256,205.024 433.40124,206.55284 L 433.93814,207.25105 L 441.37537,207.39069 C 445.46584,207.46749 449.02772,207.48513 449.29066,207.42988 C 449.5536,207.37465 450.09671,206.99926 450.49758,206.5957 z M 206.20899,220.9639 C 206.20899,220.90252 206.65934,220.17989 207.20977,219.35803 C 207.76019,218.53617 208.61819,217.04683 209.11643,216.04841 C 211.58771,211.09618 212.55153,207.84706 220.59061,177.36794 C 225.00667,160.62503 228.75538,146.23505 228.92108,145.39022 C 229.42783,142.80647 229.78967,138.25483 229.78967,134.46399 L 229.78967,130.85826 L 269.25264,130.93275 L 308.7156,131.00723 L 310.79625,131.80622 C 313.76568,132.94648 315.69646,134.20176 317.68082,136.28212 C 320.15139,138.87222 320.87217,140.58299 321.01212,144.18894 C 321.27983,151.08719 318.5477,165.39281 315.36736,173.74523 C 312.80407,180.47711 307.65409,186.08657 302.13396,188.15932 L 300.39301,188.81303 L 276.95435,188.9554 L 253.5157,189.09775 L 252.33159,192.39867 C 248.78071,202.29736 246.98401,211.7213 247.41005,218.21284 L 247.59793,221.07547 L 226.90346,221.07547 C 215.5215,221.07547 206.20899,221.02525 206.20899,220.9639 z M 277.78277,172.62043 C 279.20479,171.88014 280.82204,167.77074 283.31535,158.5623 C 285.60398,150.10976 285.72297,148.40608 284.134,146.84212 C 282.75523,145.48509 281.76448,145.36164 272.95937,145.4497 L 264.94512,145.52986 L 261.39927,158.61797 C 259.44905,165.81643 257.77864,172.006 257.68724,172.37258 L 257.52108,173.03908 L 267.24983,173.03908 C 275.35221,173.03908 277.11303,172.96909 277.78277,172.62043 z M 321.82483,220.77275 C 318.33529,219.94458 314.36922,216.55998 312.6359,212.93101 C 311.13085,209.77995 310.73906,207.99194 310.59577,203.62039 C 310.48261,200.16794 310.55389,199.28564 311.20505,196.07979 C 313.37105,185.41597 318.28031,168.35253 320.56595,163.5435 C 321.97547,160.57785 324.98303,157.39 327.64664,156.03834 C 331.10527,154.28325 330.0748,154.33589 361.06492,154.33136 C 380.4738,154.32852 389.73753,154.42284 390.74884,154.6336 C 398.99695,156.35246 404.26528,165.3529 403.18625,175.88164 C 402.90374,178.63817 401.24351,185.29511 399.48516,190.72169 L 398.29196,194.4041 L 372.1733,194.47534 L 346.05464,194.54659 L 345.37657,195.45283 C 344.29951,196.89233 343.75048,198.91355 343.59986,201.99364 C 343.47544,204.53792 343.52198,204.93489 344.04437,205.78581 C 344.36527,206.30853 344.94887,206.88347 345.34125,207.06344 C 345.86727,207.30473 351.79627,207.39069 367.9134,207.39069 C 388.86902,207.39069 389.86182,207.36759 391.94302,206.83174 C 393.137,206.52432 394.15512,206.3143 394.2055,206.36501 C 394.55667,206.71854 391.77483,214.96571 389.84016,219.30663 L 389.05182,221.07547 L 355.95792,221.04742 C 337.75627,221.03198 322.39638,220.90838 321.82483,220.77275 z M 368.00143,180.31543 C 368.89847,179.60508 369.97734,177.14654 370.86449,173.79103 C 371.66744,170.75401 371.60078,169.56593 370.56427,168.44002 L 369.91316,167.73273 L 361.90116,167.73273 L 353.88917,167.73273 L 353.04864,168.78567 C 351.29935,170.97704 349.7422,175.30898 349.44911,178.79943 L 349.27618,180.85896 L 358.29562,180.85896 C 366.8118,180.85896 367.35336,180.82864 368.00143,180.31543 z M 503.7417,220.67242 C 498.49086,219.67493 495.01061,217.52116 492.93393,213.98402 C 491.26988,211.14971 490.98727,209.78866 490.98488,204.59788 C 490.98247,199.3405 491.54855,195.82346 493.25481,190.49416 C 494.4171,186.86392 495.28936,185.05685 497.1835,182.35519 C 498.81633,180.02621 500.3963,178.64171 502.55854,177.64517 C 506.01968,176.04997 506.20821,176.03666 527.87723,175.85744 C 543.07943,175.73172 547.99596,175.60898 548.45636,175.34372 C 550.00231,174.45295 551.06486,171.59021 550.49485,169.85147 C 550.31582,169.30538 549.84521,168.60191 549.449,168.28817 C 548.73472,167.72254 548.53059,167.71839 525.1255,167.79506 C 503.70003,167.86524 501.42736,167.91574 500.49268,168.34238 L 499.463,168.81239 L 499.62315,167.92346 C 500.12127,165.15877 503.3316,158.57579 505.57525,155.71829 L 506.66751,154.32723 L 536.27564,154.32933 C 555.47342,154.3307 566.51775,154.43383 567.68696,154.62263 C 574.89997,155.78741 580.78459,160.15055 582.64636,165.71421 C 583.34967,167.81598 583.397,170.90825 582.81092,176.46779 C 582.23763,181.90587 581.74645,184.28873 579.99685,190.11962 C 579.1515,192.9369 577.59295,198.67617 576.53344,202.87356 C 574.77001,209.85944 574.58378,210.87315 574.33241,214.85401 C 574.18139,217.24587 574.13633,219.62418 574.23229,220.13916 L 574.40679,221.07547 L 558.8634,221.07547 L 543.31998,221.07547 L 543.0196,219.66531 C 542.85436,218.88974 542.71918,217.93599 542.71918,217.54588 L 542.71918,216.8366 L 541.81757,217.6036 C 540.68828,218.56428 538.63345,219.48998 535.85482,220.28985 C 533.7763,220.88818 533.22607,220.91152 519.69334,220.9753 C 509.01773,221.02561 505.22148,220.95355 503.7417,220.67242 z M 538.53017,207.92914 C 540.1324,207.58321 541.96787,206.34906 542.54174,205.23176 C 543.66804,203.03896 545.57453,195.58593 545.93658,191.96039 L 546.12484,190.07524 L 537.83329,190.0768 C 533.22826,190.07767 529.10303,190.20105 528.55502,190.35432 C 528.0123,190.50608 527.2391,190.97668 526.83681,191.40006 C 525.20043,193.12223 523.38635,198.80779 523.11054,203.07879 C 522.94714,205.60891 522.94725,205.60942 523.80833,206.59671 C 524.28198,207.1398 525.07917,207.71631 525.57983,207.87782 C 526.79195,208.26888 536.77341,208.30842 538.53017,207.92914 z M 580.19294,220.68333 C 579.49542,219.83724 579.218,216.96063 579.54757,213.99159 C 579.89698,210.84369 581.09685,206.60626 581.70537,206.37118 C 581.92048,206.28809 582.42946,206.48379 582.83644,206.80607 C 583.24344,207.12836 584.38381,207.64309 585.37061,207.94993 C 587.09028,208.48465 587.95556,208.50779 606.20817,208.50738 C 627.50274,208.50689 626.67134,208.58257 627.67855,206.55284 C 628.29067,205.31929 628.30735,203.25182 627.71208,202.39626 C 626.64654,200.86478 626.49249,200.8497 610.2709,200.68843 C 596.32533,200.5498 595.20398,200.50257 594.04184,200.00492 C 590.12667,198.32835 587.75093,195.42966 586.86508,191.24844 C 586.41626,189.13008 586.47827,184.46319 586.99598,181.39692 C 587.53674,178.19432 590.6169,167.76494 591.80784,165.10419 C 594.52072,159.04301 598.87142,155.19421 603.97382,154.34162 C 605.2812,154.12316 615.22755,154.0543 637.52112,154.10934 L 669.21006,154.18758 L 669.94825,154.93074 C 670.89877,155.88771 671.0527,157.40226 670.63606,161.69799 C 670.3535,164.61102 669.38664,168.58526 668.7011,169.65149 C 668.49648,169.96973 668.15753,169.93748 666.68882,169.46004 C 661.75751,167.85698 661.99634,167.87237 642.06553,167.87237 L 623.64722,167.87237 L 623.11707,168.58701 C 622.39639,169.5585 622.15051,172.15288 622.7084,172.89944 C 623.11513,173.44375 623.53525,173.46164 639.16932,173.6005 C 653.66728,173.72926 655.3323,173.79066 656.45219,174.23789 C 658.55786,175.07878 659.93652,176.02795 661.4106,177.65164 C 664.02067,180.52666 665.28152,184.26378 664.94015,188.11322 C 664.50865,192.97927 662.18147,202.83342 660.2332,208.0442 C 657.49537,215.36678 653.45817,219.43583 647.72257,220.65349 C 644.88055,221.25687 580.68912,221.28523 580.19294,220.68333 z M 678.82162,220.63031 C 673.27046,219.27812 668.68338,214.69341 667.58723,209.40173 C 666.84597,205.82335 667.27506,201.57097 669.50912,190.35453 C 671.6045,179.83442 673.23609,173.19564 674.73743,169.08124 C 675.61224,166.68377 676.16947,163.01742 676.3537,158.44663 L 676.51974,154.32723 L 692.81305,154.32723 L 709.10632,154.32723 L 709.27361,154.95561 C 709.7352,156.68964 709.42722,160.16884 708.46257,164.11674 C 707.92036,166.33594 706.42726,172.9902 705.14461,178.90398 C 701.93053,193.72267 701.22658,196.81053 700.40126,199.71045 C 699.5367,202.74815 699.56398,205.25117 700.47505,206.48002 L 701.0467,207.25105 L 708.4429,207.32544 C 716.63173,207.4078 716.84595,207.37046 718.16427,205.63044 C 718.54889,205.12279 719.05157,204.25448 719.28136,203.70085 C 719.51113,203.14723 721.45511,195.80191 723.60131,187.37791 C 725.74752,178.95393 727.80453,171.05618 728.17247,169.82734 C 728.95102,167.22714 729.32665,164.18484 729.57763,158.44663 L 729.75778,154.32723 L 748.17737,154.32723 C 758.30814,154.32723 766.59694,154.37158 766.59694,154.42582 C 766.59694,154.48004 765.92925,155.95674 765.11317,157.70737 C 761.71993,164.98637 761.05978,167.14041 755.65165,188.57996 C 752.8175,199.81553 750.37942,209.93249 750.23375,211.06211 C 750.08808,212.19172 749.96504,214.90685 749.96033,217.09572 L 749.95176,221.07547 L 734.00575,221.07547 L 718.05974,221.07547 L 717.49928,219.96948 C 717.19101,219.36117 716.93879,218.67078 716.93879,218.43527 C 716.93879,218.12976 716.57788,218.2844 715.67926,218.97496 C 714.98649,219.5073 713.60011,220.19768 712.5984,220.50916 C 710.85865,221.05012 710.09844,221.07443 695.61762,221.0522 C 683.49668,221.0336 680.13008,220.94903 678.82162,220.63031 z M 754.78744,220.387 C 753.50157,218.41136 754.42462,209.08086 756.13946,206.7199 C 756.50699,206.21391 756.55973,206.22015 757.7437,206.90947 C 760.51498,208.52298 760.29488,208.50785 781.00377,208.50738 C 798.5582,208.50697 800.10093,208.46926 800.99669,208.01863 C 802.12965,207.44867 802.70573,206.38439 802.88223,204.53519 C 803.03647,202.91915 802.57462,202.10173 801.08713,201.35807 C 800.09588,200.8625 799.03974,200.81812 785.04536,200.68403 C 770.18251,200.54162 770.05207,200.5354 768.45993,199.89234 C 766.50253,199.10174 763.94494,196.79549 762.917,194.89414 C 761.72847,192.69575 761.32555,190.62486 761.3296,186.73501 C 761.33207,184.35928 761.50798,182.38029 761.87651,180.58221 C 762.54473,177.32165 765.02544,168.80675 766.03486,166.30887 C 768.02168,161.39231 770.9898,157.668 774.32913,155.90146 C 778.01255,153.95289 776.32938,154.03287 811.93751,154.1143 L 843.98452,154.18758 L 844.75369,154.96399 C 845.51177,155.72919 845.52204,155.78596 845.4658,158.89979 C 845.39948,162.57319 845.03015,165.18815 844.24124,167.57028 C 843.42125,170.04636 843.41927,170.04727 840.66803,169.23963 C 835.62608,167.75956 834.9843,167.7221 816.00757,167.80009 L 798.42132,167.87237 L 797.83854,168.6582 C 797.39517,169.2561 797.25532,169.85437 797.25383,171.15995 C 797.25202,172.70991 797.31891,172.91038 797.94537,173.23264 C 798.48254,173.50897 802.01898,173.59033 813.63067,173.59352 C 826.23038,173.59699 828.88623,173.66636 830.27585,174.02838 C 834.80814,175.20912 838.31048,179.09747 839.46085,184.22569 C 839.8253,185.85033 839.84616,186.60237 839.58786,188.80727 C 838.87392,194.90145 836.45995,204.50677 834.39636,209.46456 C 832.36194,214.3523 829.51697,217.74141 826.03293,219.42758 C 822.55476,221.11092 823.61328,221.06532 787.89532,221.07062 L 755.23552,221.07547 L 754.78744,220.387 z " />
    <text
       xml:space="preserve"
       style="font-size:39.39292526px;font-style:italic;font-weight:bold;fill:#000000;fill-opacity:1;stroke:none;stroke-width:1px;stroke-linecap:butt;stroke-linejoin:miter;stroke-opacity:1;font-family:Arial"
       x="241.86937"
       y="307.71832"
       id="text2162"><tspan
         sodipodi:role="line"
         id="tspan2164"
         x="241.86937"
         y="307.71832"
         style="font-family:Arial Black">ORBITAL SCIENCES CORP</tspan></text>
    <g
       id="g3432"
       transform="matrix(0.5229854,0,0,0.5229854,742.57303,6.6222598)">
      <text
         transform="translate(-4.8434862e-8,-82.380877)"
         id="text2455"
         y="167.42372"
         x="48.289448"
         style="font-size:75px;font-style:normal;font-weight:bold;fill:#000000;fill-opacity:1;stroke:none;stroke-width:1px;stroke-linecap:butt;stroke-linejoin:miter;stroke-opacity:1;font-family:Arial"
         xml:space="preserve"><tspan
           style="font-size:40px"
           y="167.42372"
           x="48.289448"
           id="tspan2457"
           sodipodi:role="line">R</tspan></text>
      <path
         transform="translate(1.3051202,-82.380877)"
         d="M 84.832811 153.71996 A 23.492163 23.492163 0 1 1  37.848486,153.71996 A 23.492163 23.492163 0 1 1  84.832811 153.71996 z"
         sodipodi:ry="23.492163"
         sodipodi:rx="23.492163"
         sodipodi:cy="153.71996"
         sodipodi:cx="61.340649"
         id="path2461"
         style="opacity:1;fill:none;fill-opacity:1;stroke:#000000;stroke-width:5;stroke-linecap:square;stroke-linejoin:bevel;stroke-miterlimit:4;stroke-dasharray:none;stroke-opacity:1"
         sodipodi:type="arc" />
    </g>
  </g>
  <g
     inkscape:groupmode="layer"
     id="layer2"
     inkscape:label="R"
     transform="translate(4.2616562e-8,82.380877)" />
  <g
     inkscape:groupmode="layer"
     id="layer3"
     inkscape:label="Horse"
     style="display:inline"
     transform="translate(4.2616562e-8,82.380877)">
    <path
       style="fill:#000000;fill-opacity:1;stroke:none;stroke-width:0.2;stroke-miterlimit:4;stroke-dasharray:none;stroke-opacity:1"
       d="M 145.82784,-82.380877 C 150.11782,-82.380877 154.17709,-81.22407 158.13435,-79.599062 L 312.9608,-79.599062 C 316.62531,-78.657367 319.9912,-77.409015 323.22088,-76.03047 L 502.68838,-76.03047 C 505.33237,-74.509193 507.47939,-74.122335 509.52843,-72.152788 L 616.86693,-72.152788 C 622.38984,-72.152788 626.243,-68.715493 628.72489,-65.577587 L 716.72058,-65.577587 C 716.89178,-75.788643 713.24988,-82.380877 703.4049,-82.380877 L 145.82784,-82.380877 z M -4.2616534e-08,-69.876757 C 4.28997,-69.876757 9.85358,-68.719949 15.92276,-67.09494 L 170.74921,-67.09494 C 175.63758,-66.153246 180.61347,-64.904893 185.63475,-63.526349 L 351.45015,-63.526349 C 356.07128,-62.005073 360.68975,-60.241355 365.29847,-58.271808 L 471.59973,-58.271808 L 471.824,-58.18751 C 477.29047,-58.18751 483.48546,-56.211371 490.04547,-53.073466 L 625.89355,-53.017267 C 625.91811,-51.364127 626.07883,-48.736975 625.94963,-46.947852 L 713.5809,-46.947852 C 715.29444,-53.116573 716.47838,-58.868347 716.77666,-63.779241 L 576.55542,-63.779241 C 569.65497,-67.534708 563.20693,-69.876757 557.57705,-69.876757 L -4.2616534e-08,-69.876757 z M 56.93508,-51.27512 C 58.79243,-50.40648 60.78215,-49.380112 62.68186,-48.465205 L 226.95544,-48.465205 C 229.4846,-47.345309 231.99828,-46.099298 234.52436,-44.924713 L 390.97673,-44.924713 C 393.82759,-43.225437 396.65352,-41.46586 399.47074,-39.670172 L 511.54682,-39.670172 C 513.71981,-38.017033 515.91055,-36.232853 518.10654,-34.44373 L 623.70698,-34.612326 C 623.39483,-33.320839 622.68008,-28.972354 622.1091,-25.87349 C 619.95947,-28.118211 617.81792,-30.504409 615.6615,-32.645384 L 93.74246,-32.645384 C 95.41645,-31.742748 97.1304,-30.756848 98.81645,-29.83547 L 264.07118,-29.83547 C 266.0919,-28.70525 268.0087,-27.447653 270.01419,-26.294978 L 418.64534,-26.294978 C 420.91074,-24.600463 423.06757,-22.80268 425.28917,-21.068536 L 533.21634,-21.068536 C 535.02673,-19.357263 536.82412,-17.599715 538.62672,-15.842093 L 631.64034,-15.842093 C 631.64034,-15.842093 633.51644,-13.766666 633.26624,-14.043749 L 126.76537,-14.043749 C 128.39122,-13.099232 130.01874,-12.186077 131.64313,-11.233834 L 295.10375,-11.233834 C 296.90955,-10.068815 298.54614,-8.8671955 300.31789,-7.6933406 L 441.88473,-7.6933406 C 443.90934,-5.9513419 445.81977,-4.1926632 447.79969,-2.4388007 L 551.80225,-2.4388007 C 553.42015,-0.71443189 554.92103,1.0390051 556.45573,2.7876412 L 646.83424,3.0405337 C 646.83426,3.0405337 648.53371,5.4088396 647.84343,4.5859866 L 157.74188,4.5859866 C 159.28032,5.5285177 160.84126,6.4542657 162.36733,7.3959021 L 322.32382,7.3959021 C 323.96007,8.5753819 325.39504,9.7317536 327.00535,10.908299 L 462.34884,10.908299 C 464.25144,12.719194 465.9145,14.419556 467.67511,16.162831 L 568.36977,16.162831 C 569.90351,17.945091 571.33926,19.659892 572.79899,21.389276 L 663.14946,21.389276 C 662.16125,20.149671 664.92107,23.653974 664.55112,23.187626 L 187.48493,23.187626 C 188.974,24.14272 190.39485,25.052525 191.85808,25.997533 L 346.93683,25.997533 C 348.4708,27.222987 349.66881,28.333107 351.14179,29.538028 L 480.99079,29.538028 C 482.75484,31.357663 484.34556,33.024714 486.06479,34.792569 L 583.78794,34.792569 C 585.17996,36.5387 586.59286,38.272032 587.96486,39.990918 L 677.72664,39.990918 C 676.80365,38.77906 679.98176,42.988739 679.07222,41.789257 L 215.9665,41.789257 C 217.45105,42.788593 218.62766,43.626804 220.05931,44.599174 L 368.97079,44.599174 C 370.34898,45.83773 371.50016,46.949043 372.78329,48.139668 L 498.56752,48.139668 C 500.29855,50.045111 501.67896,51.599908 503.3051,53.39421 L 598.05676,53.39421 C 599.84794,55.845026 601.66176,58.273964 603.15877,60.418994 L 242.76608,60.418994 C 244.23965,61.490482 245.16866,62.242758 246.49447,63.228912 L 387.9772,63.228912 C 389.1669,64.541359 389.89188,65.55823 390.92066,66.769406 L 515.24718,66.769406 C 516.56615,68.279306 518.49659,70.485718 519.5082,71.630558 L 610.58752,71.630558 C 610.58752,71.630558 703.82539,71.71485 703.82539,71.71485 C 714.55103,49.654512 753.07837,11.913397 769.28253,3.1248313 C 778.10723,14.718172 787.56423,15.585737 802.19331,5.5975559 C 805.93037,3.0460375 808.38122,3.2721069 813.85506,3.3215247 L 834.2631,3.5182188 C 840.09559,3.5708787 851.50918,-10.089837 842.42073,-14.830524 C 832.54308,-19.982855 754.8192,-45.749104 727.31708,-46.245373 C 727.21814,-46.247149 736.9992,-32.347446 736.90438,-32.251997 C 736.81072,-32.157715 703.66752,-21.803473 702.78817,-21.60242 C 706.51571,-29.764064 711.91593,-41.08542 713.10433,-45.149506 L 602.23368,-45.149506 C 599.84275,-47.265167 597.45553,-49.384523 595.11329,-51.27512 L 56.93508,-51.27512 z "
       id="path1397" />
  </g>
</svg>
