<?xml version="1.0" encoding="UTF-8" standalone="no"?>
<!-- Created with Inkscape (http://www.inkscape.org/) -->
<svg
   xmlns:dc="http://purl.org/dc/elements/1.1/"
   xmlns:cc="http://creativecommons.org/ns#"
   xmlns:rdf="http://www.w3.org/1999/02/22-rdf-syntax-ns#"
   xmlns:svg="http://www.w3.org/2000/svg"
   xmlns="http://www.w3.org/2000/svg"
   xmlns:sodipodi="http://sodipodi.sourceforge.net/DTD/sodipodi-0.dtd"
   xmlns:inkscape="http://www.inkscape.org/namespaces/inkscape"
   width="1900.0000px"
   height="1000.0000px"
   id="svg2"
   sodipodi:version="0.32"
   inkscape:version="0.46"
   sodipodi:docbase="/mnt/big/codebase/pov/Pegasus/svg"
   sodipodi:docname="USFlag.svg"
   inkscape:export-filename="/usr/codebase/pov/Pegasus/svg/USFlag.svg.png"
   inkscape:export-xdpi="90"
   inkscape:export-ydpi="90"
   inkscape:output_extension="org.inkscape.output.svg.inkscape">
  <defs
     id="defs4">
    <inkscape:perspective
       sodipodi:type="inkscape:persp3d"
       inkscape:vp_x="0 : 500 : 1"
       inkscape:vp_y="0 : 1000 : 0"
       inkscape:vp_z="1900 : 500 : 1"
       inkscape:persp3d-origin="950 : 333.33333 : 1"
       id="perspective16" />
  </defs>
  <sodipodi:namedview
     id="base"
     pagecolor="#ffffff"
     bordercolor="#666666"
     borderopacity="1.0"
     inkscape:pageopacity="0.0"
     inkscape:pageshadow="2"
     inkscape:zoom="0.27320758"
     inkscape:cx="746.57413"
     inkscape:cy="961.06223"
     inkscape:document-units="px"
     inkscape:current-layer="layer1"
     showguides="true"
     inkscape:guide-bbox="true"
     inkscape:guide-points="true"
     guidetolerance="10.000000px"
     inkscape:window-width="1272"
     inkscape:window-height="960"
     inkscape:window-x="44"
     inkscape:window-y="58"
     showgrid="false" />
  <metadata
     id="metadata7">
    <rdf:RDF>
      <cc:Work
         rdf:about="">
        <dc:format>image/svg+xml</dc:format>
        <dc:type
           rdf:resource="http://purl.org/dc/dcmitype/StillImage" />
      </cc:Work>
    </rdf:RDF>
  </metadata>
  <g
     inkscape:label="Layer 1"
     inkscape:groupmode="layer"
     id="layer1">
    <rect
       style="fill:#bb133e;fill-opacity:1;stroke:none;stroke-width:60;stroke-linecap:round;stroke-linejoin:round;stroke-miterlimit:4;stroke-dasharray:none;stroke-opacity:1"
       id="rect2068"
       width="1164.4258"
       height="76.92308"
       x="735.57416"
       y="461.53845" />
    <rect
       style="fill:#bb133e;fill-opacity:1;stroke:none;stroke-width:60;stroke-linecap:round;stroke-linejoin:round;stroke-miterlimit:4;stroke-dasharray:none;stroke-opacity:1"
       id="rect2066"
       width="1160.668"
       height="76.923073"
       x="739.33197"
       y="307.69232" />
    <rect
       style="fill:#bb133e;fill-opacity:1;stroke:none;stroke-width:60;stroke-linecap:round;stroke-linejoin:round;stroke-miterlimit:4;stroke-dasharray:none;stroke-opacity:1"
       id="rect2064"
       width="1164.4258"
       height="76.92308"
       x="735.57416"
       y="153.84615" />
    <rect
       y="0"
       x="744.96875"
       height="76.92308"
       width="1155.0312"
       id="rect3615"
       style="fill:#bb133e;fill-opacity:1;stroke:none;stroke-width:60;stroke-linecap:round;stroke-linejoin:round;stroke-miterlimit:4;stroke-dasharray:none;stroke-opacity:1" />
    <path
       style="fill:#000080;fill-opacity:1;stroke:none;stroke-width:60;stroke-linecap:round;stroke-linejoin:round;stroke-miterlimit:4;stroke-dasharray:none;stroke-opacity:1"
       d="M 0 0 L 0 538.46875 L 760 538.46875 L 760 0 L 0 0 z M 63.34375 23.25 L 70.25 44.34375 L 92.4375 44.375 L 74.53125 57.46875 L 81.3125 78.59375 L 63.34375 65.625 L 45.34375 78.59375 L 52.15625 57.46875 L 34.21875 44.375 L 56.40625 44.34375 L 63.34375 23.25 z M 190 23.25 L 196.90625 44.34375 L 219.09375 44.375 L 201.1875 57.46875 L 208 78.59375 L 190 65.625 L 172 78.59375 L 178.8125 57.46875 L 160.90625 44.375 L 183.09375 44.34375 L 190 23.25 z M 316.65625 23.25 L 323.59375 44.34375 L 345.78125 44.375 L 327.84375 57.46875 L 334.65625 78.59375 L 316.65625 65.625 L 298.6875 78.59375 L 305.46875 57.46875 L 287.5625 44.375 L 309.75 44.34375 L 316.65625 23.25 z M 443.34375 23.25 L 450.25 44.34375 L 472.4375 44.375 L 454.53125 57.46875 L 461.3125 78.59375 L 443.34375 65.625 L 425.34375 78.59375 L 432.15625 57.46875 L 414.21875 44.375 L 436.40625 44.34375 L 443.34375 23.25 z M 570 23.25 L 576.90625 44.34375 L 599.09375 44.375 L 581.1875 57.46875 L 588 78.59375 L 570 65.625 L 552 78.59375 L 558.8125 57.46875 L 540.90625 44.375 L 563.09375 44.34375 L 570 23.25 z M 696.65625 23.25 L 703.59375 44.34375 L 725.78125 44.375 L 707.84375 57.46875 L 714.65625 78.59375 L 696.65625 65.625 L 678.6875 78.59375 L 685.46875 57.46875 L 667.5625 44.375 L 689.75 44.34375 L 696.65625 23.25 z M 126.65625 77.09375 L 133.59375 98.1875 L 155.78125 98.25 L 137.84375 111.3125 L 144.65625 132.4375 L 126.65625 119.46875 L 108.6875 132.4375 L 115.46875 111.3125 L 97.5625 98.25 L 119.75 98.1875 L 126.65625 77.09375 z M 253.34375 77.09375 L 260.25 98.1875 L 282.4375 98.25 L 264.53125 111.3125 L 271.3125 132.4375 L 253.34375 119.46875 L 235.34375 132.4375 L 242.15625 111.3125 L 224.21875 98.25 L 246.40625 98.1875 L 253.34375 77.09375 z M 380 77.09375 L 386.90625 98.1875 L 409.09375 98.25 L 391.1875 111.3125 L 398 132.4375 L 380 119.46875 L 362 132.4375 L 368.8125 111.3125 L 350.90625 98.25 L 373.09375 98.1875 L 380 77.09375 z M 506.65625 77.09375 L 513.59375 98.1875 L 535.78125 98.25 L 517.84375 111.3125 L 524.65625 132.4375 L 506.65625 119.46875 L 488.6875 132.4375 L 495.46875 111.3125 L 477.5625 98.25 L 499.75 98.1875 L 506.65625 77.09375 z M 633.34375 77.09375 L 640.25 98.1875 L 662.4375 98.25 L 644.53125 111.3125 L 651.3125 132.4375 L 633.34375 119.46875 L 615.34375 132.4375 L 622.15625 111.3125 L 604.21875 98.25 L 626.40625 98.1875 L 633.34375 77.09375 z M 63.34375 130.9375 L 70.25 152.03125 L 92.4375 152.09375 L 74.53125 165.1875 L 81.3125 186.28125 L 63.34375 173.3125 L 45.34375 186.28125 L 52.15625 165.1875 L 34.21875 152.09375 L 56.40625 152.03125 L 63.34375 130.9375 z M 190 130.9375 L 196.90625 152.03125 L 219.09375 152.09375 L 201.1875 165.1875 L 208 186.28125 L 190 173.3125 L 172 186.28125 L 178.8125 165.1875 L 160.90625 152.09375 L 183.09375 152.03125 L 190 130.9375 z M 316.65625 130.9375 L 323.59375 152.03125 L 345.78125 152.09375 L 327.84375 165.1875 L 334.65625 186.28125 L 316.65625 173.3125 L 298.6875 186.28125 L 305.46875 165.1875 L 287.5625 152.09375 L 309.75 152.03125 L 316.65625 130.9375 z M 443.34375 130.9375 L 450.25 152.03125 L 472.4375 152.09375 L 454.53125 165.1875 L 461.3125 186.28125 L 443.34375 173.3125 L 425.34375 186.28125 L 432.15625 165.1875 L 414.21875 152.09375 L 436.40625 152.03125 L 443.34375 130.9375 z M 570 130.9375 L 576.90625 152.03125 L 599.09375 152.09375 L 581.1875 165.1875 L 588 186.28125 L 570 173.3125 L 552 186.28125 L 558.8125 165.1875 L 540.90625 152.09375 L 563.09375 152.03125 L 570 130.9375 z M 696.65625 130.9375 L 703.59375 152.03125 L 725.78125 152.09375 L 707.84375 165.1875 L 714.65625 186.28125 L 696.65625 173.3125 L 678.6875 186.28125 L 685.46875 165.1875 L 667.5625 152.09375 L 689.75 152.03125 L 696.65625 130.9375 z M 126.65625 184.78125 L 133.59375 205.875 L 155.78125 205.9375 L 137.84375 219.03125 L 144.65625 240.125 L 126.65625 227.15625 L 108.6875 240.125 L 115.46875 219.03125 L 97.5625 205.9375 L 119.75 205.875 L 126.65625 184.78125 z M 253.34375 184.78125 L 260.25 205.875 L 282.4375 205.9375 L 264.53125 219.03125 L 271.3125 240.125 L 253.34375 227.15625 L 235.34375 240.125 L 242.15625 219.03125 L 224.21875 205.9375 L 246.40625 205.875 L 253.34375 184.78125 z M 380 184.78125 L 386.90625 205.875 L 409.09375 205.9375 L 391.1875 219.03125 L 398 240.125 L 380 227.15625 L 362 240.125 L 368.8125 219.03125 L 350.90625 205.9375 L 373.09375 205.875 L 380 184.78125 z M 506.65625 184.78125 L 513.59375 205.875 L 535.78125 205.9375 L 517.84375 219.03125 L 524.65625 240.125 L 506.65625 227.15625 L 488.6875 240.125 L 495.46875 219.03125 L 477.5625 205.9375 L 499.75 205.875 L 506.65625 184.78125 z M 633.34375 184.78125 L 640.25 205.875 L 662.4375 205.9375 L 644.53125 219.03125 L 651.3125 240.125 L 633.34375 227.15625 L 615.34375 240.125 L 622.15625 219.03125 L 604.21875 205.9375 L 626.40625 205.875 L 633.34375 184.78125 z M 63.34375 238.625 L 70.25 259.71875 L 92.4375 259.78125 L 74.53125 272.875 L 81.3125 294 L 63.34375 281 L 45.34375 294 L 52.15625 272.875 L 34.21875 259.78125 L 56.40625 259.71875 L 63.34375 238.625 z M 190 238.625 L 196.90625 259.71875 L 219.09375 259.78125 L 201.1875 272.875 L 208 294 L 190 281 L 172 294 L 178.8125 272.875 L 160.90625 259.78125 L 183.09375 259.71875 L 190 238.625 z M 316.65625 238.625 L 323.59375 259.71875 L 345.78125 259.78125 L 327.84375 272.875 L 334.65625 294 L 316.65625 281 L 298.6875 294 L 305.46875 272.875 L 287.5625 259.78125 L 309.75 259.71875 L 316.65625 238.625 z M 443.34375 238.625 L 450.25 259.71875 L 472.4375 259.78125 L 454.53125 272.875 L 461.3125 294 L 443.34375 281 L 425.34375 294 L 432.15625 272.875 L 414.21875 259.78125 L 436.40625 259.71875 L 443.34375 238.625 z M 570 238.625 L 576.90625 259.71875 L 599.09375 259.78125 L 581.1875 272.875 L 588 294 L 570 281 L 552 294 L 558.8125 272.875 L 540.90625 259.78125 L 563.09375 259.71875 L 570 238.625 z M 696.65625 238.625 L 703.59375 259.71875 L 725.78125 259.78125 L 707.84375 272.875 L 714.65625 294 L 696.65625 281 L 678.6875 294 L 685.46875 272.875 L 667.5625 259.78125 L 689.75 259.71875 L 696.65625 238.625 z M 126.65625 292.46875 L 133.59375 313.5625 L 155.78125 313.625 L 137.84375 326.71875 L 144.65625 347.84375 L 126.65625 334.84375 L 108.6875 347.84375 L 115.46875 326.71875 L 97.5625 313.625 L 119.75 313.5625 L 126.65625 292.46875 z M 253.34375 292.46875 L 260.25 313.5625 L 282.4375 313.625 L 264.53125 326.71875 L 271.3125 347.84375 L 253.34375 334.84375 L 235.34375 347.84375 L 242.15625 326.71875 L 224.21875 313.625 L 246.40625 313.5625 L 253.34375 292.46875 z M 380 292.46875 L 386.90625 313.5625 L 409.09375 313.625 L 391.1875 326.71875 L 398 347.84375 L 380 334.84375 L 362 347.84375 L 368.8125 326.71875 L 350.90625 313.625 L 373.09375 313.5625 L 380 292.46875 z M 506.65625 292.46875 L 513.59375 313.5625 L 535.78125 313.625 L 517.84375 326.71875 L 524.65625 347.84375 L 506.65625 334.84375 L 488.6875 347.84375 L 495.46875 326.71875 L 477.5625 313.625 L 499.75 313.5625 L 506.65625 292.46875 z M 633.34375 292.46875 L 640.25 313.5625 L 662.4375 313.625 L 644.53125 326.71875 L 651.3125 347.84375 L 633.34375 334.84375 L 615.34375 347.84375 L 622.15625 326.71875 L 604.21875 313.625 L 626.40625 313.5625 L 633.34375 292.46875 z M 63.34375 346.3125 L 70.25 367.40625 L 92.4375 367.46875 L 74.53125 380.5625 L 81.3125 401.6875 L 63.34375 388.6875 L 45.34375 401.6875 L 52.15625 380.5625 L 34.21875 367.46875 L 56.40625 367.40625 L 63.34375 346.3125 z M 190 346.3125 L 196.90625 367.40625 L 219.09375 367.46875 L 201.1875 380.5625 L 208 401.6875 L 190 388.6875 L 172 401.6875 L 178.8125 380.5625 L 160.90625 367.46875 L 183.09375 367.40625 L 190 346.3125 z M 316.65625 346.3125 L 323.59375 367.40625 L 345.78125 367.46875 L 327.84375 380.5625 L 334.65625 401.6875 L 316.65625 388.6875 L 298.6875 401.6875 L 305.46875 380.5625 L 287.5625 367.46875 L 309.75 367.40625 L 316.65625 346.3125 z M 443.34375 346.3125 L 450.25 367.40625 L 472.4375 367.46875 L 454.53125 380.5625 L 461.3125 401.6875 L 443.34375 388.6875 L 425.34375 401.6875 L 432.15625 380.5625 L 414.21875 367.46875 L 436.40625 367.40625 L 443.34375 346.3125 z M 570 346.3125 L 576.90625 367.40625 L 599.09375 367.46875 L 581.1875 380.5625 L 588 401.6875 L 570 388.6875 L 552 401.6875 L 558.8125 380.5625 L 540.90625 367.46875 L 563.09375 367.40625 L 570 346.3125 z M 696.65625 346.3125 L 703.59375 367.40625 L 725.78125 367.46875 L 707.84375 380.5625 L 714.65625 401.6875 L 696.65625 388.6875 L 678.6875 401.6875 L 685.46875 380.5625 L 667.5625 367.46875 L 689.75 367.40625 L 696.65625 346.3125 z M 126.65625 400.15625 L 133.59375 421.25 L 155.78125 421.3125 L 137.84375 434.40625 L 144.65625 455.53125 L 126.65625 442.53125 L 108.6875 455.53125 L 115.46875 434.40625 L 97.5625 421.3125 L 119.75 421.25 L 126.65625 400.15625 z M 253.34375 400.15625 L 260.25 421.25 L 282.4375 421.3125 L 264.53125 434.40625 L 271.3125 455.53125 L 253.34375 442.53125 L 235.34375 455.53125 L 242.15625 434.40625 L 224.21875 421.3125 L 246.40625 421.25 L 253.34375 400.15625 z M 380 400.15625 L 386.90625 421.25 L 409.09375 421.3125 L 391.1875 434.40625 L 398 455.53125 L 380 442.53125 L 362 455.53125 L 368.8125 434.40625 L 350.90625 421.3125 L 373.09375 421.25 L 380 400.15625 z M 506.65625 400.15625 L 513.59375 421.25 L 535.78125 421.3125 L 517.84375 434.40625 L 524.65625 455.53125 L 506.65625 442.53125 L 488.6875 455.53125 L 495.46875 434.40625 L 477.5625 421.3125 L 499.75 421.25 L 506.65625 400.15625 z M 633.34375 400.15625 L 640.25 421.25 L 662.4375 421.3125 L 644.53125 434.40625 L 651.3125 455.53125 L 633.34375 442.53125 L 615.34375 455.53125 L 622.15625 434.40625 L 604.21875 421.3125 L 626.40625 421.25 L 633.34375 400.15625 z M 63.34375 454 L 70.25 475.09375 L 92.4375 475.15625 L 74.53125 488.25 L 81.3125 509.375 L 63.34375 496.375 L 45.34375 509.375 L 52.15625 488.25 L 34.21875 475.15625 L 56.40625 475.09375 L 63.34375 454 z M 190 454 L 196.90625 475.09375 L 219.09375 475.15625 L 201.1875 488.25 L 208 509.375 L 190 496.375 L 172 509.375 L 178.8125 488.25 L 160.90625 475.15625 L 183.09375 475.09375 L 190 454 z M 316.65625 454 L 323.59375 475.09375 L 345.78125 475.15625 L 327.84375 488.25 L 334.65625 509.375 L 316.65625 496.375 L 298.6875 509.375 L 305.46875 488.25 L 287.5625 475.15625 L 309.75 475.09375 L 316.65625 454 z M 443.34375 454 L 450.25 475.09375 L 472.4375 475.15625 L 454.53125 488.25 L 461.3125 509.375 L 443.34375 496.375 L 425.34375 509.375 L 432.15625 488.25 L 414.21875 475.15625 L 436.40625 475.09375 L 443.34375 454 z M 570 454 L 576.90625 475.09375 L 599.09375 475.15625 L 581.1875 488.25 L 588 509.375 L 570 496.375 L 552 509.375 L 558.8125 488.25 L 540.90625 475.15625 L 563.09375 475.09375 L 570 454 z M 696.65625 454 L 703.59375 475.09375 L 725.78125 475.15625 L 707.84375 488.25 L 714.65625 509.375 L 696.65625 496.375 L 678.6875 509.375 L 685.46875 488.25 L 667.5625 475.15625 L 689.75 475.09375 L 696.65625 454 z "
       id="rect2813" />
    <rect
       style="fill:#c00000;fill-opacity:1.0000000;stroke:none;stroke-width:60.000000;stroke-linecap:round;stroke-linejoin:round;stroke-miterlimit:4.0000000;stroke-dasharray:none;stroke-opacity:1.0000000"
       id="rect1336"
       width="1140.0000"
       height="76.923080"
       x="760.00000"
       y="0.00000000" />
    <rect
       style="fill:#bb133e;fill-opacity:1;stroke:none;stroke-width:60.000000;stroke-linecap:round;stroke-linejoin:round;stroke-miterlimit:4.0000000;stroke-dasharray:none;stroke-opacity:1.0000000"
       id="rect2070"
       width="1900.0000"
       height="76.923073"
       x="0.00000000"
       y="615.38464" />
    <rect
       style="fill:#bb133e;fill-opacity:1;stroke:none;stroke-width:60.000000;stroke-linecap:round;stroke-linejoin:round;stroke-miterlimit:4.0000000;stroke-dasharray:none;stroke-opacity:1.0000000"
       id="rect2072"
       width="1900.0000"
       height="76.923080"
       x="0.00000000"
       y="769.23077" />
    <rect
       style="fill:#bb133e;fill-opacity:1;stroke:none;stroke-width:60.000000;stroke-linecap:round;stroke-linejoin:round;stroke-miterlimit:4.0000000;stroke-dasharray:none;stroke-opacity:1.0000000"
       id="rect2074"
       width="1900.0000"
       height="76.923080"
       x="0.00000000"
       y="923.07690" />
  </g>
</svg>
