<?xml version="1.0" encoding="UTF-8" standalone="no"?>
<!-- Created with Inkscape (http://www.inkscape.org/) -->
<svg
   xmlns:dc="http://purl.org/dc/elements/1.1/"
   xmlns:cc="http://web.resource.org/cc/"
   xmlns:rdf="http://www.w3.org/1999/02/22-rdf-syntax-ns#"
   xmlns:svg="http://www.w3.org/2000/svg"
   xmlns="http://www.w3.org/2000/svg"
   xmlns:sodipodi="http://inkscape.sourceforge.net/DTD/sodipodi-0.dtd"
   xmlns:inkscape="http://www.inkscape.org/namespaces/inkscape"
   width="628.31"
   height="750"
   id="svg2"
   sodipodi:version="0.32"
   inkscape:version="0.43"
   sodipodi:docbase="C:\Documents and Settings\jeppesen\Desktop"
   sodipodi:docname="Kodocha.svg"
   version="1.0"
   inkscape:export-filename="C:\Documents and Settings\jeppesen\Desktop\Kodocha.png"
   inkscape:export-xdpi="180"
   inkscape:export-ydpi="180">
  <defs
     id="defs4" />
  <sodipodi:namedview
     id="base"
     pagecolor="#ffffff"
     bordercolor="#666666"
     borderopacity="1.0"
     inkscape:pageopacity="0.0"
     inkscape:pageshadow="2"
     inkscape:zoom="0.38601104"
     inkscape:cx="-219.15317"
     inkscape:cy="584.98207"
     inkscape:document-units="px"
     inkscape:current-layer="layer1"
     showguides="true"
     inkscape:guide-bbox="true"
     inkscape:window-width="1280"
     inkscape:window-height="998"
     inkscape:window-x="1916"
     inkscape:window-y="-4">
    <sodipodi:guide
       orientation="horizontal"
       position="581.94888"
       id="guide3173" />
  </sodipodi:namedview>
  <metadata
     id="metadata7">
    <rdf:RDF>
      <cc:Work
         rdf:about="">
        <dc:format>image/svg+xml</dc:format>
        <dc:type
           rdf:resource="http://purl.org/dc/dcmitype/StillImage" />
      </cc:Work>
    </rdf:RDF>
  </metadata>
  <g
     inkscape:label="Layer 1"
     inkscape:groupmode="layer"
     id="layer1">
    <g
       id="g1345"
       transform="matrix(7.304935e-17,0.750082,-0.750082,7.304935e-17,187.4797,-4.051184e-2)">
      <path
         transform="matrix(0.945092,0,0,0.944843,28.40698,-14.61055)"
         d="M 219.5,-29.96875 C 217.87067,-30.062493 216.23339,-30.041166 214.5625,-29.90625 C 208.93042,-29.451485 208.19625,-28.965466 211.9375,-29.5625 C 200.13944,-27.7733 190.05375,-19.84658 185.5625,-8.375 L 182.9375,-2.0625 L 175.8125,-0.625 C 175.77081,-0.61467281 175.72914,-0.60425612 175.6875,-0.59375 C 169.51287,0.69123744 163.91832,3.6686541 159.4375,7.84375 C 143.17163,0.54290301 125.23075,-3.7187801 106.3125,-3.71875 C 30.504595,-3.7187487 -29.999899,61.024662 -30,138.0625 C -30,215.09844 30.447116,280 106.3125,280 C 136.68366,280.00001 164.55982,269.18555 186.96875,251.875 C 197.38319,255.41554 208.48979,257.65625 220.1875,257.65625 C 243.51579,257.65625 265.01777,249.72016 282.75,237 C 296.07729,242.68642 310.77607,245.99996 326.25,246 C 352.93461,246 377.28392,236.25525 396.5,220.6875 C 408.83444,226.12946 422.47987,229.3125 436.84375,229.3125 C 445.39472,229.3125 453.70587,228.09055 461.6875,226.0625 C 469.16493,234.23785 478.10961,241.02272 488.25,245.84375 C 510.18927,256.2743 533.05122,256.42187 551.9375,251.78125 C 561.40096,249.45594 570.90689,245.72702 579.84375,240.4375 C 581.12061,241.15072 582.42281,241.83951 583.78125,242.46875 C 601.03075,250.45895 619.79906,249.50413 635.71875,242.15625 C 649.8693,252.50049 666.05382,259.01544 682.5,261.78125 C 705.49775,265.64886 732.23935,262.75125 756.09375,247.84375 C 757.34599,247.06118 758.43344,246.22232 759.59375,245.40625 C 796.55269,259.15469 835.57093,257.32867 866.4375,238.875 C 868.7005,237.52206 870.87689,236.08315 873,234.59375 C 881.65102,243.52851 892.83429,249.9488 905.625,252.46875 C 928.22299,256.92089 951.78837,248.90486 966.78125,230.25 C 972.72169,222.85886 976.62072,214.35912 978.65625,205.5 C 983.15065,203.20801 987.48302,200.35865 991.46875,196.78125 C 1016.0619,174.83668 1035.6852,139.47079 1025,100.9375 C 1021.2721,87.493948 1013.676,75.331979 1003.4375,65.8125 C 1003.4447,63.293898 1003.3333,60.731577 1003.0625,58.09375 C 1000.9679,37.693057 989.89125,15.982507 964.71875,5.9375 C 952.98402,1.2548132 941.47701,1.2652804 931.71875,2.75 C 931.70957,2.7468738 931.69669,2.753124 931.6875,2.75 C 920.36521,-1.1004885 905.92491,-3.2798254 890.9375,1.6875 C 879.09012,5.6141019 870.26829,12.329528 863.6875,20.25 C 859.85299,18.988018 855.86748,17.990933 851.65625,17.53125 L 845.125,16.78125 C 843.53172,12.96389 841.51241,9.175215 838.875,5.53125 C 827.75022,-9.8387562 810.35198,-19.125899 791.46875,-20.1875 C 790.96002,-20.263114 790.44944,-20.325635 789.9375,-20.375 C 782.39619,-20.850936 785.01868,-20.376561 782.5,-20.15625 C 764.12907,-18.548677 747.68953,-8.7930841 737.15625,5.71875 C 734.89808,1.8290135 732.2785,-1.8584853 729.1875,-5.21875 C 717.45721,-17.97013 700.65464,-25.229055 683.34375,-25.375 C 682.5069,-25.503661 683.63364,-25.473706 681.5,-25.53125 C 678.17476,-25.620931 676.50947,-25.355976 674.9375,-25.09375 C 673.77121,-25.013073 677.20045,-25.457623 674.125,-25 C 674.052,-24.979443 673.97909,-24.95861 673.90625,-24.9375 C 672.3161,-24.688834 670.74855,-24.31262 669.21875,-23.8125 C 653.50189,-20.310006 640.00713,-10.983631 631.15625,1.9375 C 631.14564,1.9242418 631.54847,1.9218853 630.53125,1.96875 C 619.36705,-5.9763308 605.50217,-10.632211 590.40625,-9.53125 C 589.19934,-9.4372364 587.99923,-9.2702645 586.8125,-9.03125 C 584.63216,-8.7730168 582.13706,-8.4336438 579.09375,-7.625 L 572.65625,-6.125 C 562.36901,-13.043961 549.96079,-17.024954 536.75,-16.8125 C 536.69682,-16.825698 536.21657,-16.800359 535.625,-16.78125 C 535.29615,-16.770628 535.66947,-16.788925 535,-16.75 C 534.97868,-16.748772 534.98999,-16.751224 534.96875,-16.75 C 534.95833,-16.750005 534.94792,-16.750005 534.9375,-16.75 C 534.87497,-16.739781 534.81247,-16.729365 534.75,-16.71875 C 534.95663,-16.731686 532.91409,-16.545831 531.21875,-16.375 C 530.88509,-16.359734 530.55171,-16.338898 530.21875,-16.3125 L 530.21875,-16.28125 L 530.21875,-16.25 C 529.95807,-16.232569 529.69763,-16.211734 529.4375,-16.1875 C 529.46384,-16.191122 529.47355,-16.215158 529.5,-16.21875 C 529.41581,-16.207462 529.45797,-16.19863 529.375,-16.1875 C 529.34373,-16.177135 529.31248,-16.166718 529.28125,-16.15625 C 529.25764,-16.152913 529.24228,-16.159611 529.21875,-16.15625 C 529.30228,-16.167693 529.25896,-16.175878 529.34375,-16.1875 C 529.05846,-16.149226 529.17702,-16.16139 528.90625,-16.125 C 511.71344,-13.642479 496.47302,-4.1769703 486.5625,9.84375 C 485.43531,11.43846 484.49174,13.082383 483.5625,14.71875 L 481.84375,15.125 C 471.31638,17.365 462.0632,22.317273 454.46875,29.0625 C 448.71689,28.046368 442.84627,27.40625 436.84375,27.40625 C 421.28122,27.40625 406.5444,31.112953 393.40625,37.4375 C 374.68848,23.344498 351.51673,14.59375 326.25,14.59375 C 320.85287,14.59375 315.57071,15.053566 310.375,15.8125 C 308.3423,14.017624 306.0541,12.493219 303.625,11.21875 C 301.13026,-0.73699188 292.22377,-10.501603 280.46875,-14.125 C 269.7839,-17.418525 258.13924,-15.141194 249.46875,-8.375 L 246.75,-13.03125 C 241.08545,-23.149243 230.9053,-29.312546 219.5,-29.96875 z M 535.625,-16.78125 C 537.18603,-16.855236 536.65866,-16.827559 536.65625,-16.8125 C 536.55094,-16.810648 536.44916,-16.814884 536.34375,-16.8125 C 536.10405,-16.804956 535.86445,-16.794539 535.625,-16.78125 z M 530.15625,-16.3125 C 529.99984,-16.292898 529.84358,-16.272064 529.6875,-16.25 C 529.62499,-16.24173 529.59321,-16.227185 529.53125,-16.21875 C 529.56719,-16.223605 529.58888,-16.21395 529.625,-16.21875 C 529.36841,-16.199725 530.10266,-16.26233 529.875,-16.25 C 530.56833,-16.333034 530.65879,-16.368361 530.15625,-16.3125 z M 817.625,4.46875 C 817.6121,4.3939437 817.74565,5.5013448 817.8125,5.90625 C 817.78234,5.7601857 817.75109,5.6143483 817.71875,5.46875 C 817.68835,5.3514777 817.6313,4.5052752 817.625,4.46875 z M 817.84375,6.375 C 818.06118,8.0256017 817.9458,6.3410079 818,8.125 C 817.97237,7.5811336 817.93894,7.7466145 817.90625,7.375 C 817.89098,7.041342 817.87015,6.7079622 817.84375,6.375 L 817.84375,6.375 z M 818.03125,9.15625 C 818.05232,9.6767872 817.8949,11.235624 818,10.71875 C 818.01132,10.350558 818.00208,9.993814 818,9.6875 C 817.99893,9.5295346 818.03455,9.3004871 818.03125,9.15625 z M 817.46875,15.25 C 817.4986,15.812959 816.97788,17.376733 817.09375,16.84375 C 817.23322,16.31601 817.35827,15.784562 817.46875,15.25 L 817.46875,15.25 z M 816.21875,19.75 C 816.114,20.420728 815.33089,21.798675 815.625,21.28125 C 815.83685,20.776347 816.03484,20.265739 816.21875,19.75 L 816.21875,19.75 z M 561.59375,23.59375 C 561.01265,25.552267 561.09947,25.616313 560.84375,26.125 C 560.87653,26.015792 561.26489,24.689594 561.59375,23.59375 z M 812.03125,27.46875 C 811.9375,27.635417 811.625,28.09375 811.5625,28.15625 C 811.72192,27.929261 811.87819,27.700072 812.03125,27.46875 L 812.03125,27.46875 z M 555.15625,34.09375 C 554.58251,34.870648 554.67258,34.930714 554.4375,35.0625 C 554.46575,35.023473 554.99676,34.314103 555.15625,34.09375 z M 802.96875,35.53125 C 802.92708,35.572917 802.76042,35.677083 802.71875,35.6875 C 802.80234,35.635826 802.88567,35.583742 802.96875,35.53125 L 802.96875,35.53125 z "
         id="path4473"
         style="fill:#ffffff;fill-opacity:1;stroke:none;stroke-width:1;stroke-linecap:round;stroke-linejoin:round;stroke-miterlimit:4;stroke-opacity:1"
         inkscape:original="M 216.96875 0 C 216.8647 0.0084015598 216.76059 0.045849256 216.65625 0.0625 C 215.23339 0.27827959 214.02345 1.2255017 213.5 2.5625 L 204.46875 24.15625 L 181.8125 28.78125 C 180.33129 29.089501 179.14815 30.20044 178.75 31.65625 C 178.35189 33.11206 178.78708 34.672003 179.90625 35.6875 L 187.34375 41.96875 C 182.08672 44.462742 177.0279 47.420524 172.375 51 C 154.23159 35.674068 131.412 26.28121 106.3125 26.28125 C 47.610805 26.281251 8.05243e-005 76.489429 0 138.0625 C 2.8873348e-011 199.63557 47.60481 250 106.3125 250 C 135.72581 250.00001 162.23576 237.07295 181.4375 216.75 C 193.09411 223.55778 206.16516 227.65625 220.1875 227.65625 C 243.05152 227.65625 263.5949 217.21102 278.8125 200.6875 C 292.30331 210.17457 308.63169 215.99996 326.25 216 C 352.98783 216 376.46984 202.90581 391.8125 183 C 404.10994 193.08024 419.71985 199.3125 436.84375 199.3125 C 450.06921 199.3125 462.46703 195.67488 473.09375 189.375 C 478.8093 202.481 488.7352 212.85954 501.125 218.75 C 515.81661 225.73481 531.43902 225.93462 544.78125 222.65625 C 557.99631 219.40912 570.85757 212.49425 580.65625 201.3125 C 580.91133 201.02139 581.03119 200.60979 581.28125 200.3125 C 584.54533 206.57657 589.49851 212.06475 596.375 215.25 C 611.52914 222.2696 629.41533 216.0483 637.90625 202.0625 C 639.44042 204.18573 640.81633 206.45197 642.5625 208.34375 C 654.66669 221.45732 670.73842 229.3739 687.46875 232.1875 C 704.34548 235.02572 723.46683 232.85562 740.1875 222.40625 C 745.61725 219.013 750.31079 214.45891 754.65625 209.59375 C 757.04177 211.50264 759.59697 213.18636 762.46875 214.375 L 762.375 214.5 C 762.61178 214.59975 762.85565 214.6124 763.09375 214.6875 C 763.13034 214.69982 763.18238 214.73392 763.21875 214.75 C 763.22598 214.75277 763.24289 214.74701 763.25 214.75 C 763.26397 214.75639 763.29896 214.77413 763.3125 214.78125 C 763.4794 214.87424 763.63611 215.01741 763.8125 215.09375 C 763.81968 215.09659 763.83644 215.12239 763.84375 215.125 L 763.84375 215 C 795.52101 228.79307 827.3807 227.26455 851.03125 213.125 C 863.68543 205.55966 873.31354 194.98042 879.96875 183 L 886.28125 200.1875 C 886.41507 200.64216 886.75305 200.9916 886.90625 201.4375 C 890.6789 212.4172 900.09819 220.79725 911.4375 223.03125 C 923.09003 225.32697 935.69854 221.05905 943.40625 211.46875 C 949.98997 203.27723 951.92637 192.57627 949.1875 182.5 C 957.16001 182.5535 965.16293 180.1005 971.4375 174.46875 C 990.38734 157.55976 1002.902 133.52088 996.09375 108.96875 C 992.53444 96.133075 983.87931 85.7122 971.4375 79.84375 C 973.035 73.833403 973.87881 67.58527 973.21875 61.15625 C 972.18604 51.098166 965.62018 38.611608 953.59375 33.8125 C 945.21208 30.467836 936.86134 31.524976 928.78125 33.9375 C 919.79934 29.563887 910.43853 26.820861 900.375 30.15625 C 886.54239 34.740822 879.6717 48.586639 878.46875 59.53125 C 878.40911 60.073789 878.51296 60.612746 878.46875 61.15625 C 876.2848 61.419048 874.46856 62.615119 872.4375 63.28125 C 867.27695 54.853238 858.88392 48.487454 848.40625 47.34375 L 819.84375 44.09375 C 820.26618 36.688742 819.01484 29.276565 814.5625 23.125 C 808.50172 14.75142 798.59888 9.6451997 788.0625 9.59375 C 788.06828 9.5933581 788.05764 9.5629042 788.0625 9.5625 C 787.84778 9.5489489 786.8683 9.566262 785.125 9.71875 C 771.71458 10.892247 760.41953 20.038345 756.5625 32.9375 L 755.28125 36.8125 L 750.875 36.3125 C 748.7214 35.989151 747.26927 35.954971 745.09375 36.0625 C 745.0099 36.061977 744.92761 36.061978 744.84375 36.0625 C 736.82185 36.559908 729.56268 40.085738 724.09375 45.34375 L 715.03125 43.96875 L 715.03125 43.71875 C 717.20407 33.521939 714.30003 22.927785 707.09375 15.09375 C 700.58013 8.0131355 691.36903 4.1774374 681.5625 4.5625 C 681.47728 4.5658326 681.39782 4.5584847 681.3125 4.5625 C 680.88735 4.5104623 680.97881 4.3162901 678.65625 4.6875 C 678.65287 4.6877203 678.62775 4.6874641 678.625 4.6875 C 678.62185 4.6868796 678.5965 4.6882366 678.59375 4.6875 C 678.59137 4.6874299 678.56542 4.6874093 678.5625 4.6875 C 678.55535 4.6880722 678.54174 4.6859391 678.53125 4.6875 C 678.48914 4.7291383 678.448 4.7705005 678.40625 4.8125 C 678.36428 4.8123795 678.3232 4.8123796 678.28125 4.8125 C 664.34198 6.7375317 653.15431 17.438552 650.625 31.28125 L 650.09375 34.0625 L 638.78125 32.3125 C 636.81221 32.011596 634.86548 31.847186 632.875 31.90625 C 632.8328 31.907494 632.7922 31.904845 632.75 31.90625 C 632.49686 31.914721 632.25293 31.891875 632 31.90625 L 632 32.0625 C 628.24981 32.209176 624.63057 32.985781 621.28125 34.3125 C 614.77389 25.382138 604.19284 19.529067 592.59375 20.375 C 592.50955 20.416237 592.42734 20.457599 592.34375 20.5 C 590.47401 20.666272 588.6251 20.893371 586.8125 21.375 L 564.1875 26.65625 C 557.99396 18.282766 547.98708 12.939666 537.03125 13.1875 C 536.97711 13.190066 536.81422 13.183766 536.75 13.1875 C 536.71014 13.189796 536.66689 13.216455 536.625 13.21875 C 535.9696 13.25978 535.49073 13.258753 533.96875 13.46875 C 533.85059 13.482901 533.74505 13.489749 533.65625 13.5 C 533.6591 13.499602 533.65346 13.469138 533.65625 13.46875 C 533.63484 13.471516 533.61515 13.497191 533.59375 13.5 C 533.56004 13.503837 533.52918 13.496761 533.5 13.5 C 533.46863 13.504206 533.4376 13.526953 533.40625 13.53125 C 533.30157 13.542415 533.22299 13.560339 533.1875 13.5625 C 524.26278 14.851167 516.25289 19.813242 511.0625 27.15625 C 508.2561 31.12665 506.61162 35.647352 505.78125 40.34375 L 488.6875 44.34375 C 478.19041 46.577308 469.82729 53.858318 465.78125 63.53125 C 456.93315 59.598267 447.13846 57.40625 436.84375 57.40625 C 418.85464 57.40625 402.57388 64.228968 390.03125 75.21875 C 374.65563 56.708402 351.88467 44.59375 326.25 44.59375 C 308.35687 44.593751 291.81475 50.514272 278.1875 60.28125 C 277.53964 59.618494 276.96157 58.909918 276.3125 58.28125 L 277.1875 51.375 L 289.75 44.84375 C 291.0854 44.134216 291.93278 42.727481 291.90625 41.21875 C 291.8797 39.709978 290.98453 38.349856 289.625 37.6875 L 276.6875 31.65625 L 274.40625 17.75 C 274.17187 16.230589 273.09775 14.985214 271.625 14.53125 C 270.15225 14.077286 268.55318 14.502456 267.5 15.625 L 258.3125 25.40625 C 257.65227 24.699847 256.74404 24.259161 255.78125 24.15625 L 232.5 22.125 L 220.8125 2.0625 C 220.03985 0.68239554 218.52951 -0.1260234 216.96875 0 z "
         inkscape:radius="30"
         sodipodi:type="inkscape:offset" />
      <g
         transform="matrix(3.805144,0,0,3.793783,2713.767,-1686.08)"
         id="g4178">
        <path
           sodipodi:type="inkscape:offset"
           inkscape:radius="1"
           inkscape:original="M -651.75 441.59375 L -654.1875 447.4375 L -660.375 448.71875 L -657.375 451.28125 C -659.3709 452.0395 -661.2413 453.14035 -662.90625 454.53125 C -667.33541 450.54103 -673.04404 448.12499 -679.3125 448.125 C -693.32023 448.125 -704.71873 460.14663 -704.71875 474.96875 C -704.71875 489.79087 -693.32023 501.84375 -679.3125 501.84375 C -672.03504 501.84375 -665.47242 498.57357 -660.84375 493.375 C -657.93708 495.23651 -654.59612 496.28125 -651.03125 496.28125 C -645.365 496.28125 -640.25435 493.5942 -636.59375 489.28125 C -633.27753 491.83646 -629.15233 493.37499 -624.6875 493.375 C -618.01492 493.375 -612.12755 489.99567 -608.53125 484.8125 C -605.56104 487.55357 -601.57854 489.21875 -597.21875 489.21875 C -588.01222 489.21875 -580.53123 481.73079 -580.53125 472.53125 C -580.53125 463.33171 -588.01223 455.875 -597.21875 455.875 C -601.78605 455.875 -605.92224 457.7148 -608.9375 460.6875 C -612.56416 455.83908 -618.27154 452.6875 -624.6875 452.6875 C -629.22143 452.6875 -633.40789 454.24766 -636.75 456.875 C -637.19214 456.36511 -637.67219 455.89875 -638.15625 455.4375 L -637.8125 452.75 L -634.21875 450.875 L -637.90625 449.15625 L -638.5625 445.15625 L -641.34375 448.125 L -642.59375 447.9375 L -642.28125 447.59375 L -648.59375 447.0625 L -651.75 441.59375 z M -644.15625 449.65625 L -643.40625 451.0625 L -643.71875 451.6875 C -644.26848 451.44187 -644.83435 451.22179 -645.40625 451.03125 L -644.15625 449.65625 z "
           style="fill:#ffffff;fill-opacity:1;stroke:none;stroke-width:1;stroke-linecap:round;stroke-linejoin:round;stroke-miterlimit:4;stroke-dasharray:none;stroke-opacity:1"
           id="path4176"
           d="M -651.90625,440.59375 C -652.25965,440.64749 -652.55749,440.88577 -652.6875,441.21875 L -654.9375,446.59375 L -660.5625,447.75 C -660.93039,447.82677 -661.22418,448.1033 -661.32307,448.46587 C -661.42195,448.82844 -661.30922,449.21584 -661.03125,449.46875 L -659.1875,451.03125 C -660.4932,451.65238 -661.7506,452.38978 -662.90625,453.28125 C -667.41257,449.46432 -673.07848,447.12499 -679.3125,447.125 C -693.89237,447.125 -705.71873,459.63395 -705.71875,474.96875 C -705.71875,490.30355 -693.89386,502.84375 -679.3125,502.84375 C -672.00705,502.84375 -665.42543,499.62394 -660.65625,494.5625 C -657.76107,496.25798 -654.51401,497.28125 -651.03125,497.28125 C -645.35246,497.28125 -640.24838,494.67769 -636.46875,490.5625 C -633.11801,492.92526 -629.0634,494.37499 -624.6875,494.375 C -618.04657,494.375 -612.21694,491.1138 -608.40625,486.15625 C -605.35191,488.66674 -601.47185,490.21875 -597.21875,490.21875 C -587.47,490.21875 -579.53123,482.27292 -579.53125,472.53125 C -579.53125,462.78958 -587.47227,454.875 -597.21875,454.875 C -601.68675,454.875 -605.72851,456.57549 -608.84375,459.3125 C -612.66263,454.70249 -618.32056,451.6875 -624.6875,451.6875 C -629.13166,451.6875 -633.24037,453.16128 -636.625,455.59375 C -636.78591,455.42869 -636.93254,455.25032 -637.09375,455.09375 L -636.875,453.375 L -633.75,451.75 C -633.41832,451.57329 -633.21371,451.22556 -633.2203,450.84981 C -633.22689,450.47405 -633.44358,450.13371 -633.78125,449.96875 L -637,448.46875 L -637.5625,445 C -637.62071,444.62159 -637.88985,444.30961 -638.25564,444.19655 C -638.62143,444.08349 -639.01967,444.18918 -639.28125,444.46875 L -641.5625,446.90625 C -641.72648,446.73032 -641.94837,446.61938 -642.1875,446.59375 L -647.96875,446.09375 L -650.875,441.09375 C -651.0797,440.72712 -651.49162,440.5274 -651.90625,440.59375 z " />
        <path
           style="fill:#25689d;fill-opacity:1;fill-rule:evenodd;stroke:#ffffff;stroke-width:1;stroke-linecap:round;stroke-linejoin:round;stroke-miterlimit:4;stroke-opacity:1"
           d="M -536.5,441.71875 C -536.6056,441.70579 -536.57939,441.65755 -537.15625,441.75 C -537.17602,441.75276 -537.16666,441.74689 -537.1875,441.75 C -537.19796,441.76037 -537.20838,441.77079 -537.21875,441.78125 C -537.22917,441.78122 -537.23958,441.78122 -537.25,441.78125 C -540.71213,442.26068 -543.49679,444.92747 -544.125,448.375 L -544.25,449.0625 L -547.0625,448.625 C -547.55155,448.55006 -548.03687,448.51654 -548.53125,448.53125 C -548.54173,448.53156 -548.55202,448.5309 -548.5625,448.53125 C -548.62538,448.53336 -548.68718,448.52767 -548.75,448.53125 L -548.75,448.5625 C -549.68144,448.59903 -550.57437,448.79458 -551.40625,449.125 C -553.0225,446.90089 -555.65036,445.44557 -558.53125,445.65625 C -558.55216,445.66652 -558.57299,445.67694 -558.59375,445.6875 C -559.05814,445.72891 -559.51855,445.7863 -559.96875,445.90625 L -565.59375,447.21875 C -567.16898,445.08328 -569.73347,443.74317 -572.53125,443.875 C -571.78121,443.8396 -572.04715,443.7927 -573.09375,443.9375 C -573.56333,443.99389 -573.04919,443.91891 -573.15625,443.9375 C -575.42655,444.22725 -577.46628,445.47834 -578.78125,447.34375 C -579.47828,448.33258 -579.88751,449.45536 -580.09375,450.625 L -584.34375,451.625 C -587.22686,452.24014 -589.45813,454.39219 -590.3125,457.1875 C -591.15813,459.95406 -590.5182,463.06032 -588.40625,465.25 C -587.61562,466.06975 -586.66016,466.61451 -585.65625,467.03125 C -587.09769,468.6787 -588.34794,470.55912 -589.0625,472.875 C -590.21291,476.60347 -590.10687,480.6768 -589.125,484.96875 C -588.08012,489.53607 -585.15637,493.20023 -581.25,495.0625 C -577.60101,496.80207 -573.72009,496.84773 -570.40625,496.03125 C -567.124,495.22255 -563.93372,493.50357 -561.5,490.71875 C -561.43664,490.64625 -561.40586,490.54279 -561.34375,490.46875 C -560.53304,492.02882 -559.30168,493.39421 -557.59375,494.1875 C -553.82989,495.93573 -549.39016,494.38942 -547.28125,490.90625 C -546.9002,491.43504 -546.5587,491.9976 -546.125,492.46875 C -543.11866,495.73469 -539.1241,497.70552 -534.96875,498.40625 C -530.77704,499.11311 -526.02795,498.57117 -521.875,495.96875 C -520.5264,495.12366 -519.36054,493.99292 -518.28125,492.78125 C -517.68876,493.25666 -517.05702,493.67272 -516.34375,493.96875 L -516.375,494 C -516.30274,494.03269 -516.22852,494.03046 -516.15625,494.0625 C -516.09876,494.0846 -516.05813,494.13544 -516,494.15625 L -516,494.125 C -508.13225,497.56017 -500.21789,497.17771 -494.34375,493.65625 C -491.2008,491.7721 -488.80922,489.13998 -487.15625,486.15625 L -485.59375,490.4375 C -485.56051,490.55073 -485.47555,490.63895 -485.4375,490.75 C -484.50048,493.4845 -482.16012,495.56862 -479.34375,496.125 C -476.44959,496.69675 -473.32063,495.63847 -471.40625,493.25 C -469.77103,491.2099 -469.28849,488.54075 -469.96875,486.03125 C -467.9886,486.04457 -465.99593,485.43384 -464.4375,484.03125 C -459.73088,479.82006 -456.62151,473.83347 -458.3125,467.71875 C -459.19654,464.52202 -461.3473,461.93029 -464.4375,460.46875 C -464.04072,458.97187 -463.83606,457.41365 -464,455.8125 C -464.25649,453.30753 -465.88797,450.19522 -468.875,449 C -470.95677,448.16701 -473.02438,448.43041 -475.03125,449.03125 C -477.2621,447.942 -479.59425,447.26307 -482.09375,448.09375 C -485.52939,449.23554 -487.23247,452.68049 -487.53125,455.40625 C -487.54606,455.54137 -487.52027,455.67714 -487.53125,455.8125 C -488.07368,455.87795 -488.52679,456.17785 -489.03125,456.34375 C -490.31298,454.24475 -492.39764,452.65984 -495,452.375 L -502.09375,451.5625 C -501.98883,449.71828 -502.30041,447.8758 -503.40625,446.34375 C -504.92643,444.23774 -507.41663,442.95647 -510.0625,442.96875 C -509.82365,442.96732 -510.05896,442.94213 -510.71875,443 C -514.04952,443.29226 -516.85452,445.56871 -517.8125,448.78125 L -518.125,449.75 L -519.21875,449.625 C -519.75364,449.54447 -520.11591,449.53572 -520.65625,449.5625 C -520.67708,449.56237 -520.69792,449.56237 -520.71875,449.5625 C -522.71116,449.68638 -524.51667,450.56549 -525.875,451.875 L -528.125,451.53125 L -528.125,451.46875 C -527.58534,448.92923 -528.30391,446.29482 -530.09375,444.34375 C -531.71155,442.58032 -534.00183,441.62285 -536.4375,441.71875 C -536.45867,441.71958 -536.47881,441.71775 -536.5,441.71875 z "
           id="path4126" />
        <path
           style="fill:#ffff00;fill-opacity:1;fill-rule:evenodd;stroke:#000000;stroke-width:1;stroke-linecap:round;stroke-linejoin:round;stroke-miterlimit:4;stroke-dasharray:none;stroke-opacity:1"
           d="M -572.28125,448.875 C -572.35752,448.87859 -572.42306,448.89702 -572.5,448.90625 C -573.38148,449.01542 -574.17575,449.49278 -574.6875,450.21875 C -575.19925,450.94474 -575.38093,451.85185 -575.1875,452.71875 L -574.8125,454.53125 L -583.1875,456.5 C -584.30669,456.73879 -585.19675,457.56184 -585.53125,458.65625 C -585.86577,459.75067 -585.60695,460.95756 -584.8125,461.78125 C -584.01807,462.60494 -582.82453,462.91975 -581.71875,462.625 L -573.53125,460.6875 L -572.53125,465.53125 C -574.95367,465.97868 -577.48494,466.68436 -579.8125,468.28125 C -581.76825,469.62305 -583.45932,471.67989 -584.28125,474.34375 C -585.10318,477.00761 -585.09613,480.14515 -584.25,483.84375 C -583.5313,486.98529 -581.52779,489.40213 -579.09375,490.5625 C -576.65971,491.72287 -574.0059,491.78182 -571.59375,491.1875 C -569.1816,490.59318 -566.91966,489.34803 -565.25,487.4375 C -563.58034,485.52697 -562.56288,482.71745 -563.15625,479.84375 L -564.96875,471.09375 C -561.15094,470.93388 -558.55627,471.43812 -557.34375,472.28125 C -555.88444,473.29598 -555.34199,474.63208 -555.1875,476.5625 C -554.87852,480.42333 -557.03125,485.46875 -557.03125,485.46875 C -557.76475,487.04794 -557.07919,488.92275 -555.5,489.65625 C -553.92081,490.38975 -552.046,489.70419 -551.3125,488.125 C -551.3125,488.125 -548.40323,482.34802 -548.90625,476.0625 C -549.15776,472.91974 -550.51249,469.34496 -553.75,467.09375 C -556.6946,465.04621 -560.82353,464.2726 -566.28125,464.71875 L -567.40625,459.25 L -557.25,456.875 C -555.63626,456.52019 -554.57423,454.97877 -554.8125,453.34375 C -555.05079,451.70875 -556.50836,450.53574 -558.15625,450.65625 C -558.33569,450.67225 -558.51342,450.70362 -558.6875,450.75 L -568.6875,453.09375 L -569.03125,451.4375 C -569.32964,449.89044 -570.73049,448.80193 -572.28125,448.875 z M -571.25,471.75 L -569.3125,481.125 C -569.13712,481.97436 -569.34639,482.53335 -570,483.28125 C -570.65361,484.02915 -571.84514,484.75486 -573.09375,485.0625 C -574.34236,485.37014 -575.56532,485.26099 -576.375,484.875 C -577.18468,484.48901 -577.77155,483.98247 -578.125,482.4375 C -578.80056,479.48449 -578.68211,477.48667 -578.28125,476.1875 C -577.88039,474.88833 -577.24934,474.15438 -576.25,473.46875 C -575.06055,472.65269 -573.22837,472.14176 -571.25,471.75 z "
           id="path3190" />
        <path
           sodipodi:type="arc"
           style="opacity:1;fill:#dc5f1b;fill-opacity:1;stroke:#000000;stroke-width:1;stroke-linecap:round;stroke-linejoin:round;stroke-miterlimit:4;stroke-dasharray:none;stroke-opacity:1"
           id="path4141"
           sodipodi:cx="-595.91516"
           sodipodi:cy="473.84482"
           sodipodi:rx="14.796256"
           sodipodi:ry="19.511547"
           d="M -581.11891 473.84482 A 14.796256 19.511547 0 1 1  -610.71142,473.84482 A 14.796256 19.511547 0 1 1  -581.11891 473.84482 z"
           transform="matrix(1.12721,0,0,0.854152,74.50552,67.80875)" />
        <path
           sodipodi:type="arc"
           style="opacity:1;fill:#39613f;fill-opacity:1;stroke:#000000;stroke-width:1;stroke-linecap:round;stroke-linejoin:round;stroke-miterlimit:4;stroke-dasharray:none;stroke-opacity:1"
           id="path4139"
           sodipodi:cx="-625.99542"
           sodipodi:cy="473.84482"
           sodipodi:rx="19.836739"
           sodipodi:ry="20.812317"
           d="M -606.15868 473.84482 A 19.836739 20.812317 0 1 1  -645.83216,473.84482 A 19.836739 20.812317 0 1 1  -606.15868 473.84482 z"
           transform="matrix(1,0,0,0.977112,1.300738,10.03221)" />
        <path
           sodipodi:type="arc"
           style="opacity:1;fill:#513065;fill-opacity:1;stroke:#000000;stroke-width:1;stroke-linecap:round;stroke-linejoin:round;stroke-miterlimit:4;stroke-dasharray:none;stroke-opacity:1"
           id="path4137"
           sodipodi:cx="-651.36047"
           sodipodi:cy="472.86926"
           sodipodi:rx="20.161932"
           sodipodi:ry="23.088663"
           d="M -631.19854 472.86926 A 20.161932 23.088663 0 1 1  -671.52241,472.86926 A 20.161932 23.088663 0 1 1  -631.19854 472.86926 z"
           transform="translate(0.325155,0.325188)" />
        <path
           sodipodi:type="arc"
           style="opacity:1;fill:#df1c44;fill-opacity:1;stroke:#000000;stroke-width:1;stroke-linecap:round;stroke-linejoin:round;stroke-miterlimit:4;stroke-dasharray:none;stroke-opacity:1"
           id="path4135"
           sodipodi:cx="-677.37585"
           sodipodi:cy="475.3082"
           sodipodi:rx="26.015396"
           sodipodi:ry="28.129147"
           d="M -651.36046 475.3082 A 26.015396 28.129147 0 1 1  -703.39125,475.3082 A 26.015396 28.129147 0 1 1  -651.36046 475.3082 z"
           transform="matrix(0.975435,0,0,0.954585,-18.59078,21.26086)" />
        <path
           style="fill:#ffff00;fill-opacity:1;fill-rule:evenodd;stroke:#000000;stroke-width:1px;stroke-linecap:butt;stroke-linejoin:miter;stroke-opacity:1"
           d="M -690.99914,454.46742 L -688.6768,464.81235 C -684.88269,468.72143 -674.15581,468.38056 -667.14246,467.3458 C -667.14246,467.3458 -670.39863,464.47353 -667.98694,457.212 C -676.49493,458.4767 -683.64088,456.99682 -690.99914,454.46742 z "
           id="path3175"
           sodipodi:nodetypes="ccccc" />
        <path
           style="fill:#ffff00;fill-opacity:1;fill-rule:evenodd;stroke:#000000;stroke-width:1px;stroke-linecap:butt;stroke-linejoin:miter;stroke-opacity:1"
           d="M -693.11035,473.04608 C -691.81696,477.03882 -687.62437,476.79232 -684.22242,476.36753 C -683.99247,486.02526 -671.58673,485.3079 -666.29798,483.81325 L -669.75121,486.50134 L -665.45349,487.82454 L -669.61741,491.14398 L -665.74193,492.68236 C -688.12076,501.33832 -704.29976,488.03567 -693.11035,473.04608 z "
           id="path3177"
           sodipodi:nodetypes="cccccccc" />
        <path
           style="fill:#ffff00;fill-opacity:1;fill-rule:evenodd;stroke:#000000;stroke-width:1px;stroke-linecap:butt;stroke-linejoin:miter;stroke-opacity:1"
           d="M -649.13694,460.36677 L -656.38023,467.61006 L -663.04866,461.28655 L -664.65828,468.87476 L -660.51926,473.24372 C -669.37217,485.89074 -657.64494,500.9522 -634.53539,487.61534 L -638.78938,485.20091 L -636.145,483.47632 L -639.93911,482.90146 L -638.09954,479.56724 C -652.81607,484.51108 -655.80537,478.76243 -643.61824,462.89617 L -649.13694,460.36677 z "
           id="path3179"
           sodipodi:nodetypes="cccccccccccc" />
        <path
           style="fill:#ffff00;fill-opacity:1;fill-rule:evenodd;stroke:#000000;stroke-width:1px;stroke-linecap:butt;stroke-linejoin:miter;stroke-opacity:1"
           d="M -629.03125,456.5625 C -629.65246,458.43773 -630.17347,460.23836 -630.625,461.9375 C -633.30843,461.94554 -635.90922,461.69367 -638.34375,461.0625 C -637.2222,464.0554 -636.17026,466.29214 -631.78125,466.96875 C -632.06992,468.49519 -632.2632,469.95348 -632.40625,471.3125 C -634.36831,471.21672 -636.27969,470.97031 -638.09375,470.5 C -637.07059,473.23033 -636.11744,475.29588 -632.625,476.15625 C -632.2197,493.87573 -617.20321,492.78308 -610.28125,481.875 C -612.5567,482.22707 -614.51514,481.80251 -614.75,481.75 L -611.875,478.875 L -615.09375,479.09375 L -614,475.90625 C -614.62893,476.34696 -621.49108,481.01302 -624.34375,476.40625 C -622.17045,476.20443 -619.60709,475.83404 -616.59375,475.3125 L -617.53125,470.03125 C -620.2154,470.46418 -622.90713,470.8488 -625.5625,471.09375 C -625.59036,469.92251 -625.54258,468.56851 -625.375,467.03125 C -623.03427,466.84652 -620.23746,466.46237 -616.84375,465.875 L -617.75,460.59375 C -619.98863,460.95482 -622.24305,461.28676 -624.46875,461.53125 C -624.41379,461.26631 -624.37196,460.99159 -624.3125,460.71875 L -629.03125,456.5625 z "
           id="path3181" />
        <path
           style="fill:#ffff00;fill-opacity:1;fill-rule:evenodd;stroke:#000000;stroke-width:1px;stroke-linecap:butt;stroke-linejoin:miter;stroke-opacity:1"
           d="M -594.40984,473.47368 C -600.04563,490.51762 -610.36233,480.25708 -610.2761,472.5539 C -610.18987,464.73574 -603.43372,459.07336 -596.82427,459.21704 C -590.21332,459.36075 -574.6345,467.95498 -587.97136,484.16616 L -587.97136,478.8774 L -591.07563,481.63675 L -590.73071,478.53249 L -593.26012,478.41751 C -589.58099,475.0833 -588.68994,474.93958 -589.81093,472.094 C -590.93192,469.24842 -594.69728,466.60405 -597.74406,467.0352 C -600.79084,467.46635 -602.60125,471.9844 -602.45795,473.8186 C -602.31423,475.65817 -599.93066,478.07181 -594.40984,473.47368 z "
           id="path3188"
           sodipodi:nodetypes="czzcccccsszc" />
        <path
           style="fill:#ffff00;fill-opacity:1;fill-rule:evenodd;stroke:#000000;stroke-width:1;stroke-linecap:round;stroke-linejoin:round;stroke-miterlimit:4;stroke-dasharray:none;stroke-opacity:1"
           d="M -562.21875,456.96875 C -563.60122,457.0672 -564.75696,458.05761 -565.06598,459.4087 C -565.375,460.75978 -564.76472,462.15412 -563.5625,462.84375 L -559.4375,465.28125 C -557.93598,466.16145 -556.0052,465.65777 -555.125,464.15625 C -554.2448,462.65473 -554.74848,460.72395 -556.25,459.84375 L -560.40625,457.40625 C -560.95243,457.08087 -561.58428,456.92835 -562.21875,456.96875 z "
           id="path3194" />
        <path
           sodipodi:type="star"
           style="opacity:1;fill:#ffff00;fill-opacity:1;stroke:#000000;stroke-opacity:1"
           id="path3196"
           sodipodi:sides="5"
           sodipodi:cx="-651.09149"
           sodipodi:cy="452.31866"
           sodipodi:r1="9.5205603"
           sodipodi:r2="4.7602801"
           sodipodi:arg1="0.74268911"
           sodipodi:arg2="1.3710076"
           inkscape:flatsided="false"
           inkscape:rounded="0"
           inkscape:randomized="0"
           d="M -644.07815,458.75715 L -650.14676,456.98426 L -655.04761,460.97835 L -655.23679,454.65891 L -660.54985,451.23216 L -654.59816,449.09942 L -652.98096,442.98748 L -649.11343,447.98882 L -642.80089,447.63818 L -646.36231,452.86191 L -644.07815,458.75715 z "
           transform="matrix(0.990614,0.136688,-0.136688,0.990614,55.66419,92.01783)" />
        <path
           sodipodi:type="star"
           style="opacity:1;fill:#ffff00;fill-opacity:1;stroke:#000000;stroke-opacity:1"
           id="path3198"
           sodipodi:sides="5"
           sodipodi:cx="-640.28406"
           sodipodi:cy="451.05396"
           sodipodi:r1="6.1206193"
           sodipodi:r2="3.0603096"
           sodipodi:arg1="1.081944"
           sodipodi:arg2="1.7102625"
           inkscape:flatsided="false"
           inkscape:rounded="0"
           inkscape:randomized="0"
           d="M -637.40974,456.45768 L -640.70949,454.08455 L -644.53509,455.45744 L -643.29779,451.58585 L -645.78566,448.37173 L -641.72122,448.35209 L -639.4332,444.99276 L -638.15854,448.85221 L -634.25659,449.99016 L -637.53325,452.39507 L -637.40974,456.45768 z "
           transform="matrix(0.98804,0.1542,-0.1542,0.98804,61.84687,104.0819)" />
        <path
           style="fill:#ffff00;fill-opacity:1;fill-rule:evenodd;stroke:#000000;stroke-width:1;stroke-linecap:round;stroke-linejoin:round;stroke-miterlimit:4;stroke-dasharray:none;stroke-opacity:1"
           d="M -536.3125,446.6875 C -536.37559,446.69148 -536.43682,446.71092 -536.5,446.71875 C -537.86961,446.88541 -538.97141,447.92389 -539.21875,449.28125 L -540.28125,454.71875 L -547.8125,453.5625 C -548.02956,453.52924 -548.24951,453.51877 -548.46875,453.53125 C -550.13428,453.54959 -551.51099,454.86767 -551.59375,456.53125 C -551.67649,458.19482 -550.43673,459.62894 -548.78125,459.8125 L -541.5,460.9375 L -542.5,466.03125 L -549.4375,464.96875 C -549.64323,464.92715 -549.8526,464.90621 -550.0625,464.90625 C -551.73351,464.90896 -553.09619,466.20649 -553.1875,467.875 C -553.27881,469.54353 -552.06698,471.00245 -550.40625,471.1875 L -543.71875,472.21875 L -545.1875,479.65625 C -545.90175,483.28243 -544.61557,486.7276 -542.4375,489.09375 C -540.25943,491.4599 -537.29929,492.93346 -534.125,493.46875 C -530.95071,494.00404 -527.4954,493.57622 -524.53125,491.71875 C -521.5671,489.86128 -519.28845,486.55862 -518.53125,482.1875 C -518.22922,480.47024 -519.37649,478.83328 -521.09375,478.53125 C -522.81101,478.22922 -524.44797,479.37649 -524.75,481.09375 C -525.2575,484.02341 -526.44055,485.50736 -527.875,486.40625 C -529.30945,487.30514 -531.17728,487.59916 -533.0625,487.28125 C -534.94772,486.96334 -536.74312,486.00548 -537.8125,484.84375 C -538.88188,483.68202 -539.32333,482.51652 -539,480.875 L -537.5,473.15625 L -527.15625,474.75 C -526.01088,474.99454 -524.81113,474.58819 -524.0625,473.6875 C -523.31389,472.78681 -523.14392,471.5501 -523.59375,470.46875 C -524.04358,469.3874 -525.05219,468.63524 -526.21875,468.53125 L -536.28125,467 L -535.28125,461.875 L -525.5625,463.375 C -523.83661,463.64251 -522.23626,462.47588 -521.96875,460.75 C -521.70124,459.02411 -522.86786,457.39251 -524.59375,457.125 L -534.0625,455.6875 L -533.03125,450.5 C -532.8195,449.50356 -533.09261,448.46942 -533.78125,447.71875 C -534.42687,447.01501 -535.36611,446.62787 -536.3125,446.6875 z "
           id="path3200" />
        <path
           style="fill:#ffff00;fill-opacity:1;fill-rule:evenodd;stroke:#000000;stroke-width:1;stroke-linecap:round;stroke-linejoin:round;stroke-miterlimit:4;stroke-dasharray:none;stroke-opacity:1"
           d="M -510.28125,447.96875 C -511.5586,448.08083 -512.6599,448.97345 -513.03125,450.21875 L -514.59375,455.1875 L -519.78125,454.59375 C -519.98803,454.56262 -520.1974,454.55215 -520.40625,454.5625 C -522.04893,454.66464 -523.35043,456.01058 -523.375,457.65625 C -523.39955,459.30191 -522.1389,460.69263 -520.5,460.84375 L -516.53125,461.3125 L -519.46875,470.5625 C -519.85013,471.74573 -519.48755,473.04448 -518.5625,473.875 C -517.63745,474.70553 -516.32294,474.91249 -515.1875,474.40625 C -507.03895,470.78164 -501.84639,470.81011 -499.21875,471.875 C -496.59111,472.93989 -495.79304,474.77792 -495.9375,477.21875 C -496.08196,479.65958 -497.58601,482.42793 -500.15625,483.96875 C -502.72649,485.50957 -506.41194,486.11945 -511.71875,483.71875 C -512.75619,483.14144 -514.01615,483.21046 -515,483.875 C -515.98386,484.53955 -516.52317,485.69703 -516.375,486.875 C -516.22684,488.05296 -515.43027,489.03731 -514.3125,489.4375 C -507.54715,492.49801 -501.32421,492.0235 -496.90625,489.375 C -492.48829,486.7265 -489.92857,482.19501 -489.65625,477.59375 C -489.38393,472.99249 -491.82929,468.06344 -496.84375,466.03125 C -500.63555,464.49456 -505.48825,464.49399 -511.53125,466.3125 L -510.1875,462.03125 L -496.21875,463.625 C -494.48423,463.81485 -492.9086,462.57826 -492.71875,460.84375 C -492.52891,459.10924 -493.79673,457.5336 -495.53125,457.34375 L -508.21875,455.90625 L -507.03125,452.125 C -506.70649,451.16121 -506.87351,450.10591 -507.46875,449.28125 C -508.064,448.45661 -509.01422,447.96403 -510.03125,447.96875 C -510.11788,447.96927 -510.19609,447.96128 -510.28125,447.96875 z "
           id="path3206" />
        <path
           style="fill:#ffff00;fill-opacity:1;fill-rule:evenodd;stroke:#000000;stroke-width:1;stroke-linecap:round;stroke-linejoin:round;stroke-miterlimit:4;stroke-dasharray:none;stroke-opacity:1"
           d="M -486.90625,460.75 C -487.84699,460.85181 -488.70203,461.38892 -489.21875,462.1875 C -489.76089,463.02535 -489.88161,464.06558 -489.53125,465 L -487.71875,470 L -490.8125,471.0625 C -492.46072,471.63204 -493.35079,473.44552 -492.78125,475.09375 C -492.2117,476.74198 -490.39822,477.60079 -488.75,477.03125 L -485.5625,475.90625 L -480.78125,489.03125 C -480.45051,490.15771 -479.52675,490.99122 -478.375,491.21875 C -477.22325,491.44628 -476.04674,491.04107 -475.3125,490.125 C -474.57824,489.20894 -474.40218,487.94959 -474.875,486.875 L -479.59375,473.84375 L -470.9375,470.8125 C -470.1498,470.53808 -469.64161,470.55347 -469.40625,470.59375 C -469.3805,470.59881 -469.33082,470.61986 -469.3125,470.625 C -469.30721,470.62666 -469.28573,470.62343 -469.28125,470.625 C -469.27391,470.62788 -469.25569,470.62319 -469.25,470.625 C -469.24706,470.62532 -469.2206,470.62511 -469.21875,470.625 C -469.2201,470.62564 -469.2171,470.65261 -469.21875,470.65625 C -469.21898,470.66043 -469.21909,470.68182 -469.21875,470.6875 C -469.21656,470.70228 -469.22509,470.72707 -469.21875,470.75 C -469.21716,470.75573 -469.22019,470.77468 -469.21875,470.78125 C -469.1395,471.23952 -469.37953,473.28036 -472,475.625 C -473.29442,476.78998 -473.41497,478.79933 -472.25,480.09375 C -471.08502,481.38817 -469.07567,481.47748 -467.78125,480.3125 C -463.9328,476.86915 -462.08526,472.82227 -463.125,469.0625 C -463.64487,467.18262 -465.0997,465.48457 -466.96875,464.75 C -467.90328,464.38271 -468.89218,464.2536 -469.90625,464.28125 C -470.92032,464.3089 -471.9722,464.51693 -473,464.875 L -481.75,467.90625 L -483.59375,462.84375 C -484.06516,461.50895 -485.36901,460.65249 -486.78125,460.75 C -486.82793,460.75297 -486.85998,460.74499 -486.90625,460.75 z "
           id="path3210" />
        <path
           style="fill:#f371a0;fill-opacity:1;fill-rule:evenodd;stroke:#000000;stroke-width:1px;stroke-linecap:butt;stroke-linejoin:miter;stroke-opacity:1"
           d="M -475.4129,454.38818 C -465.87015,449.67429 -467.3648,463.58601 -476.6776,466.80525 C -485.07062,461.45814 -484.48913,448.037 -475.4129,454.38818 z "
           id="path3214"
           sodipodi:nodetypes="ccc" />
      </g>
      <path
         transform="matrix(3.805144,0,0,3.793783,2713.767,-1686.08)"
         sodipodi:type="inkscape:offset"
         inkscape:radius="1"
         inkscape:original="M -651.75 441.59375 L -654.1875 447.4375 L -660.375 448.71875 L -657.375 451.28125 C -659.3709 452.0395 -661.2413 453.14035 -662.90625 454.53125 C -667.33541 450.54103 -673.04404 448.12499 -679.3125 448.125 C -693.32023 448.125 -704.71873 460.14663 -704.71875 474.96875 C -704.71875 489.79087 -693.32023 501.84375 -679.3125 501.84375 C -672.03504 501.84375 -665.47242 498.57357 -660.84375 493.375 C -657.93708 495.23651 -654.59612 496.28125 -651.03125 496.28125 C -645.365 496.28125 -640.25435 493.5942 -636.59375 489.28125 C -633.27753 491.83646 -629.15233 493.37499 -624.6875 493.375 C -618.01492 493.375 -612.12755 489.99567 -608.53125 484.8125 C -605.56104 487.55357 -601.57854 489.21875 -597.21875 489.21875 C -588.01222 489.21875 -580.53123 481.73079 -580.53125 472.53125 C -580.53125 463.33171 -588.01223 455.875 -597.21875 455.875 C -601.78605 455.875 -605.92224 457.7148 -608.9375 460.6875 C -612.56416 455.83908 -618.27154 452.6875 -624.6875 452.6875 C -629.22143 452.6875 -633.40789 454.24766 -636.75 456.875 C -637.19214 456.36511 -637.67219 455.89875 -638.15625 455.4375 L -637.8125 452.75 L -634.21875 450.875 L -637.90625 449.15625 L -638.5625 445.15625 L -641.34375 448.125 L -642.59375 447.9375 L -642.28125 447.59375 L -648.59375 447.0625 L -651.75 441.59375 z M -644.15625 449.65625 L -643.40625 451.0625 L -643.71875 451.6875 C -644.26848 451.44187 -644.83435 451.22179 -645.40625 451.03125 L -644.15625 449.65625 z "
         style="fill:#ffffff;fill-opacity:1;stroke:none;stroke-width:1;stroke-linecap:round;stroke-linejoin:round;stroke-miterlimit:4;stroke-dasharray:none;stroke-opacity:1"
         id="path4358"
         d="M -651.90625,440.59375 C -652.25965,440.64749 -652.55749,440.88577 -652.6875,441.21875 L -654.9375,446.59375 L -660.5625,447.75 C -660.93039,447.82677 -661.22418,448.1033 -661.32307,448.46587 C -661.42195,448.82844 -661.30922,449.21584 -661.03125,449.46875 L -659.1875,451.03125 C -660.4932,451.65238 -661.7506,452.38978 -662.90625,453.28125 C -667.41257,449.46432 -673.07848,447.12499 -679.3125,447.125 C -693.89237,447.125 -705.71873,459.63395 -705.71875,474.96875 C -705.71875,490.30355 -693.89386,502.84375 -679.3125,502.84375 C -672.00705,502.84375 -665.42543,499.62394 -660.65625,494.5625 C -657.76107,496.25798 -654.51401,497.28125 -651.03125,497.28125 C -645.35246,497.28125 -640.24838,494.67769 -636.46875,490.5625 C -633.11801,492.92526 -629.0634,494.37499 -624.6875,494.375 C -618.04657,494.375 -612.21694,491.1138 -608.40625,486.15625 C -605.35191,488.66674 -601.47185,490.21875 -597.21875,490.21875 C -587.47,490.21875 -579.53123,482.27292 -579.53125,472.53125 C -579.53125,462.78958 -587.47227,454.875 -597.21875,454.875 C -601.68675,454.875 -605.72851,456.57549 -608.84375,459.3125 C -612.66263,454.70249 -618.32056,451.6875 -624.6875,451.6875 C -629.13166,451.6875 -633.24037,453.16128 -636.625,455.59375 C -636.78591,455.42869 -636.93254,455.25032 -637.09375,455.09375 L -636.875,453.375 L -633.75,451.75 C -633.41832,451.57329 -633.21371,451.22556 -633.2203,450.84981 C -633.22689,450.47405 -633.44358,450.13371 -633.78125,449.96875 L -637,448.46875 L -637.5625,445 C -637.62071,444.62159 -637.88985,444.30961 -638.25564,444.19655 C -638.62143,444.08349 -639.01967,444.18918 -639.28125,444.46875 L -641.5625,446.90625 C -641.72648,446.73032 -641.94837,446.61938 -642.1875,446.59375 L -647.96875,446.09375 L -650.875,441.09375 C -651.0797,440.72712 -651.49162,440.5274 -651.90625,440.59375 z " />
      <path
         style="fill:#25689d;fill-opacity:1;fill-rule:evenodd;stroke:#ffffff;stroke-width:3.79945874;stroke-linecap:round;stroke-linejoin:round;stroke-miterlimit:4;stroke-opacity:1"
         d="M 672.3073,-10.294838 C 671.90547,-10.344006 672.00521,-10.527018 669.81017,-10.176284 C 669.73494,-10.165813 669.77056,-10.188082 669.69126,-10.176284 C 669.65146,-10.136942 669.6118,-10.097411 669.57235,-10.057727 C 669.5327,-10.057842 669.49308,-10.057842 669.45344,-10.057727 C 656.27953,-8.2388736 645.68351,1.8783476 643.29307,14.957526 L 642.81744,17.565752 L 632.11547,15.905972 C 630.25456,15.621667 628.40784,15.494499 626.52666,15.550306 C 626.48679,15.551482 626.44763,15.548978 626.40775,15.550306 C 626.16849,15.55831 625.93333,15.536724 625.69429,15.550306 L 625.69429,15.668862 C 622.15002,15.807448 618.75229,16.549322 615.58688,17.802863 C 609.43681,9.3650735 599.43743,3.8439059 588.47522,4.6431799 C 588.39566,4.6821425 588.3164,4.7216738 588.2374,4.761736 C 586.47033,4.918837 584.7184,5.136562 583.00533,5.5916258 L 561.6014,10.570966 C 555.60742,2.4694567 545.84917,-2.6146293 535.2032,-2.1144945 C 538.05722,-2.2487945 537.04528,-2.4267236 533.06282,-1.8773833 C 531.276,-1.6634518 533.23238,-1.9479101 532.825,-1.8773833 C 524.18618,-0.77813474 516.42471,3.9682284 511.42106,11.045189 C 508.76876,14.796594 507.21158,19.056178 506.42681,23.493538 L 490.25495,27.287321 C 479.2843,29.621027 470.794,37.785438 467.543,48.390236 C 464.32526,58.885963 466.76029,70.670439 474.79656,78.977609 C 477.80502,82.087562 481.44067,84.154264 485.2607,85.735281 C 479.77581,91.985352 475.01844,99.119258 472.29943,107.9052 C 467.92196,122.05021 468.32546,137.50353 472.06161,153.78626 C 476.03753,171.11367 487.16282,185.01471 502.02711,192.07975 C 515.91205,198.6793 530.67951,198.85252 543.28915,195.75498 C 555.77857,192.68695 567.91805,186.16551 577.17871,175.60051 C 577.4198,175.32546 577.53692,174.93296 577.77325,174.65206 C 580.85813,180.57062 585.54363,185.75063 592.04254,188.76019 C 606.36458,195.3926 623.25839,189.52623 631.28309,176.31184 C 632.73304,178.31797 634.03249,180.45219 635.68279,182.23963 C 647.12233,194.6299 662.32222,202.1068 678.13392,204.76521 C 694.08398,207.44688 712.15495,205.39089 727.95753,195.51787 C 733.08914,192.31178 737.5254,188.02201 741.63226,183.42519 C 743.88677,185.22879 746.29063,186.80723 749.00472,187.93031 L 748.88581,188.04886 C 749.16076,188.17288 749.44319,188.16442 749.71818,188.28598 C 749.93694,188.36981 750.09155,188.56269 750.31274,188.64164 L 750.31274,188.52309 C 780.25066,201.55537 810.36594,200.1044 832.71788,186.74475 C 844.67726,179.5967 853.77757,169.611 860.06735,158.29138 L 866.01289,174.5335 C 866.13937,174.96308 866.46266,175.29776 866.60745,175.71907 C 870.17294,186.09316 879.07834,193.99986 889.79503,196.11065 C 900.80773,198.27973 912.71388,194.26486 919.99837,185.20353 C 926.22061,177.46383 928.05674,167.33765 925.46826,157.81715 C 933.00302,157.86769 940.58542,155.55071 946.51549,150.22959 C 964.42479,134.25325 976.2564,111.54142 969.82193,88.343511 C 966.45806,76.21581 958.27414,66.383351 946.51549,60.838586 C 948.02527,55.159748 948.80403,49.2482 948.18017,43.173785 C 947.20427,33.670473 940.99622,21.863046 929.63013,17.328641 C 921.70871,14.168458 913.84116,15.16774 906.20472,17.447198 C 897.71601,13.314819 888.84185,10.739106 879.33089,13.890525 C 866.25779,18.222229 859.77732,31.29162 858.64043,41.632561 C 858.58407,42.145176 858.68221,42.660258 858.64043,43.173785 C 856.5764,43.422088 854.85225,44.559843 852.93271,45.189233 C 848.05555,37.226082 840.12312,31.213278 830.22076,30.132657 L 803.22802,27.050209 C 803.62726,20.053639 802.44165,13.06367 798.23377,7.2514064 C 792.44926,-0.73833794 782.9737,-5.5991981 772.90578,-5.5526107 C 773.81464,-5.5580351 772.91925,-5.6536012 770.40866,-5.4340546 C 757.73459,-4.3252839 747.06117,4.3110723 743.41592,16.498752 L 742.22681,20.173978 L 738.06494,19.699755 C 736.0296,19.394242 734.65111,19.361046 732.59504,19.462644 C 732.51578,19.46215 732.43647,19.46215 732.35722,19.462644 C 724.77581,19.932618 717.90559,23.267769 712.73695,28.235766 L 704.17537,26.931653 L 704.17537,26.694542 C 706.22886,17.060155 703.49459,7.0657759 696.68399,-0.33615882 C 690.52804,-7.0262297 681.81319,-10.658662 672.54512,-10.294838 C 672.46457,-10.29169 672.38793,-10.298632 672.3073,-10.294838 z "
         id="path4360" />
      <path
         style="fill:#ffff00;fill-opacity:1;fill-rule:evenodd;stroke:#000000;stroke-width:3.79945874;stroke-linecap:round;stroke-linejoin:round;stroke-miterlimit:4;stroke-dasharray:none;stroke-opacity:1"
         d="M 536.1545,16.854418 C 535.86428,16.868037 535.61489,16.937957 535.32212,16.972974 C 531.96796,17.387141 528.94565,19.198141 526.99837,21.952314 C 525.05109,24.706562 524.35977,28.14794 525.0958,31.43677 L 526.52272,38.313001 L 494.65465,45.78201 C 490.39597,46.687928 487.00917,49.810401 485.73635,53.962354 C 484.46345,58.114346 485.44829,62.693025 488.47129,65.817925 C 491.49421,68.942826 496.0358,70.137147 500.24345,69.018929 L 531.39807,61.668475 L 535.2032,80.044613 C 525.98555,81.742061 516.3537,84.419255 507.49701,90.477515 C 500.0551,95.568008 493.62033,103.37122 490.49277,113.47733 C 487.36522,123.58343 487.39204,135.48656 490.61168,149.51826 C 493.34644,161.43657 500.97008,170.60553 510.23196,175.00773 C 519.49383,179.40993 529.59196,179.63357 538.77053,177.37885 C 547.94911,175.12413 556.55611,170.4003 562.90941,163.15216 C 569.26271,155.90402 573.13428,145.24531 570.87644,134.34312 L 563.9796,101.14752 C 578.50693,100.54101 588.38002,102.45399 592.99383,105.65265 C 598.54672,109.50231 600.61081,114.57118 601.19867,121.89477 C 602.37438,136.54193 594.18294,155.68315 594.18294,155.68315 C 591.39186,161.67425 594.00052,168.78688 600.00956,171.56961 C 606.01862,174.35235 613.15253,171.75149 615.9436,165.76038 C 615.9436,165.76038 627.0138,143.84378 625.09973,119.99788 C 624.1427,108.07493 618.98776,94.512996 606.66856,85.972398 C 595.46394,78.204474 579.75277,75.269565 558.98536,76.962161 L 554.70457,56.214913 L 593.35056,47.204679 C 599.49108,45.858607 603.53225,40.010794 602.6256,33.807885 C 601.71887,27.60505 596.17261,23.154905 589.90215,23.612093 C 589.21936,23.672794 588.54307,23.791805 587.88067,23.967761 L 549.82924,32.859439 L 548.52122,26.575986 C 547.38579,20.706777 542.05536,16.577207 536.1545,16.854418 z M 540.07855,103.6372 L 547.45101,139.20391 C 548.11836,142.4262 547.32206,144.54688 544.83498,147.38425 C 542.34791,150.22163 537.81396,152.97481 533.06282,154.14193 C 528.31168,155.30904 523.65815,154.89496 520.57719,153.43059 C 517.49623,151.96623 515.26312,150.04453 513.91819,144.18324 C 511.34758,132.98018 511.79831,125.40087 513.32364,120.47211 C 514.84897,115.54333 517.2502,112.75889 521.05284,110.15776 C 525.57886,107.0618 532.55057,105.12345 540.07855,103.6372 z "
         id="path4362" />
      <path
         sodipodi:type="arc"
         style="fill:#dc5f1b;fill-opacity:1;stroke:#000000;stroke-width:1;stroke-linecap:round;stroke-linejoin:round;stroke-miterlimit:4;stroke-dasharray:none;stroke-opacity:1"
         id="path4364"
         sodipodi:cx="-595.91516"
         sodipodi:cy="473.84482"
         sodipodi:rx="14.796256"
         sodipodi:ry="19.511547"
         d="M -581.11891 473.84482 A 14.796256 19.511547 0 1 1  -610.71142,473.84482 A 14.796256 19.511547 0 1 1  -581.11891 473.84482 z"
         transform="matrix(4.289196,0,0,3.240467,2997.271,-1428.828)" />
      <path
         sodipodi:type="arc"
         style="fill:#39613f;fill-opacity:1;stroke:#000000;stroke-width:1;stroke-linecap:round;stroke-linejoin:round;stroke-miterlimit:4;stroke-dasharray:none;stroke-opacity:1"
         id="path4366"
         sodipodi:cx="-625.99542"
         sodipodi:cy="473.84482"
         sodipodi:rx="19.836739"
         sodipodi:ry="20.812317"
         d="M -606.15868 473.84482 A 19.836739 20.812317 0 1 1  -645.83216,473.84482 A 19.836739 20.812317 0 1 1  -606.15868 473.84482 z"
         transform="matrix(3.805144,0,0,3.706951,2718.716,-1648.02)" />
      <path
         sodipodi:type="arc"
         style="fill:#513065;fill-opacity:1;stroke:#000000;stroke-width:1;stroke-linecap:round;stroke-linejoin:round;stroke-miterlimit:4;stroke-dasharray:none;stroke-opacity:1"
         id="path4368"
         sodipodi:cx="-651.36047"
         sodipodi:cy="472.86926"
         sodipodi:rx="20.161932"
         sodipodi:ry="23.088663"
         d="M -631.19854 472.86926 A 20.161932 23.088663 0 1 1  -671.52241,472.86926 A 20.161932 23.088663 0 1 1  -631.19854 472.86926 z"
         transform="matrix(3.805144,0,0,3.793783,2715.004,-1684.846)" />
      <path
         sodipodi:type="arc"
         style="fill:#df1c44;fill-opacity:1;stroke:#000000;stroke-width:1;stroke-linecap:round;stroke-linejoin:round;stroke-miterlimit:4;stroke-dasharray:none;stroke-opacity:1"
         id="path4370"
         sodipodi:cx="-677.37585"
         sodipodi:cy="475.3082"
         sodipodi:rx="26.015396"
         sodipodi:ry="28.129147"
         d="M -651.36046 475.3082 A 26.015396 28.129147 0 1 1  -703.39125,475.3082 A 26.015396 28.129147 0 1 1  -651.36046 475.3082 z"
         transform="matrix(3.71167,0,0,3.621488,2643.027,-1605.42)" />
      <path
         style="fill:#ffff00;fill-opacity:1;fill-rule:evenodd;stroke:#000000;stroke-width:3.79945874px;stroke-linecap:butt;stroke-linejoin:miter;stroke-opacity:1"
         d="M 84.415869,38.070844 L 93.252706,77.317259 C 107.68984,92.147459 148.50716,90.85427 175.19396,86.928617 C 175.19396,86.928617 162.80377,76.03185 171.9806,48.483184 C 139.60648,53.281181 112.4151,47.666838 84.415869,38.070844 z "
         id="path4372"
         sodipodi:nodetypes="ccccc" />
      <path
         style="fill:#ffff00;fill-opacity:1;fill-rule:evenodd;stroke:#000000;stroke-width:3.79945874px;stroke-linecap:butt;stroke-linejoin:miter;stroke-opacity:1"
         d="M 76.382411,108.55424 C 81.303945,123.70183 97.257355,122.76666 110.20226,121.1551 C 111.07726,157.79443 158.28287,155.07292 178.40733,149.40255 L 165.26729,159.60057 L 181.62074,164.6205 L 165.77642,177.21374 L 180.52319,183.05002 C 95.368513,215.88885 33.805099,165.42148 76.382411,108.55424 z "
         id="path4374"
         sodipodi:nodetypes="cccccccc" />
      <path
         style="fill:#ffff00;fill-opacity:1;fill-rule:evenodd;stroke:#000000;stroke-width:3.79945874px;stroke-linecap:butt;stroke-linejoin:miter;stroke-opacity:1"
         d="M 243.70756,60.451696 L 216.14579,87.931162 L 190.77147,63.94114 L 184.64662,92.729161 L 200.3962,109.30404 C 166.7096,157.28409 211.33339,214.42399 299.26855,163.82684 L 283.08151,154.66702 L 293.14376,148.12431 L 278.70662,145.94341 L 285.70644,133.29411 C 229.70794,152.04996 218.33322,130.24084 264.70701,70.047689 L 243.70756,60.451696 z "
         id="path4376"
         sodipodi:nodetypes="cccccccccccc" />
      <path
         style="fill:#ffff00;fill-opacity:1;fill-rule:evenodd;stroke:#000000;stroke-width:3.79945874px;stroke-linecap:butt;stroke-linejoin:miter;stroke-opacity:1"
         d="M 320.2126,46.019123 C 317.8488,53.133337 315.86628,59.964536 314.14815,66.410704 C 303.93731,66.441206 294.04093,65.485666 284.77719,63.091143 C 289.04485,74.445556 293.04764,82.93126 309.74845,85.498172 C 308.65002,91.289154 307.91456,96.821589 307.37023,101.97742 C 299.90431,101.61405 292.63124,100.67922 285.72847,98.894971 C 289.62175,109.25325 293.24863,117.08949 306.53786,120.35355 C 308.08008,187.57741 365.21999,183.43212 391.55904,142.04925 C 382.90063,143.38492 375.44849,141.77424 374.55481,141.57503 L 385.4946,130.6679 L 373.24679,131.49779 L 377.40865,119.40511 C 375.01549,121.07707 348.90403,138.77908 338.04921,121.302 C 346.31892,120.53633 356.07288,119.13115 367.53907,117.15254 L 363.97175,97.116634 C 353.75817,98.759075 343.51575,100.21824 333.41168,101.14752 C 333.30567,96.704097 333.48748,91.567315 334.12514,85.735281 C 343.03197,85.034461 353.67422,83.577079 366.58778,81.348722 L 363.13937,61.312808 C 354.62106,62.68263 346.04267,63.941937 337.57356,64.869479 C 337.78269,63.864354 337.94187,62.822126 338.16812,61.787032 L 320.2126,46.019123 z "
         id="path4378" />
      <path
         style="fill:#ffff00;fill-opacity:1;fill-rule:evenodd;stroke:#000000;stroke-width:3.79945874px;stroke-linecap:butt;stroke-linejoin:miter;stroke-opacity:1"
         d="M 451.95203,110.17647 C 430.50704,174.83746 391.25052,135.9112 391.57863,106.68701 C 391.90675,77.026618 417.61488,55.544779 442.76477,56.08987 C 467.9204,56.635074 527.20004,89.239713 476.45138,150.74141 L 476.45138,130.677 L 464.63918,141.14538 L 465.95165,129.36849 L 456.32689,128.93228 C 470.32649,116.28301 473.71707,115.73776 469.45155,104.94226 C 465.18602,94.146747 450.85829,84.114581 439.26485,85.750266 C 427.67141,87.385959 420.78254,104.52646 421.32782,111.48502 C 421.87469,118.46394 430.94452,127.62076 451.95203,110.17647 z "
         id="path4380"
         sodipodi:nodetypes="czzcccccsszc" />
      <path
         style="fill:#ffff00;fill-opacity:1;fill-rule:evenodd;stroke:#000000;stroke-width:3.79945874;stroke-linecap:round;stroke-linejoin:round;stroke-miterlimit:4;stroke-dasharray:none;stroke-opacity:1"
         d="M 574.44376,47.560346 C 569.18326,47.933845 564.7855,51.691245 563.60964,56.816986 C 562.43377,61.942689 564.75597,67.232512 569.3306,69.848819 L 585.02681,79.096164 C 590.74031,82.435453 598.08721,80.524602 601.43649,74.828158 C 604.78578,69.131718 602.86921,61.806759 597.15571,58.467471 L 581.34057,49.220126 C 579.26229,47.985705 576.85801,47.407077 574.44376,47.560346 z "
         id="path4382" />
      <path
         sodipodi:type="star"
         style="fill:#ffff00;fill-opacity:1;stroke:#000000;stroke-opacity:1"
         id="path4384"
         sodipodi:sides="5"
         sodipodi:cx="-651.09149"
         sodipodi:cy="452.31866"
         sodipodi:r1="9.5205603"
         sodipodi:r2="4.7602801"
         sodipodi:arg1="0.74268911"
         sodipodi:arg2="1.3710076"
         inkscape:flatsided="false"
         inkscape:rounded="-1.4224733e-016"
         inkscape:randomized="0"
         d="M -644.07815,458.75715 L -650.14676,456.98426 L -655.04761,460.97835 L -655.23679,454.65891 L -660.54985,451.23216 L -654.59816,449.09942 L -652.98096,442.98748 L -649.11343,447.98882 L -642.80089,447.63818 L -646.36231,452.86191 L -644.07815,458.75715 z "
         transform="matrix(3.769429,0.518564,-0.520117,3.758174,2925.577,-1336.984)" />
      <path
         sodipodi:type="star"
         style="fill:#ffff00;fill-opacity:1;stroke:#000000;stroke-opacity:1"
         id="path4386"
         sodipodi:sides="5"
         sodipodi:cx="-640.28406"
         sodipodi:cy="451.05396"
         sodipodi:r1="6.1206193"
         sodipodi:r2="3.0603096"
         sodipodi:arg1="1.081944"
         sodipodi:arg2="1.7102625"
         inkscape:flatsided="false"
         inkscape:rounded="0"
         inkscape:randomized="0"
         d="M -637.40974,456.45768 L -640.70949,454.08455 L -644.53509,455.45744 L -643.29779,451.58585 L -645.78566,448.37173 L -641.72122,448.35209 L -639.4332,444.99276 L -638.15854,448.85221 L -634.25659,449.99016 L -637.53325,452.39507 L -637.40974,456.45768 z "
         transform="matrix(3.759634,0.585001,-0.586752,3.748409,2949.103,-1291.215)" />
      <path
         style="fill:#ffff00;fill-opacity:1;fill-rule:evenodd;stroke:#000000;stroke-width:3.79945874;stroke-linecap:round;stroke-linejoin:round;stroke-miterlimit:4;stroke-dasharray:none;stroke-opacity:1"
         d="M 673.02076,8.5555187 C 672.78069,8.5706182 672.54771,8.6443689 672.3073,8.6740748 C 667.09573,9.3063459 662.90322,13.246113 661.96206,18.395642 L 657.9191,39.024335 L 629.26161,34.637774 C 628.43566,34.511592 627.59872,34.471872 626.76448,34.519218 C 620.4269,34.588797 615.18832,39.589306 614.87341,45.900566 C 614.55857,52.211789 619.27603,57.652529 625.57538,58.348915 L 653.28158,62.616921 L 649.47643,81.941499 L 623.07825,77.910606 C 622.29541,77.752785 621.49873,77.673344 620.70003,77.673495 C 614.3416,77.683777 609.1564,82.606328 608.80896,88.936286 C 608.46152,95.266329 613.07269,100.80115 619.39201,101.50319 L 644.83891,105.41554 L 639.25011,133.63179 C 636.53229,147.38873 641.42638,160.45896 649.71425,169.43562 C 658.00212,178.41227 669.26588,184.00264 681.34451,186.03341 C 693.42314,188.06419 706.57109,186.44113 717.85011,179.39429 C 729.12913,172.34745 737.79972,159.81789 740.68096,143.2348 C 741.83023,136.71989 737.46472,130.50962 730.93029,129.36378 C 724.39587,128.21794 718.16701,132.57044 717.01774,139.08535 C 715.08662,150.19985 710.58495,155.82962 705.12666,159.23982 C 699.66837,162.65001 692.56102,163.76546 685.38748,162.55938 C 678.21395,161.3533 671.38219,157.71939 667.31305,153.31203 C 663.2439,148.90468 661.56412,144.48303 662.79443,138.25546 L 668.50215,108.9722 L 707.86161,115.01854 C 712.21989,115.94627 716.78513,114.40467 719.63377,110.98765 C 722.48234,107.57062 723.12909,102.87882 721.41743,98.776413 C 719.70577,94.674007 715.86786,91.820477 711.42893,91.425958 L 673.13968,85.616731 L 676.94481,66.173593 L 713.92605,71.864266 C 720.4933,72.879141 726.58288,68.4532 727.60079,61.905586 C 728.6187,55.357936 724.17955,49.167999 717.61228,48.153124 L 681.58233,42.699562 L 685.50639,23.019315 C 686.31213,19.239039 685.2729,15.315736 682.65253,12.467857 C 680.19585,9.7980206 676.62191,8.3292958 673.02076,8.5555187 z "
         id="path4388" />
      <path
         style="fill:#ffff00;fill-opacity:1;fill-rule:evenodd;stroke:#000000;stroke-width:3.79945874;stroke-linecap:round;stroke-linejoin:round;stroke-miterlimit:4;stroke-dasharray:none;stroke-opacity:1"
         d="M 772.07341,13.416302 C 767.2129,13.84151 763.0223,17.227916 761.60926,21.952314 L 755.66372,40.802671 L 735.92454,38.550112 C 735.13771,38.432013 734.34103,38.392291 733.54632,38.431557 C 727.2957,38.819053 722.3433,43.925257 722.2498,50.168571 C 722.15639,56.411847 726.95335,61.687937 733.18959,62.261254 L 748.29125,64.039589 L 737.11365,99.13208 C 735.66244,103.62099 737.04211,108.54817 740.56205,111.69899 C 744.082,114.84983 749.0839,115.63499 753.40442,113.71443 C 784.41082,99.963447 804.16926,100.07145 814.1678,104.11143 C 824.16635,108.15138 827.20313,115.12446 826.65344,124.38444 C 826.10374,133.64442 820.38062,144.14694 810.60048,149.99248 C 800.82036,155.83802 786.79668,158.15177 766.60351,149.04403 C 762.65591,146.85384 757.86157,147.11569 754.11788,149.63681 C 750.37415,152.15796 748.322,156.5492 748.88581,161.01816 C 749.44957,165.48709 752.48065,169.2215 756.73393,170.73972 C 782.47705,182.35064 806.15623,180.55044 822.9672,170.50261 C 839.77818,160.45479 849.51828,143.26329 850.55449,125.80711 C 851.59071,108.35093 842.28577,89.651192 823.20502,81.941499 C 808.77668,76.111634 790.31146,76.109471 767.31697,83.008501 L 772.43013,66.766371 L 825.58324,72.812712 C 832.18334,73.532961 838.17884,68.841608 838.90125,62.261254 C 839.62361,55.6809 834.79937,49.703265 828.19928,48.983015 L 779.92152,43.529452 L 784.44013,29.184211 C 785.67588,25.527802 785.04035,21.524223 782.77538,18.395642 C 780.51036,15.267138 776.89463,13.398396 773.02469,13.416302 C 772.69505,13.418275 772.39745,13.387963 772.07341,13.416302 z "
         id="path4390" />
      <path
         style="fill:#ffff00;fill-opacity:1;fill-rule:evenodd;stroke:#000000;stroke-width:3.79945874;stroke-linecap:round;stroke-linejoin:round;stroke-miterlimit:4;stroke-dasharray:none;stroke-opacity:1"
         d="M 861.01863,61.905586 C 857.43899,62.291832 854.18544,64.32951 852.21924,67.35915 C 850.15633,70.53777 849.69697,74.484176 851.03013,78.029163 L 857.92696,96.998075 L 846.1548,101.02897 C 839.88308,103.18968 836.49624,110.06963 838.66342,116.32265 C 840.83064,122.57568 847.73119,125.83382 854.00291,123.67311 L 866.1318,119.40511 L 884.32515,169.19851 C 885.58366,173.47205 889.0987,176.63421 893.48127,177.49741 C 897.86384,178.36061 902.34063,176.82333 905.13452,173.34795 C 907.92848,169.87263 908.59842,165.09492 906.79927,161.01816 L 888.84375,111.58043 L 921.78203,100.08052 C 924.77933,99.039438 926.71308,99.097819 927.60866,99.250639 C 927.70663,99.269828 927.89567,99.349687 927.96538,99.369188 C 927.98551,99.37549 928.06724,99.363236 928.08429,99.369188 C 928.11222,99.38012 928.18155,99.362319 928.2032,99.369188 C 928.21439,99.370407 928.31508,99.369604 928.32212,99.369188 C 928.31698,99.371616 928.32839,99.473934 928.32212,99.487747 C 928.32124,99.503602 928.32082,99.584754 928.32212,99.606306 C 928.33045,99.662373 928.29799,99.756423 928.32212,99.843414 C 928.32816,99.865155 928.31663,99.937039 928.32212,99.961964 C 928.62368,101.70054 927.71033,109.44305 917.73906,118.3381 C 912.81361,122.75778 912.3549,130.38082 916.78778,135.29157 C 921.2207,140.20232 928.86656,140.54114 933.79201,136.12146 C 948.43592,123.05814 955.46608,107.70515 951.50974,93.441402 C 949.53156,86.309546 943.99569,79.867516 936.88369,77.080717 C 933.32768,75.687299 929.56476,75.197484 925.70608,75.302381 C 921.8474,75.40728 917.84484,76.1965 913.93392,77.554941 L 880.63891,89.054845 L 873.62318,69.848819 C 871.82939,64.784878 866.86806,61.535655 861.49428,61.905586 C 861.31666,61.916854 861.1947,61.886579 861.01863,61.905586 z "
         id="path4392" />
      <path
         style="fill:#f371a0;fill-opacity:1;fill-rule:evenodd;stroke:#000000;stroke-width:3.79945874px;stroke-linecap:butt;stroke-linejoin:miter;stroke-opacity:1"
         d="M 904.75249,37.770225 C 941.06402,19.886751 935.37666,72.664792 899.94012,84.877892 C 868.00348,64.592116 870.21613,13.675228 904.75249,37.770225 z "
         id="path4394"
         sodipodi:nodetypes="ccc" />
    </g>
  </g>
</svg>
