<?xml version="1.0" encoding="UTF-8" standalone="no"?>
<!-- Created with Inkscape (http://www.inkscape.org/) -->

<svg
   xmlns:dc="http://purl.org/dc/elements/1.1/"
   xmlns:cc="http://creativecommons.org/ns#"
   xmlns:rdf="http://www.w3.org/1999/02/22-rdf-syntax-ns#"
   xmlns:svg="http://www.w3.org/2000/svg"
   xmlns="http://www.w3.org/2000/svg"
   xmlns:sodipodi="http://sodipodi.sourceforge.net/DTD/sodipodi-0.dtd"
   xmlns:inkscape="http://www.inkscape.org/namespaces/inkscape"
   width="847.79999"
   height="450"
   id="svg3299"
   version="1.1"
   inkscape:version="0.47 r22583"
   sodipodi:docname="New document 10">
  <defs
     id="defs3301">
    <inkscape:perspective
       sodipodi:type="inkscape:persp3d"
       inkscape:vp_x="0 : 526.18109 : 1"
       inkscape:vp_y="0 : 1000 : 0"
       inkscape:vp_z="744.09448 : 526.18109 : 1"
       inkscape:persp3d-origin="372.04724 : 350.78739 : 1"
       id="perspective3307" />
    <inkscape:perspective
       id="perspective3317"
       inkscape:persp3d-origin="0.5 : 0.33333333 : 1"
       inkscape:vp_z="1 : 0.5 : 1"
       inkscape:vp_y="0 : 1000 : 0"
       inkscape:vp_x="0 : 0.5 : 1"
       sodipodi:type="inkscape:persp3d" />
  </defs>
  <sodipodi:namedview
     id="base"
     pagecolor="#ffffff"
     bordercolor="#666666"
     borderopacity="1.0"
     inkscape:pageopacity="0.0"
     inkscape:pageshadow="2"
     inkscape:zoom="1.1591814"
     inkscape:cx="445.71429"
     inkscape:cy="334.28571"
     inkscape:document-units="px"
     inkscape:current-layer="layer1"
     showgrid="false"
     units="in"
     showguides="true"
     inkscape:guide-bbox="true"
     inkscape:window-width="1600"
     inkscape:window-height="886"
     inkscape:window-x="71"
     inkscape:window-y="186"
     inkscape:window-maximized="0">
    <sodipodi:guide
       orientation="0,1"
       position="-471.42857,416.25"
       id="guide3403" />
    <sodipodi:guide
       orientation="1,0"
       position="106.02,183.75036"
       id="guide3405" />
  </sodipodi:namedview>
  <metadata
     id="metadata3304">
    <rdf:RDF>
      <cc:Work
         rdf:about="">
        <dc:format>image/svg+xml</dc:format>
        <dc:type
           rdf:resource="http://purl.org/dc/dcmitype/StillImage" />
        <dc:title></dc:title>
      </cc:Work>
    </rdf:RDF>
  </metadata>
  <g
     inkscape:label="Layer 1"
     inkscape:groupmode="layer"
     id="layer1"
     transform="translate(0,-602.35975)">
    <g
       id="g4437"
       transform="matrix(0,1,-1,0,832.86375,89.48475)">
      <g
         id="g4409">
        <path
           style="fill:#800080;fill-opacity:1;stroke:none"
           d="m 546.625,45.625 39,22.5 132,0 0,-22.5 -171,0 z"
           id="rect4207-1" />
        <path
           style="fill:#ff8000;fill-opacity:1;stroke:none"
           d="m 585.625,113.125 -39,22.5 171,0 0,-22.5 -132,0 z"
           id="rect4209-1" />
        <path
           style="fill:#ff0000;fill-opacity:1;stroke:none"
           d="m 624.59375,90.625 -38.96875,22.5 132,0 0,-22.5 -93.03125,0 z"
           id="rect4211-9" />
        <path
           style="fill:#803300;fill-opacity:1;stroke:none"
           d="m 585.625,68.125 38.96875,22.5 93.03125,0 0,-22.5 -132,0 z"
           id="rect4213-7" />
        <path
           style="fill:#ff8000;fill-opacity:1;stroke:none"
           d="m 549.63102,90.620496 c 0,1.043259 0.0775,2.068402 0.21516,3.07405 l 13.84735,3.957199 0,-3.515634 9.14062,4.218735 -9.14062,-13.359361 0,2.812515 -9.77625,-10.38657 c -2.69335,3.708947 -4.28626,8.268061 -4.28626,13.199066 z m 4.69547,13.744684 c 4.11621,5.32272 10.56027,8.75532 17.80454,8.75532 3.98903,0 7.7344,-1.04416 10.98423,-2.86736 l -28.78877,-5.88796 0,0 z m 5.95688,-32.868294 11.14453,12.79548 17.03111,-9.137815 c -4.10153,-4.328336 -9.8989,-7.03406 -16.32798,-7.03406 -4.34725,0 -8.40569,1.23841 -11.84766,3.376395 l 0,0 z m 17.47266,19.826729 7.73438,9.843745 6.03,0.86204 c 1.97423,-3.34621 3.11062,-7.245071 3.11062,-11.408904 0,-2.500395 -0.41467,-4.903242 -1.16858,-7.150773 l -15.70642,7.853892 z"
           id="path4217-2" />
      </g>
      <g
         id="g4416">
        <path
           style="fill:#800080;fill-opacity:1;stroke:none"
           d="m 546.625,257.75 39,22.5 132,0 0,-22.5 -171,0 z"
           id="rect4736" />
        <path
           style="fill:#ff8000;fill-opacity:1;stroke:none"
           d="m 585.625,325.25 -39,22.5 171,0 0,-22.5 -132,0 z"
           id="rect4738" />
        <path
           style="fill:#ff0000;fill-opacity:1;stroke:none"
           d="m 624.59375,302.75 -38.96875,22.5 132,0 0,-22.5 -93.03125,0 z"
           id="rect4740" />
        <path
           style="fill:#803300;fill-opacity:1;stroke:none"
           d="m 585.625,280.25 38.96875,22.5 93.03125,0 0,-22.5 -132,0 z"
           id="rect4742" />
        <path
           id="path4746"
           d="m 549.63102,302.7505 c 0,1.04326 0.0775,2.0684 0.21516,3.07405 l 13.84735,3.95719 0,-3.51563 9.14062,4.21874 -9.14062,-13.35936 0,2.81251 -9.77625,-10.38657 c -2.69335,3.70895 -4.28626,8.26806 -4.28626,13.19907 z m 4.69547,13.74468 c 4.11621,5.32272 10.56027,8.75532 17.80454,8.75532 3.98903,0 7.7344,-1.04416 10.98423,-2.86736 l -28.78877,-5.88796 0,0 z m 5.95688,-32.86829 11.14453,12.79548 17.03111,-9.13782 c -4.10153,-4.32833 -9.8989,-7.03406 -16.32798,-7.03406 -4.34725,0 -8.40569,1.23841 -11.84766,3.3764 l 0,0 z m 17.47266,19.82672 7.73438,9.84375 6.03,0.86204 c 1.97423,-3.34621 3.11062,-7.24507 3.11062,-11.4089 0,-2.5004 -0.41467,-4.90325 -1.16858,-7.15078 l -15.70642,7.85389 z"
           style="fill:#ff8000;fill-opacity:1;stroke:none" />
      </g>
      <g
         id="g4430">
        <path
           style="fill:#800080;fill-opacity:1;stroke:none"
           d="m 546.625,681.84375 39,22.5 132,0 0,-22.5 -171,0 z"
           id="rect4764" />
        <path
           style="fill:#ff8000;fill-opacity:1;stroke:none"
           d="m 585.625,749.34375 -39,22.5 171,0 0,-22.5 -132,0 z"
           id="rect4766" />
        <path
           style="fill:#ff0000;fill-opacity:1;stroke:none"
           d="m 624.59375,726.84375 -38.96875,22.5 132,0 0,-22.5 -93.03125,0 z"
           id="rect4768" />
        <path
           style="fill:#803300;fill-opacity:1;stroke:none"
           d="m 585.625,704.34375 38.96875,22.5 93.03125,0 0,-22.5 -132,0 z"
           id="rect4770" />
        <path
           id="path4774"
           d="m 549.63102,726.8305 c 0,1.04326 0.0775,2.0684 0.21516,3.07405 l 13.84735,3.95719 0,-3.51563 9.14062,4.21874 -9.14062,-13.35936 0,2.81251 -9.77625,-10.38657 c -2.69335,3.70895 -4.28626,8.26806 -4.28626,13.19907 z m 4.69547,13.74468 c 4.11621,5.32272 10.56027,8.75532 17.80454,8.75532 3.98903,0 7.7344,-1.04416 10.98423,-2.86736 l -28.78877,-5.88796 0,0 z m 5.95688,-32.86829 11.14453,12.79548 17.03111,-9.13782 c -4.10153,-4.32833 -9.8989,-7.03406 -16.32798,-7.03406 -4.34725,0 -8.40569,1.23841 -11.84766,3.3764 l 0,0 z m 17.47266,19.82672 7.73438,9.84375 6.03,0.86204 c 1.97423,-3.34621 3.11062,-7.24507 3.11062,-11.4089 0,-2.5004 -0.41467,-4.90325 -1.16858,-7.15078 l -15.70642,7.85389 z"
           style="fill:#ff8000;fill-opacity:1;stroke:none" />
      </g>
      <g
         id="g4423">
        <path
           style="fill:#800080;fill-opacity:1;stroke:none"
           d="m 546.625,469.78125 39,22.5 132,0 0,-22.5 -171,0 z"
           id="rect4338" />
        <path
           style="fill:#ff8000;fill-opacity:1;stroke:none"
           d="m 585.625,537.28125 -39,22.5 171,0 0,-22.5 -132,0 z"
           id="rect4340" />
        <path
           style="fill:#ff0000;fill-opacity:1;stroke:none"
           d="m 624.59375,514.78125 -38.96875,22.5 132,0 0,-22.5 -93.03125,0 z"
           id="rect4342" />
        <path
           style="fill:#803300;fill-opacity:1;stroke:none"
           d="m 585.625,492.28125 38.96875,22.5 93.03125,0 0,-22.5 -132,0 z"
           id="rect4344" />
        <path
           id="path4348"
           d="m 549.63102,514.7905 c 0,1.04326 0.0775,2.0684 0.21516,3.07405 l 13.84735,3.95719 0,-3.51563 9.14062,4.21874 -9.14062,-13.35936 0,2.81251 -9.77625,-10.38657 c -2.69335,3.70895 -4.28626,8.26806 -4.28626,13.19907 z m 4.69547,13.74468 c 4.11621,5.32272 10.56027,8.75532 17.80454,8.75532 3.98903,0 7.7344,-1.04416 10.98423,-2.86736 l -28.78877,-5.88796 0,0 z m 5.95688,-32.86829 11.14453,12.79548 17.03111,-9.13782 c -4.10153,-4.32833 -9.8989,-7.03406 -16.32798,-7.03406 -4.34725,0 -8.40569,1.23841 -11.84766,3.3764 l 0,0 z m 17.47266,19.82672 7.73438,9.84375 6.03,0.86204 c 1.97423,-3.34621 3.11062,-7.24507 3.11062,-11.4089 0,-2.5004 -0.41467,-4.90325 -1.16858,-7.15078 l -15.70642,7.85389 z"
           style="fill:#ff8000;fill-opacity:1;stroke:none" />
      </g>
    </g>
  </g>
</svg>
